<svg width="110" height="110" viewBox="0 0 110 110" fill="none" xmlns="http://www.w3.org/2000/svg">
<circle cx="55" cy="55" r="55" fill="#161616"/>
<path d="M56.1875 62.9375H46.3125L45.875 64.2812C45.5417 65.1771 45.5625 65.9271 45.9375 66.5312C46.3125 67.1146 47.1042 67.4062 48.3125 67.4062H50.0938V79H30.625V67.4062H31.9062C33.4062 67.4062 34.4062 67.1146 34.9062 66.5312C35.4271 65.9271 35.9271 65.0521 36.4062 63.9062L42.8125 48.0938C43.2708 46.8854 43.3438 46 43.0312 45.4375C42.7396 44.8542 41.8333 44.5625 40.3125 44.5625H39.6562V32.9688H71.7812V44.5625H71.1562C69.6146 44.5625 68.6875 44.8646 68.375 45.4688C68.0833 46.0729 68.1771 46.9479 68.6562 48.0938L75.0625 63.9062C75.3125 64.4896 75.5312 65 75.7188 65.4375C75.9271 65.8542 76.1771 66.2188 76.4688 66.5312C76.7604 66.8229 77.1458 67.0417 77.625 67.1875C78.125 67.3333 78.7604 67.4062 79.5312 67.4062H80.8125V79H52.4062V67.4062H54.125C55.3125 67.4062 56.1042 67.1146 56.5 66.5312C56.9167 65.9271 56.9583 65.1771 56.625 64.2812L56.1875 62.9375ZM47.9062 58.0625H54.5625L51.4375 48.4688H51.1875L47.9062 58.0625Z" fill="#E31329"/>
</svg>
