<svg xmlns="http://www.w3.org/2000/svg" xmlns:xlink="http://www.w3.org/1999/xlink" viewBox="0 0 129.41 113.48"><defs><linearGradient id="a" x1="45.74" y1="113.2" x2="45.74" y2="24.65" gradientUnits="userSpaceOnUse"><stop offset="0" stop-color="#011863"/><stop offset="1" stop-color="#32329f"/></linearGradient><linearGradient id="b" x1="104.16" y1="113.48" x2="104.16" y2="24.65" gradientUnits="userSpaceOnUse"><stop offset="0" stop-color="#140016"/><stop offset="1" stop-color="#19103b"/></linearGradient><linearGradient id="c" x1="50.56" y1="61.18" x2="44.55" y2="38.69" gradientUnits="userSpaceOnUse"><stop offset="0" stop-color="#c37ca5"/><stop offset="1" stop-color="#db6d57"/></linearGradient><linearGradient id="d" x1="52.45" y1="91.05" x2="45.1" y2="63.55" xlink:href="#c"/><linearGradient id="e" x1="11.81" y1="68.53" x2="79.47" y2="68.53" xlink:href="#b"/><linearGradient id="f" x1="11.44" y1="40.95" x2="79.47" y2="40.95" xlink:href="#b"/><linearGradient id="g" x1="2.99" y1="22.59" x2="82.13" y2="22.59" xlink:href="#a"/><linearGradient id="h" x1="81.31" y1="22.59" x2="129.41" y2="22.59" xlink:href="#b"/><linearGradient id="i" x1="10.27" y1="41.27" x2="77.28" y2="41.27" gradientUnits="userSpaceOnUse"><stop offset="0" stop-color="#3959c7"/><stop offset="0.98" stop-color="#5045b8"/></linearGradient><linearGradient id="j" x1="10.61" y1="68.54" x2="76.77" y2="68.54" xlink:href="#i"/><linearGradient id="k" x1="0" y1="98.42" x2="72.03" y2="98.42" xlink:href="#i"/><linearGradient id="l" x1="76.77" y1="110.32" x2="76.77" y2="88.96" xlink:href="#b"/><linearGradient id="m" x1="73.28" y1="110.32" x2="73.28" y2="86.51" xlink:href="#b"/><linearGradient id="n" x1="110.85" y1="113.48" x2="110.85" y2="57.88" gradientUnits="userSpaceOnUse"><stop offset="0" stop-color="#890041"/><stop offset="1" stop-color="#ff936a"/></linearGradient><linearGradient id="o" x1="87.17" y1="95.25" x2="87.17" y2="24.65" gradientUnits="userSpaceOnUse"><stop offset="0" stop-color="#ff936a"/><stop offset="1" stop-color="#890041"/></linearGradient><linearGradient id="p" x1="7.86" y1="31.49" x2="126.25" y2="31.49" gradientUnits="userSpaceOnUse"><stop offset="0" stop-color="#79728b"/><stop offset="1" stop-color="#251868"/></linearGradient><linearGradient id="q" x1="8.53" y1="154.7" x2="8.23" y2="148.21" gradientTransform="matrix(0.98, -0.2, 0.16, 0.79, 1.56, -20.2)" xlink:href="#p"/><radialGradient id="r" cx="32.53" cy="97.47" r="2.42" gradientUnits="userSpaceOnUse"><stop offset="0" stop-color="#383597"/><stop offset="1" stop-color="#130b59"/></radialGradient><linearGradient id="s" x1="31.95" y1="99.69" x2="31.95" y2="95.25" xlink:href="#a"/><linearGradient id="t" x1="22.33" y1="121.86" x2="22.03" y2="115.37" gradientTransform="matrix(0.98, -0.2, 0.16, 0.79, 1.56, -20.2)" xlink:href="#p"/><radialGradient id="u" cx="40.64" cy="68.62" r="2.42" xlink:href="#r"/><linearGradient id="v" x1="40.06" y1="70.85" x2="40.06" y2="66.4" xlink:href="#a"/><linearGradient id="w" x1="28.13" y1="87.56" x2="27.83" y2="81.07" gradientTransform="matrix(0.98, -0.2, 0.16, 0.79, 1.56, -20.2)" xlink:href="#p"/><radialGradient id="x" cx="40.67" cy="40.25" r="2.42" xlink:href="#r"/><linearGradient id="y" x1="40.09" y1="42.48" x2="40.09" y2="38.03" xlink:href="#a"/><linearGradient id="z" x1="17.91" y1="93" x2="27.99" y2="93" gradientUnits="userSpaceOnUse"><stop offset="0" stop-color="#db6d57"/><stop offset="1" stop-color="#890050"/></linearGradient><linearGradient id="aa" x1="24.26" y1="99.41" x2="24.26" y2="83.55" gradientUnits="userSpaceOnUse"><stop offset="0.02" stop-color="#4106a7"/><stop offset="1" stop-color="#6d4ac7"/></linearGradient><linearGradient id="ab" x1="99.38" y1="10.19" x2="124.49" y2="10.19" xlink:href="#b"/><linearGradient id="ac" x1="84.34" y1="18.57" x2="113.46" y2="18.57" xlink:href="#b"/><linearGradient id="ad" x1="111.37" y1="16.76" x2="111.37" y2="0" xlink:href="#a"/><linearGradient id="ae" x1="92.81" y1="20.37" x2="92.81" y2="16.76" xlink:href="#a"/></defs><title>dresser group</title><g style="isolation:isolate"><polygon points="7 111.78 7.92 24.65 82.02 24.65 84.48 113.2 7 111.78" style="fill-rule:evenodd;fill:url(#a)"/><polygon points="82.02 24.65 126.25 24.65 126.3 113.48 84.48 113.2 82.02 24.65" style="fill-rule:evenodd;fill:url(#b)"/><polygon points="11.07 85.21 9.85 108.56 79.47 110.32 79.47 85.21 11.07 85.21" style="fill:#02041e;fill-rule:evenodd"/><polygon points="76.79 30.08 79.47 31.36 81.31 33.69 81.31 52.97 13.75 53.68 10.27 52.97 77.28 51.82 76.79 30.08" style="fill-rule:evenodd;opacity:0.5;mix-blend-mode:multiply;fill:url(#c)"/><polygon points="12.43 81.82 14.25 82.89 81.31 83.34 80.94 57.1 76.15 55.26 77.28 80.61 12.43 81.82" style="fill-rule:evenodd;opacity:0.5;mix-blend-mode:multiply;fill:url(#d)"/><polygon points="11.81 80.61 11.81 55.98 78.98 55.24 79.47 81.82 11.81 80.61" style="fill-rule:evenodd;fill:url(#e)"/><polygon points="11.44 51.82 11.67 30.08 79.47 30.08 79.47 51.82 11.44 51.82" style="fill-rule:evenodd;fill:url(#f)"/><polygon points="2.99 24.8 2.99 20.37 82.13 20.37 81.31 24.8 2.99 24.8" style="fill-rule:evenodd;fill:url(#g)"/><polygon points="82.13 20.37 129.41 20.37 129.41 24.8 81.31 24.8 82.13 20.37" style="fill-rule:evenodd;fill:url(#h)"/><polygon points="76.79 30.08 77.28 51.82 10.27 52.97 10.27 29.57 76.79 30.08" style="fill-rule:evenodd;fill:url(#i)"/><polygon points="10.61 55.26 10.89 81.82 76.77 81.8 76.15 55.26 10.61 55.26" style="fill-rule:evenodd;fill:url(#j)"/><polygon points="1.11 86.51 72.03 86.51 72.03 110.32 0 109.82 1.11 86.51" style="fill-rule:evenodd;fill:url(#k)"/><polygon points="74.07 88.96 79.47 88.96 79.47 110.32 74.54 110.32 74.07 88.96" style="fill-rule:evenodd;fill:url(#l)"/><polygon points="72.03 86.51 74.46 86.93 74.54 110.32 72.03 110.32 72.03 86.51" style="fill-rule:evenodd;fill:url(#m)"/><polygon points="95.39 113.24 97.16 91.5 100.93 91.02 100.93 93.73 104.82 93.73 105.83 62.51 115.04 57.88 115.95 73.02 117.98 73.02 117.98 62.51 126.27 62.51 126.3 113.48 95.39 113.24" style="fill-rule:evenodd;opacity:0.30000000000000004;mix-blend-mode:multiply;fill:url(#n)"/><polygon points="83.86 94.75 88.97 95.25 90.16 60.19 92.32 58.85 92.32 24.8 82.02 24.65 83.86 94.75" style="fill-rule:evenodd;opacity:0.30000000000000004;mix-blend-mode:multiply;fill:url(#o)"/><polygon points="103.36 32.52 102.94 38.32 99.38 37.53 99.38 62.51 104.16 62.51 115.04 57.88 120.89 57.88 120.89 32.52 103.36 32.52" style="fill:#a6e1e5;fill-rule:evenodd;opacity:0.2;mix-blend-mode:soft-light"/><polygon points="27.06 52.68 38.57 30.08 28.4 29.71 18.06 52.97 27.06 52.68" style="fill:#9f91cc;fill-rule:evenodd;mix-blend-mode:soft-light"/><polygon points="79.47 89.47 81.31 91.5 81.31 113.14 7 111.78 7.02 109.87 74.54 110.32 74.54 88.96 76.15 88.96 79.47 108.07 79.47 89.47" style="fill:#ab7750;fill-rule:evenodd;opacity:0.5;mix-blend-mode:multiply"/><polygon points="7.92 24.65 7.86 30.08 82.38 37.53 126.25 38.32 126.25 24.65 7.92 24.65" style="fill-rule:evenodd;mix-blend-mode:multiply;fill:url(#p)"/><polygon points="9.85 109.89 26.08 86.51 10.27 86.51 2.79 110.32 9.85 109.89" style="fill:#9f91cc;fill-rule:evenodd;mix-blend-mode:soft-light"/><polygon points="14.72 81.78 26.08 55.26 50.92 55.08 36.01 81.81 14.72 81.78" style="fill:#9f91cc;fill-rule:evenodd;mix-blend-mode:soft-light"/><path d="M36.4,97.83c.29,1.42-.24,2.74-1.19,2.93s-2-.79-2.25-2.22.24-2.73,1.18-2.93S36.1,96.41,36.4,97.83Z" style="fill-rule:evenodd;mix-blend-mode:multiply;fill:url(#q)"/><path d="M34.9,97.47c0,1.07-.65,1.93-1.46,1.93a2,2,0,0,1,0-3.86C34.25,95.54,34.9,96.4,34.9,97.47Z" style="fill:#1f062f;fill-rule:evenodd"/><path d="M34.6,97.47c0,1.5-.93,2.72-2.07,2.72S30.46,99,30.46,97.47s.93-2.72,2.07-2.72S34.6,96,34.6,97.47Z" style="fill-rule:evenodd;fill:url(#r)"/><path d="M33.44,97.47c0,1.23-.67,2.22-1.49,2.22s-1.49-1-1.49-2.22.67-2.22,1.49-2.22S33.44,96.24,33.44,97.47Z" style="fill-rule:evenodd;fill:url(#s)"/><path d="M44.51,69c.3,1.43-.23,2.74-1.18,2.94s-2-.8-2.25-2.22.23-2.74,1.18-2.94S44.22,67.56,44.51,69Z" style="fill-rule:evenodd;mix-blend-mode:multiply;fill:url(#t)"/><path d="M43,68.62a1.75,1.75,0,0,1-1.47,1.93,2,2,0,0,1,0-3.85A1.74,1.74,0,0,1,43,68.62Z" style="fill:#1f062f;fill-rule:evenodd"/><path d="M42.71,68.62c0,1.51-.93,2.73-2.07,2.73s-2.07-1.22-2.07-2.73.93-2.72,2.07-2.72S42.71,67.12,42.71,68.62Z" style="fill-rule:evenodd;fill:url(#u)"/><path d="M41.55,68.62c0,1.23-.67,2.23-1.49,2.23s-1.49-1-1.49-2.23.67-2.22,1.49-2.22S41.55,67.4,41.55,68.62Z" style="fill-rule:evenodd;fill:url(#v)"/><path d="M44.54,40.61c.3,1.43-.23,2.74-1.18,2.94s-2-.8-2.25-2.23.23-2.73,1.18-2.93S44.25,39.19,44.54,40.61Z" style="fill-rule:evenodd;mix-blend-mode:multiply;fill:url(#w)"/><path d="M43.05,40.25a1.75,1.75,0,0,1-1.47,1.93c-.81,0-1.46-.86-1.46-1.93s.65-1.93,1.46-1.93A1.75,1.75,0,0,1,43.05,40.25Z" style="fill:#1f062f;fill-rule:evenodd"/><path d="M42.74,40.25c0,1.5-.92,2.72-2.07,2.72s-2.07-1.22-2.07-2.72.93-2.72,2.07-2.72S42.74,38.75,42.74,40.25Z" style="fill-rule:evenodd;fill:url(#x)"/><path d="M41.58,40.25c0,1.23-.66,2.23-1.49,2.23s-1.49-1-1.49-2.23S39.27,38,40.09,38,41.58,39,41.58,40.25Z" style="fill-rule:evenodd;fill:url(#y)"/><polygon points="7 24.65 6.4 20.37 20.51 20.37 19.19 24.65 7 24.65" style="fill:#a6e1e5;fill-rule:evenodd;mix-blend-mode:soft-light"/><path d="M17.91,96.46s1.28,2.86,1.74,3S28,86.58,28,86.58H25.1Z" style="fill-rule:evenodd;opacity:0.5;mix-blend-mode:multiply;fill:url(#z)"/><path d="M36.72,86.51s-8.21-.11-9.32.35-9.69,13-10.79,12.54-4.46-11.75-4.77-12.81l0-.08a12.27,12.27,0,0,1,6.58-2.92h0l.42,0s2.93.28,5.38.49l1.09.09.79.06a10.49,10.49,0,0,0,3.29-.29,7.51,7.51,0,0,0,1.09-.35A38.29,38.29,0,0,1,36.72,86.51Z" style="fill-rule:evenodd;fill:url(#aa)"/><path d="M36.72,86.51s-8.21-.11-9.32.35-9.69,13-10.79,12.54-4.46-11.75-4.77-12.81c.3.91,3.29,9.75,4.34,10.46s8.56-11,13.19-13.15a3.36,3.36,0,0,1,1.09-.35A38.29,38.29,0,0,1,36.72,86.51Z" style="fill:#7e1e44;fill-rule:evenodd;opacity:0.30000000000000004;mix-blend-mode:multiply"/><path d="M18.39,83.59s-.55,2.87,0,3.61,6.9-3.07,6.9-3.07Z" style="fill:#7e1e44;fill-rule:evenodd;opacity:0.30000000000000004;mix-blend-mode:multiply"/><polygon points="99.38 16.76 110.14 0.31 123.36 0 124.49 3.22 113.46 20.37 99.38 16.76" style="fill-rule:evenodd;fill:url(#ab)"/><polygon points="84.34 20.37 86.14 16.76 112.33 16.76 113.46 20.37 84.34 20.37" style="fill-rule:evenodd;fill:url(#ac)"/><polygon points="110.14 0.31 123.36 0 112.33 16.76 99.38 16.76 110.14 0.31" style="fill-rule:evenodd;fill:url(#ad)"/><polygon points="86.14 16.76 84.34 20.37 98.9 20.37 101.29 16.76 86.14 16.76" style="fill-rule:evenodd;fill:url(#ae)"/></g></svg>