<svg id="flat" height="512" viewBox="0 0 512 512" width="512" xmlns="http://www.w3.org/2000/svg"><path d="m112 104a24 24 0 0 1 24 24v360a0 0 0 0 1 0 0h-48a0 0 0 0 1 0 0v-360a24 24 0 0 1 24-24z" fill="#4976f2"/><path d="m104 128a8 8 0 0 0 16 0v-64h-16z" fill="#7dafff"/><path d="m64 104a24 24 0 0 1 24 24v360a0 0 0 0 1 0 0h-48a0 0 0 0 1 0 0v-360a24 24 0 0 1 24-24z" fill="#548aff"/><path d="m56 128a8 8 0 0 0 16 0v-64h-16z" fill="#7dafff"/><path d="m208 104a24 24 0 0 1 24 24v360a0 0 0 0 1 0 0h-48a0 0 0 0 1 0 0v-360a24 24 0 0 1 24-24z" fill="#4976f2"/><path d="m200 128a8 8 0 0 0 16 0v-64h-16z" fill="#7dafff"/><path d="m160 104a24 24 0 0 1 24 24v360a0 0 0 0 1 0 0h-48a0 0 0 0 1 0 0v-360a24 24 0 0 1 24-24z" fill="#548aff"/><path d="m152 128a8 8 0 0 0 16 0v-64h-16z" fill="#7dafff"/><path d="m304 104a24 24 0 0 1 24 24v360a0 0 0 0 1 0 0h-48a0 0 0 0 1 0 0v-360a24 24 0 0 1 24-24z" fill="#4976f2"/><path d="m296 128a8 8 0 0 0 16 0v-64h-16z" fill="#7dafff"/><path d="m256 104a24 24 0 0 1 24 24v360a0 0 0 0 1 0 0h-48a0 0 0 0 1 0 0v-360a24 24 0 0 1 24-24z" fill="#548aff"/><path d="m248 128a8 8 0 0 0 16 0v-64h-16z" fill="#7dafff"/><path d="m400 104a24 24 0 0 1 24 24v360a0 0 0 0 1 0 0h-48a0 0 0 0 1 0 0v-360a24 24 0 0 1 24-24z" fill="#4976f2"/><path d="m392 128a8 8 0 0 0 16 0v-64h-16z" fill="#7dafff"/><path d="m352 104a24 24 0 0 1 24 24v360a0 0 0 0 1 0 0h-48a0 0 0 0 1 0 0v-360a24 24 0 0 1 24-24z" fill="#548aff"/><path d="m344 128a8 8 0 0 0 16 0v-64h-16z" fill="#7dafff"/><path d="m448 104a24 24 0 0 1 24 24v360a0 0 0 0 1 0 0h-48a0 0 0 0 1 0 0v-360a24 24 0 0 1 24-24z" fill="#548aff"/><path d="m440 128a8 8 0 0 0 16 0v-64h-16z" fill="#7dafff"/><path d="m24 24h464v48h-464z" fill="#e0edff"/><g fill="#bdd1f2"><path d="m440 312a40.04584 40.04584 0 0 1 -40-40v-200h16v200a24 24 0 0 0 48 0v-48h16v48a40.04584 40.04584 0 0 1 -40 40z"/><path d="m464 192h16v16h-16z"/><path d="m464 72h16v104h-16z"/></g><path d="m24 24h32v48h-32z" fill="#d1e4ff"/><path d="m456 24h32v48h-32z" fill="#d1e4ff"/></svg>