<svg xmlns="http://www.w3.org/2000/svg" xmlns:xlink="http://www.w3.org/1999/xlink" viewBox="0 0 414.33 205.38"><defs><linearGradient id="a" x1="12.24" y1="102.36" x2="127.6" y2="102.36" gradientUnits="userSpaceOnUse"><stop offset="0" stop-color="#1b0e39"/><stop offset="1" stop-color="#272438"/></linearGradient><linearGradient id="b" x1="20.04" y1="170.94" x2="411.78" y2="170.94" gradientTransform="translate(431.81 341.87) rotate(-180)" gradientUnits="userSpaceOnUse"><stop offset="0.33" stop-color="#150b2e"/><stop offset="0.98" stop-color="#30306e"/></linearGradient><linearGradient id="c" x1="15.28" y1="170.94" x2="300.03" y2="170.94" gradientTransform="translate(315.31 341.87) rotate(-180)" gradientUnits="userSpaceOnUse"><stop offset="0" stop-color="#336"/><stop offset="1" stop-color="#1b0e39"/></linearGradient><linearGradient id="d" y1="102.36" x2="24.47" y2="102.36" gradientUnits="userSpaceOnUse"><stop offset="0" stop-color="#1b0e39"/><stop offset="1" stop-color="#20263d"/></linearGradient><linearGradient id="e" x1="219.05" y1="99.24" x2="216.6" y2="169.57" gradientTransform="translate(436.25 237.85) rotate(-180)" gradientUnits="userSpaceOnUse"><stop offset="0" stop-color="#789bbc"/><stop offset="1" stop-color="#211b5a"/></linearGradient><linearGradient id="f" x1="163.14" y1="100.41" x2="160.85" y2="165.77" gradientTransform="translate(324.5 237.85) rotate(-180)" gradientUnits="userSpaceOnUse"><stop offset="0" stop-color="#789bbc"/><stop offset="1" stop-color="#767494"/></linearGradient><linearGradient id="g" x1="165.72" y1="-29.17" x2="162.31" y2="133.85" gradientUnits="userSpaceOnUse"><stop offset="0" stop-color="#edffff" stop-opacity="0"/><stop offset="1" stop-color="#39598e"/></linearGradient><linearGradient id="h" x1="180.08" y1="314.59" x2="200.44" y2="314.59" gradientTransform="matrix(0.05, -1, 1, 0.05, 25.03, 266.62)" gradientUnits="userSpaceOnUse"><stop offset="0" stop-color="#232742"/><stop offset="1" stop-color="#141238"/></linearGradient><linearGradient id="i" x1="173.94" y1="227.42" x2="198.61" y2="227.42" xlink:href="#h"/><linearGradient id="j" x1="186.23" y1="231.22" x2="221.1" y2="231.22" xlink:href="#h"/><linearGradient id="k" x1="-313.56" y1="57.2" x2="-274.91" y2="57.2" gradientTransform="matrix(-0.01, -1, 1, -0.01, 68.42, -219.61)" gradientUnits="userSpaceOnUse"><stop offset="0.24" stop-color="#695dc1"/><stop offset="0.9" stop-color="#2e2e6b"/></linearGradient><linearGradient id="l" x1="115.45" y1="74.68" x2="202.06" y2="74.68" gradientUnits="userSpaceOnUse"><stop offset="0" stop-color="#443e6d"/><stop offset="1" stop-color="#15458d"/></linearGradient><linearGradient id="m" x1="230.08" y1="85.67" x2="230.08" y2="171.83" gradientTransform="matrix(0.6, -0.8, 0.8, 0.6, -76.12, 177.98)" gradientUnits="userSpaceOnUse"><stop offset="0.4" stop-color="#695dc1"/><stop offset="1" stop-color="#313063"/></linearGradient><linearGradient id="n" x1="119.72" y1="74.11" x2="387.85" y2="74.11" gradientUnits="userSpaceOnUse"><stop offset="0.44" stop-color="#313063"/><stop offset="0.73" stop-color="#2c2a64"/></linearGradient><linearGradient id="o" x1="114.14" y1="118.1" x2="413.42" y2="118.1" xlink:href="#n"/></defs><title>OBJECTS</title><g style="isolation:isolate"><path d="M115.36,0H12.24V146.13h90.89l24.47,58.59V12.24A12.24,12.24,0,0,0,115.36,0Z" style="fill:url(#a)"/><path d="M12.24,70.76v75.37h90.89l24.47,58.59V19.11C88.52,34.89,50,52,12.24,70.76Z" style="fill:#cfcfcf;mix-blend-mode:multiply"/><rect x="20.04" y="137.15" width="391.74" height="67.57" transform="translate(431.81 341.87) rotate(180)" style="fill:url(#b)"/><rect x="15.28" y="137.15" width="284.74" height="67.57" transform="translate(315.31 341.87) rotate(180)" style="fill:url(#c)"/><rect x="15.28" y="155.02" width="16.45" height="41.42" transform="translate(47.01 351.47) rotate(180)" style="fill:#cfcfcf;opacity:0.42;mix-blend-mode:multiply"/><path d="M12.24,0h0A12.24,12.24,0,0,1,24.47,12.24V204.72a0,0,0,0,1,0,0H0a0,0,0,0,1,0,0V12.24A12.24,12.24,0,0,1,12.24,0Z" style="fill:url(#d)"/><rect x="23.51" y="137.15" width="388.27" height="17.87" transform="translate(435.29 292.17) rotate(180)" style="fill:#cfcfcf;mix-blend-mode:multiply"/><rect y="196.45" width="411.78" height="8.94" transform="translate(411.78 401.83) rotate(180)" style="fill:#cfcfcf;opacity:0.42;mix-blend-mode:multiply"/><ellipse cx="109.6" cy="82.83" rx="46.92" ry="22.01" style="fill:#395873"/><ellipse cx="109.6" cy="82.83" rx="46.92" ry="22.01" style="fill:#cfcfcf;mix-blend-mode:multiply"/><path d="M24.47,101.19H411.78a0,0,0,0,1,0,0v21.4a14.07,14.07,0,0,1-14.07,14.07H38.54a14.07,14.07,0,0,1-14.07-14.07v-21.4A0,0,0,0,1,24.47,101.19Z" transform="translate(436.25 237.85) rotate(180)" style="fill:url(#e)"/><path d="M24.47,101.19H300a0,0,0,0,1,0,0v21.4A14.07,14.07,0,0,1,286,136.66H24.47a0,0,0,0,1,0,0V101.19A0,0,0,0,1,24.47,101.19Z" transform="translate(324.5 237.85) rotate(180)" style="fill:url(#f)"/><path d="M24.47,101.19H300a0,0,0,0,1,0,0v21.4A14.07,14.07,0,0,1,286,136.66H24.47a0,0,0,0,1,0,0V101.19A0,0,0,0,1,24.47,101.19Z" transform="translate(324.5 237.85) rotate(180)" style="fill:#2c2b7d;opacity:0.42;mix-blend-mode:multiply"/><path d="M300,109.74v-8.55H38.54a14.07,14.07,0,0,0-12.94,8.55Z" style="opacity:0.42;mix-blend-mode:multiply;fill:url(#g)"/><path d="M144.88,144.06c12.62.26,24.65-4.7,37-7.21,40.57-8.23,25.88,18.16,57.88,9.28,24.62-6.83,53.92-8.49,60.25-9,18.92-1.48,22.27,9.81,41.24,10.52,13.27.51,26.36-3.84,38-10.27s21.95-14.9,32.22-23.31c-21.45-10.71-47.09-7.6-70.35-1.8s-46.46,14.09-70.41,13c-21.68-1-42.61-9.67-64.31-9.38-11.85.15-24.34,2.89-35.16-2-8.72-3.9-15.09-12.31-24.25-15-12.12-3.59-38.66.2-38.53,16.85C108.6,134.09,129.18,143.75,144.88,144.06Z" style="fill:#cfcfcf;mix-blend-mode:multiply"/><path d="M341,83.1l10.81.59L358,104.42s-11.23-.94-12.49-10.9l-5-1.72Z" style="fill:url(#h)"/><path d="M213.33,78l46.51,4.86c25.41,2.67,12.23,6.1,78.15,9.32,0,0-.27,9.7-.53,9.68s-74.81,0-93.78.16-41.34-1.76-44-.33-13.41-5-13.41-5l4.4-13.5Z" style="fill:url(#i)"/><path d="M188.43,54.09s27.5,13.71,53.08,15S346.3,83.39,346.3,83.39l-.56,10.33S268.9,87,252.25,89.93s-65.39-1.36-65.39-1.36Z" style="fill:url(#j)"/><path d="M103.53,70.54a24.66,24.66,0,0,0,4.41-.29,11.39,11.39,0,0,0,6.33-2.88A154,154,0,0,0,125.05,54.7S136,72.39,135.71,81.76c-.54,17.93-16.31,8.85-16.31,8.85s-2.57-5.83-4.35-7.88c-1.06-1.22-7-1.75-7-1.75Z" style="fill:#cd9c90"/><path d="M115.05,82.73s9.65,4.14,10.65-2.25c1.58-10.16-11.43-13.11-11.43-13.11L125.05,54.7l18.1,16.1L131.69,93.29,120.51,93Z" style="fill:url(#k)"/><path d="M172.05,101.2c-5.73.06-48.3-2.28-48.3-2.28l-7.08-13s12.8,5.69,16.84-4.15c-.15-14.13-18.06-17.06-18.06-17.06L132.8,46.09s20.9,1.86,31.89,5.17c17.25,5.19,37.36,3.06,37.36,3.06.26,25.07-3.27,45.17-7.93,48.95C194.12,103.27,177.79,101.14,172.05,101.2Z" style="fill:url(#l)"/><path d="M80.07,67.32c.21,1.82.91,5.12,2.24,5.9a65.27,65.27,0,0,0,7.61,4.25c2.46,1,8.63,3.9,11.59,4.87s6.88,2.48,7.7,2.06,4.29-6.94,4.28-8.66S110,63.84,104,61.21c0,0,2.52-2-1.78-6.72-1.13-1.22-8.75.79-10.66.56-4.63-.56-7.5,8-8.87,10S80.07,67.32,80.07,67.32Z" style="fill:#b2887b"/><path d="M82.31,73.22s-1.48-1.72.09-2.9a19.17,19.17,0,0,0,4.79-7,19.46,19.46,0,0,0,1.21-5.66s3.65,1.8,5,1.6,3.29-1.2,4.53-.71a17.6,17.6,0,0,1,2.37,1.17S99,57.14,100,56.06s3.2,0,3.56,1.75a24.39,24.39,0,0,1,.41,3.4l6.7,7s-6.06-10.52-8.63-13.91c-3.6-4.76-8.91-8.05-11.43-6.09A8.09,8.09,0,0,0,80.54,51c-4.16,5.68-5.26,11.89-7.47,14.12s-3.34,2.53-3.34,2.53,3.42,4.51,7,4.69A20.48,20.48,0,0,1,82.31,73.22Z" style="fill:#1c1c1c"/><path d="M97.11,80.56c1.53.49,2.81.78,3.2-.26s-.6-1.77.47-4.06,3.53-3,4.66-4.33-.37-6.7-3.14-9-5.59-4.36-5.59-4.36L98.34,58s5.38,3.53,8.69,5.28,7.26,5.93,7.33,10.75-3.6,10-5.22,10.57-5.5-1.29-7.41-1.66A15.87,15.87,0,0,1,97.11,80.56Z" style="fill:#1c1c1c"/><path d="M88.67,68.13c.93-.95.38-2.25,1.81-3.91S93,61.32,93,61.32a7.45,7.45,0,0,0-4.19,3.1C87,67,88.67,68.13,88.67,68.13Z" style="fill:#1c1c1c"/><path d="M85.65,75.25l-1.09-.5a3.59,3.59,0,0,1,.06-.62,2.86,2.86,0,0,1,2.26-2.19c.06.73-1.16,1.39-1.21,2.64C85.66,74.82,85.65,75,85.65,75.25Z" style="fill:#1c1c1c"/><path d="M92.49,70.27c1-.45,3.31-3.06,3.23-4.91,0,0,1.3,3.06-.56,4.23S92.49,70.27,92.49,70.27Z" style="fill:#252e43"/><path d="M88.78,77.37s1.52-.48,1.46-3c0,0,.84,1.87.06,2.52A1.87,1.87,0,0,1,88.78,77.37Z" style="fill:#252e43"/><path d="M101.56,79.37a5.75,5.75,0,0,0,3.26-5.88s1.64,3.64-.18,4.8A5.57,5.57,0,0,1,101.56,79.37Z" style="fill:#613531"/><path d="M92.25,73.73a4.83,4.83,0,0,1,2.69,3l.74,2.35,2.51-2.31-2.15,1S95.55,73.91,92.25,73.73Z" style="fill:#613531"/><path d="M132.8,46.09s25.28,6.09,31.85,8.63c7.79,3,9.83,3.64,13.67,10.46,1.74,3.09,20.26,33,20.26,33l-7.09,3s-6.4-8.65-10.94-13.76c-11.1-12.49-15.42-18.27-15.42-18.27s-27,.75-31.63-2.88C115.45,52,132.8,46.09,132.8,46.09Z" style="fill:url(#m)"/><path d="M107.38,98.86c-5.47,3.11-22.37,2.21-35.09,2.32-13.67.12-23.19,1-29.06-2.32-6.11-3.48-6.11-16.21,0-19.69,11.34-6.46,51-1,62.31,5.5C111.66,88.15,113.49,95.38,107.38,98.86Z" style="fill:#2f395b"/><g style="mix-blend-mode:multiply"><path d="M103.53,88.83c3.4,2.72,4.93,6.16-.69,11.45a14.92,14.92,0,0,0,4.54-1.42c6.11-3.48,4.28-10.71-1.84-14.19-7.37-4.2-26.68-8-42.42-8.35C65.1,76.78,92.74,80.21,103.53,88.83Z" style="fill:#cfcfcf"/></g><path d="M119.72,103s19-53.37,26.49-56.93,29.54,4.45,42.22,8,16.69-6.75,44.4,3.91,68.45,18.73,84.33,18.28,34.48,2.27,42.84,8.19S387.85,99,387.85,99Z" style="fill:url(#n)"/><path d="M124.67,89.7c-3,7.71-5,13.32-5,13.32l268.13-4S206.73,90.88,124.67,89.7Z" style="fill:#cfcfcf;opacity:0.37;mix-blend-mode:multiply"/><path d="M119.72,103s-8.72,5.36-4.36,23.33c0,0,9.93,8.43,43.39,6.12,14.64-1,41.87-9,63.72-3.85s49.27,1.18,59.55,4.23,17.14,3.91,30.42,2.19,40.7,5.17,52.7.88,20.95-14.1,33.38-17.11,14.29-3,14.29-3,1.91-4.7-1-11.48S387.85,99,387.85,99Z" style="fill:url(#o)"/><path d="M412.81,115.77s-1.87,0-14.29,3-21.38,12.81-33.38,17.11-39.42-2.59-52.7-.88-20.13.86-30.42-2.19-37.7.91-59.55-4.23-49.08,2.84-63.72,3.85c-33.46,2.31-39.93-1.38-43.39-6.12-4.21-5.77.63-18.71,4.36-23.33,9.88-12.2,19-53.37,26.49-56.93" style="fill:none;stroke:#695dc1;stroke-linecap:round;stroke-miterlimit:10;stroke-width:3.03928px"/></g></svg>