<svg xmlns="http://www.w3.org/2000/svg" xmlns:xlink="http://www.w3.org/1999/xlink" viewBox="0 0 145.32 214.34"><defs><linearGradient id="a" x1="64.82" y1="214.34" x2="64.82" y2="198.4" gradientUnits="userSpaceOnUse"><stop offset="0"/><stop offset="0.14" stop-color="#02040a"/><stop offset="0.38" stop-color="#060f25"/><stop offset="0.68" stop-color="#0d2151"/><stop offset="1" stop-color="#153686"/></linearGradient><linearGradient id="b" x1="97.69" y1="199.77" x2="97.69" y2="5.47" gradientUnits="userSpaceOnUse"><stop offset="0" stop-color="#79728b"/><stop offset="1" stop-color="#251868"/></linearGradient><linearGradient id="c" x1="46.39" y1="150.53" x2="46.39" y2="37.68" gradientUnits="userSpaceOnUse"><stop offset="0" stop-color="#140016"/><stop offset="1" stop-color="#19103b"/></linearGradient><linearGradient id="d" x1="77.29" y1="104.03" x2="77.29" y2="75.67" gradientUnits="userSpaceOnUse"><stop offset="0" stop-color="#00002f"/><stop offset="1" stop-color="#2e3b63"/></linearGradient><linearGradient id="e" x1="68.64" y1="131.03" x2="68.64" y2="112.18" xlink:href="#d"/><linearGradient id="f" x1="78.59" y1="69.51" x2="78.59" y2="37.63" xlink:href="#d"/><linearGradient id="g" x1="38.11" y1="146.86" x2="38.11" y2="122.18" xlink:href="#d"/><linearGradient id="h" x1="45.68" y1="115.52" x2="45.68" y2="82.75" xlink:href="#d"/><linearGradient id="i" x1="46.42" y1="110.01" x2="46.42" y2="98.48" gradientUnits="userSpaceOnUse"><stop offset="0" stop-color="#5e6860"/><stop offset="1" stop-color="#798633"/></linearGradient><linearGradient id="j" x1="41.45" y1="60.5" x2="41.45" y2="15.85" xlink:href="#d"/><linearGradient id="k" x1="71.91" y1="45.98" x2="71.91" y2="26.65" xlink:href="#d"/><linearGradient id="l" x1="59.89" y1="40.37" x2="59.89" gradientUnits="userSpaceOnUse"><stop offset="0" stop-color="#140016"/><stop offset="1" stop-color="#27369a"/></linearGradient><linearGradient id="m" x1="18.3" y1="111.69" x2="18.3" y2="99.8" xlink:href="#d"/><linearGradient id="n" x1="83.4" y1="196.74" x2="50.9" y2="146.7" gradientUnits="userSpaceOnUse"><stop offset="0.02" stop-color="#4f3690"/><stop offset="1" stop-color="#5640b6"/></linearGradient><linearGradient id="o" x1="64.16" y1="152.81" x2="64.16" y2="147.23" gradientUnits="userSpaceOnUse"><stop offset="0.02" stop-color="#6b56cc"/><stop offset="1" stop-color="#9cb3e3"/></linearGradient><linearGradient id="p" x1="68.34" y1="-67.18" x2="68.34" y2="-106.5" gradientTransform="translate(-69.16 122.85) rotate(29.68)" xlink:href="#d"/><linearGradient id="q" x1="56.36" y1="112.99" x2="56.36" y2="76.94" xlink:href="#l"/><linearGradient id="r" x1="79.57" y1="99.64" x2="79.57" y2="84.2" xlink:href="#i"/><linearGradient id="s" x1="84.82" y1="84.2" x2="84.82" y2="80.89" xlink:href="#i"/><linearGradient id="t" x1="77.95" y1="100.89" x2="77.95" y2="75.68" xlink:href="#l"/><linearGradient id="u" x1="13.87" y1="108.6" x2="13.87" y2="99.81" xlink:href="#i"/><linearGradient id="v" x1="35.6" y1="143.26" x2="35.6" y2="131.03" xlink:href="#i"/><linearGradient id="w" x1="39.72" y1="134.52" x2="39.72" y2="129.38" xlink:href="#i"/><linearGradient id="x" x1="35.79" y1="146.86" x2="35.79" y2="124.53" xlink:href="#l"/><linearGradient id="y" x1="39.62" y1="56.97" x2="39.62" y2="16.07" xlink:href="#l"/><linearGradient id="z" x1="80.83" y1="63.52" x2="80.83" y2="37.68" xlink:href="#l"/><linearGradient id="aa" x1="38.85" y1="53.18" x2="38.85" y2="33.64" xlink:href="#i"/><linearGradient id="ab" x1="77.33" y1="63.52" x2="77.33" y2="48.69" xlink:href="#i"/><linearGradient id="ac" x1="99.25" y1="0.8" x2="99.25" y2="-33.11" gradientTransform="translate(-31.44 59.72) rotate(15.17)" xlink:href="#l"/><linearGradient id="ad" x1="55.27" y1="109.58" x2="55.27" y2="76.94" gradientUnits="userSpaceOnUse"><stop offset="0" stop-color="#3e407c"/><stop offset="1" stop-color="#2c6884"/></linearGradient><linearGradient id="ae" x1="60.43" y1="34.77" x2="60.43" y2="0" xlink:href="#ad"/><linearGradient id="af" x1="61.98" y1="23.52" x2="61.98" y2="14.31" xlink:href="#i"/><linearGradient id="ag" x1="62.44" y1="11.89" x2="62.44" y2="9.14" xlink:href="#i"/><linearGradient id="ah" x1="69.97" y1="84.69" x2="69.97" y2="71.13" xlink:href="#i"/><linearGradient id="ai" x1="34.12" y1="94.99" x2="34.12" y2="79.4" xlink:href="#i"/><linearGradient id="aj" x1="34.88" y1="94.46" x2="34.88" y2="64.33" xlink:href="#ad"/><linearGradient id="ak" x1="68.01" y1="84.94" x2="68.01" y2="53.18" xlink:href="#ad"/><linearGradient id="al" x1="66.47" y1="198.4" x2="66.47" y2="153.94" xlink:href="#b"/></defs><title>Right plant group</title><g style="isolation:isolate"><polygon points="48.79 198.65 48.79 214.34 80.83 214.34 80.85 198.4 48.79 198.65" style="fill-rule:evenodd;opacity:0.5;mix-blend-mode:screen;fill:url(#a)"/><path d="M136.84,81.36h0a20.59,20.59,0,0,0-3.27.66l-.53.14-.07,0a27.48,27.48,0,0,0-9,4.5l-.24.17v0c-.38.29-.76.59-1.14.91-5.91,5.09-6.52,16.2-6.58,17.77-.23.51-.34.8-.34.8l.33-.65v0l-1.54,2.78c.31-5.39,1.44-14.1,2-18.56a19.27,19.27,0,0,0,2.41-2.09c3-2.82,7.37-8,7.49-14a18.73,18.73,0,0,0-.84-5.49l.47-.31a28,28,0,0,0,7.26-6.66l.29-.41.15-.2h0a70.13,70.13,0,0,0,9.37-17.7c-14.72-.61-21.69,4.49-24.38,9.78-1.27,2.49-2.34,7.52-3.11,12.15a34.13,34.13,0,0,0-3.31,6.2,20.43,20.43,0,0,0-1.52,5.31h0a19.11,19.11,0,0,0-.24,2.4,30.88,30.88,0,0,1-4.12,3.24s-2.93-7.84-2.24-14.79c.42-4.26,3.1-12.34,5.11-18l-.69,2L112.28,46s11.19-9.88,23.07-9.53a14.2,14.2,0,0,0-13.37-4c-8.49,1.76-10.13,13-10.13,13l-2.53,4c1.27-3.55,2.27-6.12,2.27-6.12l-1.92-.15.29-3.6s4.2-3.47,5.91-10.73c0-.16.09-.43.16-.8s.16-.81.22-1.23a29.62,29.62,0,0,0,.37-7h-.05c0-.82-.09-1.63-.16-2.42h0v-.05c-.08-.92-.19-1.83-.3-2.69v0h0a66.13,66.13,0,0,0-1.88-9.13s-10.38,6.88-10.9,17a28.64,28.64,0,0,0,5.56,17.73v5.59L103.07,66s.79,11,.51,19.55c-1.74-1.9-3-3.11-3-3.11s-.91,5.54-1.26,12a47.57,47.57,0,0,0-3.17-6.21c-4.91,11.88-5.34,27.46-5.34,27.46l-.76,3.8c-4.5-4.25-9.88-10-13.42-13.94l.62-5.07a16.66,16.66,0,0,0,7-2.85c.31-.2.6-.42.89-.65h0l.4-.33.15-.14A18.22,18.22,0,0,0,90,90.88c.49-.95.91-1.9,1.29-2.83l0,0h0a32.74,32.74,0,0,0,2-18.22A34.12,34.12,0,0,0,87,72.69h0l-.33.19A29.83,29.83,0,0,0,77,81.8c-.1.15-.2.3-.29.45s-.38.61-.55.92l0,0h0l-.42.76a15.92,15.92,0,0,0-1,2.37h0l-.08.33a11,11,0,0,0-.31,1.19l-.09.34h0a16.37,16.37,0,0,0,2.33,11.72l-1.82,3.53-1.94-2.18-1.14,4,.34.28a16.53,16.53,0,0,0-2.17-.25h-.07a20.1,20.1,0,0,0-4.79.38,19.55,19.55,0,0,0-5.23,1.9,14.82,14.82,0,0,0-1.74,1h0a33.11,33.11,0,0,0-8,7.21,104.07,104.07,0,0,1,12.07-1.71l7.71-.28a54.73,54.73,0,0,1,10.14.85l5.56,2.11,4.32,3.64,0,.13.47.47,0-.19c2.71,2.31,5.42,4.65,7.92,6.86l-3.71,2.09a14.72,14.72,0,0,0-12.53,1,9,9,0,0,0-3.14,3.52l-.08.1h0c-2.91,5.47-2.7,14.31-1.81,18a35.22,35.22,0,0,0,8.39-3.62,16.71,16.71,0,0,0,2.22-1.47,22.78,22.78,0,0,0,3.43-3l.28-.35.21-.22h0A14.12,14.12,0,0,0,93.71,140h0l.07-.2a16.59,16.59,0,0,0,.68-2.19v0l.09-.4a5.89,5.89,0,0,0,.11-.65h0a17.36,17.36,0,0,0-.12-6.11l5.36-1.28c5.25,4.7,9.27,8.6,9.75,9.92,2.72,7.52,1.56,12.93.67,15.43a173.46,173.46,0,0,0-18.78,3.82L52.23,197.7l32,2.07h61.13l-9.19-40.36h0l.77-6.59a90.26,90.26,0,0,0-9.85,0c-3.68.15-7.29.46-10.73.85-1.27-4-3.18-13.46-3.18-13.46l1.3-1.17-1-2.1s-.46-.16-1.16-.43l.39-1.85c2.47-5.82,13.94-16.81,13.94-16.81-6.2-.93-12.78,1.7-14.81,6.61s0,10.2,0,10.2v1.65c-2.23-.93-5.89-2.8-5.72-5a16.42,16.42,0,0,1,.65-4.13s6.7-10.22,7.65-17.67h0l1.77-2.61A23,23,0,0,0,128,105.1h0a11.25,11.25,0,0,0,2.83-1.46c.17-.1.34-.18.5-.29,4.08-2.56,6.36-8.57,7.62-13.69h0v0c.2-.81.37-1.59.52-2.34v0h0a57.89,57.89,0,0,0,.89-6.13A20.51,20.51,0,0,0,136.84,81.36ZM81.9,113.82c0-.07-.05-.13-.08-.21l1.91,1.6Zm30.34,22.68-.32-.13Zm-13.83-8.73,1,.89Zm-2.61-3.51a41.82,41.82,0,0,1-5.29-4.35l.81-4.43.36-.2a19,19,0,0,0,2.44-1.52,24.87,24.87,0,0,0,5.67-5.12c3.18,8.57,4.19,20.2,4.19,20.2S102.07,128.19,95.8,124.26Zm9.25-.93c-.67-1-1.87-7-2.75-12.49l.19.21a16.8,16.8,0,0,0,7.61,4.49v2.91C108.05,122.76,105.89,124.55,105.05,123.33Zm5.11-5,.6-1.37C110.56,117.43,110.37,117.89,110.16,118.32Zm.69-1.59v-2.67a26.29,26.29,0,0,0,2.81-11.43c0-4.65-4.86-11.16-8.67-15.53,0-.07,0-.16.06-.22.26-.84,2.64-3.61,5.49-6.71.2,7.07,4.64,10.24,4.64,10.24l.21,1.84.08,0a128,128,0,0,1-2.84,19A43.48,43.48,0,0,1,110.85,116.73Z" style="fill-rule:evenodd;mix-blend-mode:multiply;fill:url(#b)"/><path d="M59.6,150.53s3.82-6.44,0-17c-1.51-4.17-38-33.77-38-33.77l1.13-4s16.71,19,23,23,8.18,4.58,8.18,4.58-1.58-18.3-7-25.91V93S49.13,93,52,89.42,53,60.5,53,60.5L59.6,37.68l1.93.16S54.81,55,54.12,62s2.24,14.8,2.24,14.8,8.08-5,11.19-13.25h3.61S55.67,79.18,55,81.41,53.78,92.6,53.78,92.6A5.61,5.61,0,0,0,51.2,96c-.35,2.11,2.58,20.1,3.79,21.86s5.16-2.71,7.57-12,3.16-23.45,3.16-23.45l1.1-.74s-2,13.91-2.45,21.39-7.75,18.63-7.75,18.63a16.91,16.91,0,0,0-.64,4.13c-.26,3.15,7.35,5.64,7.35,5.64l1,2.11-1.29,1.16s2.4,11.92,3.61,14.67Z" style="fill-rule:evenodd;fill:url(#c)"/><path d="M64.28,104,66,101.42A23.37,23.37,0,0,0,81.28,97.9c7.74-4.87,9-22.22,9-22.22A27.07,27.07,0,0,0,72.5,82.32c-6.36,5.48-6.58,18-6.58,18l-1.55,2.78Z" style="fill-rule:evenodd;fill:url(#d)"/><path d="M61.69,130.83v-1.65s-2-5.29,0-10.2,8.61-7.54,14.81-6.61c0,0-11.46,11-13.94,16.81L62.18,131Z" style="fill-rule:evenodd;fill:url(#e)"/><path d="M64.16,69.51S66,52.75,68.64,47.46,78.31,37.07,93,37.68A69.85,69.85,0,0,1,83.21,56c-6.08,8.3-17.7,11.58-17.7,11.58Z" style="fill-rule:evenodd;fill:url(#f)"/><path d="M48.21,122.18l-3.71,2.09a14.73,14.73,0,0,0-12.54,1c-6.19,3.74-6.13,16.91-5,21.55,0,0,8.62-2.19,14-8.13s3.5-13.81,3.5-13.81l5.35-1.28Z" style="fill-rule:evenodd;fill:url(#g)"/><path d="M39.78,115l1-4.84s.43-15.58,5.34-27.45c0,0,5.51,8.7,5.5,15.73,0,6.08-10.32,11.53-10.32,11.53l-1,5.51Z" style="fill-rule:evenodd;fill:url(#h)"/><path d="M41.75,99.64l9.83-1.16A22.68,22.68,0,0,1,41.26,110Z" style="fill-rule:evenodd;opacity:0.30000000000000004;mix-blend-mode:multiply;fill:url(#i)"/><path d="M53,60.5l-2.72-3A30.51,30.51,0,0,1,33.82,44.46C27.19,33.91,27,15.85,27,15.85s16.67,5.94,22.86,13.29L46.9,36l4-6.07a79.61,79.61,0,0,1,4.65,9.63C57.57,44.73,51.71,57,51.71,57l1.86,1.59Z" style="fill-rule:evenodd;fill:url(#j)"/><path d="M58.54,46l3.67-5.47S73.4,30.64,85.28,31a14.18,14.18,0,0,0-13.37-4c-8.49,1.75-10.13,13-10.13,13l-2.53,4Z" style="fill-rule:evenodd;fill:url(#k)"/><path d="M58.83,40.37v-5.6A28.65,28.65,0,0,1,53.26,17c.52-10.15,10.9-17,10.9-17s3.22,10.76,2.19,20.18-6.46,13.9-6.46,13.9l-.29,3.6Z" style="fill-rule:evenodd;fill:url(#l)"/><path d="M36.6,111.69l-6.68-2.53S18.25,106.62,0,110.31c0,0,6.27-8.41,14.92-10.11s15,2.14,16.91,8.16l3.36,2.53Z" style="fill-rule:evenodd;fill:url(#m)"/><path d="M41.49,152.81s23.43-6.51,45.35-5.45l-6,51H49Z" style="fill-rule:evenodd;fill:url(#n)"/><path d="M41.49,152.81a302.08,302.08,0,0,0,45.35-5.45S68.54,145.89,41.49,152.81Z" style="fill-rule:evenodd;fill:url(#o)"/><path d="M24.69,98l1.82-3.54a16,16,0,0,1-.86-15.94C31,68.11,43.25,64.33,43.25,64.33A33.17,33.17,0,0,1,40,85.42,17.57,17.57,0,0,1,27.18,95l-.62,5.08S25.76,99.8,24.69,98Z" style="fill-rule:evenodd;fill:url(#p)"/><path d="M60,113v-2.92s-9.95-2.33-10.73-11.62,1.2-21.51,1.2-21.51S63.63,89.55,63.59,97.16a26.15,26.15,0,0,1-2.8,11.43v2.69Z" style="fill-rule:evenodd;fill:url(#q)"/><path d="M72.36,90.23,78,99.64s5.64-1.6,8.83-9L78,84.2S73.6,87.14,72.36,90.23Z" style="fill-rule:evenodd;opacity:0.30000000000000004;mix-blend-mode:multiply;fill:url(#r)"/><polygon points="80.22 82.2 88.89 84.2 89.42 81.81 81.85 80.89 80.22 82.2" style="fill-rule:evenodd;opacity:0.30000000000000004;mix-blend-mode:multiply;fill:url(#s)"/><path d="M74.39,87l-.75-5.58s6.08-4.68,13.14-5.5v1.3A46.31,46.31,0,0,0,74.39,87Z" style="fill:#a6e1e5;fill-rule:evenodd;opacity:0.5;mix-blend-mode:soft-light"/><path d="M65.58,100.89s7.48-19,24.73-25.21C90.31,75.68,75,82,65.58,100.89Z" style="fill-rule:evenodd;fill:url(#t)"/><path d="M12.05,108.6,8,103.09a21.3,21.3,0,0,1,11.82-3.27v8.49Z" style="fill-rule:evenodd;opacity:0.30000000000000004;mix-blend-mode:multiply;fill:url(#u)"/><path d="M29.71,139.3s2.11-5.68,4.11-8.27l7.67,7.13a28.5,28.5,0,0,1-6.17,5.1Z" style="fill-rule:evenodd;opacity:0.30000000000000004;mix-blend-mode:multiply;fill:url(#v)"/><path d="M34.82,130.67l8.84,3.85a22,22,0,0,0,1-3.49l-8.83-1.65Z" style="fill-rule:evenodd;opacity:0.30000000000000004;mix-blend-mode:multiply;fill:url(#w)"/><path d="M44.62,124.53S36.7,127,33.15,131,27,146.86,27,146.86s3.73-12.39,7.86-16.19A37.77,37.77,0,0,1,44.62,124.53Z" style="fill-rule:evenodd;fill:url(#x)"/><path d="M28.75,128.92s5.3-1.31,8.14-.91l7.61-3.74s-6-1.52-9.93.26A15.7,15.7,0,0,0,28.75,128.92Z" style="fill:#a6e1e5;fill-rule:evenodd;opacity:0.5;mix-blend-mode:soft-light"/><path d="M51.71,57s-5.42-13.67-8-20.65S27.53,16.07,27.53,16.07,39.79,30,42.51,36.32,51.71,57,51.71,57Z" style="fill-rule:evenodd;fill:url(#y)"/><path d="M68.64,63.52s2.58-10.18,5-14.57S93,37.68,93,37.68s-13.85,6.19-17.6,11S68.64,63.52,68.64,63.52Z" style="fill-rule:evenodd;fill:url(#z)"/><path d="M31.32,39.46l9.77-5.82,5.3,11.49-4.51,8S34.46,47.65,31.32,39.46Z" style="fill-rule:evenodd;opacity:0.30000000000000004;mix-blend-mode:multiply;fill:url(#aa)"/><polygon points="36.96 20.18 36.96 26.19 41.45 32.06 43.75 24.04 36.96 20.18" style="fill:#a6e1e5;fill-rule:evenodd;opacity:0.5;mix-blend-mode:soft-light"/><path d="M75.42,48.69l8.23,6.69a32.1,32.1,0,0,1-9.07,8.14L71,57S74,50.17,75.42,48.69Z" style="fill-rule:evenodd;opacity:0.30000000000000004;mix-blend-mode:multiply;fill:url(#ab)"/><path d="M65.32,86.79l-.2-1.85S59,80.6,60.79,70.66,70.91,53.18,70.91,53.18s5.55,8.27,5.41,15.27c-.18,9-10.15,16.24-10.15,16.24L66,87Z" style="fill-rule:evenodd;fill:url(#ac)"/><path d="M60,109.58s-1.21-7.06-2.76-14.11-6.75-18.53-6.75-18.53A158.66,158.66,0,0,1,58,95,47,47,0,0,1,60,109.58Z" style="fill-rule:evenodd;fill:url(#ad)"/><path d="M58.83,34.77s-2.51-9.36-2.08-17S64.16,0,64.16,0s-6.55,10.35-6.81,17.93A92.06,92.06,0,0,0,58.83,34.77Z" style="fill-rule:evenodd;fill:url(#ae)"/><path d="M66.55,14.31l-8.85.76a36.87,36.87,0,0,0-.24,8.45h8.3A32.94,32.94,0,0,0,66.55,14.31Z" style="fill-rule:evenodd;opacity:0.30000000000000004;mix-blend-mode:multiply;fill:url(#af)"/><polygon points="58.54 11.89 66.35 11.89 66.04 9.14 59.54 9.14 58.54 11.89" style="fill-rule:evenodd;opacity:0.30000000000000004;mix-blend-mode:multiply;fill:url(#ag)"/><path d="M60.71,71.13l5.46-2.48,2.71-10.16-2.08-.66S61.48,64.77,60.71,71.13Z" style="fill:#a6e1e5;fill-rule:evenodd;opacity:0.5;mix-blend-mode:soft-light"/><path d="M26.06,77.75l7.15-1.86,6.57-7.59L37,67.22S29.54,71.39,26.06,77.75Z" style="fill:#a6e1e5;fill-rule:evenodd;opacity:0.5;mix-blend-mode:soft-light"/><polygon points="24.66 80.89 30.54 79.94 29.52 82.2 24.17 82.75 24.66 80.89" style="fill:#a6e1e5;fill-rule:evenodd;opacity:0.5;mix-blend-mode:soft-light"/><path d="M49.12,94.46l7-3.3,1.67,6.5-7.23,5.15A22.64,22.64,0,0,1,49.12,94.46Z" style="fill:#a6e1e5;fill-rule:evenodd;opacity:0.5;mix-blend-mode:soft-light"/><path d="M51.58,104.56l6.57-4.92.39,1.25-4.75,6A14.69,14.69,0,0,1,51.58,104.56Z" style="fill:#a6e1e5;fill-rule:evenodd;opacity:0.5;mix-blend-mode:soft-light"/><path d="M66.39,71.13l7.81,4.54s-4,6.29-8,9C66.17,84.69,65.06,75.74,66.39,71.13Z" style="fill-rule:evenodd;opacity:0.30000000000000004;mix-blend-mode:multiply;fill:url(#ah)"/><path d="M27,94.46s1.6-10.25,4.74-15.06l9.58,3.14s-2.78,5.9-5.84,8.62S27.18,95,27.18,95Z" style="fill-rule:evenodd;opacity:0.30000000000000004;mix-blend-mode:multiply;fill:url(#ai)"/><path d="M26.51,94.46s1-7.84,3.56-13.57S43.25,64.33,43.25,64.33,34,74.4,30.93,80.89A66.35,66.35,0,0,0,26.51,94.46Z" style="fill-rule:evenodd;fill:url(#aj)"/><path d="M65.12,84.94A118.75,118.75,0,0,1,66,69.51c1-7.52,4.87-16.33,4.87-16.33s-3.58,9.3-4.35,16.33S65.12,84.94,65.12,84.94Z" style="fill-rule:evenodd;fill:url(#ak)"/><path d="M46.88,185.68a22.41,22.41,0,0,0,20,8.24c12.91-1.55,19.16-40,19.16-40L80.85,198.4H49Z" style="fill-rule:evenodd;mix-blend-mode:multiply;fill:url(#al)"/><path d="M26.51,94.46A16.22,16.22,0,0,1,27,77.75c5.45-9,16.29-13.42,16.29-13.42S29.19,68.82,25.31,77.91,24.78,92.62,26.51,94.46Z" style="fill:#ffb1bb;fill-rule:evenodd"/><path d="M2.54,107.46a30.67,30.67,0,0,1,13.39-6.57C23.79,99.34,30.14,105,30.14,105a13.57,13.57,0,0,0-14.45-4.94C6.08,102.38,2.54,107.46,2.54,107.46Z" style="fill:#ffb1bb;fill-rule:evenodd"/><path d="M26.51,139.57S26.08,132,30.14,128c4.68-4.66,12.22-4.3,12.22-4.3s-7-1.77-11.82,2.63S26.51,139.57,26.51,139.57Z" style="fill:#ffb1bb;fill-rule:evenodd"/><path d="M46.88,56.2S29.13,47.83,27.53,16.07C27.53,16.07,22.35,43.21,46.88,56.2Z" style="fill:#ffb1bb;fill-rule:evenodd"/><path d="M56.36,30.75s-9-16.57,7.8-30.75C64.16,0,45.93,8.26,56.36,30.75Z" style="fill:#ffb1bb;fill-rule:evenodd"/></g></svg>