<svg id="Layer_1" enable-background="new 0 0 512 512" height="512" viewBox="0 0 512 512" width="512" xmlns="http://www.w3.org/2000/svg"><g><path d="m408.584 512h-305.168c-17.074 0-30.916-13.842-30.916-30.916v-450.168c0-17.074 13.842-30.916 30.916-30.916h305.168c17.074 0 30.916 13.842 30.916 30.916v450.168c0 17.074-13.842 30.916-30.916 30.916z" fill="#6eabc9"/><path d="m408.573 0h-30.927c17.081 0 30.927 13.837 30.927 30.905v450.189c0 17.069-13.846 30.905-30.927 30.905h30.927c17.081 0 30.927-13.837 30.927-30.905v-450.189c0-17.068-13.846-30.905-30.927-30.905z" fill="#6eabc9"/><path d="m30.905 103.427h450.189v305.146h-450.189z" fill="#88c3e0" transform="matrix(0 1 -1 0 512 0)"/><path d="m319.405 386.833h-131.965c-7.968 0-14.428-6.459-14.428-14.428v-232.81c0-7.968 6.459-14.428 14.428-14.428h131.965c7.968 0 14.428 6.459 14.428 14.428v232.811c0 7.968-6.46 14.427-14.428 14.427z" fill="#f75632"/><path d="m319.4 125.167h-30.927c7.971 0 14.433 6.457 14.433 14.423v232.82c0 7.965-6.462 14.423-14.433 14.423h30.927c7.971 0 14.433-6.457 14.433-14.423v-232.82c0-7.966-6.462-14.423-14.433-14.423z" fill="#e33629"/><path d="m319.405 386.833h-131.965c-7.968 0-14.428-6.459-14.428-14.428v-116.405h160.82v116.405c.001 7.969-6.459 14.428-14.427 14.428z" fill="#e33629"/><path d="m302.906 256v116.41c0 7.965-6.462 14.423-14.433 14.423h30.927c7.971 0 14.433-6.457 14.433-14.423v-116.41z" fill="#c72e24"/><path d="m408.573 23.405h-305.146c-4.142 0-7.5 3.357-7.5 7.5v450.189c0 4.143 3.358 7.5 7.5 7.5h305.146c4.142 0 7.5-3.357 7.5-7.5v-450.189c0-4.142-3.358-7.5-7.5-7.5zm-7.5 450.19h-290.146v-435.19h290.146z" fill="#43809f"/><g fill="#f3f3f3"><path d="m253.423 218.172c4.142 0 7.5-3.357 7.5-7.5v-41.207c0-4.143-3.358-7.5-7.5-7.5s-7.5 3.357-7.5 7.5v41.207c0 4.142 3.358 7.5 7.5 7.5z"/><path d="m253.423 291.768c-17.21 0-31.211 13.994-31.211 31.194s14.001 31.194 31.211 31.194c17.209 0 31.21-13.994 31.21-31.194s-14.001-31.194-31.21-31.194zm0 47.388c-8.939 0-16.211-7.265-16.211-16.194s7.272-16.194 16.211-16.194c8.938 0 16.21 7.265 16.21 16.194s-7.272 16.194-16.21 16.194z"/></g></g></svg>