<svg id="visual" viewBox="0 0 960 540" width="960" height="540" xmlns="http://www.w3.org/2000/svg" xmlns:xlink="http://www.w3.org/1999/xlink" version="1.1"><path d="M0 350L22.8 354.2C45.7 358.3 91.3 366.7 137 369.2C182.7 371.7 228.3 368.3 274 358.3C319.7 348.3 365.3 331.7 411.2 327.8C457 324 503 333 548.8 341.7C594.7 350.3 640.3 358.7 686 368.8C731.7 379 777.3 391 823 395C868.7 399 914.3 395 937.2 393L960 391L960 541L937.2 541C914.3 541 868.7 541 823 541C777.3 541 731.7 541 686 541C640.3 541 594.7 541 548.8 541C503 541 457 541 411.2 541C365.3 541 319.7 541 274 541C228.3 541 182.7 541 137 541C91.3 541 45.7 541 22.8 541L0 541Z" fill="#4e5cfc"></path><path d="M0 426L22.8 426.2C45.7 426.3 91.3 426.7 137 416.7C182.7 406.7 228.3 386.3 274 376.2C319.7 366 365.3 366 411.2 367.5C457 369 503 372 548.8 379.5C594.7 387 640.3 399 686 398.8C731.7 398.7 777.3 386.3 823 388.8C868.7 391.3 914.3 408.7 937.2 417.3L960 426L960 541L937.2 541C914.3 541 868.7 541 823 541C777.3 541 731.7 541 686 541C640.3 541 594.7 541 548.8 541C503 541 457 541 411.2 541C365.3 541 319.7 541 274 541C228.3 541 182.7 541 137 541C91.3 541 45.7 541 22.8 541L0 541Z" fill="#364ac5"></path><path d="M0 406L22.8 414.5C45.7 423 91.3 440 137 441C182.7 442 228.3 427 274 421.8C319.7 416.7 365.3 421.3 411.2 426.5C457 431.7 503 437.3 548.8 435C594.7 432.7 640.3 422.3 686 417.5C731.7 412.7 777.3 413.3 823 414C868.7 414.7 914.3 415.3 937.2 415.7L960 416L960 541L937.2 541C914.3 541 868.7 541 823 541C777.3 541 731.7 541 686 541C640.3 541 594.7 541 548.8 541C503 541 457 541 411.2 541C365.3 541 319.7 541 274 541C228.3 541 182.7 541 137 541C91.3 541 45.7 541 22.8 541L0 541Z" fill="#24378f"></path><path d="M0 460L22.8 462.3C45.7 464.7 91.3 469.3 137 469C182.7 468.7 228.3 463.3 274 459.5C319.7 455.7 365.3 453.3 411.2 455.2C457 457 503 463 548.8 464.5C594.7 466 640.3 463 686 461.3C731.7 459.7 777.3 459.3 823 458.5C868.7 457.7 914.3 456.3 937.2 455.7L960 455L960 541L937.2 541C914.3 541 868.7 541 823 541C777.3 541 731.7 541 686 541C640.3 541 594.7 541 548.8 541C503 541 457 541 411.2 541C365.3 541 319.7 541 274 541C228.3 541 182.7 541 137 541C91.3 541 45.7 541 22.8 541L0 541Z" fill="#18255c"></path><path d="M0 512L22.8 512.5C45.7 513 91.3 514 137 510.8C182.7 507.7 228.3 500.3 274 495.7C319.7 491 365.3 489 411.2 486.3C457 483.7 503 480.3 548.8 483.7C594.7 487 640.3 497 686 501.5C731.7 506 777.3 505 823 501.2C868.7 497.3 914.3 490.7 937.2 487.3L960 484L960 541L937.2 541C914.3 541 868.7 541 823 541C777.3 541 731.7 541 686 541C640.3 541 594.7 541 548.8 541C503 541 457 541 411.2 541C365.3 541 319.7 541 274 541C228.3 541 182.7 541 137 541C91.3 541 45.7 541 22.8 541L0 541Z" fill="#0f132d"></path></svg>