<?xml version="1.0" encoding="UTF-8"?>
<svg width="102px" height="168px" viewBox="0 0 102 168" version="1.1" xmlns="http://www.w3.org/2000/svg" xmlns:xlink="http://www.w3.org/1999/xlink">
    <title>Group Copy</title>
    <g id="home" stroke="none" stroke-width="1" fill="none" fill-rule="evenodd">
        <g id="landing-1-copy-42" transform="translate(-1526, -1540)">
            <g id="Group" transform="translate(1526.0327, 1539.9515)">
                <g id="Group-Copy" transform="translate(51, 84) rotate(1) translate(-51, -84)translate(2, 1)" fill-rule="nonzero">
                    <path d="M70.9893093,0.0490711985 L71.4320387,0.0490711985 C72.581521,1.00594288 77.8556504,0.47126326 79.5925563,0.452267636 C80.5160622,0.442165351 81.3974857,0.179107648 81.5018269,1.20121157 C81.6586269,2.7413763 81.667274,4.33376292 81.6903328,5.84676557 C83.4629798,5.85389927 85.2350504,5.87032839 87.0076975,5.89599888 C87.0048151,7.35251564 87.3051563,16.2672564 86.8065093,16.906857 C85.1531916,17.0932518 83.4514504,16.9500375 81.873074,17.1306496 C80.7697093,22.4196359 84.3103916,22.8758141 76.3625916,22.630134 C76.1729328,24.2434299 76.3268504,26.2096275 76.4000622,27.8565923 C78.2026857,28.0538498 79.1849916,27.9046907 80.9512975,27.8997187 C81.2060975,27.8990162 81.3346504,28.0963277 81.4949093,28.2698062 C81.7035916,28.9562081 81.7203093,32.4027015 81.7433681,33.3960145 C83.4347328,33.4511926 85.4886975,33.3321355 87.046321,33.4538407 C86.9921328,37.070624 87.0296034,77.5463983 87.124721,77.3912945 C85.7302387,78.3073258 82.0137328,76.9751623 81.7035916,78.1997799 C81.4851093,79.0644702 81.7116622,82.5664659 81.4839563,83.17283 C80.666521,83.3668449 77.365074,83.3246912 76.3735446,83.3122613 C76.3245446,85.0308333 76.3210857,86.7504861 76.3625916,88.4695985 L76.4628975,88.6376727 C77.6331328,88.5814678 80.4318975,88.2977413 81.3069798,88.8657347 C81.8361798,89.4991204 81.7197328,93.1632455 81.6718857,94.1824992 C83.4952622,94.0976514 85.321521,94.0992727 87.1448975,94.1862822 C86.9292975,96.2355982 87.1466269,97.5066929 87.1812151,99.4835911 C88.6984857,99.5484429 90.7167093,99.6116733 92.2189916,99.822982 C92.6732504,102.140352 92.5054975,108.007276 92.506074,110.594861 C93.8705798,110.683492 96.7437093,110.799685 97.9681328,111.029368 L97.9681328,132.793083 C96.1943328,132.897926 94.2470151,133.170304 92.5994622,132.633655 C92.387321,134.009594 92.4870504,136.984669 92.5112622,138.441131 C88.9659681,138.182805 85.2252504,138.472476 81.7105093,138.398437 C81.7393328,142.539223 81.6119328,146.585974 81.569274,150.716491 C81.5352622,154.007178 81.8356034,157.269763 81.6148151,160.566935 C79.7920151,160.517215 78.1928857,160.547479 76.3781563,160.597739 C76.2738151,161.680764 76.3476034,165.017388 75.9469563,165.49621 C74.4746504,166.175532 67.4601563,165.893967 65.2759093,165.983139 C65.5220622,164.525055 65.3548857,162.017993 65.2764857,160.478304 C63.8687446,160.34752 61.6130151,160.404265 60.1487798,160.408048 C59.9464387,162.353061 59.851321,163.990568 60.0813328,165.932878 C58.4297446,165.715625 50.8855893,165.844788 49.0718975,166.049071 C49.2477787,164.145672 49.1483951,162.393593 49.059734,160.496138 C42.927874,159.996239 43.3802881,161.103043 43.4976575,154.868626 C42.7379846,154.825932 41.9773893,154.797289 41.2164481,154.784318 C40.1340669,154.770267 38.4909528,154.871868 38.3358822,156.18944 C38.170954,157.590779 38.2773128,159.136413 38.3059057,160.56045 C34.7032528,160.238352 30.8332328,160.644757 27.5436034,160.402103 C27.3043104,162.194714 27.333134,164.104599 27.3073081,165.919368 C26.0686457,165.823711 23.2334481,165.928555 21.9916728,166.018267 C22.1066787,164.299695 22.0113881,162.242813 21.9160975,160.532888 C20.0257928,160.419937 18.4393457,160.420478 16.5763081,160.062172 C16.4978504,152.848493 16.8136987,145.701287 16.6590316,138.387088 C14.1214657,138.231984 8.2440022,138.200099 5.74713514,138.43951 C5.80466691,136.682027 5.82980103,134.609473 5.7057042,132.868743 C3.56774773,132.920084 2.05297903,132.875769 -0.031867209,132.515301 L-0.031867209,111.228787 C1.99486503,110.717539 4.1595755,110.904529 5.7588375,110.460294 C5.59034091,109.6664 5.84836338,106.087663 5.85989279,105.080299 C5.88617985,101.432387 5.8390822,97.7839342 5.71866903,94.1371029 L11.0744151,94.0965706 C11.2246434,92.2428907 11.2603269,90.3827258 11.1813504,88.5247225 C12.9111657,88.5247225 14.6409234,88.5409354 16.3703351,88.5722804 C16.6700998,86.25437 16.5886446,85.6712445 16.3758693,83.3138826 C14.5203834,83.2765928 12.828961,83.23552 10.9696128,83.3317168 C11.2642469,81.5061395 11.1595022,79.6794812 11.1097528,77.8382313 C9.41446809,77.7382515 7.67542926,77.8490399 5.99922573,77.6917744 C5.5655642,77.2621314 5.85914338,67.9688725 5.8616222,66.6610284 L5.87003867,42.3265359 C5.8694622,40.313699 6.0057975,35.0580573 5.75520573,33.3533745 C7.33865514,33.4527058 9.45222691,33.3733704 11.1242798,33.4022295 C11.1912081,32.1592912 11.0203998,29.5336051 11.3506598,28.3304966 C11.4717187,27.8893965 13.6291022,28.1257812 14.1897775,28.1130811 C14.9389587,28.0961656 15.6110657,27.975217 16.4263681,27.81606 C16.5548057,26.023611 16.6255963,24.2279735 16.6386822,22.4315795 L21.9804316,22.3040376 C22.0212457,20.5434201 22.0684587,18.5316101 21.8759175,16.794123 C25.1368387,16.9849493 29.4746069,16.8339528 32.8105269,16.7870433 C32.8615446,14.8686198 32.8718634,13.3808661 32.8166375,11.4589839 L49.2185516,11.4617941 C52.7130587,11.4614699 56.4707822,11.5302668 59.9349093,11.3845124 C60.1326387,9.6018453 60.0911328,7.63851195 60.0951681,5.83363309 C63.340121,5.97927936 67.4676504,6.16518778 70.6370857,5.80931368 C70.935121,4.08337023 70.9564504,1.82973332 70.9893093,0.0490711985 Z" id="Path" fill="#E31329"></path>
                    <path d="M71.1520185,0.037558681 L71.5947454,0.037558681 C72.7442211,0.987400547 78.0183199,0.456649038 79.7552157,0.437792968 C80.6787162,0.427764902 81.5601346,0.166639796 81.6644752,1.18123466 C81.8212742,2.71008432 81.8299213,4.2907722 81.8529799,5.79265933 C83.6256167,5.79974061 85.397677,5.81604903 87.1703138,5.84153093 C87.1674314,7.28734714 87.4677709,16.1365943 86.9691267,16.7714959 C85.3158187,16.9565214 83.6140874,16.8143592 82.0357201,16.9936445 C80.9323618,22.2437743 84.4730236,22.6966011 76.5252697,22.4527259 C76.335612,24.0541695 76.4895287,26.0059221 76.5627401,27.6407872 C78.3653531,27.8365955 79.3476533,27.6885322 81.1139489,27.6835968 C81.3687475,27.6828994 81.4972997,27.8787613 81.6575576,28.0509653 C81.8662387,28.7323245 81.8829562,32.1534977 81.9060149,33.1395131 C83.5973698,33.1942858 85.6513226,33.0761034 87.2089371,33.1969144 C87.1547492,36.7871265 87.1922195,76.9655388 87.2873366,76.8115745 C85.8928624,77.720876 82.1763781,76.3984994 81.8662387,77.6141202 C81.6477576,78.4724579 81.8743092,81.9487256 81.6466047,82.5506349 C80.8291741,82.7432244 77.5277462,82.7013805 76.5362226,82.6890419 C76.4872229,84.3949881 76.4837641,86.1020072 76.5252697,87.8084898 C74.7284213,87.8567713 72.7563269,88.0198555 71.0269251,88.0375587 C69.1972181,87.9485061 67.3663582,87.888959 65.5343453,87.8583807 L65.5608628,82.570484 C64.4177282,82.3827226 61.4777453,82.7223025 60.2786934,82.4374416 L60.1293884,82.1402422 C60.0924945,80.4262491 60.0936474,78.7117195 60.1328472,76.9977264 L43.9297942,77.0089921 C41.3955289,77.0100651 37.2832422,77.1162843 34.8601198,76.9033093 C32.5712566,76.8265954 29.9953704,76.8915072 27.7122142,76.9800232 C27.8054866,75.6560373 27.6651745,73.077269 27.6357747,71.6631576 L27.5297047,71.5311882 C27.5121801,69.7410176 27.5116613,67.9503106 27.5281482,66.16014 C25.8361016,66.2465103 24.0296262,66.1494108 22.3020692,66.2094945 L21.9281725,66.0952282 C21.9822451,66.0383634 22.0475589,65.9691599 22.1240561,65.8881543 C22.0875657,64.7771434 22.0540153,63.2648597 22.0461754,62.2010574 L22.0340119,51.9396838 C22.0336084,50.148333 22.0011533,46.0029911 22.3189597,44.3364211 C24.0557978,44.2639989 25.7718255,44.0700682 27.5457881,44.0147054 C27.4804168,42.8759595 27.686965,39.7925959 27.4299182,39.0197165 L26.9145565,38.8065268 L27.6535875,38.8480489 C27.5796844,36.9556289 27.6611392,35.0707729 27.5922514,33.1697159 C29.3093744,33.158182 31.2499937,33.2619335 33.0048176,33.2875764 C32.9780695,31.4359274 32.9826236,29.5840638 33.0183646,27.7325757 C36.6032991,27.9557435 40.1995323,27.9748952 43.7869456,27.789977 C43.9500859,25.8769032 43.8320254,24.2206333 43.7535105,22.3089007 C45.4051468,22.3974704 47.3416732,22.3921594 49.0164259,22.4268148 C49.3902649,21.9533879 49.2943984,17.5913157 49.3053512,16.7693501 C43.874511,16.7623225 38.4437284,16.7882335 33.0132917,16.8471369 C32.9916742,18.6562446 32.9917318,20.4655132 33.013407,22.2746208 C29.4374077,22.2765521 25.735681,22.2317039 22.1700582,22.2926996 L22.1760534,27.7612764 C20.3284759,27.6927166 18.4792843,27.6661618 16.6303233,27.6816655 C16.6405844,29.545224 16.673616,31.4085678 16.7294756,33.2714289 C15.2337161,33.2481465 12.6996814,33.2805487 11.2873366,33.1456824 C11.3542645,31.9118756 11.1834572,29.3054795 11.5137153,28.1112099 C11.6347734,27.6733504 13.7921444,27.9079985 14.3528165,27.8953916 C15.1019933,27.8786004 15.7740965,27.7585404 16.5893941,27.6005526 C16.717831,25.8212722 16.7886212,24.0388267 16.801707,22.2556301 L22.1434254,22.1290253 C22.1842393,20.3813424 22.2314519,18.3843125 22.0389119,16.6595902 C25.2998141,16.8490146 29.6375572,16.6991273 32.9734578,16.6525625 C33.0244752,14.748233 33.0347939,13.2714094 32.9795684,11.3636465 L49.3813873,11.3664361 C52.875874,11.3661143 56.6335758,11.4344058 60.0976827,11.2897222 C60.295411,9.52015174 60.2539053,7.57124234 60.2579406,5.77962332 C63.5028747,5.92419958 67.6303802,6.10874219 70.7997971,5.75548258 C71.0978306,4.04221906 71.1191599,1.80513888 71.1520185,0.037558681 Z" id="Path" fill="#020202"></path>
                    <path d="M43.3183479,23.1417401 C44.9808569,23.229674 46.9301314,23.2244012 48.6159089,23.2588078 C48.9087092,23.7956259 48.6132978,26.7547029 48.8614178,27.8368075 C48.8734873,28.2485687 48.7912061,28.3138134 49.0251098,28.5429957 C52.1191254,28.745654 56.0174424,28.5507186 59.1991357,28.6423808 L59.58501,28.7213669 C59.9401304,29.2448697 59.7138282,31.5866513 59.8832647,32.4962434 L59.8844252,34.0333571 C61.6373971,34.0378843 63.4217031,34.0255277 65.1711934,34.0494952 C65.1804776,35.2335947 65.1398593,38.3042004 65.3284445,39.3444951 L65.3493339,39.4659302 C65.1717737,40.5317902 65.2605538,43.8374369 65.2669367,45.0599376 L65.1009817,61.0772909 C63.8835918,61.0677039 60.6828659,61.4399986 60.1438024,61.3750202 L60.0219474,61.5417272 C60.0457381,62.756079 59.8931292,65.2747937 59.7469031,66.5168413 C50.9927786,66.3357537 41.3091903,66.5408087 32.4719723,66.5429392 L32.5011014,72.0112505 C31.4554691,72.003794 28.8404018,71.936685 27.9558502,72.1188378 C27.7510177,72.1225661 27.2732879,72.119903 27.0945091,72.1417401 L26.9877409,72.0107179 C26.9701009,70.2333969 26.9695787,68.4555432 26.9861742,66.6782222 C25.2829888,66.7639725 23.4646214,66.66757 21.7256919,66.7272224 L21.3493339,66.6137764 C21.4037625,66.5573197 21.4695062,66.4886129 21.546507,66.4081887 C21.5097764,65.3051525 21.4760051,63.8037237 21.4681135,62.7475572 L21.45587,52.5598382 C21.4554638,50.7813454 21.4227951,46.6657581 21.7426936,45.0111505 C23.4909653,44.9392481 25.2182896,44.7467094 27.0039302,44.691744 C26.9381285,43.5611719 27.1460364,40.4999401 26.8872975,39.7326083 L26.3685432,39.5209489 L27.1124392,39.5621729 C27.0380496,37.6833364 27.1200407,35.8120096 27.0506993,33.924598 C28.7791261,33.9131469 30.7325205,34.0161538 32.4988964,34.0416126 C32.4719723,32.2032544 32.4765564,30.3646832 32.5125326,28.5264848 C36.1210667,28.7480507 39.7409739,28.7670649 43.3520031,28.5834741 C43.5162173,26.684132 43.3973796,25.0397506 43.3183479,23.1417401 Z" id="Path" fill="#1D1D1D"></path>
                    <path d="M43.2017958,22.091972 C44.8522415,22.1828458 46.7873721,22.1773966 48.4609175,22.2129535 C48.7515932,22.7677182 48.4583253,25.8257217 48.704645,26.9440027 C48.7166268,27.3695297 48.6349427,27.4369557 48.8671492,27.6737999 C51.9387145,27.8832333 55.8087451,27.6817809 58.9673518,27.7765076 L59.3504262,27.8581343 C59.7029699,28.3991386 59.4783097,30.8192095 59.6465168,31.7592106 L59.6476689,33.3477124 C61.3879211,33.3523909 63.1592801,33.3396213 64.896076,33.36439 C64.9052929,34.5880758 64.8649693,37.7613364 65.0521861,38.8364098 C64.3061991,39.1776679 60.5716559,39.0017549 59.515177,39.0183774 C59.5082644,37.18439 59.4662126,35.228155 59.5364909,33.4046805 C55.914969,33.3501893 52.2931015,33.3395662 48.6715796,33.3729214 C48.6591369,31.5446583 48.5808515,29.5790663 48.6124191,27.77315 C47.1820251,27.7918091 44.5479134,27.7038526 43.2702307,27.8172384 C43.2619356,29.4644696 43.1940767,31.7685677 43.3221906,33.3680227 C39.8146693,33.3381351 36.099539,33.2933863 32.6010618,33.5034802 C32.5760611,35.3182031 32.5227187,37.2013978 32.5785958,39.0099561 C31.6338133,39.0195333 27.7262242,39.1497618 27.113478,39.061365 C27.0396281,37.119716 27.1210242,35.185828 27.0521861,33.2353173 C28.7680713,33.2234834 30.7072918,33.3299339 32.4608508,33.3562438 C32.434122,31.4564266 32.4386728,29.5563891 32.474388,27.656737 C36.0567384,27.8857102 39.6503794,27.90536 43.2352068,27.7156315 C43.3982294,25.7527916 43.280254,24.0534359 43.2017958,22.091972 Z" id="Path" fill="#020202"></path>
                    <path d="M54.7058295,48.8925959 C55.2724449,48.6147226 59.6535029,48.538251 60.0832199,48.9691093 C60.512937,49.3999677 60.666424,60.4631581 60.1383949,60.6671079 C59.6103657,60.8710576 55.4876361,60.9430202 54.9129465,60.7583184 C54.3382569,60.5736167 54.1392142,49.1704691 54.7058295,48.8925959 Z" id="Path" fill="#F2C185"></path>
                    <path d="M38.1237977,49.3144554 C38.666893,50.2738517 38.5606304,59.8729943 38.3133973,60.176608 C38.1432539,60.385552 33.2556289,60.6553888 32.8363196,60.2722108 C32.4170103,59.8890328 32.4186133,49.7798715 32.8387485,49.4067063 C33.2588838,49.0335412 37.5807024,48.3550592 38.1237977,49.3144554 Z" id="Path" fill="#F2C185"></path>
                    <path d="M65.6759749,38.9917192 C67.4368045,39.0241822 69.1621987,38.994524 70.9230283,38.9894961 C70.9218714,40.6359809 70.889627,42.8989715 71.0192019,44.4992759 C73.380472,44.5592832 75.0034355,44.6245552 75.8880923,44.6950921 L76.3508596,44.7801844 C76.3977148,44.8637465 76.4995236,64.6671442 76.5400158,66.7827026 C75.9031323,66.7963655 74.6739066,66.7909003 74.094869,66.891459 L70.9127654,66.9040289 C70.9521006,68.7337601 71.0139957,70.5629448 71.0996077,72.3910365 C69.5134728,72.6429798 66.8433054,72.3003151 65.5782153,72.6047238 L65.4648373,72.6019912 L65.4810342,77.9917192 C41.7655212,77.8951683 29.1440829,77.8769512 27.6167194,77.9370678 C27.7103141,76.5882695 27.5695172,73.9611733 27.5400158,72.5205605 C27.718239,72.4981534 28.1944844,72.500886 28.3986805,72.4970604 C29.2804836,72.3101523 31.8874253,72.3790132 32.9298087,72.3866644 L32.90077,66.7755979 C41.710529,66.7734118 51.3640284,66.5630037 60.090952,66.7488187 C60.2367237,65.4743464 60.3888585,62.8898783 60.3651417,61.6438248 L60.4866181,61.4727657 C61.0240066,61.5394405 64.2147872,61.1574267 65.4283944,61.167264 L65.5938337,44.7317632 C65.5874707,43.477348 65.4989664,40.0854045 65.6759749,38.9917192 Z" id="Path" fill="#020202"></path>
                    <path d="M70.6833031,26.9095626 L76.1240722,26.8875379 C76.0831165,28.3648359 76.2082911,31.2477147 76.0808091,32.5243251 L81.3790984,32.4780842 L81.4748541,62.8528743 C81.4840836,65.8053884 81.4731236,68.7579025 81.4419742,71.7104166 C81.4252458,73.0258715 81.3087238,75.9559226 81.4385131,77.1541316 C79.7241401,77.1782382 77.7213464,77.251106 76.0288934,77.1913873 C76.059466,79.0349965 76.0600428,80.976128 76.165028,82.8098754 C75.2968815,82.8022051 73.264092,82.8378171 72.488817,82.7583748 C70.5465916,82.3518494 66.7982755,83.0865537 65.198694,82.8328862 C64.0548172,82.641129 61.1129255,82.9879357 59.9130952,82.6970125 L59.7636932,82.3934881 C59.7267754,80.6430182 59.7279291,78.8920004 59.7671543,77.1415304 L43.5535814,77.1530359 C41.0176708,77.1541316 36.9027141,77.2626114 34.4780185,77.0451039 C36.7907492,76.882932 41.2523876,77.0193536 43.6828516,77.0193536 L65.0839025,77.1782382 L65.0677509,71.7750662 L65.1808119,71.7778056 C66.4423643,71.4726376 69.1050647,71.816157 70.6867641,71.5635853 C70.6013916,69.7309337 70.5396695,67.8971863 70.5004443,66.062891 L73.6736495,66.0502898 C74.2510678,65.9494803 75.4768561,65.9549591 76.1119586,65.9412621 C76.0715797,63.8204267 75.9700556,43.967632 75.9233314,43.8838615 L75.4618582,43.7985569 C74.1385838,43.6924877 72.0936806,43.7201555 70.7081073,43.6910632 L70.6065832,43.6022522 C70.4773707,41.9979561 70.5448611,39.7728047 70.5460148,38.1222129 C68.7901092,38.1272534 67.0342037,38.1135016 65.2782981,38.0809577 L65.2575318,37.9560415 C65.0700583,36.8859264 65.1104372,33.7273006 65.1012078,32.5092584 C63.3620306,32.4846039 61.5882429,32.4973147 59.8456047,32.4926577 L59.844451,30.911482 C59.9511667,30.0761874 59.8513731,27.9818144 59.8288763,27.0479017 C63.4093316,26.9373948 67.083812,26.9709249 70.6833031,26.9095626 Z" id="Path" fill="#A20A08"></path>
                    <path d="M70.8602354,27.7071052 C70.82951,29.5275924 70.8710462,31.5301227 70.8113023,33.3236425 L76.1535498,33.3246903 C76.086409,35.4910098 76.0482866,37.6581015 76.0391828,39.8254137 C76.0437347,41.1691473 76.084702,42.5132669 76.0812881,43.8565593 C76.0807191,44.3047462 76.0613734,44.5938866 75.5737489,44.7071052 C74.2684858,44.6003389 72.2514161,44.6281886 70.884702,44.5989051 L70.7845598,44.5095103 C70.657106,42.8946697 70.7236778,40.6548932 70.7248158,38.9934526 C68.9928101,38.9985262 67.2608044,38.9846841 65.5287987,38.9519262 L65.5083151,38.826189 C65.3233933,37.7490404 65.3632226,34.569654 65.3541188,33.343606 C63.6386138,33.3187895 61.8889694,33.3315838 60.1700505,33.3268962 L60.1689125,31.735328 C60.2741757,30.8945432 60.1757404,28.7864047 60.1535498,27.8463537 C63.685271,27.7351204 67.3097376,27.7688709 70.8602354,27.7071052 Z" id="Path" fill="#BE1B1A"></path>
                    <path d="M71.1601407,66.6703111 L74.3685713,66.6579913 C75.2516041,66.7072706 75.8960898,66.7169122 76.7814557,66.6944151 C76.6315617,70.5773037 76.6426434,73.6417271 76.7470442,77.5208662 C73.1145946,77.6579913 69.4780622,77.6922725 65.8426964,77.62371 C65.8304482,76.1646138 65.8905225,73.6342281 65.7814557,72.2576212 C67.0570124,71.9592671 69.7492711,72.2951163 71.3485288,72.0481841 C71.2622086,70.2564525 71.1998014,68.4636496 71.1601407,66.6703111 Z" id="Path" fill="#BE1B1A"></path>
                    <path d="M70.7851393,5.7534016 C74.5270438,5.91693038 78.0090295,5.88850931 81.7573017,5.85691241 C81.7816148,7.01517849 81.9714887,15.9642616 81.7185165,16.7655418 C80.2782538,16.9299319 77.8006313,16.9874737 76.3655785,16.7857272 C76.3736829,18.4129947 76.3424232,20.78357 76.5716612,22.3493123 C74.6729225,22.2069917 72.7463974,22.3980265 70.9402801,22.2737381 C70.9234925,24.1230452 70.9321757,25.9725138 70.9663299,27.8216055 C67.3540953,27.8818926 63.6666059,27.84895 60.0734745,27.9575207 C60.0960509,28.8750689 60.1961978,30.9327433 60.0891043,31.7534016 C59.9200703,30.8341308 60.1458349,28.4674312 59.7915581,27.938358 L59.4066004,27.8585314 C56.232465,27.7658938 52.3434083,27.9629034 49.2567423,27.7580888 C49.0233942,27.5264678 49.1054799,27.4605288 49.0934392,27.0443863 C48.8459085,25.9507673 49.1406182,22.9602038 48.8485134,22.4176736 C49.2239196,21.9426435 49.1276512,17.5657994 49.13865,16.7410502 C52.7504793,16.6493815 56.3644505,16.6602009 59.9756431,16.7735622 C60.0404781,15.1243868 60.065949,13.1226394 60.2511918,11.507537 C63.2249176,11.2477642 67.8750907,11.3533204 70.9113359,11.3511135 L70.7851393,5.7534016 Z" id="Path" fill="#A20A08"></path>
                    <path d="M71.4228826,11.7332695 C74.8959553,11.7614717 78.3533785,11.621265 81.8180675,11.6538637 C81.7996235,13.0195258 81.6800165,15.8331512 81.821421,17.0870768 C80.4308505,17.2508212 78.0387116,17.3081371 76.6531714,17.107183 C76.6609961,18.7280589 76.6308149,21.0893231 76.8521437,22.6489156 C75.0189157,22.507154 73.15886,22.6974384 71.4150578,22.5736383 L60.8527585,22.5717617 C60.8063689,20.7569554 60.8113991,18.9412376 60.868408,17.1266993 C64.2062243,17.2504995 68.0420302,17.1051456 71.4463569,17.0974248 L71.4228826,11.7332695 Z" id="Path" fill="#BE1B1A"></path>
                    <path d="M48.9713336,23.1711542 C52.7617743,23.2141871 56.3102447,22.9216402 59.9482581,22.94581 C59.9406746,23.6286448 60.053843,27.4563595 59.7615886,27.8417265 L59.3608325,27.9443881 C56.1622508,27.8613615 52.2432415,28.0379317 49.1328028,27.8543662 C48.8976575,27.6467756 48.9803755,27.5876776 48.9682419,27.2147092 C49.0573183,25.9376142 48.9936757,24.4654237 48.9713336,23.1711542 Z" id="Path" fill="#BE1B1A"></path>
                    <path d="M66.0375783,82.8549726 C67.7865534,83.074284 71.8849451,82.4390864 74.0085654,82.7905529 L71.9101737,82.8023948 C71.8950366,84.4294668 71.9309874,86.0565389 72.0180261,87.6821899 C70.016134,87.6035599 68.0129804,87.5509821 66.0085654,87.5239826 L66.0375783,82.8549726 Z" id="Path" fill="#800C0B"></path>
                    <path d="M76.9717973,88.8506979 L77.0714723,89.0190156 C76.8240034,89.4779655 76.8669668,93.7990221 76.8606655,94.5534752 L82.1548954,94.7158395 C82.1927032,96.4672096 82.2608717,98.2174973 82.3582553,99.9667026 C84.1002758,99.9715735 85.9035906,100.000258 87.6398827,99.9748208 C87.4657379,102.630019 87.4743306,108.419932 87.6994585,111.089202 C87.4915159,112.372963 87.5734327,115.223539 87.5596844,116.659923 L82.2517062,116.671829 L82.2391036,122.186805 L76.7993711,122.219819 C76.7902056,124.013945 76.7478151,125.90549 76.8394702,127.689874 L76.9385723,127.744537 C76.9465922,129.531627 76.9884098,131.417219 76.9443008,133.196732 L82.3828876,133.17346 C82.388616,134.199061 82.4894367,137.742934 82.108495,138.491433 C81.9566912,138.552049 81.7665068,138.639726 81.6084017,138.660834 C80.2857034,138.790184 78.2011219,138.822115 76.8789965,138.771783 L76.8446258,139.090017 C77.0645982,140.546966 76.9271154,144.099498 76.9523206,145.676056 C77.0308003,150.665512 76.810828,155.832487 76.9580491,160.805707 C73.0970763,160.887431 69.883418,160.852252 66.0407763,160.745091 C65.975472,158.935811 65.9416742,157.125449 65.9393828,155.315627 C64.250064,155.331323 62.4536233,155.376785 60.7728972,155.3389 C57.2857629,155.381656 53.1260517,154.999017 49.9044308,155.194937 C50.092954,153.377538 49.972943,151.494112 50.033951,149.655065 L44.6040714,149.684832 L44.6180488,144.246708 L39.1240106,144.25645 C39.1525383,146.067895 39.1564909,147.87934 39.1359258,149.691326 C37.4367541,149.661018 35.3317793,149.793075 33.7003751,149.681043 C33.8841436,146.891083 33.7034111,141.807996 33.6994585,138.819951 C35.3776641,138.859459 37.3990609,138.729027 39.1563191,138.722532 C38.9810286,129.513226 39.0014792,120.301755 39.2175562,111.093532 C40.8694109,111.111933 43.022963,111.089202 44.6136379,111.282415 C44.3687468,107.509609 44.451351,103.772523 44.5720494,99.9986343 C45.9062618,100.007835 48.6596394,99.9656202 49.8756167,100.134479 L49.8586032,94.578371 C51.6016548,94.6189621 53.4537188,94.5897365 55.2053631,94.5897365 C55.1752314,93.3276243 55.143324,92.1862029 55.2110342,90.9251731 C55.3419292,92.0882431 55.3285819,93.4293726 55.3460537,94.6151736 C57.9636099,94.6281628 60.5809942,94.6173385 63.1983213,94.5837832 C63.8421987,94.5085543 65.1626055,94.5237084 65.857466,94.5134253 C65.8952738,93.5782066 66.0894681,89.8340847 65.8603303,89.1597314 L65.540683,89.0065677 L66.0499418,88.9010309 C67.870442,88.9318801 69.6897965,88.9919549 71.5080053,89.0817965 C73.2265392,89.0639364 75.1862406,88.8994072 76.9717973,88.8506979 Z" id="Path" fill="#960C1A"></path>
                    <path d="M76.0100493,138.724723 C76.2254703,140.197696 76.0908322,143.789298 76.1155159,145.383194 C76.1923718,150.427524 75.9769508,155.651324 76.1211258,160.679238 C72.3400382,160.76186 69.1928719,160.726294 65.4297361,160.617955 C65.365783,158.788777 65.3326845,156.958505 65.3304405,155.12878 C63.6760744,155.144647 61.9168028,155.190609 60.2708517,155.152308 C60.0492598,154.084786 60.1592142,150.79522 60.1827759,149.556434 L65.3237086,149.543302 C65.2743413,147.754068 65.3332454,145.74706 65.3455873,143.941957 C67.2585707,143.930467 68.8742283,143.944693 70.7888948,144.069994 C70.6424758,145.740494 70.6811843,147.874991 70.6811843,149.574491 C72.3299404,149.507737 74.2995841,149.55151 75.9724628,149.546585 C75.964048,146.419528 75.8007992,141.729763 76.0100493,138.724723 Z" id="Path" fill="#A20A08"></path>
                    <path d="M66.1824318,149.721271 C67.8297671,149.708147 69.4776243,149.717868 71.1249596,149.750435 C71.1969685,151.363208 71.1959249,152.977924 71.1223506,154.590697 C69.5266738,154.632985 67.7499311,154.552784 66.1782574,154.715616 L66.1824318,149.721271 Z" id="Path" fill="#020202"></path>
                    <path d="M76.7526222,88.5927194 L76.8502585,88.7590878 C76.6078512,89.2127223 76.6499358,93.483734 76.6437634,94.2294492 L81.8297071,94.3899331 C81.8667416,96.1210195 81.9335158,97.851036 82.0289075,99.5799827 C83.7352974,99.5847972 85.5017279,99.6131493 87.2025065,99.5880069 C87.0319236,102.212454 87.0403405,107.93531 87.2608638,110.573665 C85.6010475,110.635184 83.5961377,110.534079 81.9239766,110.464001 C81.9105096,106.859533 81.9189265,103.255064 81.9486663,99.6505956 L76.589334,99.6179639 C76.5842838,97.8403371 76.593823,96.0627104 76.6190738,94.2856186 C72.3264456,94.231589 67.4345328,94.4086562 63.2608638,94.2594062 C63.8915715,94.1850487 65.1849712,94.2000272 65.8656193,94.1898632 C65.9026538,93.2654759 66.0928761,89.564717 65.868425,88.8981738 L65.5553156,88.746784 L66.0541583,88.6424695 C67.8374227,88.6729614 69.6195648,88.7323404 71.4005846,88.8211415 C73.0839682,88.8034883 75.0035866,88.6408646 76.7526222,88.5927194 Z" id="Path" fill="#A20A08"></path>
                    <path d="M65.6886762,110.632584 C67.4875361,110.686418 69.6333063,110.625195 71.4587155,110.615167 C71.2893902,112.727374 71.3501585,115.29084 71.3383588,117.435243 C71.3212493,120.52333 71.3023698,123.719614 71.4899846,126.796618 C73.1838274,126.870508 75.2841689,126.891092 76.9626721,126.786062 L77.0647393,126.839369 C77.0729991,128.582125 77.1160679,130.420938 77.0706391,132.156305 L82.6719431,132.13361 C82.6778429,133.133768 82.7816801,136.589724 82.389341,137.319655 C82.2329953,137.378767 82.0371208,137.464269 81.8742853,137.484852 C80.5120133,137.610994 78.3650631,137.642133 77.003381,137.593049 C76.9048538,136.008102 76.9178334,133.811976 77.0098708,132.241279 L71.4775949,132.238112 C71.4640253,130.446272 71.4616654,128.65496 71.4693352,126.863119 C69.6032171,126.767062 67.7341492,126.713755 65.8650813,126.702672 C65.9795381,121.597907 65.8249624,115.730488 65.6886762,110.632584 Z" id="Path" fill="#800C0B"></path>
                    <path d="M6.03444424,33.0466343 C7.61789365,33.1454448 9.73146541,33.0665254 11.4035184,33.0952332 C11.1332689,43.6629595 11.1018513,54.2347716 11.3093231,64.8039495 C11.3394725,67.276363 11.298716,69.7595284 11.3184313,72.2297915 C11.3294419,73.6151817 11.2761184,75.6790207 11.4856654,77.0079631 L16.8316231,77.2079496 L16.8247631,82.4957641 L22.1896866,82.6527427 C22.1346336,84.4450947 22.1640913,86.1842244 22.1910701,87.9749635 C20.3791078,87.9631364 18.421356,88.1238782 16.6803572,88.0771072 C16.7432501,89.8925758 16.792596,91.7080445 16.8284525,93.5240507 C15.0652019,93.5563066 13.2287395,93.613292 11.4711384,93.5977017 C11.2732936,99.2301165 11.4072654,104.443743 11.3623584,110.004657 C9.88595953,110.003044 7.57944306,110.058417 6.17660188,109.91434 C5.709384,110.67988 5.96355565,114.47371 6.00881435,115.499447 L6.01013447,120.998 L11.4405854,121.012515 C11.4191407,122.798953 11.4385678,124.755272 11.3534807,126.527733 L13.4375372,126.505692 C16.2697948,126.590632 19.3012807,126.538485 22.1496795,126.530421 L22.1602866,131.889736 C21.2136642,131.878447 17.3743701,131.764476 16.8052784,132.136494 C16.8294901,133.860571 16.8924984,135.58411 16.9943031,137.306037 C17.9161948,137.350657 21.5631207,137.37915 22.0419372,137.492046 C22.1985066,137.892556 22.1775807,138.108133 22.1819042,138.537674 C22.1239113,143.242732 22.1230466,147.948328 22.1793678,152.653386 L22.3848219,153.685037 C22.7616607,153.900614 26.9058501,153.931257 27.6193478,153.943622 C27.5878148,152.061491 27.5894866,150.178822 27.6244207,148.296692 C29.4484313,148.283252 31.2724995,148.283789 33.0965101,148.297767 C34.7382407,148.40905 36.8565395,148.277876 38.5664666,148.307981 C38.5871619,146.508103 38.5831842,144.708762 38.554476,142.909421 L44.0832901,142.899745 L44.0692242,148.30153 L49.5334736,148.271962 C49.4720795,150.09872 49.5928501,151.969561 49.4031336,153.774816 C52.6451466,153.580205 56.8311878,153.960287 60.3403948,153.917817 C62.0317595,153.955449 63.8395713,153.91029 65.5395831,153.8947 C65.5418889,155.692428 65.5759007,157.490694 65.6416184,159.287884 C69.5085831,159.394328 72.7425831,159.429272 76.6279948,159.348095 C76.4798419,154.408106 76.7012066,149.275658 76.6222301,144.319541 C76.5968654,142.753518 76.7352184,139.224724 76.5138536,137.77751 L76.5484419,137.461403 C77.878936,137.511399 79.9767125,137.479681 81.3077831,137.351195 C81.4668889,137.330229 81.6582772,137.243138 81.8110419,137.182927 C82.1943948,136.439429 82.092936,132.919237 82.0871713,131.900488 L76.6141595,131.923605 C76.6585478,130.155983 76.6164654,128.282991 76.6083948,126.507842 L76.5086654,126.453545 C76.4164301,124.681084 76.4590889,122.802179 76.4683125,121.020041 L81.9424772,120.987248 L81.9551595,115.509123 L87.296736,115.497296 C87.3105713,114.070511 87.228136,111.238982 87.4373948,109.963799 C87.2108419,107.312366 87.2021948,101.561142 87.3774419,98.9236856 C85.6301595,98.9489528 83.8154301,98.9204601 82.0623831,98.9156217 C81.9643831,97.1781047 81.8957831,95.4395126 81.857736,93.6998453 L76.5299948,93.5385659 C76.536336,92.7891542 76.4931007,88.4969713 76.742136,88.0410881 C77.9123713,87.9851779 80.711136,87.7029389 81.5862184,88.2679545 C82.1154184,88.8980194 81.9989713,92.5429343 81.9511242,93.5568442 C83.7745007,93.4724413 85.6007595,93.4740541 87.424136,93.5606074 C87.208536,95.5991792 87.4258654,96.8636099 87.4604536,98.8301436 C88.9777242,98.8946553 90.9959478,98.9575543 92.4982301,99.1677552 C92.9524889,101.472976 92.784736,107.30914 92.7853125,109.88316 C94.1498184,109.971326 97.0229478,110.086909 98.2473713,110.315389 L98.2473713,131.965 C96.4735713,132.069294 94.5262536,132.340244 92.8787007,131.806409 C92.6665595,133.175133 92.7662889,136.134611 92.7905007,137.583437 C89.2452066,137.326466 85.5044889,137.614618 81.9897478,137.540967 C82.0185713,141.660043 81.8911713,145.685578 81.8485125,149.79444 C81.8145007,153.067874 82.1148419,156.313354 81.8940536,159.59324 C80.0712536,159.543781 78.4721242,159.573886 76.6573948,159.623883 C76.5530536,160.701229 76.6268419,164.02036 76.2261948,164.496672 C74.7538889,165.172432 67.7393948,164.892344 65.5551478,164.981047 C65.8013007,163.530608 65.6341242,161.03669 65.5557242,159.505074 C64.1479831,159.374975 61.8922536,159.431423 60.4280184,159.435186 C60.2256772,161.370001 60.1305595,162.998923 60.3605713,164.931051 C58.7089831,164.714936 51.1648278,164.843422 49.351136,165.046634 C49.5270172,163.153214 49.4276336,161.410321 49.3389725,159.522814 C43.2071125,159.025536 43.6595266,160.126537 43.776896,153.924806 C43.0172231,153.882335 42.2566278,153.853843 41.4956866,153.84094 C40.4133054,153.826963 38.7701913,153.928031 38.6151207,155.238695 C38.4501925,156.632687 38.5565513,158.170218 38.5851442,159.586788 C34.9824913,159.26638 31.1124713,159.670654 27.8228419,159.429272 C27.5835489,161.212485 27.6123725,163.112356 27.5865466,164.917611 C26.3478842,164.822456 23.5126866,164.92675 22.2709113,165.015991 C22.3859172,163.306429 22.2906266,161.260331 22.195336,159.559371 C20.3050313,159.447013 18.7185842,159.447551 16.8555466,159.091123 C16.7770889,151.915264 17.0929372,144.80553 16.9382701,137.529678 C14.4007042,137.375387 8.52324071,137.343669 6.02637365,137.581825 C6.08390541,135.833556 6.10903953,133.771867 5.98494271,132.040264 C3.84698624,132.091336 2.33221753,132.047253 0.247371294,131.688675 L0.247371294,110.513762 C2.27410353,110.005194 4.438814,110.191203 6.038076,109.749298 C5.86957941,108.959566 6.12760188,105.399592 6.13913129,104.397509 C6.16541835,100.768722 6.11832071,97.1393977 5.99790753,93.511686 L11.3536536,93.4713661 C11.5038819,91.6274048 11.5395654,89.7769922 11.4605889,87.9287301 C13.1904042,87.9287301 14.9201619,87.944858 16.6495736,87.9760387 C16.9493384,85.6702807 16.8678831,85.0902123 16.6551078,82.7452096 C14.7996219,82.7081153 13.1081995,82.6672579 11.2488513,82.7629503 C11.5434854,80.9469441 11.4387407,79.1298626 11.3889913,77.2982661 C9.69370659,77.1988104 7.95466776,77.309018 6.27846424,77.152577 C5.84480271,76.7251865 6.13838188,67.4806503 6.14086071,66.179663 L6.14927718,41.9727512 C6.14870071,39.9704673 6.285036,34.7423799 6.03444424,33.0466343 Z" id="Path" fill="#020202"></path>
                    <path d="M38.471004,143.205619 L43.9764883,143.19571 L43.9624818,148.727218 L49.4036739,148.69694 C49.3425388,150.567568 49.4627998,152.483337 49.2738839,154.331944 C52.5022166,154.13266 56.670594,154.521869 60.1649934,154.478379 L60.0519079,160.014291 C56.8670873,160.183297 52.4592211,160.429925 49.3653855,159.708759 C49.061949,158.146967 49.1300299,156.106783 49.1388127,154.478379 L43.9672463,154.48994 C43.9356742,152.612156 43.9167884,150.734372 43.9106462,148.856588 L38.5256524,148.820805 C38.4979838,150.758594 38.4815089,152.562059 38.5479825,154.503152 C34.9243672,154.583526 31.2993168,154.586829 27.6755292,154.513061 C27.7294888,156.30937 27.7149657,158.197063 27.7303499,160.001079 C25.9413602,160.058882 24.1507633,160.053377 22.3622329,159.985114 C22.177737,157.94438 22.1875531,155.24854 22.1649934,153.183583 L22.3695805,154.240009 C22.7448292,154.460763 26.8715315,154.492142 27.5820184,154.504803 C27.5506186,152.577474 27.5522833,150.649593 27.58707,148.722264 C29.4033838,148.708501 31.2197551,148.709051 33.036069,148.723365 C34.670872,148.83732 36.7802323,148.702996 38.482944,148.733824 C38.503552,146.890722 38.4995911,145.048171 38.471004,143.205619 Z" id="Path" fill="#A20A08"></path>
                    <path d="M86.9045577,110.441404 C88.7349887,110.484404 90.5666061,110.486609 92.3970371,110.448019 C92.3774635,113.000473 92.3080661,119.130219 92.5998911,121.525005 L92.4124588,121.791276 C91.8228773,121.863494 91.2344821,121.873418 90.6407486,121.867353 C87.5593846,121.833725 84.4293831,121.918623 81.3539505,121.784661 C81.3616613,123.499159 81.2993816,125.771559 81.4108919,127.441404 C79.5282645,127.416596 77.6456371,127.405019 75.7624166,127.406673 L75.6598033,127.350993 C75.5649009,125.533404 75.6087932,123.60666 75.6182835,121.779148 L81.250744,121.745519 L81.2637931,116.127917 L86.7598314,116.115789 C86.7740668,114.652676 86.6892477,111.749054 86.9045577,110.441404 Z" id="Path" fill="#A20A08"></path>
                    <path d="M22.947259,109.540296 C24.7461473,109.66609 26.7377153,109.631783 28.5563609,109.633961 C28.865289,115.711251 28.4780564,122.415874 28.6117662,128.532917 C28.6699507,131.195815 28.3485157,134.809516 28.6617336,137.398354 C27.7623801,137.392364 23.4773852,137.243154 23.027074,137.595485 C22.9625453,137.91024 22.9015814,138.224996 22.8443032,138.540296 C22.8397716,138.105193 22.8617042,137.886824 22.6976031,137.481127 C22.1957536,137.36677 18.3733955,137.337908 17.4071569,137.292709 C17.300455,135.548484 17.2344158,133.802624 17.2090394,132.05622 C17.8055068,131.679385 21.8294868,131.794831 22.8216456,131.806267 L22.8105283,126.377548 C19.8251097,126.385716 16.6477969,126.438539 13.6792959,126.352498 C15.0372986,126.167892 21.1948339,126.255022 22.901944,126.252844 C22.8643022,124.443271 22.9206742,122.540034 22.944238,120.723381 L22.947259,109.540296 Z" id="Path" fill="#800C0B"></path>
                    <path d="M22.0805488,39.5162053 L26.7874596,39.54352 L27.3059836,39.7538857 C27.5646077,40.5165277 27.356792,43.5590493 27.4225645,44.6827115 C25.6377166,44.7373409 23.9111591,44.9287028 22.1636635,45.0001657 C21.843907,46.6446604 21.8765612,50.7350935 21.8769672,52.5027162 L21.8892053,62.6281684 C21.8970934,63.6778796 21.9308496,65.1701318 21.9675639,66.2664263 C21.8905973,66.3463589 21.8248828,66.4146457 21.7704784,66.4707573 C20.309157,66.5644532 18.1184219,66.4993425 16.6593045,66.4014118 C16.4246926,60.1163782 16.3106637,51.151643 16.6675405,44.934261 C18.3640538,44.9946075 20.3398392,44.9489242 22.0569426,44.9468597 C22.098355,43.1368886 22.106243,41.326441 22.0805488,39.5162053 Z" id="Path" fill="#020202"></path>
                    <path d="M5.64553341,116.678476 C7.44792853,116.679012 9.3135055,116.655969 11.1102537,116.690801 C11.0790143,118.481172 11.0601346,120.272079 11.0536146,122.062986 C13.2091341,122.035656 19.7518353,121.874357 21.6455334,122.110144 C21.623422,123.897835 21.5705248,125.770732 21.6058463,127.551457 C20.0039617,127.553601 14.2259742,127.46786 12.9516783,127.649523 L10.9020099,127.671494 C10.9856929,125.904702 10.9665864,123.954639 10.9876773,122.173913 L5.64683175,122.159444 L5.64553341,116.678476 Z" id="Path" fill="#A20A08"></path>
                    <path d="M65.6761826,88.8470739 L66.0025054,88.9834876 C66.2364286,89.5840935 66.0381787,92.9187575 65.9995813,93.7517005 C65.2902093,93.760859 63.942227,93.7473622 63.2849029,93.814364 C60.6129155,93.8442497 57.9408696,93.8538902 55.2686482,93.8423216 C55.2508115,92.7862 55.2644376,91.5917367 55.130809,90.5558603 L55.1147267,88.9087734 C56.9008471,88.8639449 58.7766186,88.8885283 60.5696397,88.8904564 C62.2334183,88.8894923 64.0252698,88.9150398 65.6761826,88.8470739 Z" id="Path" fill="#800C0B"></path>
                    <path d="M60.1451537,82.8130068 L60.2791146,83.1165091 C61.3549395,83.4074112 63.9927796,83.0606297 65.0184339,83.252373 L64.9946416,88.6524139 L64.5348299,88.7592424 C63.0747078,88.8364876 61.4899349,88.8074521 60.0184339,88.8085478 C60.0727424,87.2756966 60.1886004,84.6394993 60.0670529,83.1740322 L60.1451537,82.8130068 Z" id="Path" fill="#BE1B1A"></path>
                    <path d="M22.0436462,83.5089873 C23.6251309,83.4373597 25.3759745,83.5015776 26.9716028,83.5297347 C26.9703503,85.0857829 26.922961,86.9154982 27.0154953,88.4488232 C26.0014287,88.4473413 22.8099111,88.5372463 22.0448988,88.3994248 C22.0204735,86.7539655 21.9938041,85.1559286 22.0436462,83.5089873 Z" id="Path" fill="#800C0B"></path>
                    <path d="M59.9561212,82.900345 C60.0794777,84.1959955 59.9618953,86.5267133 59.9067786,87.8819395 C58.2973695,87.8800021 56.6136842,87.8552999 55.0104692,87.900345 C55.0766618,86.2733955 55.1182356,84.6454772 55.1351905,83.017559 C56.7419749,82.9705765 58.3488118,82.9313437 59.9561212,82.900345 Z" id="Path" fill="#A20A08"></path>
                    <path d="M22.8655551,66.507356 C24.4693397,66.4514232 26.1463886,66.5418147 27.7172071,66.4614112 C27.7019014,68.1279114 27.702383,69.794911 27.7186521,71.4614112 L22.7186521,71.4274519 C22.9449737,70.2104124 22.8758302,67.8252745 22.8655551,66.507356 Z" id="Path" fill="#020202"></path>
                    <path d="M28.1184582,89.2746579 C33.2500453,89.3914008 38.9349902,89.2926558 44.1184582,89.2931422 L44.1026089,94.2746579 C38.7835665,94.2230965 33.4640111,94.2187186 28.1447977,94.2620107 L28.1184582,89.2746579 Z" id="Path" fill="#800C0B"></path>
                </g>
            </g>
        </g>
    </g>
</svg>