<?xml version="1.0" encoding="UTF-8"?>
<svg width="253px" height="105px" viewBox="0 0 253 105" version="1.1" xmlns="http://www.w3.org/2000/svg" xmlns:xlink="http://www.w3.org/1999/xlink">
    <title>cloud</title>
    <g id="home" stroke="none" stroke-width="1" fill="none" fill-rule="evenodd">
        <g id="landing-1-copy-25" transform="translate(-1323, -430)">
            <g id="hero" transform="translate(588, 208)">
                <g id="Group-7" transform="translate(117, 153)" fill-rule="nonzero">
                    <g id="Group" transform="translate(9, 0)">
                        <g id="Group-29" transform="translate(516.3004, 2.2281)">
                            <g id="cloud" transform="translate(92.6996, 66.7719)">
                                <path d="M157.336431,0.0498164312 C159.358383,-0.0279531835 161.379714,-0.0146668028 163.400424,0.0896755731 C182.915752,1.10316069 200.471992,9.90990523 213.480437,24.3880742 C216.698235,27.9692852 219.399727,31.8520971 221.815535,36.0102028 C229.593098,49.3970285 232.246178,63.165439 231.415727,78.5106772 C233.828876,79.441521 236.12392,80.4074409 238.308575,81.8181888 C246.904885,87.3695043 250.908445,95.2321187 253,104.935162 L95.7657662,104.965721 L39.2621282,105 L15.9627432,104.978476 C10.6418466,104.91913 5.32093214,104.919662 0,104.98007 C1.14613914,102.831131 2.73367803,100.859432 4.29150477,98.9921644 C10.9409897,91.0213989 20.776219,85.5641509 31.133978,84.6104545 C32.6852878,73.5386478 37.4424249,64.5373907 46.2236041,57.5224474 C52.2663173,52.6952396 60.2330058,49.9555879 67.9392806,49.8320246 C69.9986496,49.7990744 72.0383346,50.028663 74.0812117,50.2563916 C75.1800561,47.7968168 76.4283923,45.584103 78.1188198,43.4766173 C83.9412854,36.2172046 92.1409895,31.5396015 101.444858,30.5045924 C103.115868,28.0128646 104.908173,25.8198146 106.917534,23.5946116 C120.105529,8.98969051 137.741037,1.06011281 157.336431,0.0498164312 Z" id="Path" fill="#CF042A"></path>
                                <path d="M114.343922,34.4222994 C115.331856,32.8226867 116.936117,31.3526136 118.266662,30.0257016 C118.761782,29.540663 119.265058,29.0642603 119.776493,28.5964935 C120.287927,28.1287268 120.807164,27.6700412 121.334204,27.2204367 C121.861421,26.7706541 122.396175,26.3301308 122.938465,25.8988666 C123.480756,25.4676024 124.030317,25.0458645 124.587149,24.6336528 C125.143804,24.2214412 125.707463,23.8189339 126.278127,23.4261309 C126.848614,23.0333279 127.425662,22.6505854 128.009272,22.2779033 C128.593059,21.9050432 129.182964,21.5424216 129.778987,21.1900385 C130.375187,20.8376554 130.97724,20.4956889 131.585144,20.164139 C132.192871,19.8325891 132.806185,19.5116338 133.425084,19.2012731 C134.043983,18.8909125 134.668025,18.5914136 135.29721,18.3027764 C135.926395,18.0139611 136.560279,17.7361857 137.198862,17.46945 C137.837623,17.2025363 138.480729,16.9467514 139.128179,16.7020954 C139.775629,16.4576173 140.427069,16.2243572 141.0825,16.0023149 C141.73793,15.7802726 142.396996,15.5696262 143.059697,15.3703757 C143.722398,15.1711253 144.388291,14.9833598 145.057376,14.8070792 C145.726461,14.6307986 146.398383,14.466181 147.073143,14.3132265 C161.288054,10.9793869 177.66397,14.1714007 189.967652,21.8676504 C199.089944,27.573532 207.113113,36.149849 211.812314,45.9064446 C213.977309,50.4015993 215.484213,55.2701482 216.598498,60.1264109 C217.955909,66.0411584 218.150889,72.0015785 217.742043,78.0453313 C217.583328,80.4000124 217.289573,82.7375996 216.860777,85.058093 C216.732563,85.7773712 216.113575,87.9875556 216.245779,88.5118568 C219.92752,88.1584944 223.201746,88.3649563 226.675207,89.740479 C231.987544,91.8440938 235.730466,95.7959838 238,101 C225.905928,100.90634 213.811678,100.890314 201.717251,100.951923 L175.141201,100.937501 L69.2477106,100.898772 L35.2733318,100.922009 C28.5156255,100.978811 21.7578482,100.991631 15,100.96047 C16.6971761,96.5198025 20.2790336,92.5689809 24.5369365,90.485665 C29.8660318,87.8783151 35.4406474,88.003314 40.9655206,89.8937897 C40.1121844,83.3008962 41.0195191,77.2074644 44.5586831,71.4863585 C48.4048141,65.268996 54.3278931,60.8836161 61.4408015,59.2207027 C68.2515311,57.6283015 75.1947299,58.8729492 81.1132868,62.5897984 C80.2977229,58.9669655 80.9020808,54.6814779 82.0070554,51.1815073 C84.1654002,44.3452932 89.1188998,38.9975816 95.4111903,35.7339871 C101.260321,32.7003587 108.126645,32.4346024 114.343922,34.4222994 Z" id="Path" fill="#E31329"></path>
                                <path d="M114,34.3699252 C114.991863,32.7742234 116.602505,31.3077443 117.938342,29.9840765 C118.435431,29.5002236 118.94071,29.0249857 119.454178,28.5583625 C119.967647,28.0917394 120.488949,27.6341752 121.018085,27.1856699 C121.547399,26.736987 122.08428,26.2975407 122.628727,25.8673309 C123.173175,25.437121 123.724922,25.0164142 124.283969,24.6052103 C124.842838,24.1940065 125.408739,23.7924833 125.981673,23.4006406 C126.554429,23.008798 127.133772,22.6269912 127.719703,22.2552203 C128.305812,21.8832718 128.898064,21.5215367 129.496457,21.1700151 C130.095029,20.8184936 130.699476,20.4773631 131.309799,20.1466238 C131.919943,19.8158844 132.535696,19.4957138 133.157057,19.186112 C133.778418,18.8765101 134.404942,18.5777434 135.036629,18.2898119 C135.668316,18.0017028 136.304722,17.7246065 136.945845,17.4585229 C137.587147,17.1922618 138.23281,16.9371022 138.882835,16.6930443 C139.532861,16.449164 140.186892,16.2164741 140.84493,15.9949747 C141.502967,15.7734753 142.164654,15.5633439 142.829991,15.3645805 C143.495328,15.1658172 144.163869,14.9785108 144.835616,14.8026612 C145.507362,14.6268116 146.181957,14.4625965 146.859401,14.3100158 C161.130851,10.984327 177.571902,14.1685369 189.924522,21.8459703 C199.083097,27.537902 207.138179,36.0932513 211.856071,45.8259935 C214.029677,50.3101582 215.542575,55.1668043 216.661292,60.0111942 C218.024102,65.911481 218.219857,71.8573288 217.809385,77.8863056 C217.650039,80.2352299 217.355115,82.5671021 216.924614,84.8819222 C216.79589,85.5994418 216.17444,87.8042228 216.30717,88.3272421 C215.398095,88.5150814 214.554985,88.7031872 213.671816,89 C213.920716,83.9587118 213.573003,80.0228782 211.589811,75.3045138 C211.505598,75.0993559 211.418893,74.8952638 211.329694,74.6922375 C211.240496,74.4892111 211.148805,74.2872505 211.054622,74.0863557 C210.960439,73.8856385 210.863763,73.6860758 210.764594,73.4876677 C210.665426,73.2892597 210.563854,73.092095 210.459878,72.8961736 C210.355725,72.7002523 210.249256,72.5056632 210.140474,72.3124063 C210.031691,72.1191493 209.920505,71.9272246 209.806915,71.7366321 C209.693325,71.5460395 209.577421,71.356868 209.459202,71.1691175 C209.340805,70.9815446 209.220183,70.7953927 209.097335,70.6106618 C208.974487,70.4259309 208.849414,70.2427098 208.722115,70.0609986 C208.594638,69.8792873 208.465025,69.6992635 208.333275,69.5209272 C208.201347,69.3424132 208.067282,69.1655866 207.931082,68.9904475 C207.794881,68.8153085 207.656543,68.6418568 207.516069,68.4700926 C207.375417,68.2983284 207.232807,68.1282517 207.088238,67.9598623 C206.943491,67.7916507 206.796697,67.6252152 206.647855,67.4605561 C206.499014,67.2960745 206.348213,67.1333692 206.195455,66.9724402 C206.042518,66.8115112 205.887712,66.6524472 205.731036,66.4952484 C205.574183,66.3382271 205.41546,66.1830709 205.254867,66.0297798 C205.094275,65.8766663 204.931724,65.7255067 204.767215,65.576301 C204.602884,65.4270953 204.436772,65.2799323 204.26888,65.134812 C204.10081,64.9896916 203.931048,64.846614 203.759595,64.7055791 C203.587964,64.5647218 203.414642,64.4259072 203.239628,64.2891353 C203.064793,64.152541 202.888177,64.0180782 202.70978,63.8857469 C202.531562,63.7534157 202.351652,63.6233047 202.170051,63.4954141 C201.988628,63.3675235 201.805602,63.2418532 201.620974,63.1184033 C201.436346,62.9951309 201.250205,62.8740789 201.06255,62.7552472 C200.874896,62.6364155 200.685906,62.5198929 200.495581,62.4056795 C200.305078,62.2914661 200.11315,62.1796506 199.919798,62.0702331 C199.726624,61.9608156 199.532026,61.853796 199.336004,61.7491744 C199.140159,61.6445527 198.94298,61.5423291 198.744465,61.4425033 C198.546128,61.3426776 198.346544,61.2453386 198.145715,61.1504864 C197.944885,61.0556342 197.742898,60.9632688 197.539754,60.8733901 C197.33661,60.7835114 197.132398,60.6961195 196.927117,60.6112143 C190.214283,57.8855456 183.647797,58.1823584 177.042855,60.9405327 C177.7965,59.0669352 178.566702,57.209324 178.948599,55.2174276 C178.988124,55.0039214 179.025067,54.789971 179.059429,54.5755766 C179.093791,54.3611822 179.125482,54.1464326 179.154503,53.9313276 C179.183523,53.7160451 179.209873,53.5004961 179.233553,53.2846807 C179.257232,53.0688653 179.278152,52.8527835 179.296312,52.6364352 C179.31465,52.4200869 179.330318,52.203561 179.343315,51.9868574 C179.356312,51.7701539 179.366638,51.5533615 179.374294,51.3364804 C179.381771,51.1194216 179.386667,50.9023628 179.388982,50.685304 C179.391118,50.4682452 179.390673,50.2510976 179.387647,50.0338612 C179.384442,49.8168024 179.378567,49.5998324 179.370021,49.3829512 C179.361475,49.1660701 179.350258,48.9492777 179.336371,48.7325742 C179.322484,48.5158706 179.305926,48.2993447 179.286698,48.0829964 C179.267469,47.8668257 179.24557,47.6508327 179.221001,47.4350173 C179.196431,47.2193795 179.169191,47.0040082 179.13928,46.7889032 C179.10937,46.573976 179.076788,46.3593151 179.041536,46.1449207 C179.006462,45.9307039 178.968629,45.7169312 178.928035,45.5036026 C178.88762,45.2902739 178.844445,45.0774781 178.798511,44.8652153 C178.752755,44.65313 178.704417,44.4414888 178.653497,44.2302916 C178.6024,44.0192721 178.548809,43.8088743 178.492727,43.5990982 C178.436466,43.389322 178.377624,43.1803452 178.3162,42.9721677 C178.254776,42.7638126 178.190859,42.5562568 178.12445,42.3495003 C178.057863,42.1429214 177.988783,41.937053 177.917211,41.7318952 C177.845461,41.526915 177.771307,41.3228228 177.69475,41.1196189 C177.618014,40.9164149 177.538875,40.7141879 177.457333,40.5129378 C177.375612,40.3116877 177.291399,40.1115033 177.204693,39.9123848 C177.118166,39.7132662 177.029146,39.5152133 176.937633,39.3182263 C176.84612,39.1212392 176.752115,38.9254067 176.655617,38.7307288 C176.559297,38.5360508 176.460574,38.3426163 176.359447,38.1504251 C176.25832,37.9582339 176.154789,37.7672861 176.048855,37.5775817 C175.942921,37.3878773 175.834673,37.1995051 175.72411,37.0124651 C175.613725,36.825425 175.500936,36.639806 175.385744,36.455608 C175.270552,36.27141 175.153134,36.088633 175.033491,35.907277 C174.913848,35.725921 174.791979,35.5460748 174.667885,35.3677385 C174.547708,35.1949085 174.425394,35.0234996 174.300944,34.8535116 C174.176494,34.6835237 174.050085,34.5151344 173.921718,34.3483437 C173.793173,34.1813754 173.662669,34.0160057 173.530207,33.8522347 C173.397745,33.6886413 173.263324,33.5265577 173.126945,33.3659839 C172.990567,33.2055878 172.852229,33.0467902 172.711933,32.8895914 C172.571638,32.7323925 172.429472,32.5769699 172.285438,32.4233235 C172.141403,32.2694995 171.995499,32.1175406 171.847725,31.9674467 C171.699952,31.8171753 171.550487,31.6687689 171.399331,31.5222275 C171.247996,31.3756862 171.094882,31.2309211 170.939986,31.0879323 C170.785269,30.9451211 170.628772,30.804175 170.470494,30.665094 C170.312216,30.5260129 170.152247,30.388797 169.990586,30.2534461 C169.829103,30.1182728 169.665929,29.9849646 169.501064,29.8535215 C169.336199,29.7222559 169.16982,29.5930331 169.001928,29.465853 C168.834036,29.3384953 168.664541,29.2131802 168.493444,29.0899079 C168.322526,28.9668132 168.150094,28.8456724 167.976148,28.7264854 C167.802203,28.6074761 167.626922,28.4905983 167.450306,28.375852 C167.273512,28.2611057 167.095382,28.1484021 166.915918,28.0377412 C166.736275,27.9272579 166.555475,27.8189949 166.373518,27.7129523 C166.191382,27.606732 166.008001,27.5028209 165.823373,27.4012189 C165.638745,27.2994393 165.452871,27.1999688 165.26575,27.1028075 C165.07863,27.0054685 164.890441,26.9104387 164.701184,26.817718 C164.511749,26.7249973 164.321335,26.6346745 164.129942,26.5467497 C163.93837,26.4586473 163.74573,26.372854 163.552022,26.2893699 C163.358493,26.2058857 163.163894,26.1247995 162.968228,26.0461113 C162.772562,25.9672454 162.576094,25.8908663 162.378825,25.8169739 C162.181379,25.7429039 161.983042,25.6713207 161.783814,25.6022243 C161.584587,25.5329502 161.384559,25.4661629 161.183729,25.4018623 C160.9829,25.3373841 160.781358,25.2753927 160.579104,25.215888 C160.37685,25.1563834 160.173884,25.0992767 159.970206,25.0445679 C159.766528,24.9900368 159.562226,24.9379036 159.357302,24.8881683 C159.152377,24.8384331 158.94683,24.7912734 158.740659,24.7466893 C158.534488,24.7019276 158.327872,24.6596527 158.120811,24.6198645 C151.314505,23.383855 144.333275,24.7544161 138.654232,28.7419389 C133.026998,32.693226 128.900645,38.4877366 127.711424,45.3104345 C124.420971,40.1868167 119.941564,36.1286876 114,34.3699252 Z" id="Path" fill="#EB0D0D"></path>
                            </g>
                        </g>
                    </g>
                </g>
            </g>
        </g>
    </g>
</svg>