<?xml version="1.0" encoding="UTF-8"?>
<svg width="542px" height="336px" viewBox="0 0 542 336" version="1.1" xmlns="http://www.w3.org/2000/svg" xmlns:xlink="http://www.w3.org/1999/xlink">
    <title>Group</title>
    <g id="home" stroke="none" stroke-width="1" fill="none" fill-rule="evenodd">
        <g id="landing-1-copy-42" transform="translate(-756, -2221)">
            <g id="hero-wrap" transform="translate(-3892.3558, -0.2373)">
                <g id="about" transform="translate(3966, 1594)">
                    <g id="Group" transform="translate(208.3558, 218.2373)">
                        <g transform="translate(205, -160.5)" id="desk-setup-(1)">
                            <g transform="translate(-103, -77)">
                                <g transform="translate(163, 466)">
                                    <g transform="translate(220, 166.5)" fill="#101010" id="Group">
                                        <path d="M142.25,142.091 L190.321,142.048 C198.013,142.022 206.19,141.854 213.852,142.035 C213.742,143.979 213.737,146.037 213.699,147.992 L220.391,147.963 C220.052,151.58 220.097,156.898 220.066,160.546 C219.98,167.658 219.988,174.771 220.089,181.883 C218.345,182.049 217.128,182.024 215.396,181.991 C215.527,183.615 215.477,186.232 215.488,187.931 C202.385,187.814 189.281,187.775 176.177,187.814 C164.791,187.751 153.405,187.794 142.02,187.941 L141.988,182.263 C139.835,182.036 137.217,182.003 135.04,181.948 C135.126,170.626 135.1,159.303 134.962,147.982 C136.955,148.192 139.911,148.022 142.189,148.161 L142.25,142.091 Z M142.052,182.034 C151.081,182.18 160.249,182.134 169.29,182.159 L196.503,182.154 C200.739,182.151 207.154,182.333 211.266,182.051 C211.268,170.925 211.435,159.331 211.083,148.249 C202.161,148.068 193.236,148.014 184.312,148.087 C175.585,148.201 166.857,148.218 158.13,148.136 C153.251,148.124 146.827,148.032 142.027,148.339 L142.052,182.034 Z" id="Shape" fill-rule="nonzero"></path>
                                        <path d="M172.161817,160.985 C176.469732,160.977 180.779129,160.986 185.088526,161.011 C185.008531,163.613 184.956681,166.216 184.928535,168.819 C180.90653,168.954 176.188266,168.924 172.111449,168.96 C172.068488,166.302 172.086265,163.643 172.161817,160.985 Z" id="Path" fill-rule="nonzero"></path>
                                        <path d="M147.891,264.216 L189.478,264.237 C196.576,264.234 204.128,264.053 211.182,264.269 L211.19,270.847 C213.987,270.833 217.044,270.752 219.805,271.018 C219.631,278.389 219.753,286.318 219.754,293.71 C219.718,303.093 219.758,312.476 219.873,321.858 C217.193,321.918 214.513,321.962 211.832,321.989 C211.877,323.942 211.822,325.936 211.792,327.892 C200.968,327.737 190.142,327.693 179.316,327.759 C166.901,327.715 154.485,327.759 142.071,327.889 C142.137,325.977 142.104,323.964 142.103,322.044 C139.747,321.872 137.382,321.916 135.018927,321.925 L135.041,280.928 C135.026,277.644 134.969,274.292 135.13,271.017 C137.456,271.003 139.782,270.946 142.106,270.845 C141.786,287.567 141.974,305.171 142.065,321.938 C154.833,322.389 170.308,322.015 183.235,322.007 L200.203,321.992 C203.637,321.988 207.902,322.089 211.268,321.747 C210.949,310.315 211.511,298.193 211.281,286.705 C211.178,281.56 211.505,275.936 211.037,270.841 C199.81,270.228 185.562,270.68 174.167,270.549 C165.441,270.449 150.478,270.077 142.183,270.852 L142.262,264.33 L147.891,264.216 Z" id="Path" fill-rule="nonzero"></path>
                                        <path d="M245.094,142.141 L308.768,142.13 L330.005,142.137 C332.994,142.136 336.918,141.985 339.812,142.105 C339.686,144.421 339.68,145.954 339.782,148.272 C342.575,148.832 344.25,148.746 347.097,148.748 C346.322,158.453 346.746,172.141 346.788,182.125 C344.353,181.976 342.481,182.001 340.036,182.064 C340.136,184.297 340.074,186.271 340.009,188.505 C332.201,188.529 324.421,188.297 316.615,188.234 C292.768,188.043 268.85,188.571 245.009,188.239 C245.003,186.166 245.023,184.028 244.979,181.962 C249.234,182.273 254.971,182.136 259.311,182.144 L284.35,182.158 C302.283,182.156 322.182,182.617 339.889,181.962 C339.53,176.607 339.917,169.96 339.934,164.51 C339.95,158.986 339.771,154.044 339.529,148.511 C332.444,147.962 323.484,148.179 316.228,148.167 L276.069,148.246 L255.195,148.416 C253.212,148.442 246.692,148.454 245.022,148.799 C245.076,151.939 244.89,155.608 244.874,158.823 L244.889,182.085 C242.646,181.927 240.342,181.951 238.09,181.937 C237.881,170.937 238.074,159.341 238.071,148.281 C240.277,148.236 242.484,148.241 244.689,148.297 C245.364,147.43 245.113,143.507 245.094,142.141 Z" id="Path" fill-rule="nonzero"></path>
                                        <path d="M142.103,201.26 C162.085,200.817 182.206,201.363 202.204,201.127 C205.06,201.094 208.206,201.081 211.052,201.221 C211.043,202.7 210.92,206.659 211.229,207.887 C213.658,208.085 217.174,207.883 219.828,208.001 C219.415,221.293 220.147,235.307 219.757,248.524 C217.106,248.438 214.022,248.609 211.303,248.629 C211.13,250.899 211.079,252.695 211.076,254.974 C197.889,254.791 184.701,254.737 171.514,254.811 C161.835,254.812 151.833,254.697 142.178,254.962 C142.222,252.641 142.27,250.776 142.078,248.464 C163.977,249.139 189.336,248.907 211.212,248.471 C211.064,245.574 211.303,241.449 211.257,238.385 C211.108,228.375 211.538,217.98 211.097,207.996 C205.9,207.619 200.144,207.64 194.918,207.712 C177.36,207.951 159.551,207.205 142.036,208.142 L142.065,248.487 C139.62,248.197 137.536,248.186 135.074,248.148 L135.062,221.841 C135.06,217.743 134.895,212.164 135.085,208.149 C137.263,208.098 140.023,208.103 142.147,207.92 C142.057,205.701 142.042,203.48 142.103,201.26 Z" id="Path" fill-rule="nonzero"></path>
                                        <path d="M347.095,142.102 C357.273,141.977 367.913,142.144 378.135,142.142 L440.998,142.072 L440.997,148.217 C443.119,148.593 447.104,148.535 449.399,148.565 C449.563,159.636 449.495,170.88 449.518,181.967 L441.375,182.158 L441.447,187.989 C412.481,188.311 383.513,188.405 354.546,188.269 C352.046,188.307 349.607,188.461 347.051,188.477 C347.098,186.372 347.042,184.104 347.026,181.985 C349.776,182.309 357.102,182.15 360.135,182.152 L385.848,182.133 L421.893,182.143 C427.438,182.132 435.947,182.344 441.208,181.905 L441.259,160.543 C441.263,157.677 441.41,151.054 440.981,148.44 C437.94,148.047 432.422,148.161 429.254,148.17 L411.706,148.206 C390.151,148.194 368.596,148.304 347.042,148.535 C347.007,146.464 347.075,144.19 347.095,142.102 Z" id="Path" fill-rule="nonzero"></path>
                                        <path d="M157.561,100.170702 C160.134,100.368902 170.011007,100.236302 172.593007,100.170702 C172.563007,105.464602 176.586,120.653872 182.138,120.773872 C182.273,127.503872 182.207,124.384 182.138,131.115 L140.311,131.115 C140.272333,126.614333 140.272333,123.167291 140.311,120.773872 C147.543193,120.773872 152.287,104.564602 152.027,100.170702 L157.561,100.170702 Z" id="Path" fill-rule="nonzero" transform="translate(161.2492, 115.6429) scale(1, -1) translate(-161.2492, -115.6429)"></path>
                                        <g transform="translate(251, 59.4632)">
                                            <path d="M24.822,11.7732925 C24.743,16.3847925 24.722,20.9970925 24.758,25.6087925 C24.028532,29.9078492 22.1503636,32.9461826 19.1234947,34.7237925 L11.025,34.7237925 L11.007,29.1337925 L10.975,25.6627925 L18.219,25.5027925 C18.398,21.5656925 18.262,15.8412925 18.094,11.8943925 C16.182,11.6385925 13.105,11.6243925 11.086,11.5627925 C10.96,7.92129249 11.043,3.70409249 11.03,0.0189924928 C13.315,-0.0267075072 15.722,0.0226924928 18.018,0.0361924928 C18.058,3.83489249 17.955,7.74699249 17.955,11.5666925 L24.822,11.7732925 Z" id="Path" fill-rule="nonzero"></path>
                                            <rect id="Rectangle" x="0" y="39.7237925" width="30" height="31"></rect>
                                            <rect id="Rectangle-2" x="30" y="42" width="5" height="5"></rect>
                                            <rect id="Rectangle-2" x="35" y="47" width="5" height="5"></rect>
                                            <rect id="Rectangle-2-Copy" x="30" y="52" width="5" height="5"></rect>
                                        </g>
                                        <path d="M21.7662,204.026 C23.1788,204.005 24.8073,204.125 26.2353,204.195 C26.3121,210.391 26.248,216.723 26.2719,222.924 C26.2808,225.231 26.4102,231.238 26.096,233.263 C25.2102,233.686 24.2813,233.535 23.2657,233.498 L19.5501,233.461 C19.2752,230.955 19.1783,206.206 19.6207,204.392 C20.2276,203.988 20.9974,204.06 21.7662,204.026 Z" id="Path" fill-rule="nonzero"></path>
                                        <path d="M33.1121,219.079 L40.0095,219.054 C40.045,223.457 40.1044,228.071 40.0024,232.48 C39.9839,233.28 39.9491,233.157 39.472,233.548 C37.2455,233.55 35.246,233.535 33.0242,233.728 C33.0073,231.41 32.7913,220.897 33.1121,219.079 Z" id="Path" fill-rule="nonzero"></path>
                                        <path d="M171.14105,293.079463 C175.440712,293.021379 179.741816,292.979429 184.042919,292.952 L184.018415,299.90763 C181.676294,299.896265 179.33375,299.895558 176.991471,299.905251 C175.010734,299.913448 173.030186,299.929083 171.050243,299.952 C171.02718,297.660886 171.058891,295.369771 171.14105,293.079463 Z" id="Path" fill-rule="nonzero"></path>
                                        <path d="M288.918569,161.115 C293.055387,160.944 297.00213,161.045 301.123495,161.249 C300.948874,163.076 301.298116,168.259 300.802068,169.597 C296.459724,169.723 292.509889,169.705 288.158273,169.669 L288.153637,164.273 C288.158273,163.219 287.881661,161.783 288.918569,161.115 Z" id="Path" fill-rule="nonzero"></path>
                                        <path d="M391.006625,161.033 C394.326342,161.001 397.768508,160.912 401.064038,161.115 C401.02171,162.907 401.390568,167.12 400.587849,168.707 C400.453307,168.975 399.680822,168.973 399.106372,169.04 C395.510012,169.027 391.913652,168.996 388.317291,168.949 C388.320315,166.352 387.724701,164.185 388.551607,161.689 C389.469215,160.962 389.12908,161.193 391.006625,161.033 Z" id="Path" fill-rule="nonzero"></path>
                                        <path d="M171.114,226.058 L184.114,226.138281 L184.011879,232.036105 C179.737387,232.060433 175.461436,232.064487 171.185485,232.048269 L171.114,226.058 Z" id="Path" fill-rule="nonzero"></path>
                                        <g transform="translate(147.569, 84.0644)" fill-rule="nonzero">
                                            <path d="M16.151,6.62761104 C16.468,6.64087148 16.537,6.7980256 16.86,7.06413035 C17.2,8.67097296 17.037,15.9719196 17.024,18.269201 C15.234,18.2534319 13.335,18.4589687 11.539,18.5973073 C11.234,18.6822458 11.141,18.5732951 10.814,18.4595062 C10.397,16.3611314 10.611,9.51211484 10.641,6.79480009 L16.151,6.62761104 Z" id="Path"></path>
                                            <path d="M0,0 L11,0.0025 C10.9372785,2.2919 10.9338881,4.5818 10.9864386,6.8713 L10.8321775,7.114 C9.08445061,6.3816 2.72584374,6.4835 0.316997997,6.4577 C0.293265526,4.304 0.18646941,2.1509 0,0 Z" id="Path"></path>
                                            <path d="M16,0 L27,0.0025 C26.9372785,2.2919 26.9338881,4.5818 26.9864386,6.8713 L26.8321775,7.114 C25.0844506,6.3816 18.7258437,6.4835 16.316998,6.4577 C16.2932655,4.304 16.1864694,2.1509 16,0 Z" id="Path-Copy" transform="translate(21.5, 3.557) scale(-1, 1) translate(-21.5, -3.557)"></path>
                                        </g>
                                        <path d="M445.532,21.7211 C445.478,22.9083 445.478,25.0549333 445.532,28.161 L455.87,28.161 L455.87,34.0892 C456.943333,34.0451333 458.736,34.1405667 461.248,34.3755 C461.675333,36.9648333 461.866667,38.8407667 461.822,40.0033 C463.45,40.1039 466.486,40.1497 467.85,40.6261 C468.764,43.3223 468.502,75.7535 468.43,80.9537 C466.082,80.99 463.733,80.9781 461.385,80.918 C461.376,82.7278 461.291,85.2327 461.447,86.9845 C459.153,86.9214 456.851,86.8371 454.557,86.8636 C454.509,88.9941 454.472,91.1249 454.448,93.2559 C451.772,93.3389 448.578,93.4533 445.925,93.3832 C446.148,95.8099 446.039,97.6358 446.102,99.9986 C436.501,99.72 427.783,99.9957 418.367,99.9147 C418.256,104.285 418.097,110.864 418.25,115.229 L453.867,115.261 L453.867,122.051 L461.038,122.051 L461.004,128.295 L522.946,128.483 L523.187,134.733 L529.973,134.733 C529.987,139.414 529.923,144.332 530.028,148.992 L530.028,316.73 L522.928,350 L436.047,350 L436.047,335.79 L300.8,335.968 L300.913,350 L115.063,350 L115.063,335.748 L103.126272,335.79 L103.126272,350 L0,350 L0,249.064 L7.19239,248.869 L7.11492,242.339 L26.4867,242.135 C26.4799,239.195 26.4961,236.701 26.1784,233.764 C28.8149,234.022 30.4648,234.025 33.0809,233.859 L32.6764,242.052 L97.7228,242.309 L97.8634,248.464 L103.126272,248.464 L103.126272,317.038 L115.205,316.841 C115.063,311.104 115.197,304.849 115.162,299.053 C115.062,281.448 115.069,263.843 115.183,246.237 L115.063,134.733 L122.486,134.733 L122.486,329.287 L115.063,329.287 L115.063,322.883 C102.117476,322.832088 93.5510092,322.848755 89.3636,322.933 C89.3138,324.706 89.3066,327.395 89.3636,329.287 L122.486,329.287 L122.486,343.311 L194.482,343.21 C208.595,343.22 224.07,342.918 238.1,343.327 L238.071,208.042 L244.775,207.962 L244.717,202.15 L251.951,202.009 L251.951,195.16 L429.058,195.16 L429.058,201.761 L428.909,201.984 C422.201,202.065 323.817,201.411 313.892,201.994 C313.858,204.147 313.868,206.333 313.859,208.489 C311.671,208.448 309.483,208.449 307.295,208.492 L307.267,214.96 L300.943,214.873 C300.973,280.077667 300.963,314.094333 300.913,316.923 L435.933,316.73 L435.873,207.943 L442.562,208.019 L442.241,322.968 L277.805,322.945 L277.773,329.171 L442.255,329.248 L442.255,343.071 L464.097,343.071 L464.291,140.841 L456.903,140.888 L456.903,135.196529 L122.486,134.733 L122.486,128.366 C126.303614,128.364451 197.192614,128.476784 335.153,128.703 L335.214,122.176 C337.728,121.961 340.434,122.006 342.973,122.003 C342.696333,122.917667 342.696333,125.125667 342.973,128.627 C407.933,128.307 442.692333,128.22 447.251,128.366 C447.239,126.18 447.254,123.994 447.297,121.809 C444.883,121.963 440.752,121.803 438.22,121.802 L419.651,121.804 L374.289,121.797 L342.973,122.003 C343.116,120.955 343.01,116.666 343.002,115.377 C345.361,115.235 347.77,115.323 350.135,115.285 C361.14,115.108 372.422,115.68 383.401,115.049 C383.201,112.111 383.043,102.556 383.501,100.017 C378.647,99.6733 372.988,99.7768 368.091,99.7726 C360.959,99.71 353.826,99.7771 346.697,99.9739 C346.599,97.684 346.549,95.7847 346.61,93.4954 C344.369,93.0462 341.927,93.0365 339.654,93.0508 L339.487,28.161 L346.689,27.9319 C346.778,25.654 346.653,23.9804 346.494,21.7105 C359.702,21.3906 373.777,21.464 386.999,21.5573 L445.532,21.7211 Z M445.464,93.0725 L445.411,28.2069 C442.444,27.6756 435.803,27.8271 432.513,27.832 L411.802,27.8579 L372.586,27.8502 C364.027,27.8461 355.185,27.7022 346.661,28.0625 C346.424,42.27 346.677,56.934 346.703,71.1812 C346.713,77.2219 346.25,87.4124 346.562,93.0995 C358.888,93.5557 373.113,93.2259 385.57,93.2121 L445.464,93.0725 Z M7.05835,249.035 C7.37564,253.65 7.01398,260.472 7.00787,265.284 L7.01368,297.226 L7.02302,329.717 C6.98913,333.68 7.17756,339.704 6.85649,343.451 C11.3287,343.735 17.6251,343.507 22.2935,343.469 L48.1223,343.345 C51.1515,343.357 54.2281,343.335 57.2499,343.485 C57.5027,321.939 57.3287,300.109 57.3359,278.541 L57.3496,259.547 C57.3555,256.21 57.2515,251.994 57.4563,248.736 C53.1549,248.985 47.626,248.849 43.2551,248.858 L16.6664,248.842 L7.05835,249.035 Z M390.293,99.9227 C390.252,104.857 390.291,110.134 390.067,115.036 C393.098,115.348 397.541,115.184 400.688,115.154 L405.202,115.148 C405.249,111.241 405.067,103.362 405.402,99.8022 C401.925,99.8053 398.376,99.7832 394.905,99.8322 C393.497,99.8764 391.666,99.9867 390.293,99.9227 Z" id="Shape" fill-rule="nonzero"></path>
                                        <path d="M358.883,35.0949 C378.245,34.6878 397.756,35.2528 417.131,35.0348 C422.049,34.9794 427.373,34.8804 432.264,35.1361 C434.263,36.8866 434.782,37.7869 436.301,39.9517 C436.716,49.8477 436.392,59.8984 436.476,69.8071 C436.505,73.1873 436.465,76.7192 436.133,80.0743 C434.305,82.2055 434.106,82.578 431.744,84.207 C425.242,83.8684 417.689,84.0304 411.108,84.0255 L377.052,84.0177 C372.038,84.0225 363.586,84.3351 358.835,83.991 C356.733,82.7799 356.123,81.9836 354.537,80.1782 C354.091,75.6771 354.283,68.6658 354.279,63.9542 C354.238,55.523 354.254,47.0916 354.327,38.6605 C354.489,38.4393 354.656,38.2217 354.827,38.008 C356.025,36.504 356.951,35.3033 358.883,35.0949 Z M409.092,66.0176 C399.801,65.931 390.508,65.9394 381.216,66.0428 C381.21,68.1911 381.104,69.9592 380.948,72.0986 C390.114,72.3361 399.915,71.8632 408.964,72.3025 C409.261,70.8626 409.144,67.5546 409.092,66.0176 Z M401.959,56.9502 L405.564,56.9421 C406.833,56.8715 407.943,56.7934 409.213,56.8551 L409.265,48.9123 L406.513,48.9199 L401.909,49.0234 C402.004,51.6646 402.02,54.308 401.959,56.9502 Z M409.285,59.7413 L409.27,65.7021 L415.96,65.7771 C415.988,63.737 416.005,61.6968 416.011,59.6564 C413.976,59.6889 411.266,59.8117 409.285,59.7413 Z M386.224,48.908 C384.518,48.9514 382.715,49.0284 381.017,49.0159 C381.261,50.9732 380.916,55.6173 381.597,56.5952 C382.033,56.6764 382.342,56.7532 382.791,56.7433 L388.074,56.7605 C388.15,54.7641 388.693,50.5359 387.722,49.0582 C387.061,48.8343 386.938,48.8758 386.224,48.908 Z M374.336,60.0366 C373.93,61.0914 374.142,64.6819 374.21,65.9983 L380.885,65.9933 C381.164,64.0807 380.921,61.9617 381.042,59.9884 L374.336,60.0366 Z" id="Shape" fill-rule="nonzero"></path>
                                        <path d="M392.691,21.7489 C403.624,21.5804 414.558,21.5093 425.493,21.5354 C431.989,21.5322 439.086,21.4132 445.532,21.7211 C445.451,23.5019 445.203,25.846 445.578,27.5101 C446.108,28.0544 445.942,27.885 446.808,28.0819 L445.411,28.2069 C442.444,27.6756 435.803,27.8271 432.513,27.832 L411.802,27.8579 L372.586,27.8502 C364.027,27.8461 355.185,27.7022 346.661,28.0625 C346.424,42.27 346.677,56.934 346.703,71.1812 C346.713,77.2219 346.25,87.4124 346.562,93.0995 L346.61,93.4954 C344.369,93.0462 341.927,93.0365 339.654,93.0508 L339.487,28.161 L346.689,27.9319 C346.778,25.654 346.653,23.9804 346.494,21.7105 C359.702,21.3906 373.777,21.464 386.999,21.5573 L392.691,21.7489 Z" id="Path" fill-rule="nonzero"></path>
                                        <polygon id="Path" fill-rule="nonzero" points="14.0743 255.784015 49.8793 255.784015 49.8793 269.147936 14.0743 269.147936"></polygon>
                                        <path d="M49.8137,308.693 C49.745,310.893 49.7221,312.774 49.7878,314.975 C46.2962,314.861 34.4426,314.842667 14.227,314.92 C14.0781,313.315 14.1064,310.453 14.0743,308.752 L49.8137,308.693 Z" id="Path" fill-rule="nonzero"></path>
                                        <path d="M14.2673,321.945 C25.4285,321.601 38.4777,321.866 49.7237,321.964 C49.7024,323.997 49.6939,325.852 49.7772,327.887 C48.3771,328.09 41.044,327.9 39.0342,327.895 C30.7678,327.843 22.501,327.869 14.2351,327.973 C14.2822,325.997 13.9209,323.84 14.2673,321.945 Z" id="Path" fill-rule="nonzero"></path>
                                        <path d="M43.0752,276.266 L49.9011,276.527 C49.8136,278.754 49.8158,280.672 49.8607,282.9 C48.0107,283.002 45.2057,282.909 43.283,282.906 L43.0752,276.266 Z" id="Path" fill-rule="nonzero"></path>
                                        <path d="M14.3865,276.611 C16.2327,276.848 19.2676,276.794 21.2216,276.807 C21.2172,278.157 21.3888,281.88 20.799,282.822 L14.4506,282.745 L14.3865,276.611 Z" id="Path" fill-opacity="0.95686275" fill-rule="nonzero"></path>
                                        <path d="M28.2834,277.634 L28.4729,276.893 C29.5652,276.427 33.9105,276.758 35.4893,276.587 C35.4874,278.29 35.5393,280.325 35.4371,282 C35.3246,281.909 34.5426,281.09 34.6048,281.114 C32.8302,280.444 30.6689,282.04 29.4372,280.328 C29.2951,279.154 29.2578,278.935 29.4615,277.745 C29.711,278.731 29.8486,279.703 30.5695,280.413 C31.6945,280.869 32.6191,280.622 33.7952,280.204 C33.7259,279.644 33.7023,279.264 33.6832,278.7 C32.501,277.023 31.2939,277.285 29.4615,277.745 C29.2385,277.262 29.41,277.459 28.865,277.204 L28.2834,277.634 Z" id="Path" fill-opacity="0.93333334" fill-rule="nonzero"></path>
                                        <path d="M28.2834,277.634 L28.865,277.204 C29.41,277.459 29.2385,277.262 29.4615,277.745 C29.2578,278.935 29.2951,279.154 29.4372,280.328 C30.6689,282.04 32.8302,280.444 34.6048,281.114 C34.5426,281.09 35.3246,281.909 35.4371,282 L35.4104,282.58 C34.7817,282.98 29.5591,282.807 28.3639,282.815 L28.2834,277.634 Z" id="Path" fill-opacity="0.98039216" fill-rule="nonzero"></path>
                                        <path d="M29.4615,277.745 C31.2939,277.285 32.501,277.023 33.6832,278.7 C33.7023,279.264 33.7259,279.644 33.7952,280.204 C32.6191,280.622 31.6945,280.869 30.5695,280.413 C29.8486,279.703 29.711,278.731 29.4615,277.745 Z" id="Path" fill-opacity="0.87058824" fill-rule="nonzero"></path>
                                        <path d="M393.37,14 L401.754,14 L401.754,20.98817 C399.35,21.00703 395.651,21.15203 393.37,20.98817 L393.37,14 Z" id="Path" fill-rule="nonzero"></path>
                                        <path d="M429.058,201.761 C431.429,201.962 433.473,202.033 435.855,202.083 L435.722,208.111 C433.492,208.001 431.259,207.944 429.026,207.938 C428.992,206.106 429.018,203.772 428.909,201.984 L429.058,201.761 Z" id="Path" fill-rule="nonzero"></path>
                                    </g>
                                    <g transform="translate(209, 166.5)" fill="#330000" id="Group">
                                        <path d="M142.25,142.091 L190.321,142.048 C198.013,142.022 206.19,141.854 213.852,142.035 C213.742,143.979 213.737,146.037 213.699,147.992 L220.391,147.963 C220.052,151.58 220.097,156.898 220.066,160.546 C219.98,167.658 219.988,174.771 220.089,181.883 C218.345,182.049 217.128,182.024 215.396,181.991 C215.527,183.615 215.477,186.232 215.488,187.931 C202.385,187.814 189.281,187.775 176.177,187.814 C164.791,187.751 153.405,187.794 142.02,187.941 L141.988,182.263 C139.835,182.036 137.217,182.003 135.04,181.948 C135.126,170.626 135.1,159.303 134.962,147.982 C136.955,148.192 139.911,148.022 142.189,148.161 L142.25,142.091 Z M142.052,182.034 C151.081,182.18 160.249,182.134 169.29,182.159 L196.503,182.154 C200.739,182.151 207.154,182.333 211.266,182.051 C211.268,170.925 211.435,159.331 211.083,148.249 C202.161,148.068 193.236,148.014 184.312,148.087 C175.585,148.201 166.857,148.218 158.13,148.136 C153.251,148.124 146.827,148.032 142.027,148.339 L142.052,182.034 Z" id="Shape" fill-opacity="0.309768357" fill-rule="nonzero"></path>
                                        <path d="M172.161817,160.985 C176.469732,160.977 180.779129,160.986 185.088526,161.011 C185.008531,163.613 184.956681,166.216 184.928535,168.819 C180.90653,168.954 176.188266,168.924 172.111449,168.96 C172.068488,166.302 172.086265,163.643 172.161817,160.985 Z" id="Path" fill-opacity="0.309768357" fill-rule="nonzero"></path>
                                        <path d="M147.891,264.216 L189.478,264.237 C196.576,264.234 204.128,264.053 211.182,264.269 L211.19,270.847 C213.987,270.833 217.044,270.752 219.805,271.018 C219.631,278.389 219.753,286.318 219.754,293.71 C219.718,303.093 219.758,312.476 219.873,321.858 C217.193,321.918 214.513,321.962 211.832,321.989 C211.877,323.942 211.822,325.936 211.792,327.892 C200.968,327.737 190.142,327.693 179.316,327.759 C166.901,327.715 154.485,327.759 142.071,327.889 C142.137,325.977 142.104,323.964 142.103,322.044 C139.747,321.872 137.382,321.916 135.018927,321.925 L135.041,280.928 C135.026,277.644 134.969,274.292 135.13,271.017 C137.456,271.003 139.782,270.946 142.106,270.845 C141.786,287.567 141.974,305.171 142.065,321.938 C154.833,322.389 170.308,322.015 183.235,322.007 L200.203,321.992 C203.637,321.988 207.902,322.089 211.268,321.747 C210.949,310.315 211.511,298.193 211.281,286.705 C211.178,281.56 211.505,275.936 211.037,270.841 C199.81,270.228 185.562,270.68 174.167,270.549 C165.441,270.449 150.478,270.077 142.183,270.852 L142.262,264.33 L147.891,264.216 Z" id="Path" fill-opacity="0.309768357" fill-rule="nonzero"></path>
                                        <path d="M245.094,142.141 L308.768,142.13 L330.005,142.137 C332.994,142.136 336.918,141.985 339.812,142.105 C339.686,144.421 339.68,145.954 339.782,148.272 C342.575,148.832 344.25,148.746 347.097,148.748 C346.322,158.453 346.746,172.141 346.788,182.125 C344.353,181.976 342.481,182.001 340.036,182.064 C340.136,184.297 340.074,186.271 340.009,188.505 C332.201,188.529 324.421,188.297 316.615,188.234 C292.768,188.043 268.85,188.571 245.009,188.239 C245.003,186.166 245.023,184.028 244.979,181.962 C249.234,182.273 254.971,182.136 259.311,182.144 L284.35,182.158 C302.283,182.156 322.182,182.617 339.889,181.962 C339.53,176.607 339.917,169.96 339.934,164.51 C339.95,158.986 339.771,154.044 339.529,148.511 C332.444,147.962 323.484,148.179 316.228,148.167 L276.069,148.246 L255.195,148.416 C253.212,148.442 246.692,148.454 245.022,148.799 C245.076,151.939 244.89,155.608 244.874,158.823 L244.889,182.085 C242.646,181.927 240.342,181.951 238.09,181.937 C237.881,170.937 238.074,159.341 238.071,148.281 C240.277,148.236 242.484,148.241 244.689,148.297 C245.364,147.43 245.113,143.507 245.094,142.141 Z" id="Path" fill-opacity="0.309768357" fill-rule="nonzero"></path>
                                        <path d="M142.103,201.26 C162.085,200.817 182.206,201.363 202.204,201.127 C205.06,201.094 208.206,201.081 211.052,201.221 C211.043,202.7 210.92,206.659 211.229,207.887 C213.658,208.085 217.174,207.883 219.828,208.001 C219.415,221.293 220.147,235.307 219.757,248.524 C217.106,248.438 214.022,248.609 211.303,248.629 C211.13,250.899 211.079,252.695 211.076,254.974 C197.889,254.791 184.701,254.737 171.514,254.811 C161.835,254.812 151.833,254.697 142.178,254.962 C142.222,252.641 142.27,250.776 142.078,248.464 C163.977,249.139 189.336,248.907 211.212,248.471 C211.064,245.574 211.303,241.449 211.257,238.385 C211.108,228.375 211.538,217.98 211.097,207.996 C205.9,207.619 200.144,207.64 194.918,207.712 C177.36,207.951 159.551,207.205 142.036,208.142 L142.065,248.487 C139.62,248.197 137.536,248.186 135.074,248.148 L135.062,221.841 C135.06,217.743 134.895,212.164 135.085,208.149 C137.263,208.098 140.023,208.103 142.147,207.92 C142.057,205.701 142.042,203.48 142.103,201.26 Z" id="Path" fill-opacity="0.309768357" fill-rule="nonzero"></path>
                                        <path d="M347.095,142.102 C357.273,141.977 367.913,142.144 378.135,142.142 L440.998,142.072 L440.997,148.217 C443.119,148.593 447.104,148.535 449.399,148.565 C449.563,159.636 449.495,170.88 449.518,181.967 L441.375,182.158 L441.447,187.989 C412.481,188.311 383.513,188.405 354.546,188.269 C352.046,188.307 349.607,188.461 347.051,188.477 C347.098,186.372 347.042,184.104 347.026,181.985 C349.776,182.309 357.102,182.15 360.135,182.152 L385.848,182.133 L421.893,182.143 C427.438,182.132 435.947,182.344 441.208,181.905 L441.259,160.543 C441.263,157.677 441.41,151.054 440.981,148.44 C437.94,148.047 432.422,148.161 429.254,148.17 L411.706,148.206 C390.151,148.194 368.596,148.304 347.042,148.535 C347.007,146.464 347.075,144.19 347.095,142.102 Z" id="Path" fill-opacity="0.309768357" fill-rule="nonzero"></path>
                                        <path d="M157.561,100.170702 C160.134,100.368902 170.011007,100.236302 172.593007,100.170702 C172.563007,105.464602 176.586,120.653872 182.138,120.773872 C182.273,127.503872 182.207,124.384 182.138,131.115 L140.311,131.115 C140.272333,126.614333 140.272333,123.167291 140.311,120.773872 C147.543193,120.773872 152.287,104.564602 152.027,100.170702 L157.561,100.170702 Z" id="Path" fill-opacity="0.309768357" fill-rule="nonzero" transform="translate(161.2492, 115.6429) scale(1, -1) translate(-161.2492, -115.6429)"></path>
                                        <g transform="translate(251, 59.4632)" fill-opacity="0.309768357">
                                            <path d="M24.822,11.7732925 C24.743,16.3847925 24.722,20.9970925 24.758,25.6087925 C24.028532,29.9078492 22.1503636,32.9461826 19.1234947,34.7237925 L11.025,34.7237925 L11.007,29.1337925 L10.975,25.6627925 L18.219,25.5027925 C18.398,21.5656925 18.262,15.8412925 18.094,11.8943925 C16.182,11.6385925 13.105,11.6243925 11.086,11.5627925 C10.96,7.92129249 11.043,3.70409249 11.03,0.0189924928 C13.315,-0.0267075072 15.722,0.0226924928 18.018,0.0361924928 C18.058,3.83489249 17.955,7.74699249 17.955,11.5666925 L24.822,11.7732925 Z" id="Path" fill-rule="nonzero"></path>
                                            <rect id="Rectangle" x="0" y="39.7237925" width="30" height="31"></rect>
                                            <rect id="Rectangle-2" x="30" y="42" width="5" height="5"></rect>
                                            <rect id="Rectangle-2" x="35" y="47" width="5" height="5"></rect>
                                            <rect id="Rectangle-2-Copy" x="30" y="52" width="5" height="5"></rect>
                                        </g>
                                        <path d="M21.7662,204.026 C23.1788,204.005 24.8073,204.125 26.2353,204.195 C26.3121,210.391 26.248,216.723 26.2719,222.924 C26.2808,225.231 26.4102,231.238 26.096,233.263 C25.2102,233.686 24.2813,233.535 23.2657,233.498 L19.5501,233.461 C19.2752,230.955 19.1783,206.206 19.6207,204.392 C20.2276,203.988 20.9974,204.06 21.7662,204.026 Z" id="Path" fill-opacity="0.309768357" fill-rule="nonzero"></path>
                                        <path d="M33.1121,219.079 L40.0095,219.054 C40.045,223.457 40.1044,228.071 40.0024,232.48 C39.9839,233.28 39.9491,233.157 39.472,233.548 C37.2455,233.55 35.246,233.535 33.0242,233.728 C33.0073,231.41 32.7913,220.897 33.1121,219.079 Z" id="Path" fill-opacity="0.309768357" fill-rule="nonzero"></path>
                                        <path d="M171.14105,293.079463 C175.440712,293.021379 179.741816,292.979429 184.042919,292.952 L184.018415,299.90763 C181.676294,299.896265 179.33375,299.895558 176.991471,299.905251 C175.010734,299.913448 173.030186,299.929083 171.050243,299.952 C171.02718,297.660886 171.058891,295.369771 171.14105,293.079463 Z" id="Path" fill-opacity="0.309768357" fill-rule="nonzero"></path>
                                        <path d="M288.918569,161.115 C293.055387,160.944 297.00213,161.045 301.123495,161.249 C300.948874,163.076 301.298116,168.259 300.802068,169.597 C296.459724,169.723 292.509889,169.705 288.158273,169.669 L288.153637,164.273 C288.158273,163.219 287.881661,161.783 288.918569,161.115 Z" id="Path" fill-opacity="0.309768357" fill-rule="nonzero"></path>
                                        <path d="M391.006625,161.033 C394.326342,161.001 397.768508,160.912 401.064038,161.115 C401.02171,162.907 401.390568,167.12 400.587849,168.707 C400.453307,168.975 399.680822,168.973 399.106372,169.04 C395.510012,169.027 391.913652,168.996 388.317291,168.949 C388.320315,166.352 387.724701,164.185 388.551607,161.689 C389.469215,160.962 389.12908,161.193 391.006625,161.033 Z" id="Path" fill-opacity="0.309768357" fill-rule="nonzero"></path>
                                        <path d="M171.114,226.058 L184.114,226.138281 L184.011879,232.036105 C179.737387,232.060433 175.461436,232.064487 171.185485,232.048269 L171.114,226.058 Z" id="Path" fill-opacity="0.309768357" fill-rule="nonzero"></path>
                                        <g transform="translate(147.569, 84.0644)" fill-opacity="0.309768357" fill-rule="nonzero">
                                            <path d="M16.151,6.62761104 C16.468,6.64087148 16.537,6.7980256 16.86,7.06413035 C17.2,8.67097296 17.037,15.9719196 17.024,18.269201 C15.234,18.2534319 13.335,18.4589687 11.539,18.5973073 C11.234,18.6822458 11.141,18.5732951 10.814,18.4595062 C10.397,16.3611314 10.611,9.51211484 10.641,6.79480009 L16.151,6.62761104 Z" id="Path"></path>
                                            <path d="M0,0 L11,0.0025 C10.9372785,2.2919 10.9338881,4.5818 10.9864386,6.8713 L10.8321775,7.114 C9.08445061,6.3816 2.72584374,6.4835 0.316997997,6.4577 C0.293265526,4.304 0.18646941,2.1509 0,0 Z" id="Path"></path>
                                            <path d="M16,0 L27,0.0025 C26.9372785,2.2919 26.9338881,4.5818 26.9864386,6.8713 L26.8321775,7.114 C25.0844506,6.3816 18.7258437,6.4835 16.316998,6.4577 C16.2932655,4.304 16.1864694,2.1509 16,0 Z" id="Path-Copy" transform="translate(21.5, 3.557) scale(-1, 1) translate(-21.5, -3.557)"></path>
                                        </g>
                                        <path d="M445.532,21.7211 C445.478,22.9083 445.478,25.0549333 445.532,28.161 L455.87,28.161 L455.87,34.0892 C456.943333,34.0451333 458.736,34.1405667 461.248,34.3755 C461.675333,36.9648333 461.866667,38.8407667 461.822,40.0033 C463.45,40.1039 466.486,40.1497 467.85,40.6261 C468.764,43.3223 468.502,75.7535 468.43,80.9537 C466.082,80.99 463.733,80.9781 461.385,80.918 C461.376,82.7278 461.291,85.2327 461.447,86.9845 C459.153,86.9214 456.851,86.8371 454.557,86.8636 C454.509,88.9941 454.472,91.1249 454.448,93.2559 C451.772,93.3389 448.578,93.4533 445.925,93.3832 C446.148,95.8099 446.039,97.6358 446.102,99.9986 C436.501,99.72 427.783,99.9957 418.367,99.9147 C418.256,104.285 418.097,110.864 418.25,115.229 L453.867,115.261 L453.867,122.051 L461.038,122.051 L461.004,128.295 L522.946,128.483 L523.187,134.733 L529.973,134.733 C529.987,139.414 529.923,144.332 530.028,148.992 L530.028,316.73 L522.928,350 L436.047,350 L436.047,335.79 L300.8,335.968 L300.913,350 L115.063,350 L115.063,335.748 L103.126272,335.79 L103.126272,350 L0,350 L0,249.064 L7.19239,248.869 L7.11492,242.339 L26.4867,242.135 C26.4799,239.195 26.4961,236.701 26.1784,233.764 C28.8149,234.022 30.4648,234.025 33.0809,233.859 L32.6764,242.052 L97.7228,242.309 L97.8634,248.464 L103.126272,248.464 L103.126272,317.038 L115.205,316.841 C115.063,311.104 115.197,304.849 115.162,299.053 C115.062,281.448 115.069,263.843 115.183,246.237 L115.063,134.733 L122.486,134.733 L122.486,329.287 L115.063,329.287 L115.063,322.883 C102.117476,322.832088 93.5510092,322.848755 89.3636,322.933 C89.3138,324.706 89.3066,327.395 89.3636,329.287 L122.486,329.287 L122.486,343.311 L194.482,343.21 C208.595,343.22 224.07,342.918 238.1,343.327 L238.071,208.042 L244.775,207.962 L244.717,202.15 L251.951,202.009 L251.951,195.16 L429.058,195.16 L429.058,201.761 L428.909,201.984 C422.201,202.065 323.817,201.411 313.892,201.994 C313.858,204.147 313.868,206.333 313.859,208.489 C311.671,208.448 309.483,208.449 307.295,208.492 L307.267,214.96 L300.943,214.873 C300.973,280.077667 300.963,314.094333 300.913,316.923 L435.933,316.73 L435.873,207.943 L442.562,208.019 L442.241,322.968 L277.805,322.945 L277.773,329.171 L442.255,329.248 L442.255,343.071 L464.097,343.071 L464.291,140.841 L456.903,140.888 L456.903,135.196529 L122.486,134.733 L122.486,128.366 C126.303614,128.364451 197.192614,128.476784 335.153,128.703 L335.214,122.176 C337.728,121.961 340.434,122.006 342.973,122.003 C342.696333,122.917667 342.696333,125.125667 342.973,128.627 C407.933,128.307 442.692333,128.22 447.251,128.366 C447.239,126.18 447.254,123.994 447.297,121.809 C444.883,121.963 440.752,121.803 438.22,121.802 L419.651,121.804 L374.289,121.797 L342.973,122.003 C343.116,120.955 343.01,116.666 343.002,115.377 C345.361,115.235 347.77,115.323 350.135,115.285 C361.14,115.108 372.422,115.68 383.401,115.049 C383.201,112.111 383.043,102.556 383.501,100.017 C378.647,99.6733 372.988,99.7768 368.091,99.7726 C360.959,99.71 353.826,99.7771 346.697,99.9739 C346.599,97.684 346.549,95.7847 346.61,93.4954 C344.369,93.0462 341.927,93.0365 339.654,93.0508 L339.487,28.161 L346.689,27.9319 C346.778,25.654 346.653,23.9804 346.494,21.7105 C359.702,21.3906 373.777,21.464 386.999,21.5573 L445.532,21.7211 Z M445.464,93.0725 L445.411,28.2069 C442.444,27.6756 435.803,27.8271 432.513,27.832 L411.802,27.8579 L372.586,27.8502 C364.027,27.8461 355.185,27.7022 346.661,28.0625 C346.424,42.27 346.677,56.934 346.703,71.1812 C346.713,77.2219 346.25,87.4124 346.562,93.0995 C358.888,93.5557 373.113,93.2259 385.57,93.2121 L445.464,93.0725 Z M7.05835,249.035 C7.37564,253.65 7.01398,260.472 7.00787,265.284 L7.01368,297.226 L7.02302,329.717 C6.98913,333.68 7.17756,339.704 6.85649,343.451 C11.3287,343.735 17.6251,343.507 22.2935,343.469 L48.1223,343.345 C51.1515,343.357 54.2281,343.335 57.2499,343.485 C57.5027,321.939 57.3287,300.109 57.3359,278.541 L57.3496,259.547 C57.3555,256.21 57.2515,251.994 57.4563,248.736 C53.1549,248.985 47.626,248.849 43.2551,248.858 L16.6664,248.842 L7.05835,249.035 Z M390.293,99.9227 C390.252,104.857 390.291,110.134 390.067,115.036 C393.098,115.348 397.541,115.184 400.688,115.154 L405.202,115.148 C405.249,111.241 405.067,103.362 405.402,99.8022 C401.925,99.8053 398.376,99.7832 394.905,99.8322 C393.497,99.8764 391.666,99.9867 390.293,99.9227 Z" id="Shape" fill-opacity="0.309768357" fill-rule="nonzero"></path>
                                        <path d="M358.883,35.0949 C378.245,34.6878 397.756,35.2528 417.131,35.0348 C422.049,34.9794 427.373,34.8804 432.264,35.1361 C434.263,36.8866 434.782,37.7869 436.301,39.9517 C436.716,49.8477 436.392,59.8984 436.476,69.8071 C436.505,73.1873 436.465,76.7192 436.133,80.0743 C434.305,82.2055 434.106,82.578 431.744,84.207 C425.242,83.8684 417.689,84.0304 411.108,84.0255 L377.052,84.0177 C372.038,84.0225 363.586,84.3351 358.835,83.991 C356.733,82.7799 356.123,81.9836 354.537,80.1782 C354.091,75.6771 354.283,68.6658 354.279,63.9542 C354.238,55.523 354.254,47.0916 354.327,38.6605 C354.489,38.4393 354.656,38.2217 354.827,38.008 C356.025,36.504 356.951,35.3033 358.883,35.0949 Z M409.092,66.0176 C399.801,65.931 390.508,65.9394 381.216,66.0428 C381.21,68.1911 381.104,69.9592 380.948,72.0986 C390.114,72.3361 399.915,71.8632 408.964,72.3025 C409.261,70.8626 409.144,67.5546 409.092,66.0176 Z M401.959,56.9502 L405.564,56.9421 C406.833,56.8715 407.943,56.7934 409.213,56.8551 L409.265,48.9123 L406.513,48.9199 L401.909,49.0234 C402.004,51.6646 402.02,54.308 401.959,56.9502 Z M409.285,59.7413 L409.27,65.7021 L415.96,65.7771 C415.988,63.737 416.005,61.6968 416.011,59.6564 C413.976,59.6889 411.266,59.8117 409.285,59.7413 Z M386.224,48.908 C384.518,48.9514 382.715,49.0284 381.017,49.0159 C381.261,50.9732 380.916,55.6173 381.597,56.5952 C382.033,56.6764 382.342,56.7532 382.791,56.7433 L388.074,56.7605 C388.15,54.7641 388.693,50.5359 387.722,49.0582 C387.061,48.8343 386.938,48.8758 386.224,48.908 Z M374.336,60.0366 C373.93,61.0914 374.142,64.6819 374.21,65.9983 L380.885,65.9933 C381.164,64.0807 380.921,61.9617 381.042,59.9884 L374.336,60.0366 Z" id="Shape" fill-opacity="0.309768357" fill-rule="nonzero"></path>
                                        <path d="M392.691,21.7489 C403.624,21.5804 414.558,21.5093 425.493,21.5354 C431.989,21.5322 439.086,21.4132 445.532,21.7211 C445.451,23.5019 445.203,25.846 445.578,27.5101 C446.108,28.0544 445.942,27.885 446.808,28.0819 L445.411,28.2069 C442.444,27.6756 435.803,27.8271 432.513,27.832 L411.802,27.8579 L372.586,27.8502 C364.027,27.8461 355.185,27.7022 346.661,28.0625 C346.424,42.27 346.677,56.934 346.703,71.1812 C346.713,77.2219 346.25,87.4124 346.562,93.0995 L346.61,93.4954 C344.369,93.0462 341.927,93.0365 339.654,93.0508 L339.487,28.161 L346.689,27.9319 C346.778,25.654 346.653,23.9804 346.494,21.7105 C359.702,21.3906 373.777,21.464 386.999,21.5573 L392.691,21.7489 Z" id="Path" fill-opacity="0.309768357" fill-rule="nonzero"></path>
                                        <polygon id="Path" fill-opacity="0.309768357" fill-rule="nonzero" points="14.0743 255.784015 49.8793 255.784015 49.8793 269.147936 14.0743 269.147936"></polygon>
                                        <path d="M49.8137,308.693 C49.745,310.893 49.7221,312.774 49.7878,314.975 C46.2962,314.861 34.4426,314.842667 14.227,314.92 C14.0781,313.315 14.1064,310.453 14.0743,308.752 L49.8137,308.693 Z" id="Path" fill-opacity="0.309768357" fill-rule="nonzero"></path>
                                        <path d="M14.2673,321.945 C25.4285,321.601 38.4777,321.866 49.7237,321.964 C49.7024,323.997 49.6939,325.852 49.7772,327.887 C48.3771,328.09 41.044,327.9 39.0342,327.895 C30.7678,327.843 22.501,327.869 14.2351,327.973 C14.2822,325.997 13.9209,323.84 14.2673,321.945 Z" id="Path" fill-opacity="0.309768357" fill-rule="nonzero"></path>
                                        <path d="M43.0752,276.266 L49.9011,276.527 C49.8136,278.754 49.8158,280.672 49.8607,282.9 C48.0107,283.002 45.2057,282.909 43.283,282.906 L43.0752,276.266 Z" id="Path" fill-opacity="0.309768357" fill-rule="nonzero"></path>
                                        <path d="M14.3865,276.611 C16.2327,276.848 19.2676,276.794 21.2216,276.807 C21.2172,278.157 21.3888,281.88 20.799,282.822 L14.4506,282.745 L14.3865,276.611 Z" id="Path" fill-opacity="0.296405802" fill-rule="nonzero"></path>
                                        <path d="M28.2834,277.634 L28.4729,276.893 C29.5652,276.427 33.9105,276.758 35.4893,276.587 C35.4874,278.29 35.5393,280.325 35.4371,282 C35.3246,281.909 34.5426,281.09 34.6048,281.114 C32.8302,280.444 30.6689,282.04 29.4372,280.328 C29.2951,279.154 29.2578,278.935 29.4615,277.745 C29.711,278.731 29.8486,279.703 30.5695,280.413 C31.6945,280.869 32.6191,280.622 33.7952,280.204 C33.7259,279.644 33.7023,279.264 33.6832,278.7 C32.501,277.023 31.2939,277.285 29.4615,277.745 C29.2385,277.262 29.41,277.459 28.865,277.204 L28.2834,277.634 Z" id="Path" fill-opacity="0.289117135" fill-rule="nonzero"></path>
                                        <path d="M28.2834,277.634 L28.865,277.204 C29.41,277.459 29.2385,277.262 29.4615,277.745 C29.2578,278.935 29.2951,279.154 29.4372,280.328 C30.6689,282.04 32.8302,280.444 34.6048,281.114 C34.5426,281.09 35.3246,281.909 35.4371,282 L35.4104,282.58 C34.7817,282.98 29.5591,282.807 28.3639,282.815 L28.2834,277.634 Z" id="Path" fill-opacity="0.303694468" fill-rule="nonzero"></path>
                                        <path d="M29.4615,277.745 C31.2939,277.285 32.501,277.023 33.6832,278.7 C33.7023,279.264 33.7259,279.644 33.7952,280.204 C32.6191,280.622 31.6945,280.869 30.5695,280.413 C29.8486,279.703 29.711,278.731 29.4615,277.745 Z" id="Path" fill-opacity="0.269680688" fill-rule="nonzero"></path>
                                        <path d="M393.37,14 L401.754,14 L401.754,20.98817 C399.35,21.00703 395.651,21.15203 393.37,20.98817 L393.37,14 Z" id="Path" fill-opacity="0.309768357" fill-rule="nonzero"></path>
                                        <path d="M429.058,201.761 C431.429,201.962 433.473,202.033 435.855,202.083 L435.722,208.111 C433.492,208.001 431.259,207.944 429.026,207.938 C428.992,206.106 429.018,203.772 428.909,201.984 L429.058,201.761 Z" id="Path" fill-opacity="0.309768357" fill-rule="nonzero"></path>
                                    </g>
                                </g>
                            </g>
                        </g>
                    </g>
                </g>
            </g>
        </g>
    </g>
</svg>