<?xml version="1.0" encoding="UTF-8"?>
<svg width="2050px" height="2237px" viewBox="0 0 2050 2237" version="1.1" xmlns="http://www.w3.org/2000/svg" xmlns:xlink="http://www.w3.org/1999/xlink">
    <title>wave-top</title>
    <g id="home" stroke="none" stroke-width="1" fill="none" fill-rule="evenodd">
        <g id="wave-border" fill="#CF042A" transform="translate(-50.3558, -86.2373)">
            <g id="wave-top" transform="translate(27, 0)" fill-rule="nonzero">
                <g id="Wave-top-left" transform="translate(1022.0515, 1443.6957) scale(-1, -1) rotate(90) translate(-1022.0515, -1443.6957)translate(-409, 345)">
                    <path d="M1315.66567,1817.49708 C1351.52063,1858.95988 1608.3137,2059.88371 1765.26034,1869.81847 C1807.78056,1818.32571 1855.18001,1884.34897 1901.85537,1925.38619 C1987.34398,2000.54825 2133.68257,2018.42689 2228.50401,1952.29863 C2323.32544,1886.17038 2317.59954,1816.84391 2368.24865,1858.70492 C2457.71952,1932.65178 2496.81178,1896.35234 2545.85096,1749.08178 C2594.89013,1601.81122 2686.83614,1739.65317 2724.04403,1749.08178 C2754.92248,1756.90649 2584.67913,1539.32538 2627.50999,1330.28809 C2656.32567,1189.65227 2741.70673,203.589997 2788.50999,395.741359 C2788.50999,1500.77251 2788.50999,2053.28809 2788.50999,2053.28809 L556.509986,2053.28809 C556.509986,2053.28809 556.509986,1405.83433 556.509986,110.926831 C1004.5417,96.357723 1227.20836,96.357723 1224.50999,110.926831 C1221.19904,128.803314 1437.50999,573.788086 1354.50999,701.288086 C1187.9704,957.116974 1248.34522,1199.82211 1339.5009,1339.78809 C1421.84794,1466.22873 1279.81071,1776.03428 1315.66567,1817.49708 Z" id="Path-Copy-2" transform="translate(1672.51, 1076.644) scale(-1, 1) rotate(-180) translate(-1672.51, -1076.644)"></path>
                </g>
                <g id="Wave-top-right" transform="translate(1243.1947, 1333.1558) scale(1, -1) rotate(90) translate(-1243.1947, -1333.1558)translate(-89.7238, 480.3169)">
                    <path d="M1568.99426,1656.36605 C1611.51447,1604.87329 1658.91393,1670.89655 1705.58928,1711.93377 C1791.0779,1787.09583 1937.41649,1804.97447 2032.23792,1738.84621 C2127.05936,1672.71796 2121.33346,1603.39149 2171.98256,1645.2525 C2261.45344,1719.19936 2300.5457,1682.89992 2349.58487,1535.62936 C2398.62405,1388.3588 2490.57006,1526.20075 2527.77795,1535.62936 C2558.65639,1543.45407 2388.41304,1325.87296 2431.2439,1116.83567 C2460.05959,976.199851 2533.03374,-43.1535878 2579.837,148.997774 C2579.837,1278.99777 2579.837,1843.99777 2579.837,1843.99777 L347.836997,1843.99777 C347.836997,1843.99777 312.46942,-0.0264085891 442.836997,22.8895386 C641.950093,57.8895386 783.950093,1390.33649 816.836997,1413.59423 C849.723902,1436.85197 1412.04761,1846.43129 1568.99426,1656.36605 Z" id="Path" transform="translate(1461.6492, 933.3377) scale(-1, 1) rotate(-180) translate(-1461.6492, -933.3377)"></path>
                </g>
            </g>
        </g>
    </g>
</svg>