<?xml version="1.0" encoding="UTF-8"?>
<svg width="2051px" height="1853px" viewBox="0 0 2051 1853" version="1.1" xmlns="http://www.w3.org/2000/svg" xmlns:xlink="http://www.w3.org/1999/xlink">
    <title>hero-mask</title>
    <g id="home" stroke="none" stroke-width="1" fill="none" fill-rule="evenodd">
        <g id="landing" fill="#CF042A" transform="translate(-3889.3558, -0.2373)">
            <g id="hero-mask" transform="translate(3866, -86)" fill-rule="nonzero">
                <g id="my-left" transform="translate(1022.0515, 1443.6957) scale(-1, -1) rotate(90) translate(-1022.0515, -1443.6957)translate(-409, 345)">
                    <path d="M1211.57716,1810.34629 C1261.53159,1845.21096 1474.61922,1586.44677 1765.26034,1855.97715 C1815.08472,1902.18253 1825.50999,1745.44677 1911.50999,1824.44677 C1995.09653,1901.22975 2105.68855,1980.57502 2200.50999,1914.44677 C2295.33142,1848.31851 2317.59954,1803.00259 2368.24865,1844.8636 C2457.71952,1918.81046 2470.22956,1892.71732 2519.26874,1745.44677 C2568.30791,1598.17621 2842.7216,1773.03951 2722.11579,1697.26409 C2601.50999,1621.48867 2584.67913,1525.48406 2627.50999,1316.44677 C2646.72044,1222.68956 2700.38711,911.17398 2788.50999,381.900039 C2788.50999,1486.93119 2788.50999,2039.44677 2788.50999,2039.44677 L935.571526,2039.44677 C935.571526,2039.44677 935.571526,1392.96451 935.571526,100 L1090.9232,100 C1311.975,413.297844 1394.83423,612.446766 1339.5009,697.446766 C1277.70349,792.376526 1200.49892,865.446766 1251.5432,934.446766 C1274.21608,965.095217 1273.45441,1039.67819 1251.5432,1067.58427 C1198.25914,1135.44677 1296.3455,1259.68333 1339.5009,1325.94677 C1421.84794,1452.38741 1161.62272,1775.48163 1211.57716,1810.34629 Z" id="Path-Copy-2" transform="translate(1862.0408, 1069.7234) scale(-1, 1) rotate(-180) translate(-1862.0408, -1069.7234)"></path>
                </g>
                <g id="my-left-copy" transform="translate(1075.0515, 1443.6957) scale(1, -1) rotate(90) translate(-1075.0515, -1443.6957)translate(-356, 345)">
                    <path d="M1211.57716,1823.65899 C1261.53159,1858.52366 1474.61922,1599.75947 1765.26034,1869.28985 C1815.08472,1915.49523 1825.50999,1758.75947 1911.50999,1837.75947 C1995.09653,1914.54245 2105.68855,1993.88772 2200.50999,1927.75947 C2295.33142,1861.63121 2317.59954,1816.31528 2368.24865,1858.1763 C2457.71952,1932.12316 2470.22956,1906.03002 2519.26874,1758.75947 C2568.30791,1611.48891 2842.7216,1786.35221 2722.11579,1710.57679 C2601.50999,1634.80137 2584.67913,1538.79676 2627.50999,1329.75947 C2646.72044,1236.00225 2700.38711,924.486679 2788.50999,395.212738 C2788.50999,1500.24389 2788.50999,2052.75947 2788.50999,2052.75947 L935.571526,2052.75947 C935.571526,2052.75947 939.495538,1401.83964 947.343563,100 C1164.34058,748.307957 1265.53535,1081.76396 1250.92789,1100.36801 C1197.64382,1168.23051 1296.3455,1272.99603 1339.5009,1339.25947 C1421.84794,1465.70011 1161.62272,1788.79433 1211.57716,1823.65899 Z" id="Path-Copy-4" transform="translate(1862.0408, 1076.3797) scale(-1, 1) rotate(-180) translate(-1862.0408, -1076.3797)"></path>
                </g>
            </g>
        </g>
    </g>
</svg>