<?xml version="1.0" encoding="UTF-8"?>
<svg width="300px" height="456px" viewBox="0 0 300 456" version="1.1" xmlns="http://www.w3.org/2000/svg" xmlns:xlink="http://www.w3.org/1999/xlink">
    <title>tall-indian-teenager-playing-soccer-pixel-art</title>
    <defs>
        <linearGradient x1="42.9994561%" y1="32.5459551%" x2="69.3770796%" y2="69.3509367%" id="linearGradient-1">
            <stop stop-color="#000000" offset="0%"></stop>
            <stop stop-color="#170102" offset="100%"></stop>
        </linearGradient>
        <linearGradient x1="59.5172717%" y1="39.24498%" x2="38.664016%" y2="60.3084945%" id="linearGradient-2">
            <stop stop-color="#010103" offset="0%"></stop>
            <stop stop-color="#2A0101" offset="100%"></stop>
        </linearGradient>
    </defs>
    <g id="home" stroke="none" stroke-width="1" fill="none" fill-rule="evenodd">
        <g id="landing-1-copy-25" transform="translate(-883, -429)">
            <g id="hero" transform="translate(588, 208)">
                <g id="Group-7" transform="translate(117, 153)" fill-rule="nonzero">
                    <g id="Group" transform="translate(9, 0)">
                        <g id="tall-indian-teenager-playing-soccer-pixel-art" transform="translate(85, 60)">
                            <path d="M308,179 L308.041823,175 L312.891591,175.118592 L313,178.933786 C311.38928,178.94614 309.584306,178.807288 308,179 Z" id="Path"></path>
                            <path d="M158.858069,230.095685 C160.140908,230.07761 161.677926,229.878161 162.928921,230.115007 L163,236 L158,235.948891 L158.239395,230.828037 L158.858069,230.095685 Z" id="Path" fill="#000000"></path>
                            <path d="M115,224 L115.019007,218.030817 L120.942978,218 L121,223.876732 C119.106864,223.893594 116.843717,223.684853 115,224 Z" id="Path" fill="#000000"></path>
                            <polygon id="Path" fill="#000000" points="120.249207 422 125.99496 422.074293 126 427.97616 120.045361 428 120 422.209573"></polygon>
                            <polygon id="Path" fill="#000000" points="147.003724 236.202485 157 236 156.873386 240.98946 147 241"></polygon>
                            <path d="M118.798691,404 L118.943589,404.080623 L118.948014,410.657086 L118.970689,418.805072 C118.961287,419.989856 118.758319,421.633814 119,422.761909 L118.753894,423 C117.067656,422.581767 114.764218,422.939533 113.011614,422.960948 L113,404.086292 L118.798691,404 Z" id="Path" fill="#110303"></path>
                            <path d="M161.692129,175.00672 L161.770164,175.818043 L161.878071,175.845535 L162,181.16984 L155.5975,181.149068 L155.609083,187.404439 L149.331561,187.355565 L149.368139,191.583851 C149.373016,192.212504 149.499213,193.014052 149.244991,193.591386 L143.27351,193.570614 L143.254002,199.807046 L137.139255,199.621933 L137.175224,204.995113 L131.24398,205 C130.801377,203.379798 131.097055,201.01731 131.092788,199.310355 L137.027689,199.468588 L137.029518,193.540067 L143.292409,193.530903 L143.302773,187.305468 L149.249258,187.328072 L149.225482,180.967009 L155.616399,181.082476 L155.600548,175 L161.692129,175.00672 Z" id="Path" fill="#000000"></path>
                            <path d="M214.117518,394.433023 C215.457144,393.812904 218.192313,394.039807 219.687327,394.043517 L219.714402,404.209637 L224.839239,404.206546 L224.871611,423.991004 C224.874554,426.503012 225.205341,429.541163 224.793329,432 C223.187072,431.763823 221.288287,431.962904 219.649657,431.95363 L219.68203,404.242405 L214.167548,404.251679 C213.851476,401.070709 214.071019,397.641197 214.117518,394.433023 Z" id="Path" fill="#000000"></path>
                            <path d="M119,404.758433 C119.253982,403.756056 119.093769,402.413118 119.090043,401.369649 L119.055889,394.300708 L125.588639,394.413397 L125.529024,384.321757 L131.576786,384.323003 L131.569955,379.173521 C132.025757,378.88775 133.427939,379.041531 134.009801,379.039663 L142,379.013514 L141.938523,384.709011 L136.714185,384.775629 L136.74213,389.487427 L131.512825,389.489917 L131.540769,394.714111 L125.74078,394.615741 C125.250823,397.968414 125.510395,401.606858 125.519089,405 L119.162698,404.838125 L119,404.758433 Z" id="Path" fill="#000000"></path>
                            <path d="M330,203.342543 C331.019039,202.892597 334.402809,202.906469 335.479241,203.264134 L335.47802,208.67616 C335.902976,209.012112 335.663633,208.914402 336.190554,208.978336 C337.331706,208.991605 340.079875,208.709936 340.979242,209.210547 C340.986569,210.609845 340.728298,212.768503 341.351689,214.003745 C341.978132,214.4169 343.384882,214.289636 344.138934,214.251035 L344.195106,214.239575 L346.202044,214.529085 L346.465199,215.132833 L346.496338,219.305998 C346.986625,219.711915 347.004942,219.594301 347.611236,219.57681 L351.311892,219.593095 C351.679454,220.058723 351.637935,220.213732 351.681286,220.813259 L351.694108,224.874238 L357.064057,224.865191 C357.581819,226.433972 356.950491,228.294677 357.457874,229.837523 L357.843753,230.272994 L361.639047,230.29531 C361.935783,231.000991 361.824659,231.874949 361.827102,232.634912 L361.839313,237.119903 C361.839924,237.875041 361.689113,238.622942 362.110405,239.266498 L366.820941,239.332844 C367.140268,241.139868 366.940002,243.163422 366.91619,245 L361.656142,244.95597 L361.7288,239.329828 L356.821661,239.325003 L356.821661,234.116238 L351.689834,234.139157 L351.640378,225.028643 L346.043907,225.040706 L346.039023,220.035804 L340.517042,220.071993 L340.546959,215.299905 L335.093973,215.372885 L335.151977,209.284734 C333.687223,209.32997 331.782249,209.600782 330.366952,209.317907 L330.028697,209.24372 L330,203.342543 Z" id="Path" fill="#000000"></path>
                            <path d="M214.089536,405.009278 L219.75176,405 L219.718521,432.723917 C221.401052,432.733195 223.350709,432.534023 225,432.770308 L224.767322,432.886595 C223.513885,433.346794 221.207657,433.027624 219.835162,433.02082 L219.846644,442.094912 C219.845436,443.125412 220.097453,444.918581 219.573475,445.807434 L219.407881,445.885371 C218.316411,446.041863 214.995467,446.125986 214.121566,445.537128 L214.195902,442.69181 L214.168102,433.075252 C212.54782,433.074015 209.769589,433.460607 208.305835,432.931131 L208.203094,427.936978 C207.767957,427.470593 207.168434,427.572654 206.554407,427.511417 C207.185961,427.400697 207.831414,427.546056 208.339075,427.124825 L208.460551,422.734375 L208.488955,422.485101 C207.390234,422.539533 206.371891,422.554378 205.276796,422.410875 L205,422.372525 L208.314296,422.309433 L208.274408,416.381892 L207.650107,415.630976 C207.683951,414.186667 207.456109,411.570211 208.064092,410.31456 C209.534494,409.711476 212.474693,410.104872 214.119149,410.100543 L214.089536,405.009278 Z" id="Path" fill="#071415"></path>
                            <path d="M207.399131,410 L207.631492,410.017739 L213,410.074014 L212.922921,415.798145 C211.242942,415.846468 209.228204,415.63666 207.594922,416 L207.013737,415.257417 C207.045244,413.829137 206.833136,411.241717 207.399131,410 Z" id="Path" fill="#000000"></path>
                            <path d="M214.067642,441.746508 L214.184778,441.355967 C214.424549,440.48911 214.318962,439.338776 214.321711,438.427513 L214.315662,432.020683 L219,432 L218.960955,444.810618 L218.810273,444.887266 C217.817092,445.041171 214.795205,445.123903 214,444.544782 L214.067642,441.746508 Z" id="Path" fill="#000000"></path>
                            <path d="M180.324659,157.053031 L186.454382,157 L186.368982,164.278589 L194.690218,164.270055 L194.70312,169.707206 L204,169.770599 L203.841489,175.383298 L198.794927,175.414385 L198.278843,179.900034 L193.181902,180 C192.896213,178.648636 193.122921,176.95166 193.193575,175.572258 L188.427788,175.631384 L162.600869,175.616145 C162.259271,176.010521 162.372318,175.79779 162.232238,176.238492 L162.123491,176.211062 L162.04485,175.401585 C162.30965,173.483953 162.037478,171.249357 162,169.29942 L186.375126,169.288448 L186.379427,164.222511 L179.949884,164.222511 L179.937596,157.098137 L180.324659,157.053031 Z" id="Path" fill="#110303"></path>
                            <path d="M141.934061,385.170898 L146.973089,385 L147,394.745395 L142.294675,394.690442 L142.362253,399.62534 C141.315695,399.620509 139.417538,399.389827 138.492979,399.767855 L138.386529,400.002764 C138.136551,400.749158 138.26752,401.84701 138.268716,402.643526 L138.278883,408.26141 C138.282471,409.047056 138.409254,410.072442 138.161668,410.809174 L120.004784,411 L120,404.694902 L126.121467,404.85191 C126.113095,401.560771 125.863117,398.031704 126.334965,394.779817 L131,394.690442 L131.893683,389.808083 L136.92972,389.805667 L136.902809,385.235513 L141.934061,385.170898 Z" id="Path" fill="#F30302"></path>
                            <path d="M155.252382,43 L162,43.0472091 L161.863322,68.0291786 L155.141217,67.9805094 L155.067108,109.065237 C157.027975,109.341434 158.182748,109.48075 159.42378,111.184781 L159.56957,111.412918 L159.55985,111.591777 L149.287774,111.592994 L149.251934,133.575662 L154.290172,133.574446 L154.245828,138.64882 L159.691061,138.564865 L159.551953,143.695209 L159.333269,144 L153.90869,143.985399 L154.044152,139.210341 C152.560138,138.841671 150.294936,139.218858 148.729522,139.270569 L148.786623,133.947373 L143,133.979008 L143.032803,110.289876 L148.413038,110.289876 L148.410608,62.0939677 L155.139395,62.0702415 L155.123601,49.9867702 C155.122386,47.6834387 154.985101,45.2850805 155.252382,43 Z" id="Path" fill="#000000"></path>
                            <path d="M186.344257,19.3575824 C187.539352,19.3597471 190.059072,19.6769175 191.073314,19.2129136 L191.133191,14.1136325 L197.201536,14.1003346 L197.163044,8.07081905 L261.623024,8 C262.143587,9.08016064 261.751332,12.2371441 261.747666,13.5583369 C262.88655,13.5279064 266.393018,13.0601914 267.23435,13.5368129 L267.284451,17.1680057 C268.811924,17.5854361 271.522884,17.2522464 273.112678,17.1087527 L273.115733,22.4721981 L285.038578,22.4541996 L285.023303,27.8413956 L289.588004,27.778679 C289.91916,27.7737928 290.735442,27.6583794 291,27.7937087 C290.769657,29.6443435 290.961508,31.7433089 290.959064,33.6219621 L284.726973,33.6254258 L284.806402,28.2162727 L273.091904,28.4318224 L273.087627,22.7445886 C271.959741,22.7387746 268.362847,23.0880455 267.533735,22.4729403 C267.456139,21.9146759 267.455528,21.5273668 267.075493,21.0876702 L261.684734,21.2067328 L261.689011,14.0335359 L197.291352,14.1411561 L197.285242,19.6771031 L191.301824,19.5885329 L191.398971,26.2390913 L186.437738,26.6064845 L186.380305,30.2551192 L180.875903,30.3483901 L180.909507,29.9687505 L180.898509,19.3782405 L174.610208,19.144816 L174.631592,31.1588817 L168.339014,31.1528203 L168.359787,36.8593515 C166.284257,36.8607122 164.095693,36.7184556 162.040325,37 L162,31.0075948 C163.46393,30.422178 166.555536,30.8585347 168.204596,30.8681215 L168.188099,18.7619601 L174.442186,18.7854015 L174.378643,13.8436542 L180.78792,13.8717344 L180.745762,8.22643542 L186.244055,8.16631653 L186.217782,14.5065082 C186.226947,15.7554594 185.879294,18.2754425 186.344257,19.3575824 Z" id="Path" fill="#000000"></path>
                            <path d="M160.399048,110.586606 L165.976024,110.696904 L165.948472,115.361896 L169.244821,115.384568 L169.302984,91.070602 C171.242589,91.0681509 173.518318,90.8291719 175.405269,91.2446277 L175.532617,91.4450024 L175.536903,126.679695 L175.514862,129.871597 L170.864831,129.855052 L170.899117,142.9511 C172.338514,142.944359 174.56159,142.648393 175.893232,143.061398 L175.868742,150.339227 L180.74408,150.349031 C180.742243,151.910361 180.272036,155.738926 181,156.954655 L180.614283,157 C179.435092,156.813719 178.112022,156.928919 176.915075,156.933821 L170.538503,156.963847 L170.456461,149.021166 L160.318843,148.964179 C160.340884,147.437777 160.666601,145.156447 160.257006,143.718896 L160.160883,143.409449 L160.381293,143.102453 L160.521498,137.934992 L155.033298,138.019554 L155.077993,132.908468 L150,132.909693 L150.036123,110.767985 L160.389252,110.766759 L160.399048,110.586606 Z" id="Path" fill="url(#linearGradient-1)"></path>
                            <path d="M159.470706,144 L159.612119,138.726379 L154.07665,138.812678 L154.121729,133.596589 L149,133.59784 L149.036434,111.001251 L159.478734,111 L159.37746,117.489937 L158.297414,117.827629 L158.616056,117.891416 C159.066229,117.977089 158.884678,117.953951 159.332999,117.96896 L159.610884,118.583684 L159.905442,117.900796 L164.790042,117.88954 L164.763489,128.837635 L159.559012,128.868277 L159.476264,134.564014 L164.994442,134.533997 L165,143.875554 C163.426553,143.901194 160.925589,143.588516 159.470706,144 Z" id="Path" fill="#F6753A"></path>
                            <path d="M158.971542,117.761177 L159,121.909284 L154.004832,122 L154,117.031667 C155.288123,116.997109 156.546714,116.95823 157.829467,117.108344 L158.106529,117.163422 C158.49796,117.237399 158.340099,117.217419 158.729918,117.230379 L158.971542,117.761177 Z" id="Path" fill="#000000"></path>
                            <path d="M161.05074,30.7411684 L161.091478,36.6721428 C163.167875,36.3934846 165.378831,36.5342829 167.475598,36.5329361 L167.454612,30.8849051 L173.811573,30.8909043 L173.78997,19 L180.142611,19.2310316 L180.153721,29.7129737 L180.119773,30.0887214 L185.680494,29.9964067 L185.738514,26.3851758 L190.750509,26.0215489 L190.457936,59.2504934 C191.947338,59.2623694 193.500933,59.191603 194.974904,59.388843 L194.864417,64.0138828 L198,64.1001983 L195.069341,64.3511865 L194.962559,73.6861123 L186.997068,73.710599 L187.111258,79.5910696 L180.574062,79.4263969 L180.662327,85.2291224 L173.804166,85.0681226 C173.803549,86.9058463 174.044273,89.0949534 173.703556,90.8837037 C171.80122,90.4686548 169.506937,90.7073998 167.551519,90.7098484 L167.492881,115 L164.169657,114.97735 L164.197433,110.316927 L158.574988,110.206737 L158.42685,109.977174 C157.165827,108.262496 155.992453,108.12231 154,107.844387 L154.075303,66.5029515 L160.905688,66.5519248 L161.044568,41.4138615 L154.188258,41.3663574 C154.864754,41.0263601 155.76716,41.1555885 156.510318,41.1521603 L160.855692,41.1492832 L160.829768,34.2835306 C160.829151,33.2896784 160.667434,31.9508092 160.945192,31.006114 L161.05074,30.7411684 Z" id="Path" fill="#071415"></path>
                            <polygon id="Path" fill="#000000" points="181 42.0016304 187 42 186.866921 46.9206715 181.192295 47 181.02547 42.1987429"></polygon>
                            <path d="M120.518359,217.978024 L120.439021,211.84349 L125.623225,211.842879 L125.582043,206.035463 L131.43123,206 L131.391864,209.9566 C131.387019,210.509949 131.256808,211.308484 131.508751,211.80069 L136.605139,211.811084 L136.591209,217.336017 L136.712941,217.770136 L136.972151,231.290812 C138.037457,230.758251 141.689414,230.909887 142.883113,231.207045 L143,236.384071 L137.07632,236.437877 L137.08177,242.561405 L131.206541,242.526553 L131.196851,265.718918 L123.442347,265.69874 L123.369671,272.123094 L129.425379,272.096191 L129.388436,283.780726 L135.251553,283.775223 L135.13406,299.980102 L129.370872,299.877992 L129.385407,305.324049 L123.028701,305.351564 L123.06625,299.859037 L113.4785,299.866375 L113.493035,308.933965 L96.2507108,309 L96.2392039,304.892375 L89.8588776,304.885038 L89.8800747,299.468941 L84,299.405352 L84.0290703,271.936607 L90.1259611,272.026488 L90.086595,265.443772 L96.1586549,265.454166 L96.2204293,236.516752 C96.8448352,236.287464 97.6267053,236.392631 98.2886603,236.392019 L102.601361,236.393854 L102.569868,230.146204 L108.942321,230.190839 L108.966547,224.355909 L114.653425,224.431116 L114.837537,224.287428 C116.599924,223.95603 118.763239,224.175535 120.572866,224.157804 L120.518359,217.978024 Z" id="Path" fill="#000000"></path>
                            <path d="M123.041509,294.408768 L123,284 L128.879245,284.000629 C129.104403,285.541737 128.902516,287.207919 128.88239,288.76914 C128.834591,292.47044 128.716352,296.313156 129,300 L123.002516,299.989315 L123.041509,294.408768 Z" id="Path" fill="#F6753A"></path>
                            <path d="M114.219127,289.555828 C113.788309,287.934478 114.127609,285.389152 114.116403,283.662377 L123.987853,283.668436 L124.061939,273.286584 L124.08871,273 L124.150966,283.701154 C125.53805,283.687219 128.879999,283.270369 130,283.893826 L124.180227,283.89322 L124.221317,293.927294 L114.288232,294 L114.219127,289.555828 Z" id="Path" fill="#8F0703"></path>
                            <polygon id="Path" fill="#8F0703" points="90.1158851 289 96.0576327 289.054319 96.0551539 294.322624 113.996901 294.36286 114 300 90 299.810888"></polygon>
                            <path d="M89,289.950276 L89.0180494,272.49601 L95.4311708,272.517495 L95.4268141,266 L117.393498,266.007366 L117.402834,272.518723 L122.788387,272.580724 L123,273.210559 L122.973237,273.500921 L122.899173,284.019644 L113.030534,284.013505 C113.041737,285.763045 112.702533,288.341928 113.133228,289.984653 L94.9674892,290 L89,289.950276 Z" id="Path" fill="#FC9144"></path>
                            <path d="M120.698876,217.14077 L120.620625,210.922886 L125.733767,210.922266 L125.693148,205.035945 L131.462157,205 L131.423331,209.010359 C131.418552,209.571226 131.290126,210.380611 131.538616,210.879504 L136.565144,210.89004 L136.551405,216.49004 L136.671469,216.930058 L136.927126,230.63444 L137,235.753519 L131.069712,235.767773 L131.080464,241.937937 L125.229023,241.976361 L125.107765,261 L103,260.876671 L103.025685,250.332359 L103.01792,235.822931 L109.025264,235.755998 L109.076634,229.665162 L114.967498,229.6695 L114.914336,223.681541 L115.095924,223.535901 C116.834153,223.2 118.967814,223.422488 120.752635,223.404515 L120.698876,217.14077 Z" id="Path" fill="#F30302"></path>
                            <path d="M121.078522,218 L121,211.854211 L126.130933,211.853599 L126.090173,206.035528 L131.879257,206 L131.840295,209.963859 C131.8355,210.518224 131.706627,211.318224 131.955981,211.811332 L137,211.821746 L136.986214,217.356815 L136.597797,217.808882 L131.552579,217.890965 L131.635897,212.08392 L126.261005,212.07902 L126.266999,217.829096 C124.908141,217.867075 123.452178,217.800919 122.109504,217.979173 L121.078522,218 Z" id="Path" fill="#000000"></path>
                            <path d="M120.005648,218.020749 L121.051923,218 L125.069129,218.066519 L125.040539,224.035524 L130,224.056273 L129.990267,230.654461 L124.800869,230.656902 L124.774104,237.48211 L119.01108,237.487602 L119.014121,255.992067 L107.435759,256 L107.458266,250.741954 C105.932653,250.723646 103.417337,250.338569 102.007908,250.704728 L102,236.417197 L108.117662,236.351288 L108.169976,230.353601 L114.16902,230.357872 L114.114882,224.461489 L114.299804,224.318077 C116.069954,223.987313 118.242798,224.206398 120.060395,224.1887 L120.005648,218.020749 Z" id="Path" fill="#FC9144"></path>
                            <path d="M334.587111,215.073596 L340.033564,215 L340.003682,219.812306 L345.519047,219.775812 L345.523925,224.822894 L351.11369,224.81073 L351.163087,233.998025 L356.288766,233.974912 L356.288766,239.227576 L361.190025,239.232441 L361.117454,244.905999 L366.371199,244.9504 L366.637698,244.991759 L368.134847,244.924246 L372.094518,244.935802 L372.216486,257.81383 C373.527635,257.773687 374.882083,257.63866 376.148104,258.043132 C376.958577,258.876405 377.243981,260.841592 377.196414,262.00635 C377.178118,262.440626 377.24642,262.269713 376.918938,262.567746 L377.77088,262.671144 C378.29473,263.55186 377.992251,265.988424 377.988592,267.098441 L383.375281,266.993826 C383.401504,268.418906 383.15452,270.582984 383.525301,271.910747 C383.653976,272.088958 383.735085,272.171677 383.786311,272.411928 C384.167459,274.215326 383.823511,276.879976 383.832658,278.760011 L383.879006,293.693243 C383.880836,294.953493 384.171728,297.277535 383.844855,298.439252 L383.71374,298.729377 L383.67898,298.969628 L383.507006,303.719894 C381.811049,303.694349 379.832738,303.865869 378.178251,303.540467 C376.992118,303.535601 373.855727,303.204116 372.992198,303.803222 L372.944631,308 C370.716897,307.658175 368.021418,307.956208 365.746726,307.973846 L352.196761,307.998175 L352.159561,303.179179 C350.580083,303.87925 348.524323,303.407873 346.827147,303.673669 C345.547709,303.927909 341.391671,304.197354 340.297623,303.660288 L340.233591,301.587444 L340.276279,298.980576 L334.934718,298.998215 C334.812141,298.869878 334.66578,298.757964 334.531006,298.642401 L334.529176,289.475785 C334.531006,288.402262 334.294999,286.709561 334.749937,285.735179 L340.042102,285.673139 L340.259204,285.740653 C340.420811,284.213998 340.298233,282.568131 340.293355,281.029313 L340.266522,272.040908 C340.053079,271.939942 339.26395,271.939942 339.007818,271.929602 L334.949354,271.842017 L335.067053,267.052216 L335.684817,266.633147 L335.129256,266.262127 L335.092666,248.56632 L330.431073,248.588824 C330.455466,247.19963 330.549381,245.806786 330.169453,244.45591 L330.099321,244.229041 L329.554127,244.107395 C327.656315,243.667037 325.495663,243.809971 323.549673,243.769828 L323.63688,239.174052 C323.900939,238.450868 323.71006,236.907791 323.721647,236.090332 L323.724087,234.030869 C322.862997,233.480422 320.23399,233.771764 319.1125,233.76629 L318.786237,233.979778 C318.769162,234.567327 318.711227,235.17738 318.774041,235.76128 L318.706959,238.008685 L313.940474,238.321923 L313.944133,243.128755 L308.066525,243.066107 L307.989685,238.809114 L303.240886,238.740384 L303,238.557308 L303.03781,233.980994 L307.088956,233.72858 C307.453639,232.658097 307.382288,230.712981 307.049927,229.62851 L312.615298,229.598098 C312.592124,228.354879 312.287206,226.185935 312.688478,225.057671 L312.798859,224.774236 C314.336868,224.446401 316.449343,224.701249 318.051994,224.692733 L323.983877,224.75234 L329.965157,224.766937 L329.970036,219.834202 C331.03847,219.330589 333.326578,219.583004 334.566376,219.565973 L334.587111,215.073596 Z" id="Path" fill="#000000"></path>
                            <path d="M318.142128,225.085639 L323.948662,225.14473 L324,229.250377 L318.450155,229.108075 L318.634015,234 L313.383839,233.957189 L313.22505,229.058632 L318.054974,228.903667 C317.679492,228.047445 317.884843,226.160741 317.880664,225.171864 L313,225.166437 C314.505508,224.841435 316.573343,225.09408 318.142128,225.085639 Z" id="Path" fill="#CF042A"></path>
                            <polygon id="Path" fill="#F30302" points="325.048871 225 330.966471 225.014865 330.71729 228.66671 336.441217 229.019755 336.496121 233.460067 341.152129 233.526959 341.138252 239.445723 346.806671 239.446962 346.778917 250.224117 351.595415 250.319501 351.557404 256.909669 361.561455 256.925773 361.624806 251.081953 367 250.967988 366.864851 263 341.295725 262.97027 341.361489 244.016723 336.408033 244.12883 336.41467 239.295834 330.709447 239.375733 330.761938 233.976007 325 234.011312 325.100758 229.217336"></polygon>
                            <path d="M335.899435,215.07341 L341.374517,215 L341.344478,219.800189 L346.888833,219.763788 L346.893737,224.798162 L352.512884,224.786028 L352.56254,233.950192 L357.715162,233.927137 L357.715162,239.166575 L362.642184,239.171429 L362.569232,244.830702 L367.850592,244.874991 C368.078644,246.523387 368.014274,248.502434 367.865918,250.164178 L362.404323,250.275811 L362.339954,256 L352.175098,255.984226 L352.213719,249.528966 L347.319802,249.435535 L347.348002,238.879001 L341.588468,238.877787 L341.602568,233.080188 L336.87172,233.014664 L336.815933,228.665251 L331,228.319434 L331.253187,224.742346 L331.258091,219.822031 C332.332141,219.319685 334.632276,219.571465 335.878591,219.554477 L335.899435,215.07341 Z" id="Path" fill="#FC9144"></path>
                            <path d="M347.782504,285 L348.010799,285.063622 L353.825638,285.09327 C353.828674,286.498504 353.629523,288.282379 353.914892,289.635727 L379,289.674641 L378.970856,289.931598 L378.839708,298.009066 C378.482086,298.200549 378.442013,298.211049 378.010318,298.202402 L374.016373,298.239463 L374.120805,302.983902 L353.679918,302.873954 L353.612523,303.195768 C352.03996,303.906724 349.9932,303.428018 348.303454,303.697946 C347.029617,303.956139 342.891773,304.229773 341.802516,303.684357 L341.738763,301.579286 L341.781265,298.931888 L336.463088,298.949801 C336.341048,298.819469 336.195327,298.705815 336.061144,298.588455 L336.059322,289.279323 C336.061144,288.189108 335.82617,286.470091 336.279117,285.480559 L341.548113,285.417555 L341.764264,285.486118 C343.370828,285.419408 346.531133,285.871554 347.782504,285 Z" id="Path" fill="#000000"></path>
                            <path d="M346.780715,285 L347,285.063797 C346.664658,286.98947 346.984837,289.048312 346.813958,291 L341.020412,290.903995 L341,285.487457 C342.543157,285.420564 345.578733,285.873955 346.780715,285 Z" id="Path" fill="#F6753A"></path>
                            <polygon id="Path" fill="#F30302" points="341.001811 291 347 291.097684 346.927544 298.755475 341 299"></polygon>
                            <path d="M353.257333,290 L379,290.037899 L378.970092,290.288154 L378.835506,298.154928 C378.46851,298.341416 378.427387,298.351643 377.984375,298.343221 L373.885736,298.379315 L373.992906,303 L353.0162,302.89292 L353.028662,299.445303 L353,294.496761 L374.197901,294.53466 L374.283886,290.178667 L359.103096,290.221379 C357.445696,290.218371 354.780148,290.526978 353.257333,290 Z" id="Path" fill="#8F0703"></path>
                            <path d="M346.065356,285.436076 L346,272.50536 L351.722942,272.477017 L351.749455,267.215961 C352.854953,266.788395 354.830423,266.99464 356.064166,266.985594 L366.347829,266.950013 L366.355228,263 L371.954857,263.047038 L371.905532,272.458322 L377.831324,272.392589 C378.105695,273.358081 377.93799,274.680582 377.933057,275.693112 L377.889281,283.125771 C377.87695,285.259984 378.215443,287.954436 377.765968,290 L352.292647,289.962008 C352.002862,288.640713 352.205095,286.899089 352.202012,285.527137 L346.297184,285.498191 L346.065356,285.436076 Z" id="Path" fill="#FC9144"></path>
                            <path d="M192.290648,26.1501997 L192.193152,19.5298035 L198.198043,19.617972 L198.204175,14.1071321 L262.832935,14 L262.828643,21.1406644 L268.238747,21.0221417 C268.620146,21.4598442 268.620759,21.8453968 268.698634,22.4011293 C269.530721,23.0134448 273.140523,22.665758 274.272457,22.6715456 L274.276749,28.3329861 L286.033286,28.118414 L285.953573,33.503035 L292.208028,33.499587 C292.210481,31.6294541 292.017942,29.5400081 292.249111,27.6977665 C292.813852,29.2003254 292.454527,31.8335593 292.444716,33.4748358 L298.09764,33.4673858 L298.2074,47.6226804 L303.812496,47.6786477 L303.856032,63.0184911 L309.703335,63.0037142 L309.711919,108.260882 L315,108.211626 L314.89024,135.926216 L308.648662,136.003794 L308.355561,135.963774 L308.656633,111.0574 L302.371518,111.062326 L302.322464,124.449532 L296.409551,124.510487 L296.424267,129.243387 L301.909179,129.282177 L301.863191,132.205529 L296.592892,132.552785 L296.607608,137 L285.382087,136.940277 L285.417038,129.376379 L285.530477,97.6935907 C284.199259,97.7083675 281.469373,98.0808672 280.307394,97.5716817 L280.037594,97.4423843 C279.734682,96.3156498 279.921702,94.710515 279.916184,93.528983 L279.898401,85.0101315 L274.575982,84.9830407 L274.587019,78.4436708 L263.51418,78.2946709 L263.323481,78.5421831 C262.360172,77.8963118 248.401699,78.2983651 246.132926,78.3162205 L246.305843,84.7225988 L222.774987,84.7349128 L222.906208,78.5157079 L212.974501,78.5274062 L212.624374,75.384248 L207.622649,75.0449963 L207.647789,70.1698687 L202.115662,70.2172777 L202.100333,64.5189566 L199.49247,64.4487666 L196.377506,64.3619526 L196.487265,59.7102016 C195.022987,59.5118225 193.479608,59.5829976 192,59.571053 L192.290648,26.1501997 Z" id="Path" fill="#081F20"></path>
                            <polygon id="Path" fill="#000000" points="262.675385 78.3967773 262.294399 78.0129465 262 72.030876 274.620653 72 274.472491 78.471243 280 78.3925395 279.813355 85 274.24608 84.9733619 274.257625 78.5432869"></polygon>
                            <path d="M292.065593,35.0073397 L297.56291,35 L297.669648,48.9457509 L303.120453,49.0008897 L303.162791,64.1136543 L308.849135,64.0990962 L308.857484,108.686313 L314,108.637786 L313.893262,135.942111 L307.823494,136.018541 L307.538462,135.979113 L307.831246,111.441434 L301.719141,111.446287 L301.671437,124.63532 L295.921288,124.695372 L295.935599,129.35821 L301.269529,129.396425 L301.224806,132.276503 L296.099583,132.618618 L296.113894,137 L285.197376,136.941161 L285.231366,129.489233 L285.341682,98.2754514 C284.047108,98.2900095 281.392367,98.656995 280.262373,98.1553471 L280,98.0279637 C280.245081,96.8578563 280.081097,95.393554 280.080501,94.1931173 L280.036971,85.5462119 L285.7096,85.4952585 L285.703637,97.2873203 L291.229577,97.1726753 L291.415623,124.58012 L295.915325,124.601957 L295.900417,108.851305 L302.617174,108.735447 L303.060823,64.4460643 L297.271914,64.5728411 L297.477042,49.0058637 C295.726297,48.7504903 293.807394,48.8741735 292.033989,48.8485755 L292.065593,35.0073397 Z" id="Path" fill="#000000"></path>
                            <path d="M198.715624,65 L201.326358,65.0700116 L201.341705,70.7538476 L206.879924,70.7065591 L206.854756,75.5692942 L211.861989,75.9076836 L212.212501,79.0428519 L222.155146,79.0311833 L222.02378,85.2345791 L245.580549,85.2222963 L245.407441,78.832203 C247.678713,78.814393 261.652557,78.4133617 262.616926,79.0575912 L262.807836,78.8107082 L273.892869,78.9593293 L273.881819,85.4820762 L279.210099,85.5090982 L279.227901,94.0062949 C279.233426,95.1848234 279.046199,96.785878 279.349445,97.9097484 L279.619542,98.0387171 C280.782801,98.5466082 283.515693,98.1750555 284.848377,98.1603162 L284.734814,129.762567 L284.699824,137.307238 L295.937707,137.366809 L295.922974,132.930899 L301.199077,132.584526 L301.245116,129.668604 L295.754164,129.629914 L295.739431,124.909044 L301.658856,124.848245 L301.707964,111.495068 L308,111.490155 L307.698596,136.333217 L307.719467,142.719625 L301.367273,142.802534 L301.413313,147.528316 L295.200464,147.464446 L295.258167,152.21111 L294.962902,152.456764 L294.987456,157.372315 L289.67575,157.604459 L284.683864,157.703949 L279.649007,157.721145 L279.671106,160.167866 L279.647779,163.860056 C278.184958,163.848388 276.603662,163.95709 275.157414,163.788816 L273.983106,163.641424 L273.719761,163.026058 L273.513505,163.757495 L268.287739,163.810925 L268.307382,169.702954 L261.633527,169.714008 C261.63721,171.351297 262.009208,174.045515 261.474538,175.53234 L246.293851,175.520057 L246.32086,180.823743 C245.440589,180.860591 244.523487,180.842167 243.656107,180.993244 L213.775996,181 L213.743461,176.177184 L203.658402,176.194994 L203.816777,170.540022 L194.52789,170.476152 L194.514999,164.998052 L186.200918,165.00665 L186.286244,157.673242 L180.161791,157.726672 C179.431915,156.508225 179.903358,152.671098 179.905199,151.106277 L175.017055,151.096451 L175.041609,143.802349 C173.70647,143.38842 171.477554,143.685048 170.034376,143.691804 L170,130.566472 L174.662245,130.583054 L174.684344,127.384016 L174.680047,92.0705357 L174.552365,91.869713 C174.891214,90.0752053 174.65181,87.8790521 174.652423,86.0354135 L181.47299,86.1969314 L181.385209,80.3755288 L187.88657,80.5407316 L187.773006,74.6413335 L195.694833,74.6167681 L195.80103,65.2517961 L198.715624,65 Z" id="Path" fill="#FC9144"></path>
                            <path d="M223.109163,142.877899 C222.922098,141.647919 223.038794,140.266312 223.009473,139.018409 L227,139 L226.985926,142.908902 C226.092822,142.908902 223.841004,143.133196 223.109163,142.877899 Z" id="Path" fill="#101010"></path>
                            <path d="M202.672818,135 L206.826261,135.012307 L207.738589,135.181397 C208.127471,135.705253 207.967154,136.429769 207.967798,137.042451 L207.973592,140.925622 L202,141 L202.040562,135.286275 L202.672818,135 Z" id="Path" fill="#000000"></path>
                            <polygon id="Path" fill="#000000" points="251 135.020807 256.995722 135 257 140.957839 251.044001 141"></polygon>
                            <path d="M226.98358,142.198646 L234.0264,142.216193 L234.0264,138 L238.884307,138 L238.884307,141.561349 C238.108199,142.135355 238.023839,142.29327 237.865966,143.263316 L237.610477,146.968668 L223.080744,147 L223,142.158541 C223.752005,142.488783 226.065868,142.198646 226.98358,142.198646 Z" id="Path" fill="#110303"></path>
                            <path d="M251.353115,129.290277 L264.363022,129.334116 L264.37306,111.020041 L269.999373,111 L270,116.655863 L269.971141,129.382339 L264.771444,129.347894 L264.837946,135 L251.102791,134.999374 C251.08397,133.363551 250.76589,130.785189 251.353115,129.290277 Z" id="Path" fill="#FEFEFE"></path>
                            <path d="M213.908156,154.920111 C215.238953,154.920111 216.247732,156.534344 217.463654,157 C218.944737,157.567203 220.628948,157.005581 222.262988,157 L235.581564,157 L241.389599,157 C242.122953,157.004517 244.319913,154.682984 245,154.920111 L245,159.388677 L240,162 C232.45726,162.272726 226.790593,162.272726 223,162 C219.209407,161.727274 216.178792,160.856833 213.908156,159.388677 L213.908156,154.920111 Z" id="Path" fill="#110303"></path>
                            <polygon id="Path" fill="#000000" points="250.346404 91 273.988905 91.0536384 274 101.975244 266.972898 102 243.006164 101.984085 243 95.6205659 250.265654 95.6217447"></polygon>
                            <path d="M187.012295,91.0848117 L212.396396,91 L212.398855,95.5664694 L218.974181,95.6094562 L219,101.785024 L194.92039,101.955228 L189.430092,101.970912 C188.656126,101.973236 187.732778,102.087674 187,101.846018 L187.012295,91.0848117 Z" id="Path" fill="#110303"></path>
                            <path d="M245,118.058259 L243.15019,118.058259 C242.67334,117.139439 243.082203,109.050882 243.11125,108 L274,108.07226 L273.999395,117.381318 L270,117.381318 L270,111.777444 L264.560636,111.777444 L264.560636,129.956395 L251.031318,129.956395 L250.986538,129.850497 L245.538465,129.747091 L245,118.058259 Z" id="Path" fill="#000000"></path>
                            <path d="M245,112.022977 L249.915422,112 L249.921463,124.348996 C249.923111,126.145519 249.744618,128.243221 250,130 L245.05547,129.896916 L245,112.022977 Z" id="Path" fill="#FEFEFE"></path>
                            <path d="M198.871164,65 L201.450338,65.0698292 L201.465499,70.7388552 L206.93677,70.6916899 L206.911906,75.5417546 L211.85861,75.8792622 L212.204885,79.0062615 L222.027338,78.9946233 L221.897561,85.1818553 L245.169565,85.1696046 L244.99855,78.7961614 C247.242366,78.7783979 261.047288,78.3784115 262,79.0209624 L261.961188,85.2388212 L245.189578,85.302525 L245.172597,91.5791874 L221.854504,91.5957259 L221.876336,85.1616416 L206.487401,85.1763425 L206.487401,76.8697339 L201.64925,76.8734091 L201.655314,80.5663922 L188.189389,80.6160076 L188.149971,86.5300483 L181.883055,86.5337235 L181.89579,91.8781052 C179.74476,91.8830055 177.233506,91.6459539 175.126139,92 L175,91.7997005 C175.334753,90.0098686 175.098243,87.8194378 175.098849,85.980603 L181.836966,86.1417001 L181.750246,80.3354659 L188.173016,80.5002382 L188.060825,74.6162118 L195.886889,74.5917103 L195.991803,65.25114 L198.871164,65 Z" id="Path" fill="#000000"></path>
                            <path d="M191.523632,122.660919 L187,122.703354 L187.031357,108 L220,108.149131 L219.921606,116.732049 L219.506433,117.064866 L219.37724,117.447999 C219.042969,118.517378 219.22108,120.070524 219.215435,121.199313 L219.206028,129.424559 L213.74857,129.420315 L213.911002,134.836926 L207.750508,134.835107 L203.704764,134.821164 L196.844372,135 L196.909595,129.329988 L191.627112,129.36333 L191.523632,122.660919 Z" id="Path" fill="#110303"></path>
                            <path d="M192,122.326605 L192.007261,111.045453 L197.66577,111 C198.233376,116.912673 197.735359,123.236295 197.64217,129.181346 L212.956028,129.180724 L212.992335,116.568349 L219,116.578934 L218.875345,116.972448 C218.552814,118.0708 218.724669,119.666027 218.719223,120.825399 L218.710146,129.273499 L213.444362,129.26914 L213.601089,134.832507 L207.656962,134.83064 L203.753311,134.816319 L197.133867,135 L197.1968,129.176365 L192.099845,129.210611 L192,122.326605 Z" id="Path" fill="#FEFEFE"></path>
                            <path d="M284.734814,129.138387 L284.699824,136.627718 L295.937707,136.686852 L295.922974,132.283479 L301.199077,131.939646 L301.245116,129.045113 L295.754164,129.006706 L295.739431,124.320463 L301.658856,124.26011 L301.707964,111.004877 L308,111 L307.698596,135.660841 L307.719467,142.000406 L301.367273,142.082707 L301.413313,146.773826 L295.200464,146.710425 L295.258167,151.422272 L294.962902,151.666125 L294.987456,156.545621 L289.67575,156.776062 L284.683864,156.874822 L279.649007,156.891892 L279.671106,159.320667 L279.647779,162.985775 C278.184958,162.974192 276.603662,163.082097 275.157414,162.915058 L273.983106,162.768746 L273.719761,162.157895 L273.513505,162.883967 L268.287739,162.937005 L268.307382,168.785816 L261.633527,168.796789 C261.63721,170.422069 262.009208,173.096525 261.474538,174.572445 L246.293851,174.560252 L246.32086,179.825036 C245.440589,179.861613 244.523487,179.843325 243.656107,179.993294 L213.775996,180 L213.743461,175.212558 L203.658402,175.230238 L203.816777,169.616745 L194.52789,169.553343 L194.514999,164.115424 L186.200918,164.123959 L186.286244,156.844341 L180.161791,156.897379 C179.431915,155.687868 179.903358,151.878886 179.905199,150.325544 L175.017055,150.315789 L175.041609,143.075188 C173.70647,142.664296 171.477554,142.958748 170.034376,142.965454 L170,129.936395 L174.662245,129.952855 L174.684344,126.777281 L175.016441,126.84495 C177.373652,127.290591 180.403651,126.889453 182.844961,126.898598 L182.913713,139.503963 L190.869916,139.525909 C191.078013,142.24243 190.941123,145.037594 190.93744,147.76326 C190.936212,148.528348 190.744689,150.017679 191.056528,150.682788 L196.782588,150.698638 L196.870369,156.87909 C198.571981,156.900427 200.894203,156.640723 202.493301,157.172323 L202.379124,162.193253 L213.623759,162.168868 L213.557462,169.102215 L245.654825,169.122333 C246.190723,167.417192 245.552925,165.26458 245.89423,163.480187 L252.478462,163.244259 L252.607985,160.173542 L258.613964,160.120504 L258.811626,155.957935 L263.632246,155.919529 L263.564108,150.300549 L268.30861,150.24873 L268.63334,142.769153 C270.495783,142.772201 272.244662,142.675269 274.08562,142.388742 L274.087461,134.267832 L280.067658,134.262955 L280.084846,129.216419 L284.734814,129.138387 Z" id="Path" fill="#F30302"></path>
                            <path d="M274.068002,162.159273 L274,156.975447 L279.973801,156.875538 L279.965224,151.257169 L284.999856,151.020036 L284.998018,142.383335 L301.586327,142.346621 L301.58449,136.082455 L307.97917,136 L308,142.258749 L301.660456,142.340001 L301.706404,146.971319 L295.505928,146.908725 L295.563516,151.560507 L295.268839,151.801251 L295.293344,156.618544 L289.992216,156.846047 L285.010271,156.943549 L279.985441,156.960401 L280.007496,159.358214 L279.984216,162.9766 C278.524307,162.965165 276.94616,163.071694 275.502793,162.906784 L274.330823,162.762338 L274.068002,162.159273 Z" id="Path" fill="#000000"></path>
                            <path d="M273.079937,162 L273.34223,162.613655 L274.511848,162.760639 L274.519796,162.918646 L273.492635,162.982339 C272.800525,163.934668 273.203441,167.208722 273.22056,168.466655 L300.560767,168.453181 L300.56199,172.963733 L300.413418,174.000578 C302.288598,174.267598 304.339863,174.058759 306.235219,174.015276 L307.046554,174.232689 C307.22325,175.463062 306.835619,178.056093 307.395666,179.027408 C309.11188,179.784373 311.471905,178.896961 313.28411,179.354446 L318.893141,179.544912 L318.657139,185.027391 L318.675481,189.404433 L318.687709,190.278984 C319.648226,190.931835 322.903959,190.547841 324.15306,190.539267 L324.293683,190.773828 L324.234377,196.076864 L327.252885,195.987449 L329.381186,196.0934 C330.038447,197.168216 329.623914,200.673769 329.624525,202.071335 L329.840963,202.209745 L329.869699,208.201766 L330.208417,208.277095 C331.625655,208.564325 333.533239,208.289343 335,208.243411 L334.941917,214.425286 L334.921129,218.948698 C333.678142,218.965846 331.38415,218.711688 330.312968,219.21878 L330.308076,224.185592 L324.311414,224.170894 L318.364275,224.110876 C316.757503,224.11945 314.639595,223.862841 313.097631,224.192942 L312.986967,224.478334 C312.584662,225.614393 312.890365,227.798321 312.913598,229.050129 L307.333914,229.08075 L306.94506,228.754325 L306.942003,223.930821 L307.757618,223.598884 L306.851515,223.634405 C306.582497,221.963694 306.7274,220.073121 306.707835,218.373626 L293.691629,218.285436 L287.350746,218.207657 L287.248641,202.142377 L287.226019,196.011947 L281.219574,196.013172 L280.89125,229.382679 L280.685206,298.463627 L269.697643,298.421982 L269.755727,304 L192.354883,303.963867 L192.349381,299.611935 L182.847532,299.619284 L182.812682,294.591841 L178.510224,294.602252 L178.73033,259.244183 L178.700982,208.242186 C178.700982,207.333952 178.957161,198.527812 178.815315,198.208735 C178.752952,198.067264 178.629448,197.961313 178.536514,197.837602 L176.813574,197.65816 L173.074831,197.716341 L173.096842,217.47274 L168.012396,217.425583 L168.006894,223.636855 L162.602683,223.641754 C162.630807,225.61623 162.873535,227.856501 162.498744,229.790557 C161.153652,229.557834 159.501024,229.753812 158.121694,229.771572 L157.456485,230.491178 L157.199084,235.522908 L147.351791,235.746445 L142.757081,235.807076 L142.63908,230.621626 C141.434,230.323984 137.747227,230.172102 136.671765,230.705529 L136.410083,217.16285 L136.287191,216.728025 L136.301253,211.194102 L131.156278,211.18369 C130.901934,210.690684 131.033386,209.890849 131.038277,209.3366 L131.078019,205.373561 L131.168506,205.217391 L137.116868,205.212492 L137.080795,199.826165 L143.213189,200.011731 L143.232754,193.760039 L149.221468,193.780862 C149.476424,193.202115 149.349863,192.398606 149.344972,191.768415 L149.308288,187.529783 L155.603927,187.578777 L155.592311,181.3081 L162.013288,181.328923 L161.891007,175.99159 C162.030408,175.548803 161.917909,175.762541 162.25785,175.366298 L187.959491,175.381609 L192.702162,175.322203 C192.63185,176.708134 192.406241,178.413141 192.690545,179.770899 L197.762763,179.670461 L198.276343,175.163584 L203.298425,175.13235 L213.343202,175.114589 L213.375606,179.924007 L243.136366,179.91727 C244.000282,179.766612 244.913721,179.784985 245.790476,179.748239 L245.763575,174.459288 L260.883626,174.471537 C261.41616,172.988843 261.045648,170.302109 261.04198,168.669369 L267.689177,168.658346 L267.669612,162.782686 L272.874505,162.729405 L273.079937,162 Z" id="Path" fill="#F30302"></path>
                            <path d="M189,177.048361 L193,177 C192.940699,178.128256 192.750419,179.516266 192.990202,180.621588 L192.945855,180.731273 C191.729921,180.945158 190.480469,180.949645 189.248034,181 C189.259379,179.93905 189.386747,178.319207 189.087663,177.319083 L189,177.048361 Z" id="Path" fill="#8F0703"></path>
                            <polygon id="Path" fill="#8F0703" points="194.010555 208.012379 198 208 197.945639 211.986135 194 212"></polygon>
                            <polygon id="Path" fill="#8F0703" points="288 203 288.156929 213.626807 294 213.641375 293.948631 219 288.09427 218.922911"></polygon>
                            <path d="M324.224853,202.048884 C326.028053,202.052543 327.969867,201.905569 329.754053,202.104381 L329.971173,202.242207 L330,208.208982 L329.652853,208.295581 C328.243413,208.619412 326.3108,208.38218 324.84248,208.366324 L324.878667,214.571551 L320.254133,214.528861 L320.286027,218.931371 L318.719573,218.987477 C318.160213,219.687585 318.46136,222.991755 318.458293,224.051065 C316.846453,224.059602 314.721867,223.804075 313.17504,224.132784 L313.064027,224.416975 C312.660453,225.548247 312.96712,227.722973 312.990427,228.969507 L307.393147,229 L307.003067,228.67495 L307,223.871769 L307.818187,223.54123 C308.77192,223.543669 310.140267,223.735162 310.943733,223.186297 C311.82264,221.66716 311.69752,220.227913 311.712853,218.525211 L314.439733,218.466665 L314.51272,213.460404 L319.155653,213.484798 L319.14032,207.97358 L324.424187,207.992486 L324.224853,202.048884 Z" id="Path" fill="#FEFEFE"></path>
                            <path d="M329.781822,208 L330.126342,208.075405 C331.567855,208.362926 333.508115,208.087666 335,208.041687 L334.940922,214.229817 L334.919778,218.757807 C333.6555,218.774972 331.322213,218.520556 330.232683,219.028162 L330.227708,224 L324.128329,223.985287 L318.079321,223.925208 C318.082431,222.860339 317.777089,219.538833 318.344241,218.835051 L319.932518,218.778651 L319.90018,214.35304 L324.58914,214.395954 L324.55245,208.158167 C326.041225,208.174106 328.000763,208.412583 329.429839,208.087053 L329.781822,208 Z" id="Path" fill="#F30302"></path>
                            <path d="M320.895759,220 L327.347637,220.046965 C328.449995,220.047552 329.726218,219.921334 330.807225,220.119173 L331,220.238934 L330.99512,225 L325.011759,224.985911 L319.077813,224.928379 C319.080863,223.908653 318.781329,220.727956 319.337693,220.05401 L320.895759,220 Z" id="Path" fill="#000000"></path>
                            <path d="M132.167735,205.005039 L138.088845,205 L138.18257,208.262283 C139.928655,208.261653 141.738036,208.167167 143.46282,208.467003 L143.49325,216.333899 L148.90861,216.32508 C148.934172,217.371984 148.804539,218.718093 149.307246,219.644055 C150.432555,220.14105 152.057529,220.125933 153.279606,220.288448 L154.305104,224.128355 C155.602648,224.154182 157.06695,224.025681 158.295722,224.489292 C159.03335,225.968311 159.005963,228.58557 158.997442,230.25986 L158.335281,231 L153.218745,230.980473 C153.020949,229.359095 153.130498,227.638192 153.139018,226.001696 C151.841474,226.161062 149.089366,226.569871 148.044392,225.90658 L147.984749,224.370869 C147.89285,224.226621 147.863637,224.003634 147.709052,223.938124 C147.527687,223.861275 146.751109,223.921746 146.511927,223.916077 C145.333061,223.888361 144.106723,223.980328 143.022799,223.443018 C142.358203,222.15297 142.7824,218.820768 142.793355,217.279388 L137.385298,217.291356 L137.262969,216.844122 L137.276967,211.152292 L132.155562,211.141583 C131.902383,210.634509 132.033233,209.811852 132.038102,209.241787 L132.077661,205.165665 L132.167735,205.005039 Z" id="Path" fill="#FEFEFE"></path>
                            <path d="M137,217.011851 L142.420969,217 C142.409988,218.526262 141.984778,221.825783 142.65096,223.103178 C143.737472,223.635218 144.966737,223.544153 146.148418,223.571597 C146.388171,223.577211 147.166604,223.517333 147.348401,223.593428 C147.503355,223.658296 147.532638,223.879095 147.624757,224.021929 L147.684542,225.542578 C148.732011,226.199363 151.490689,225.794564 152.791331,225.636761 C152.782791,227.257206 152.67298,228.96123 152.871249,230.566706 L158,230.586042 L157.743166,235.71059 L147.917584,235.938251 L143.333004,236 L143.215263,230.718896 C142.01284,230.415764 138.334195,230.261079 137.261104,230.804346 L137,217.011851 Z" id="Path" fill="#CF042A"></path>
                            <path d="M300.603406,174 C302.482233,174.266347 304.537487,174.058034 306.43653,174.014661 L307.249443,174.231526 C307.426483,175.458798 307.038098,178.045293 307.599235,179.014159 C309.318787,179.769216 311.683402,178.884041 313.499132,179.340373 L319.119074,179.530359 L318.882613,184.999018 L318.900991,189.365027 L318.913243,190.237373 C319.875628,190.888579 323.137694,190.505553 324.389225,190.497 L324.530121,190.73097 L324.4707,196.020639 L327.495079,195.93145 L329.62752,196.037133 C330.286059,197.10924 329.87072,200.605956 329.871333,202 C328.089296,201.800851 326.149821,201.948075 324.348794,201.944409 C323.818287,200.371986 324.154601,197.869183 324.177267,196.175805 L318.401726,196.203294 L318.611233,190.53121 L313.019471,190.507385 L313.110135,185.23421 L307.12815,185.231766 L307.159392,179.530359 C304.871964,179.857794 302.320508,179.667198 300,179.692855 L300.396349,174.642042 L300.603406,174 Z" id="Path" fill="#000000"></path>
                            <path d="M193.131616,180.100875 L198.210155,180 C198.483182,180.10518 198.822323,180.195599 199.064741,180.357367 L198.97965,186.869943 L204.656276,186.911769 C204.656276,188.608188 204.907877,190.765309 204.505683,192.397758 L209.485052,192.277816 L209.79542,196.347253 L214.943747,196.406301 L214.925994,201.044081 L246.278751,201.040391 L246.298953,195.928991 L252.175758,195.91792 L252.267583,191.452365 L257.02902,191.388395 L257.022286,185.850123 L261.588442,185.834746 L261.584156,180.290323 C263.28843,180.300164 265.341639,180.079962 267,180.37828 L266.947354,190.66751 L262.276518,190.66997 L262.267335,195.945599 L257.16186,195.966512 L257.101868,201.367004 L246.474645,201.328868 L246.504029,206.822239 L214.772952,207 L214.782135,201.282121 L203.927797,201.44635 L203.888006,193.685142 L198.245661,193.722663 L198.252395,187.184254 L193,187.221159 L193.07897,180.236195 L193.131616,180.100875 Z" id="Path" fill="#FEFEFE"></path>
                            <path d="M273.73161,162 L273.991864,162.619637 L275.152389,162.768053 L275.160275,162.9276 L274.1411,162.991913 C273.45437,163.953525 273.854154,167.25949 273.87114,168.529683 L300.998787,168.516078 L301,173.070593 L300.852584,174.117544 L300.647535,174.767482 C299.617441,174.461992 298.478755,174.576396 297.411655,174.575778 L291.979088,174.573304 L272.712435,174.610408 L272.736701,180.286081 L267.170065,180.223004 C265.526645,179.923081 263.491935,180.144468 261.803017,180.134573 L261.807263,185.708829 L257.282248,185.724289 L257.288921,191.29236 L252.570383,191.356674 L252.479386,195.846256 L246.655529,195.857387 L246.635509,200.99629 L215.565233,201 L215.582826,196.337266 L210.480885,196.277899 L210.173312,192.186566 L205.238807,192.307154 C205.637377,190.665921 205.388043,188.497193 205.388043,186.791647 L199.762561,186.749596 L199.846886,180.201979 C199.606652,180.03934 199.270567,179.948435 199,179.842689 L199.509587,175.291885 L204.492625,175.260346 L214.459307,175.242413 L214.491459,180.098706 L244.02084,180.091904 C244.878039,179.939777 245.784377,179.958329 246.654316,179.921225 L246.627623,174.580725 L261.630121,174.593093 C262.158515,173.095947 261.790884,170.383027 261.787244,168.734374 L268.382762,168.723242 L268.363349,162.790315 L273.527775,162.736514 L273.73161,162 Z" id="Path" fill="url(#linearGradient-2)"></path>
                            <path d="M238,189.912468 L238.020693,189.721278 L238.121282,186 L241.987929,186.014973 L242,189.926864 C240.769363,189.930895 239.357092,189.799597 238.152321,190 L238,189.912468 Z" id="Path" fill="#F6753A"></path>
                            <path d="M199,180.417164 L199.462861,176.030402 L203.98898,176 L204,180.981083 C202.689663,180.957835 201.020057,181.125341 199.769231,180.763503 C199.551025,180.606727 199.245757,180.519099 199,180.417164 Z" id="Path" fill="#F30302"></path>
                            <path d="M244,179.960481 C244.876219,179.823556 245.802666,179.840254 246.691908,179.806857 L246.664623,175 L262,175.011132 L261.682502,175.081821 C260.710166,175.28053 259.46064,175.164199 258.456058,175.166425 L251.960382,175.166982 L251.998829,180 L244,179.960481 Z" id="Path" fill="#8F0703"></path>
                            <polygon id="Path" fill="#FC9144" points="238 191.131326 237.955089 195.951885 219 196 219.077971 191 237.834701 191.045285"></polygon>
                            <path d="M177,197.639695 L179.361318,197.501874 C179.748048,196.436059 179.666792,195.198735 179.701005,194.073504 L186.054263,194 L186.013329,289.523301 L198.535338,289.50615 L198.476687,294.854823 L261.473462,294.805208 L261.416033,289.260523 L272.873158,289.256235 L272.812674,278.201781 L279.074289,278.207294 L279.013194,271.674587 C277.796184,271.631097 276.565733,271.563718 275.348723,271.608433 C274.639411,271.634772 273.600798,271.853448 272.941584,271.653148 L272.896374,252.05074 L272.881711,247.19026 C272.878656,246.468078 272.978852,245.473318 272.782737,244.789115 C272.558519,243.123627 272.70698,241.298267 272.703314,239.606439 L272.685596,229.339707 L281,229.369722 L280.79411,298.462666 L269.814747,298.421013 L269.872788,304 L192.52971,303.96386 L192.524212,299.611173 L183.029455,299.618523 L182.994631,294.590207 L178.695383,294.60062 L178.915325,259.236411 L178.885999,208.225558 C178.885999,207.317166 179.141987,198.509497 179.000247,198.190365 C178.93793,198.048869 178.814518,197.9429 178.721654,197.819168 L177,197.639695 Z" id="Path" fill="#CF042A"></path>
                            <path d="M282.398804,230.327064 L282.728179,197 L288.753847,197 L288.776541,203.122408 L288.878972,219.166666 L295.240149,219.244342 L308.298011,219.332417 C308.317638,221.029688 308.172271,222.917787 308.442151,224.586312 L309.351153,224.550837 L308.532928,224.88234 L308.535995,229.699532 L308.926093,230.02553 C309.260375,231.116065 309.332139,233.072055 308.965348,234.148523 L304.890785,234.402349 L303.433437,234.317944 L303.061127,234.393174 C301.836856,234.389505 300.613199,234.420698 299.398129,234.251888 L299.368688,229.780267 L296.672962,229.823081 L293.6129,229.796169 C291.878926,230.43471 290.433231,230.557648 288.611547,230.612083 L288.199367,230.330733 L287.974264,305.425955 L287.885326,309.765464 C286.381976,309.772804 283.566645,309.413777 282.263864,310.011339 L287.82951,309.997272 L287.828897,321.787648 L293.440545,321.714864 L293.365101,326.874568 L298.874318,326.83787 L298.858984,332.578622 L304.267609,332.501557 L304.208727,338.260045 L309.865764,338.218455 L309.880484,343.816085 L315.796973,343.841162 L315.770599,349.821061 L321.52148,349.792314 L321.482225,368.072076 L326.738123,368.083697 L326.849142,428.032533 L337.795812,428.099812 L337.82464,433.292544 C339.624857,433.298661 341.721941,433.086425 343.481063,433.385512 L348.505724,433.522517 C348.62349,435.035688 348.502044,437.165992 348.905636,438.600263 C349.133193,440.346464 348.704453,442.660869 349.20557,444.282909 L354.973012,444.258444 L355,463.988379 L292.419297,463.981651 L292.434018,457.305718 L286.805196,457.521012 C286.455579,456.843327 286.891066,407.854274 286.90088,402.993657 L282.560118,402.99855 L282.558891,390.672387 L277.544044,390.785538 L277.636662,385.494945 L272.08819,385.517576 L272.129899,380.507721 L267.123639,380.49977 L267.145106,375.228749 L262.49153,375.270952 L262.505637,370.380976 L257.20619,370.410946 L257.21723,365.544213 L251.907356,365.568066 L251.92453,360.49399 L246.473583,360.488486 L246.520812,355.383217 L240.961913,355.468233 L240.914071,350.229629 L220.002723,350.225959 L219.995976,355.692089 L214.29539,355.718389 L214.356113,362.174136 L201.290891,362.177194 L201.295798,384.254561 L208.045233,384.178108 L207.99555,389.898676 L214.024285,389.756166 L213.970922,395.318934 L213.9378,395.605788 L214.317472,395.597225 C214.269016,398.770969 214.040232,402.163676 214.369607,405.310508 L214.399662,410.344828 C212.730704,410.34911 209.746699,409.960114 208.254389,410.556452 C207.637347,411.798059 207.868584,414.385251 207.834236,415.813405 L208.467839,416.555923 L208.508321,422.417165 L205.144644,422.479552 L205.425564,422.517473 C206.536976,422.659371 207.57049,422.644692 208.685582,422.590868 L208.656754,422.837355 L208.533469,427.178699 C208.018245,427.595218 207.363174,427.451485 206.722211,427.560967 C207.345387,427.621518 207.953842,427.5206 208.395462,427.981768 L208.499734,432.920062 C209.985296,433.443617 212.804921,433.061348 214.449344,433.062572 L214.477559,442.571571 L214.402115,445.385065 L214.167198,445.638891 C214.42665,447.550844 214.232828,449.714177 214.238348,451.655488 L208.094915,451.621848 L208.223721,457.304495 L199.004278,457.139355 L199.047213,464 L161.099738,463.986544 L161.135927,457.03232 L153.428421,457.078804 L153.448049,450.992482 L146.194431,451.133156 L146.099973,445.520235 L139.3763,445.639503 L139.295336,429.538364 L131.430809,429.550597 L131.385421,422.998825 L127.898458,423.036134 C127.518787,423.039804 126.755765,423.133995 126.423936,423.025737 L120.130843,422.943778 C119.862804,421.84835 120.087907,420.251998 120.098335,419.101524 L120.073187,411.189488 L138.695468,410.996213 C138.9494,410.250026 138.819367,409.211479 138.815687,408.41575 L138.80526,402.725763 C138.804033,401.919024 138.669707,400.807083 138.926092,400.051109 L139.03527,399.813185 C139.983528,399.430305 141.930339,399.663948 143.003722,399.668841 L142.934412,394.670607 L147.760344,394.726265 L147.732742,384.855793 L152.137294,384.688207 L152.113986,332.156598 L158.591702,332.138249 L158.591088,323.16626 L166.091891,323.16259 L166.065517,317.651811 C167.941177,317.656704 170.913529,318.068942 172.64505,317.534378 L172.563473,305.788651 L178.392864,305.768467 C178.485482,304.880993 178.801977,301.723764 178.424146,301.059534 L173.231424,301.100513 L173.447327,230.733185 L163.627403,230.734409 C164.003394,228.802884 163.759889,226.565544 163.731674,224.593651 L169.15318,224.588758 L169.158701,218.385615 L174.259418,218.43271 L174.237337,198.702164 L177.988045,198.644059 L179.716499,198.823267 C179.80973,198.946816 179.933629,199.052628 179.996192,199.193914 C180.138492,199.512573 179.881494,208.307189 179.881494,209.214235 L179.910935,260.149492 L179.690125,295.461292 L184.006352,295.450894 L184.041314,300.471759 L193.573572,300.464419 L193.579092,304.810656 L271.227643,304.846742 L271.169374,299.276023 L282.192101,299.317614 L282.398804,230.327064 Z" id="Path" fill="#000000"></path>
                            <path d="M302,228.997991 L298.015966,229 L298,225.048205 L301.98035,225 C301.908505,226.293999 301.778938,227.715541 302,228.997991 Z" id="Path" fill="#F30302"></path>
                            <path d="M292.001167,433.524195 L292.488915,433 L293.753209,433.104953 C294.429405,433.162251 295.031505,433.130482 295.703617,433.040846 C295.728121,434.263969 295.593932,435.834852 295.937573,436.993869 L296,437.619045 C295.375729,438.21302 292.965578,437.935605 292,437.933335 L292.001167,433.524195 Z" id="Path" fill="#CF042A"></path>
                            <path d="M307.980112,224.025206 L309,224 L308.081964,224.23555 L308.085404,227.658409 L308.523089,227.890048 C308.898149,228.664928 308.978666,230.054759 308.567133,230.819644 L303.995531,231 L302.360408,230.940026 C301.895196,230.12864 302.160147,228.57236 302.138125,227.680139 C301.890379,226.570187 302.035585,225.339852 302.116103,224.219904 C304.05678,224.071273 306.051135,224.296393 307.980112,224.025206 Z" id="Path" fill="#FEFEFE"></path>
                            <path d="M161.087236,336.946384 L161,332 L171.92351,332.005704 L172,337 C170.721798,336.800935 169.271651,336.890486 167.971956,336.89676 L161.087236,336.946384 Z" id="Path" fill="#F30302"></path>
                            <path d="M303,369.999356 L303.091659,365.626198 L309.008195,365.456217 L309.085285,361 L313.50736,361.01996 C313.98872,361.021892 314.567201,360.92338 314.995144,361.168694 L315,370 L303,369.999356 Z" id="Path" fill="#F30302"></path>
                            <path d="M167.186392,457.258888 C169.56571,457.063177 182.131843,456.723123 183.771586,457.410937 L183.848864,457.605107 C184.071643,458.377164 184.081906,460.289071 183.648425,460.969179 L182.865984,461 L166.323051,460.801207 C166.129252,459.829843 165.989186,458.923716 166.000657,457.932833 C166.408178,457.420183 166.481833,457.447921 167.186392,457.258888 Z" id="Path" fill="#071415"></path>
                            <path d="M161.775358,337.075104 L168.690987,337.025473 C169.996518,337.019198 171.453175,336.929634 172.737116,337.128728 L172.952376,337.27648 L173,342.970906 L157.167902,343 C156.84787,341.162518 157.085354,338.997586 157.076464,337.121312 L161.775358,337.075104 Z" id="Path" fill="#FEFEFE"></path>
                            <path d="M166,383.563783 C167.707752,382.723074 170.668019,383.074362 172.58209,383.064835 L184.56557,383.081507 C184.938647,383.310737 185.059151,383.454229 185.249645,383.842431 L187,383.964489 L185.249645,384.194909 C184.987335,384.995131 185.087755,385.925745 185.09019,386.762881 L185.09871,391.610054 C185.100536,392.334659 185.239299,393.345057 184.924649,394 C184.66599,392.294171 184.841878,390.343632 184.830923,388.607438 L171.981394,388.446084 C170.236516,388.441916 168.213505,388.650307 166.506361,388.359751 L166.149109,388.294257 C166.165541,386.773598 166.343863,385.042167 166,383.563783 Z" id="Path" fill="#081F20"></path>
                            <path d="M314.96892,369.000619 L319.91873,369.023539 C319.905006,370.93142 320.174724,373.368304 319.800579,375.20495 L302.358989,375.28238 L298.516696,375.302202 L298.496407,380.87594 C297.099481,380.879657 294.157044,381.2761 293,380.63188 L293.000597,374.259062 L297.685462,374.21632 C298.013659,372.590285 297.975469,370.889917 298.010675,369.23353 L303.172321,369 L314.96892,369.000619 Z" id="Path" fill="#FEFEFE"></path>
                            <path d="M172.263955,410.079544 L177.775139,410 L177.66858,415.945257 L185,415.905486 L184.991276,421.807864 L177.828731,421.797921 L177.900394,431.441952 C177.760807,431.825377 177.864874,431.632733 177.553919,432 L172.263332,431.902435 L172.382978,426.505282 L166,426.625219 L166.107806,415.771877 L172.330633,415.782442 L172.263955,410.079544 Z" id="Path" fill="#1A9C35"></path>
                            <path d="M119.073051,409.735997 L137.660827,409.536612 C137.914288,408.766831 137.784497,407.695448 137.780823,406.874559 L137.770415,401.004668 C137.769191,400.172421 137.635114,399.025322 137.891024,398.245446 L138,398 L137.979797,421.684631 L130.364325,421.91872 L126.883823,421.957209 C126.504856,421.960995 125.743247,422.058164 125.412033,421.946482 L119.1306,421.861933 C118.863058,420.73187 119.087745,419.085044 119.098152,417.898194 L119.073051,409.735997 Z" id="Path" fill="#8F0703"></path>
                            <path d="M291.886786,380.271926 C293.07553,380.906803 296.098582,380.516109 297.53378,380.512447 L297.554625,375.019535 L301.502187,375 C302.082151,376.432748 301.885969,378.394153 301.923979,379.936784 L302,390.75351 C301.995709,392.467069 301.863285,394.258767 301.977316,395.960727 L291.440471,396.315404 L291.477868,402 C290.035926,401.719189 288.46953,401.806484 287,401.795496 L287.000613,379.99844 C288.596436,379.980126 290.351657,379.818354 291.886786,380.271926 Z" id="Path" fill="#8F0703"></path>
                            <path d="M293.049034,403 L303.382854,403.031531 L303.508233,426.465651 L309.902552,426.562063 L310,432.97678 C308.762971,433.001641 307.568768,433.028927 306.339187,432.851869 C303.558509,432.266122 300.096316,432.640248 297.223776,432.668141 L297.187776,437 C296.822191,435.7612 296.964949,434.08218 296.938881,432.774861 C296.223849,432.870666 295.5833,432.904623 294.863923,432.84338 L293.518894,432.731203 L293,433.291482 L293.049034,403 Z" id="Path" fill="#8F0703"></path>
                            <path d="M302,375.075664 L320,375 L319.862671,396 C314.198296,395.387427 308.176742,395.80388 302.477266,395.859568 C302.362722,394.171966 302.495741,392.395382 302.500051,390.696279 L302.423689,379.970801 C302.385508,378.441184 302.582572,376.496325 302,375.075664 Z" id="Path" fill="#F30302"></path>
                            <path d="M349,450.11574 C348.540743,452.867022 348.842226,456.022779 348.858126,458.81654 L297.583397,459 L297.557101,455.216294 L293,455.261851 L293.02385,444.059101 L297.324721,444 L300.077817,444.100964 L300.090047,444.121281 L301.481884,444.262261 C302.141721,445.353786 301.730164,448.736097 301.730775,450.136671 C305.655557,449.881798 309.654334,450.0197 313.590124,450.01416 L333.246445,449.983993 L345.533863,450.012928 C346.539214,450.031397 348.046629,449.868869 349,450.11574 Z" id="Path" fill="#8F0703"></path>
                            <path d="M298.486305,444 L299.678641,444.139507 C300.243901,445.219616 299.891334,448.566555 299.891858,449.952482 L296,450 L296.088011,444.112093 C296.770618,444.130369 297.482039,444.188242 298.157312,444.065793 L298.486305,444 Z" id="Path" fill="#000000"></path>
                            <path d="M302.512749,396.190116 C308.173743,396.134361 314.154639,395.717414 319.780767,396.330714 C320.03094,398.285759 320.08966,400.511697 319.837652,402.470984 L319.56913,426 L308.874103,425.979395 L302.572693,425.883037 L302.449136,402.461894 L292.265464,402.43038 L292.037312,402.185545 L292,396.542218 L302.512749,396.190116 Z" id="Path" fill="#F30302"></path>
                            <path d="M302.512749,397.176278 C308.173743,397.124582 314.154639,396.737982 319.780767,397.306643 C320.03094,399.119392 320.08966,401.183318 319.837652,403 L302.449136,402.991571 L292.265464,402.962351 L292.037312,402.735336 L292,397.502753 L302.512749,397.176278 Z" id="Path" fill="#FEFEFE"></path>
                            <path d="M172.376402,337.092497 L177.50826,337 L177.376516,343.775897 L183.026694,343.73826 L182.909175,349.9024 L188.240816,349.95726 L188.245145,355.656362 C190.044419,356.195397 192.993522,355.771186 194.925778,355.764169 L195,362.998086 L157,363 C157.298745,360.576574 157.094015,357.868001 157.095252,355.423524 L157.001237,343.492664 L172.422791,343.460131 L172.376402,337.092497 Z" id="Path" fill="#F30302"></path>
                            <path d="M157.041314,363.00182 L194.924772,363 L195,369.273844 C194.645442,372.21486 194.850161,375.408188 194.821796,378.38135 L165.391004,378.372858 L165.371272,383 L157.120858,382.942987 L157,369.310235 L157.041314,363.00182 Z" id="Path" fill="#F30302"></path>
                            <polygon id="Path" fill="#FEFEFE" points="157.041314 363.00173 194.924772 363 195 368.965398 157 369"></polygon>
                            <path d="M308.434631,433.12729 L336.364376,433.177959 L336.295029,438.833709 L341.737251,438.750291 L341.665449,444.259596 L347.802985,444.296671 C348.005503,446.091088 348.095716,448.191371 347.858217,449.978991 C346.901471,449.731208 345.38872,449.894337 344.37981,449.8758 L332.048893,449.846758 L312.322985,449.877035 C308.373262,449.882597 304.360329,449.744184 300.421652,450 C300.421039,448.59425 300.834053,445.19944 300.171879,444.103882 L298.775116,443.96238 L298.762842,443.941989 L296,443.840651 L296.011046,438.586544 L304.777639,438.667491 L304.815075,433 C306.030799,433.18043 307.211543,433.152624 308.434631,433.12729 Z" id="Path" fill="#F30302"></path>
                            <polygon id="Path" fill="#2F0000" points="305 438.081376 309 438 308.972686 443 305.098331 443"></polygon>
                            <path d="M188.885784,347 L188.40158,346.66435 L188.397327,343.264446 L183.222965,343.309077 L183.312272,337.419618 L177.846902,337.479534 L177.944714,327.776263 L172.045565,327.728575 L172,317.923204 L177.690765,317.931152 L177.585055,310.582932 L182.930134,310.576207 L182.95079,306 L192.153706,306.126556 C192.331713,307.549858 192.26367,309.047136 192.271567,310.482665 L197.767922,310.491224 L197.730863,317.294702 L205.956865,317.28492 L206,333.063509 L197.94593,333.023769 L197.936209,346.871609 L192.745443,346.860605 C191.631227,346.82759 189.937424,346.640506 188.885784,347 Z" id="Path" fill="#F30302"></path>
                            <path d="M165.837329,384 C166.182996,385.510417 166.003739,387.279363 165.98722,388.83297 L165.982938,395.074162 L171.981646,394.92817 L172,409.933796 L166.045953,409.925888 L166.049624,415.646373 L160.092518,415.689563 L160.088235,426.807523 L165.826317,426.782582 L165.82081,431.158108 C165.820198,431.617377 165.715581,432.204998 165.947453,432.604045 L171.962068,432.592487 L171.917407,449.796523 L166.01781,449.781923 L165.99395,456 L161.228632,455.998175 L161.175406,450.114057 L153.111869,450.239976 L153.117375,444.635677 L145.403177,444.667917 L145.286935,421.833426 L153.453254,421.796928 L153.437347,415.725452 L145.160292,415.724236 L145,404.72307 C145.460686,404.376337 147.27957,404.539971 147.932362,404.52598 L147.762893,395.319917 L153.221993,395.328433 L153.215875,389.825113 L160.870729,389.755766 L160.911108,384.170325 L165.837329,384 Z" id="Path" fill="#FEFEFE"></path>
                            <path d="M186.142529,385 L195.151485,385.051227 L195.121734,390.482546 L206.591486,390.471569 L206.5502,395.901058 L212.465704,395.913255 L212.841533,395.904717 C212.793568,399.069226 212.567099,402.452061 212.893141,405.589736 L212.922891,410.609407 C211.270825,410.613676 208.317019,410.225811 206.839812,410.820415 C206.229015,412.058409 206.457912,414.638072 206.423912,416.06207 L207.051102,416.802427 L207.091174,422.646614 L203.76154,422.708819 L204.039617,422.74663 C205.13978,422.888115 206.162835,422.873478 207.266642,422.819812 L207.238106,423.065581 L207.116068,427.394292 C206.606058,427.8096 205.957617,427.666285 205.323141,427.775448 C205.94001,427.835823 206.542307,427.735198 206.979458,428.195024 L207.082674,433.118949 C208.553202,433.64098 211.34429,433.259824 212.972071,433.261044 L213,442.742373 L212.92532,445.54768 L212.69278,445.800767 L206.777883,445.794059 C206.257551,447.001561 206.589058,449.728198 206.5757,451.119874 L197.263775,451.067427 L197.277132,456.779277 C196.340293,457.236054 185.933061,456.843311 184.382389,456.836602 L184.44614,450.644191 L177.038251,450.615529 L177.044929,432.489584 L184.161992,432.357247 L184.11342,422.458781 L189.929351,422.436216 L189.94878,416.440177 L184.076383,416.38895 C183.834129,416.031578 183.94706,415.403433 183.948274,414.97166 L183.957381,410.599649 L177,410.608187 L177.010929,395.504046 L181.409155,395.508315 C182.143811,395.505266 183.066079,395.60894 183.770378,395.383296 L184.072133,395.279012 C184.386032,394.608178 184.247601,393.573263 184.245779,392.831076 L184.237279,387.866292 C184.234851,387.008844 184.13467,386.055649 184.396354,385.236012 L186.142529,385 Z" id="Path" fill="#FEFEFE"></path>
                            <path d="M205.178934,427.83226 C204.269824,428.102839 203.057486,427.962924 202.101157,427.970441 C202.096605,426.843607 201.768916,423.824456 202.31791,423 L203.71571,423.028908 L203.976268,423.064754 C205.007125,423.198887 205.96573,423.185011 207,423.134133 L206.973261,423.367132 L206.858911,427.47091 C206.381031,427.864637 205.77344,427.72877 205.178934,427.83226 Z" id="Path" fill="#000000"></path>
                            <polygon id="Path" fill="#000000" points="198.094733 416.01417 201.984988 416 202 422 198 421.98583"></polygon>
                            <path d="M279.581573,310 L280.160505,310.199868 L280.214742,321.629038 L286.196634,321.620481 L286.239292,326.961916 L291.614829,326.911185 L291.49112,332.636466 L297.125044,332.569843 L297.140888,338.004796 L302.391497,338.045747 L302.24646,343.989844 L308.117441,343.857821 L308.143035,349.57699 L314,349.586769 L313.963436,355.091401 L308.051016,355.082232 L308.055281,360.278198 L296.719182,360.141285 L296.730151,365.174056 L291.451509,365.102544 L291.452728,370.005736 L285.871822,369.925666 L285.852931,375 L280.236071,374.993888 C278.853337,374.742066 277.111056,374.903428 275.685665,374.872867 L275.839234,366.070713 L270.385084,366.103719 L270.446634,360.559359 L261.155688,360.562415 C260.844893,359.970144 261.027104,358.449433 261.027104,357.742865 L261.03137,350.118529 L255.819762,350.161926 L255.86303,337.668014 L251,337.663736 L251.035955,332.171329 L255.973941,332.090037 L256.026959,317.258216 L261.702931,317.233156 L261.771184,314.434388 C262.805949,314.228408 264.039379,314.365932 265.096082,314.370821 L271.770255,314.357375 C272.644748,314.349429 273.768485,314.469839 274.589959,314.191734 L274.588741,310.275659 C276.053743,310.250599 278.250638,310.548263 279.581573,310 Z" id="Path" fill="#F30302"></path>
                            <path d="M271.064847,308.824387 L271.020431,304.075039 C272.128381,304.087862 275.111088,303.800263 275.968578,304.272878 L275.951305,308.903156 L280.882796,308.889112 C279.535488,309.436831 277.311567,309.139463 275.828542,309.164498 L275.829776,313.076695 C274.998196,313.354524 273.860634,313.234233 272.975384,313.242171 L266.219105,313.255605 C265.149402,313.25072 263.900799,313.113332 262.853304,313.319109 L262.784211,316.115105 L257.038414,316.14014 L256.984743,330.957274 L251.98601,331.038486 L251.949613,336.525454 L256.872468,336.529728 L256.828668,349.011267 L262.104389,348.967914 L262.10007,356.5847 C262.10007,357.290568 261.915617,358.809773 262.230236,359.401457 L271.635479,359.398404 L271.573172,364.937274 L277.094419,364.904301 L276.93896,373.697738 C278.381887,373.728269 280.145601,373.567067 281.545345,373.81864 L282,383.926116 L277.34488,384 L277.354133,378.812232 C276.34612,378.315193 273.118504,378.744454 271.860647,378.764605 L271.941461,373.628739 L266.94026,373.680641 L266.972339,368.619881 L262.147572,368.775587 L262.222833,364.010974 L257.01929,364.015249 C256.572655,363.177488 256.976107,360.040769 256.998315,358.944719 L251.51655,358.98563 L251.514083,353.90533 L246.000239,353.95479 L246.036636,348.906242 L240.379055,348.911127 L240.353762,343.09687 L219.43965,343.214108 L219.405721,348.86472 L213.690768,348.889145 L213.707424,354.244831 L200.552669,354.31322 L200.563773,349.214601 L193.684731,349.164531 L193.745804,345.519782 L189,345.454447 C190.067852,345.095406 191.787767,345.282254 192.91916,345.315227 L198.189945,345.326218 L198.199816,331.495835 L206.378046,331.535525 L206.334247,315.776826 L197.981433,315.786595 L198.019064,308.991695 L271.064847,308.824387 Z" id="Path" fill="#CF042A"></path>
                        </g>
                    </g>
                </g>
            </g>
        </g>
    </g>
</svg>