<?xml version="1.0" encoding="UTF-8"?>
<svg width="52px" height="52px" viewBox="0 0 52 52" version="1.1" xmlns="http://www.w3.org/2000/svg" xmlns:xlink="http://www.w3.org/1999/xlink">
    <title>A</title>
    <g id="final" stroke="none" stroke-width="1" fill="none" fill-rule="evenodd">
        <g id="landing-1-copy-42" transform="translate(-198, -282)" fill="#E31329">
            <g id="hero-wrap" transform="translate(-3892.3558, -0.2373)">
                <g id="nav" transform="translate(4077.3558, 261.2373)" fill-rule="nonzero">
                    <g id="a-logo" transform="translate(0, 1)">
                        <g id="Group" transform="translate(12, 20)">
                            <g id="A" transform="translate(1.9762, 0)">
                                <path d="M31.4935714,50.6005666 L25.9050994,33.9573795 L25.4544029,34.6912181 L12.499858,34.6912181 L11.9925681,33.8195812 L4.94290438,50.6005666 L9.78032909,50.6005666 L11.3110714,52 L0,52 L0.740082763,50.6005666 L3.47464286,50.6005666 L22.3264286,0 L28.3885714,0 L47.0185714,50.6005666 L49.6326423,50.6005666 L50.4192857,52 L26.2446428,52 L27.596788,50.6005666 L31.4935714,50.6005666 Z M19.0735714,13.7733711 L12.1242857,33.0708215 L25.5053571,33.0708215 L19.0735714,13.7733711 Z" id="Shape"></path>
                            </g>
                        </g>
                    </g>
                </g>
            </g>
        </g>
    </g>
</svg>