<svg width="51" height="47" viewBox="0 0 51 47" fill="none" xmlns="http://www.w3.org/2000/svg">
<path d="M25.5625 29.9688H15.6875L15.25 31.3125C14.9167 32.2083 14.9375 32.9583 15.3125 33.5625C15.6875 34.1458 16.4792 34.4375 17.6875 34.4375H19.4688V46.0312H0V34.4375H1.28125C2.78125 34.4375 3.78125 34.1458 4.28125 33.5625C4.80208 32.9583 5.30208 32.0833 5.78125 30.9375L12.1875 15.125C12.6458 13.9167 12.7188 13.0312 12.4062 12.4688C12.1146 11.8854 11.2083 11.5938 9.6875 11.5938H9.03125V0H41.1562V11.5938H40.5312C38.9896 11.5938 38.0625 11.8958 37.75 12.5C37.4583 13.1042 37.5521 13.9792 38.0312 15.125L44.4375 30.9375C44.6875 31.5208 44.9062 32.0312 45.0938 32.4688C45.3021 32.8854 45.5521 33.25 45.8438 33.5625C46.1354 33.8542 46.5208 34.0729 47 34.2188C47.5 34.3646 48.1354 34.4375 48.9062 34.4375H50.1875V46.0312H21.7812V34.4375H23.5C24.6875 34.4375 25.4792 34.1458 25.875 33.5625C26.2917 32.9583 26.3333 32.2083 26 31.3125L25.5625 29.9688ZM17.2812 25.0938H23.9375L20.8125 15.5H20.5625L17.2812 25.0938Z" fill="#F5C58C"/>
</svg>
