<?xml version="1.0" encoding="UTF-8"?>
<svg width="207px" height="152px" viewBox="0 0 207 152" version="1.1" xmlns="http://www.w3.org/2000/svg" xmlns:xlink="http://www.w3.org/1999/xlink">
    <title>meet</title>
    <g id="home" stroke="none" stroke-width="1" fill="none" fill-rule="evenodd">
        <g id="landing-1-copy-32" transform="translate(-713, -447)" fill="#E31329">
            <g id="landing" transform="translate(-3889.3558, -0.2373)">
                <g id="hero" transform="translate(4473.3558, 218.2373)" fill-rule="nonzero">
                    <g id="meet" transform="translate(229.9175, 300.1662) rotate(-27) translate(-229.9175, -300.1662)translate(131.3038, 217.1662)">
                        <path d="M31.6416016,108.266602 C37.7060547,102.905273 42.9135742,98.236084 47.2641602,94.2590332 C51.6147461,90.2819824 55.0314941,87.1508789 57.5144043,84.8657227 C59.9973145,82.5805664 62.1835937,80.6469727 64.0732422,79.0649414 C65.9628906,77.4829102 67.1713867,76.6918945 67.6987305,76.6918945 C68.7094727,76.6479492 69.6762695,77.6916504 70.5991211,79.822998 C71.5219727,81.9543457 71.9833984,83.6572266 71.9833984,84.9316406 C71.9833984,85.7666016 70.5881348,87.7331543 67.7976074,90.8312988 C65.0070801,93.9294434 62.9196777,96.4013672 61.5354004,98.2470703 C60.151123,100.092773 59.4589844,102.026367 59.4589844,104.047852 C59.4589844,105.234375 59.8544922,106.190186 60.6455078,106.915283 C61.4365234,107.640381 62.3813477,108.00293 63.4799805,108.00293 C64.7543945,108.00293 66.2814941,107.34375 68.0612793,106.025391 C69.8410645,104.707031 72.6425781,102.355957 76.4658203,98.972168 L76.4658203,103.652344 C72.6425781,107.255859 69.1708984,110.36499 66.0507812,112.979736 C62.9306641,115.594482 60.217041,117.550049 57.9099121,118.846436 C55.6027832,120.142822 53.6801758,120.791016 52.1420898,120.791016 C50.7797852,120.791016 49.637207,120.274658 48.7143555,119.241943 C47.7915039,118.209229 47.3300781,116.923828 47.3300781,115.385742 C47.3300781,113.891602 47.59375,112.375488 48.1210938,110.837402 C48.6484375,109.299316 49.4614258,107.475586 50.5600586,105.366211 C51.6586914,103.256836 53.1088867,100.718994 54.9106445,97.7526855 C56.7124023,94.786377 58.3603516,92.0727539 59.8544922,89.6118164 C55.3720703,93.2592773 51.3950195,96.7749023 47.9233398,100.158691 C44.4516602,103.54248 41.6171875,106.497803 39.4199219,109.024658 C37.2226562,111.551514 35.4868164,113.540039 34.2124023,114.990234 C31.7514648,117.714844 29.4663086,119.077148 27.3569336,119.077148 C25.0717773,119.077148 23.9291992,117.451172 23.9291992,114.199219 C23.9291992,112.880859 24.7861328,110.518799 26.5,107.113037 C28.2138672,103.707275 30.652832,99.3676758 33.8168945,94.0942383 C34.0805664,93.7426758 34.2124023,93.1933594 34.2124023,92.4462891 C34.2124023,91.5673828 33.7729492,91.1279297 32.894043,91.1279297 C31.9272461,91.1279297 30.5319824,92.0397949 28.708252,93.8635254 C26.8845215,95.6872559 23.3579102,99.4995117 18.128418,105.300293 C16.6782227,106.92627 15.0412598,109.046631 13.2175293,111.661377 C11.3937988,114.276123 10.0864258,116.022949 9.29541016,116.901855 C8.50439453,117.780762 7.71337891,118.220215 6.92236328,118.220215 C5.34033203,118.220215 3.86816406,116.813965 2.50585938,114.001465 C1.14355469,111.188965 0.462402344,107.915039 0.462402344,104.179687 C0.462402344,101.455078 0.912841797,99.1040039 1.8137207,97.1264648 C2.71459961,95.1489258 4.10986328,92.6879883 5.99951172,89.7436523 C8.94384766,85.480957 11.3498535,82.4377441 13.2175293,80.6140137 C15.0852051,78.7902832 17.0517578,77.878418 19.1171875,77.878418 C20.3916016,77.878418 21.4682617,78.1311035 22.347168,78.6364746 C23.2260742,79.1418457 23.6655273,79.8339844 23.6655273,80.7128906 C23.6655273,81.6357422 22.8635254,83.1518555 21.2595215,85.2612305 C19.6555176,87.3706055 17.6230469,89.5458984 15.1621094,91.7871094 C13.84375,93.0615234 12.5913086,94.6325684 11.4047852,96.5002441 C10.2182617,98.3679199 9.625,99.7192383 9.625,100.554199 C9.625,101.740723 10.0864258,102.333984 11.0092773,102.333984 C11.7563477,102.333984 13.6459961,100.795898 16.6782227,97.7197266 C19.7104492,94.6435547 23.0393066,91.2927246 26.6647949,87.6672363 C30.2902832,84.041748 33.6520996,81.0314941 36.7502441,78.6364746 C39.8483887,76.2414551 42.4741211,75.0439453 44.6274414,75.0439453 C45.9458008,75.0439453 47.0334473,75.5383301 47.8903809,76.5270996 C48.7473145,77.5158691 49.1757813,78.7353516 49.1757813,80.1855469 C49.1757813,81.1523438 48.5166016,82.8991699 47.1982422,85.4260254 C45.8798828,87.9528809 43.9572754,91.072998 41.4304199,94.786377 C38.9035645,98.4997559 35.640625,102.993164 31.6416016,108.266602 Z" id="Path"></path>
                        <path d="M86.5512695,101.608887 L86.5512695,103.256836 C86.5512695,105.849609 87.1884766,107.871094 88.4628906,109.321289 C89.7373047,110.771484 91.4072266,111.496582 93.4726563,111.496582 C95.6259766,111.496582 97.8562012,110.991211 100.16333,109.980469 C102.470459,108.969727 104.766602,107.629395 107.051758,105.959473 C109.336914,104.289551 112.127441,102.04834 115.42334,99.2358398 L115.42334,103.256836 C110.45752,109.233398 105.799316,113.814697 101.44873,117.000732 C97.0981445,120.186768 92.6816406,121.779785 88.1992188,121.779785 C84.2880859,121.779785 81.1899414,120.263672 78.9047852,117.231445 C76.6196289,114.199219 75.4770508,110.046387 75.4770508,104.772949 C75.4770508,100.158691 76.5537109,95.9729004 78.7070312,92.2155762 C80.8603516,88.458252 84.3759766,84.4921875 89.2539062,80.3173828 C92.59375,77.4609375 95.9116211,75.3076172 99.2075195,73.8574219 C102.503418,72.4072266 105.447754,71.6821289 108.040527,71.6821289 C110.105957,71.6821289 111.74292,72.154541 112.951416,73.0993652 C114.159912,74.0441895 114.76416,75.4614258 114.76416,77.3510742 C114.76416,80.1196289 113.731445,82.8771973 111.666016,85.6237793 C109.600586,88.3703613 106.44751,91.0949707 102.206787,93.7976074 C97.9660645,96.5002441 92.7475586,99.1040039 86.5512695,101.608887 Z M87.2104492,97.3242188 C91.1655273,95.7861328 94.5493164,93.8745117 97.3618164,91.5893555 C100.174316,89.3041992 102.250732,87.1179199 103.591064,85.0305176 C104.931396,82.9431152 105.601562,81.4160156 105.601562,80.4492188 C105.601562,79.4384766 105.140137,78.9331055 104.217285,78.9331055 C103.42627,78.9331055 102.140869,79.4384766 100.361084,80.4492188 C98.5812988,81.4599609 96.779541,82.7783203 94.9558105,84.4042969 C93.1320801,86.0302734 91.4951172,87.9418945 90.0449219,90.1391602 C88.5947266,92.3364258 87.6499023,94.7314453 87.2104492,97.3242188 Z" id="Shape"></path>
                        <path d="M125.970215,101.608887 L125.970215,103.256836 C125.970215,105.849609 126.607422,107.871094 127.881836,109.321289 C129.15625,110.771484 130.826172,111.496582 132.891602,111.496582 C135.044922,111.496582 137.275146,110.991211 139.582275,109.980469 C141.889404,108.969727 144.185547,107.629395 146.470703,105.959473 C148.755859,104.289551 151.546387,102.04834 154.842285,99.2358398 L154.842285,103.256836 C149.876465,109.233398 145.218262,113.814697 140.867676,117.000732 C136.51709,120.186768 132.100586,121.779785 127.618164,121.779785 C123.707031,121.779785 120.608887,120.263672 118.32373,117.231445 C116.038574,114.199219 114.895996,110.046387 114.895996,104.772949 C114.895996,100.158691 115.972656,95.9729004 118.125977,92.2155762 C120.279297,88.458252 123.794922,84.4921875 128.672852,80.3173828 C132.012695,77.4609375 135.330566,75.3076172 138.626465,73.8574219 C141.922363,72.4072266 144.866699,71.6821289 147.459473,71.6821289 C149.524902,71.6821289 151.161865,72.154541 152.370361,73.0993652 C153.578857,74.0441895 154.183105,75.4614258 154.183105,77.3510742 C154.183105,80.1196289 153.150391,82.8771973 151.084961,85.6237793 C149.019531,88.3703613 145.866455,91.0949707 141.625732,93.7976074 C137.38501,96.5002441 132.166504,99.1040039 125.970215,101.608887 Z M126.629395,97.3242188 C130.584473,95.7861328 133.968262,93.8745117 136.780762,91.5893555 C139.593262,89.3041992 141.669678,87.1179199 143.01001,85.0305176 C144.350342,82.9431152 145.020508,81.4160156 145.020508,80.4492188 C145.020508,79.4384766 144.559082,78.9331055 143.63623,78.9331055 C142.845215,78.9331055 141.559814,79.4384766 139.780029,80.4492188 C138.000244,81.4599609 136.198486,82.7783203 134.374756,84.4042969 C132.551025,86.0302734 130.914062,87.9418945 129.463867,90.1391602 C128.013672,92.3364258 127.068848,94.7314453 126.629395,97.3242188 Z" id="Shape"></path>
                        <path d="M177.979492,65.0244141 L180.813965,65.0244141 C183.143066,60.8496094 185.252441,57.8942871 187.14209,56.1584473 C189.031738,54.4226074 191.185059,53.5546875 193.602051,53.5546875 C196.019043,53.5546875 197.227539,54.1040039 197.227539,55.2026367 C197.227539,55.7299805 196.282715,57.1582031 194.393066,59.4873047 C192.503418,61.8164062 191.075195,63.7719727 190.108398,65.3540039 C191.602539,65.5297852 192.931885,65.6835938 194.096436,65.8154297 C195.260986,65.9472656 196.172852,66.0571289 196.832031,66.1450195 C194.327148,70.8032227 191.185059,75.5712891 187.405762,80.4492188 C186.175293,80.3613281 185.142578,80.2844238 184.307617,80.2185059 C183.472656,80.1525879 182.626709,80.0866699 181.769775,80.020752 C180.912842,79.954834 179.869141,79.8779297 178.638672,79.7900391 C176.265625,83.6132812 174.2771,87.0300293 172.673096,90.0402832 C171.069092,93.0505371 169.838623,95.8081055 168.981689,98.3129883 C168.124756,100.817871 167.696289,103.190918 167.696289,105.432129 C167.696289,108.464355 168.904785,109.980469 171.321777,109.980469 C172.991699,109.980469 175.177979,109.090576 177.880615,107.310791 C180.583252,105.531006 184.197754,102.79541 188.724121,99.1040039 L188.724121,103.520508 C176.858887,116.396484 168.091797,122.834473 162.422852,122.834473 C160.445312,122.834473 158.852295,122.06543 157.643799,120.527344 C156.435303,118.989258 155.831055,117.011719 155.831055,114.594727 C155.831055,112.96875 156.171631,111.035156 156.852783,108.793945 C157.533936,106.552734 158.753418,103.168945 160.51123,98.6425781 C159.895996,99.1699219 159.313721,99.6862793 158.764404,100.19165 C158.215088,100.697021 157.709717,101.158447 157.248291,101.575928 C156.786865,101.993408 156.29248,102.432861 155.765137,102.894287 C155.237793,103.355713 154.710449,103.828125 154.183105,104.311523 L154.183105,99.7631836 C158.797363,95.8959961 164.378418,89.1064453 170.92627,79.3945312 C170.26709,79.3505859 169.651855,79.317627 169.080566,79.2956543 C168.509277,79.2736816 167.828125,79.2626953 167.037109,79.2626953 C164.444336,79.2626953 162.510742,79.4384766 161.236328,79.7900391 C160.708984,79.921875 160.2146,80.0646973 159.753174,80.2185059 C159.291748,80.3723145 158.973145,80.4492188 158.797363,80.4492188 C158.621582,80.4492188 158.533691,80.3173828 158.533691,80.0537109 C158.533691,78.6035156 159.43457,76.4282227 161.236328,73.527832 C162.686523,71.0668945 164.059814,69.2431641 165.356201,68.0566406 C166.652588,66.8701172 168.234619,66.0681152 170.102295,65.6506348 C171.969971,65.2331543 174.595703,65.0244141 177.979492,65.0244141 Z" id="Path"></path>
                    </g>
                </g>
            </g>
        </g>
    </g>
</svg>