<?xml version="1.0" encoding="utf-8" ?><svg xmlns="http://www.w3.org/2000/svg" xmlns:xlink="http://www.w3.org/1999/xlink" width="1024" height="1024" viewBox="0 0 1024 1024"><path fill="#181516" d="M101.365 520.428C101.624 520.889 101.784 521.448 101.487 521.961C98.1827 527.657 95.8114 533.347 93.9341 539.706C91.558 547.754 87.3305 555.939 85.1212 564.026C78.7258 587.435 73.3009 613.437 79.304 637.457C83.4573 653.24 91.0342 676.995 99.5034 690.854C106.831 702.845 125.914 719.205 136.887 729.016C139.2 731.083 146.044 734.792 149.055 736.914C153.573 740.096 158.199 743.467 162.882 746.359L162.577 747.007C155.78 744.067 130.907 728.594 125.359 724.027C96.4178 699.994 78.0883 665.545 74.327 628.115C72.7295 611.39 74.8138 582.274 79.7296 566.254C81.7967 559.518 86.2494 551.144 89.0755 544.331C92.691 535.615 95.3269 527.774 101.365 520.428Z"/><path fill="#181516" d="M531.045 603.372C547.345 580.725 579.992 555.655 603.555 540.65C614.163 533.894 632.146 525.101 643.559 519.259L646.32 520.886C625.442 534.426 604.347 546.017 583.776 560.216C564.43 573.57 549.219 589.238 531.045 603.372Z"/><path fill="#030304" fill-opacity="0.96470588" d="M724.01 550.059C726.313 549.883 726.42 549.842 728.54 550.62C711.936 552.511 686.192 564.336 670.802 571.452C628 591.243 583.903 616.08 546.836 645.405C536.288 654.317 525.971 663.64 515.748 672.926C493.212 693.397 471.19 712.818 447.202 731.607C445.873 732.569 445.555 732.879 443.97 733.452C445.139 731.279 473.293 708.689 478.099 704.341L513.788 672.658C533.749 654.806 554.14 636.239 576.85 621.915C622.428 593.168 672.09 565.378 724.01 550.059Z"/><path fill="#030304" d="M794.834 464.697C795.197 464.641 794.967 464.637 795.489 464.919C793.455 466.188 754.66 474.499 748.534 476.482C739.157 479.516 730.102 483.708 720.81 487.581C713.479 490.636 702.163 492.778 694.992 495.775C685.053 499.929 677.274 503.734 666.998 507.501L666.264 507.33L666.524 506.697C676.053 501.744 685.768 496.498 695.384 491.775C701.236 488.9 708.505 487.169 714.579 484.732C730.742 478.248 746.714 473.078 764.024 470.63C774.115 469.033 784.468 466.326 794.834 464.697Z"/><defs><linearGradient id="gradient_0" gradientUnits="userSpaceOnUse" x1="151.47701" y1="474.79187" x2="145.60902" y2="468.12595"><stop offset="0" stop-color="black" stop-opacity="0.98039216"/><stop offset="1" stop-color="#231E1F"/></linearGradient></defs><path fill="url(#gradient_0)" d="M194.5 436.631L194.547 436.66C194.589 439.168 182.476 446.217 180.204 447.804C171.252 454.061 159.173 461.374 150.962 468.235C136.6 480.236 117.807 499.847 107.047 514.933L106.718 514.679C107.075 512.941 109.807 509.197 110.924 507.595C124.035 488.782 141.221 469.241 159.84 455.835C170.319 448.289 183.48 443.588 194.5 436.631Z"/><defs><linearGradient id="gradient_1" gradientUnits="userSpaceOnUse" x1="900.20618" y1="484.91556" x2="904.75049" y2="475.4877"><stop offset="0" stop-color="#0B080A"/><stop offset="1" stop-color="#2C292B"/></linearGradient></defs><path fill="url(#gradient_1)" d="M856.444 465.06C867.867 465.37 906.381 474.841 915.32 479.715C926.004 485.542 935.145 494.266 943.986 502.438C936.29 499.323 927.704 492.386 920.114 488.484C914.931 485.819 907.511 481.118 902.31 479.083C888.857 473.819 870.199 468.517 856.097 465.828L856.444 465.06Z"/><path fill="#030304" d="M277.076 409.226L278.416 409.063L278.629 409.435C269.04 412.399 254.543 415.261 244.27 418.016C226.105 422.888 217.04 427.538 200.669 435.854L199.458 436.008L199.067 435.548C205.815 420.328 260.835 410.672 277.076 409.226Z"/><path fill="#030304" fill-opacity="0.97254902" d="M115.448 642.053C116.678 623.623 120.536 605.464 126.904 588.125C136.621 562.157 166.579 513.543 187.742 495.711C188.471 495.096 188.615 494.85 189.538 494.778C185.022 499.835 179.945 504.338 175.709 509.629C165.089 522.899 154.819 536.962 146.72 551.93C140.41 563.592 133.176 575.59 128.51 587.977C121.824 605.623 117.783 624.16 116.519 642.988L115.448 642.053Z"/><path fill="#030304" fill-opacity="0.98039216" d="M163.967 489.408L164.232 489.667C164.171 490.552 156.857 497.441 155.545 498.706C125.496 527.672 107.092 559.192 99.9961 600.525C99.2633 604.793 98.4176 616.547 97.2749 619.881L97.2371 619.946C97.1668 618.468 97.1456 616.987 97.1737 615.507C97.6553 598.088 105.922 568.891 113.123 553.226C123.665 530.292 145.722 506.961 163.967 489.408Z"/><path fill="#030304" fill-opacity="0.96470588" d="M208.985 502.938C209.405 504.003 209.301 503.585 208.199 504.625C175.851 535.143 145.33 570.944 136.95 616.006L136.661 615.987C136.55 615.637 136.355 615.113 136.412 614.76C143.736 569.468 176.861 533.113 208.985 502.938Z"/><path fill="#39393C" fill-opacity="0.88235295" d="M748.413 520.632L748.659 520.753L748.408 521.318C720.117 530.415 692.042 542.997 665.685 556.665C660.314 559.45 654.322 561.597 648.637 563.678L648.277 563.334C649.144 562.56 659.204 558.697 661.487 557.566C689.095 543.89 718.63 528.975 748.413 520.632Z"/><path fill="#030304" fill-opacity="0.93725491" d="M827.268 493.221C842.555 492.145 882.735 501.013 896.829 507.138C898.889 508.034 906.299 512.519 906.945 514.35C905.406 513.908 903.574 512.157 902.199 511.058C888.102 502.188 851.62 495.849 834.258 494.454C829.246 494.051 821.964 494.537 818.297 493.986L818.482 493.718L827.268 493.221Z"/><path fill="#181516" fill-opacity="0.96078432" d="M410.612 701.487C411.469 701.422 411.074 701.324 411.799 701.772C408.322 703.851 402.89 705.833 399.076 707.575C382.679 715.068 370.632 719.517 352.613 721.986C351.967 722.199 352.028 722.074 351.214 721.768C352.096 720.544 361.795 719.282 364.385 718.814C381.173 715.782 394.951 707.073 410.612 701.487Z"/><path fill="#030304" fill-opacity="0.96862745" d="M172.039 582.452C172.33 584 167.686 590.146 166.673 592.099C158.438 607.974 152.782 626.939 152.201 644.848C150.131 642.311 152.355 631.952 152.932 628.818C156.067 611.791 161.68 596.483 172.039 582.452Z"/><path fill="#030304" fill-opacity="0.98431373" d="M399.471 713.143L399.576 713.198L399.404 713.867C386.215 723.976 366.995 728.656 351.157 732.624L350.762 732.24C351.174 731.861 370.79 726.037 373.744 724.957C382.631 721.735 391.236 717.784 399.471 713.143Z"/><path fill="#39393C" fill-opacity="0.94509804" d="M809.145 517.257C821.44 515.615 865.275 523.352 875.565 529.969C874.14 530.458 866.823 527.458 863.42 526.33C851.705 522.444 838.108 520.385 825.874 518.894C822.505 518.483 810.948 518.013 809.145 517.257Z"/><path fill="#39393C" fill-opacity="0.7019608" d="M234.891 528.398C235.225 528.72 235.053 528.489 235.201 529.203C231.023 533.402 225.787 537.956 221.347 542.29C211.347 552.05 204.556 560.325 196.338 571.487L195.913 570.777C206.167 554.411 220.877 541.384 234.891 528.398Z"/><path fill="#030304" fill-opacity="0.96470588" d="M482.471 675.917L482.851 676.678C477.497 683.627 458.223 700.679 450.941 707.748L450.784 707.678L450.609 707.141C458.565 697.809 472.978 685.015 482.471 675.917Z"/><path fill="#181516" fill-opacity="0.96862745" d="M384.297 727.961L385.205 728.22L384.963 728.724C374.547 733.119 354.603 739.389 343.592 742.56L342.728 742.84L342.46 742.352C345.765 740.082 378.326 729.982 384.297 727.961Z"/><path fill="#181516" fill-opacity="0.98039216" d="M489.605 616.406L490.94 616.587L490.539 617.15C473.785 624.416 463.098 625.857 445.117 627.924L443.526 627.879C445.139 626.681 461.867 624.562 465.238 623.928C474.749 622.14 480.768 619.938 489.605 616.406Z"/><path fill="#181516" fill-opacity="0.98039216" d="M435.416 676.057L435.677 676.664C420.593 685.729 408.997 689.06 392.135 692.668L391.959 692.519L391.932 692.08C398.906 689.906 405.75 688.736 412.597 686.261C420.544 683.387 427.652 679.164 435.416 676.057Z"/><path fill="#030304" fill-opacity="0.97647059" d="M442.306 667.512L443.204 667.626C438.788 672.47 409.17 681.154 402.043 682.762L401.249 682.502C402.316 681.558 406.71 680.583 408.447 680.148C420.229 677.197 431.124 672.242 442.306 667.512Z"/><path fill="#181516" fill-opacity="0.92941177" d="M238.478 439.069L238.746 439.387C238.02 440.521 233.73 442.22 232.238 442.949C220.344 448.763 209.755 455.818 198.986 463.501L198.61 462.826C208.717 454.174 226.285 444.252 238.478 439.069Z"/><path fill="#39393C" fill-opacity="0.88627452" d="M278.068 459.984C279.239 460.106 278.845 459.949 279.81 460.631C277.592 461.267 270.587 463.123 268.818 463.852C254.514 469.748 243.196 477.288 231.095 486.613C230.391 487.225 230.781 487.117 229.968 487.065C230.861 485.695 234.805 482.89 236.339 481.673C249.646 471.119 262.048 465.153 278.068 459.984Z"/><path fill="#181516" fill-opacity="0.97254902" d="M421.005 688.973L421.506 689.556C415.354 694.585 392.319 702.053 384.251 704.167L383.947 703.905C385.121 702.697 392.489 700.511 394.567 699.801C404.013 696.573 412.064 693.384 421.005 688.973Z"/><path fill="#030304" fill-opacity="0.94509804" d="M784.375 590.717C788.483 590.289 795.048 590.205 795.748 595.509C794.338 594.201 793.377 593.378 791.844 592.217C786.329 591.214 777.51 592.43 771.882 593.23C769.209 593.538 757.804 595.239 756.001 594.938L756.263 594.485C764.151 592.718 776.263 591.494 784.375 590.717Z"/><path fill="#181516" fill-opacity="0.97647059" d="M462.313 646.018L462.665 646.243L462.416 646.926C454.784 652.933 438.588 655.419 429.109 656.741L428.725 656.478C430.077 655.491 443.404 653.378 446.808 652.212C453.044 650.077 456.14 649.339 462.313 646.018Z"/><path fill="#39393C" fill-opacity="0.94509804" d="M115.448 642.053L116.519 642.988C116.063 650.82 116.874 664.273 119.443 671.795C120.505 674.905 123.131 678.67 124.016 681.455C123.373 681.192 122.998 680.91 122.567 680.309C115.9 670.995 114.766 652.656 115.448 642.053Z"/><path fill="#030304" fill-opacity="0.93725491" d="M844.574 550.91C851.289 551.316 859.754 556.125 861.385 563.045C863.005 569.914 860.098 575.42 856.777 581.107L856.504 580.896C856.403 579.459 858.581 575.647 859.267 573.982C864.822 560.505 855.396 555.293 844.574 550.91Z"/><path fill="#39393C" fill-opacity="0.78823531" d="M281.817 497.932L282.477 498.015L282.585 498.391C276.893 501.395 270.795 503.977 265.312 507.288C258.718 511.271 252.394 515.738 246.26 520.394L245.522 520.291C251.777 513.459 273.33 501.697 281.817 497.932Z"/><path fill="#030304" fill-opacity="0.98823529" d="M643.559 519.259C646.606 517.559 659.093 510.306 661.431 509.857L660.926 510.352L661.509 509.798C659.036 512.199 649.6 518.576 646.32 520.886L643.559 519.259Z"/><path fill="#39393C" fill-opacity="0.85490197" d="M237.438 510.434L237.752 511.07C227.688 520.682 218.872 528.855 209.125 539.05L208.725 538.341C215.834 529.902 229.079 518.113 237.438 510.434Z"/><path fill="#030304" fill-opacity="0.92156863" d="M805.537 542.631C809.614 542.118 828.444 544.767 832.149 547.45C828.516 546.933 824.205 545.948 820.469 545.285C816.258 544.537 809.382 543.9 805.537 542.631Z"/><path fill="#39393C" fill-opacity="0.94117647" d="M334.512 744.113L334.992 744.439C333.498 746.244 319.743 748.843 316.807 749.364L316.605 749.2L316.762 748.641C322.737 747.1 328.484 745.731 334.512 744.113Z"/><path fill="#030304" fill-opacity="0.96470588" d="M843.508 464.032C847.003 464.088 853.063 464.343 856.444 465.06L856.097 465.828C850.952 465.748 844.415 465.213 839.176 464.932C840.59 464.403 842.012 464.264 843.508 464.032Z"/><path fill="#39393C" fill-opacity="0.84313726" d="M839.176 464.932C837.042 465.045 833.303 465.16 831.301 464.429C835.254 463.864 839.492 464.01 843.508 464.032C842.012 464.264 840.59 464.403 839.176 464.932Z"/><defs><linearGradient id="gradient_2" gradientUnits="userSpaceOnUse" x1="464.9664" y1="619.24457" x2="468.58661" y2="621.47949"><stop offset="0" stop-color="black" stop-opacity="0"/><stop offset="1" stop-color="#030305" stop-opacity="0.05882353"/></linearGradient></defs><path fill="url(#gradient_2)" d="M469.762 619.649C469.814 619.894 469.865 620.14 469.916 620.386L468.867 621.338L467.304 620.472L465.502 621.048L465.204 621.639C464.453 620.738 464.645 621.273 464.741 619.998C466.198 619.215 468.038 619.547 469.762 619.649Z"/><path fill="#030304" d="M453.912 334.034L454.207 334.295L453.845 335.064C444.287 341.438 436.739 343.744 425.244 344.797C412.346 345.978 399.97 347.477 390.371 336.901C390.137 336.119 390.113 336.496 390.413 335.768C405.265 350.75 437.64 343.323 453.912 334.034Z"/><path fill="#030304" fill-opacity="0.96862745" d="M522.634 339.845C524.208 340.873 535.14 354.508 537.757 357.128C551.92 371.303 563.238 376.062 579.948 384.429C575.779 383.795 568.95 380.559 565.218 378.666C547.739 369.865 533.009 356.438 522.634 339.845Z"/><path fill="#030304" fill-opacity="0.98039216" d="M724.281 401.439C724.519 401.632 724.576 401.976 724.704 402.253C724.14 403.206 723.551 404.142 722.935 405.062C712.125 421.482 689.349 428.37 671.112 432.091L670.717 431.558C690.532 427.144 712.744 419.045 724.281 401.439Z"/><path fill="#030304" fill-opacity="0.96078432" d="M677.61 398.832C690.693 393.72 704.729 386.77 715.214 377.211C716.851 375.718 721.007 370.609 722.722 368.596L722.988 369.057C711.378 385.59 696.977 392.571 678.591 399.676L677.61 398.832Z"/><path fill="#030304" fill-opacity="0.96078432" d="M523.98 330.4C524.652 330.818 531.978 340.152 532.951 341.491C540.89 352.426 550.59 357.303 560.98 365.022C547.492 361.673 530.444 342.03 523.98 330.4Z"/><path fill="#030304" d="M367.943 316.577C373.057 315.87 384.876 317.796 387.468 322.87L386.859 322.938C381.716 318.807 377.519 318.299 371.291 317.463C365.766 318.451 358.939 320.361 354.039 323.227C352.753 323.979 353.664 323.786 352.053 324.073L352.112 323.4C358.027 319.363 361.102 318.654 367.943 316.577Z"/><path fill="#181516" fill-opacity="0.93333334" d="M295.46 564.902C297.11 565.181 308.21 572.316 310.927 574.173C313.175 575.71 327.447 582.449 327.303 582.285L326.927 582.86C316.754 580.487 303.627 571.361 295.46 564.902Z"/><path fill="#030304" fill-opacity="0.96078432" d="M714.084 342.304C714.35 343.017 714.521 343.453 714.172 344.27C709.711 354.718 699.506 362.384 689.893 367.235C689.926 365.643 692.966 364.694 694.926 363.358C703.91 357.233 709.152 351.826 714.084 342.304Z"/><path fill="#030304" fill-opacity="0.98823529" d="M374.26 306.615C379.824 306.233 382.434 307.159 387.456 309.305C384.454 309.554 378.864 307.588 371.745 308.104C367.268 308.868 363.026 310.686 358.371 311.836C361.2 309.642 370.411 307.307 374.26 306.615Z"/><path fill="#030304" fill-opacity="0.94117647" d="M377.319 300.182C380.635 299.732 383.517 300.317 386.694 301.102L386.991 301.725L386.29 302.022C379.655 300.477 376.419 301.179 370.131 302.877C366.318 304.362 364.113 305.318 360.123 306.062C366.696 302.498 369.942 301.15 377.319 300.182Z"/><path fill="#030304" fill-opacity="0.94117647" d="M356.258 330.924L356.591 331.177C356.698 332.141 355.049 332.728 353.791 333.64C348.562 337.434 344.933 342.214 342.484 348.149L341.873 347.787C343.444 340.634 349.834 334.161 356.258 330.924Z"/><path fill="#030304" fill-opacity="0.95686275" d="M581.418 268.966C586.037 269.682 593.26 275.708 603.487 277.387C597.182 278.297 585.91 273.053 581.418 268.966Z"/><path fill="#030304" fill-opacity="0.94117647" d="M572.142 276.491C573.193 276.631 592.533 283.669 594.305 284.447C588.463 284.267 577.058 280.116 572.142 276.491Z"/><path fill="#030304" fill-opacity="0.94509804" d="M679.066 389.843L679.618 390.082C679.204 392.155 673.422 395.622 671.272 397.1L670.758 396.965L670.715 396.239C673.015 393.981 676.379 391.755 679.066 389.843Z"/><path fill="#39393C" fill-opacity="0.90196079" d="M380.755 590.329C382.925 589.965 394.243 592.335 395.782 594.269L380.725 590.842L380.755 590.329Z"/><path fill="#39393C" fill-opacity="0.90196079" d="M678.591 399.676C675.14 401.019 673.275 401.885 669.597 402.366C672.206 401.021 674.9 399.961 677.61 398.832L678.591 399.676Z"/><path fill="#181516" d="M321.23 399.627C322.296 392.757 324.95 385.705 326.281 378.821C329.674 361.267 334.926 341.604 341.765 325.104C344.319 318.942 355.346 303.268 359.382 297.575C365.905 288.373 389.184 271.338 399.205 266.336C424.259 253.828 462.66 240.635 489.95 236.794C514.351 233.359 556.959 237.709 576.272 252.629C591.233 246.588 608.15 244.036 624.058 241.302C648.731 237.062 675.883 245.695 692.225 265.061C705.105 280.323 715.374 312.017 718.112 332.104C717.164 333.627 717.941 334.765 718.391 336.985C720.045 345.147 723.176 352.143 723.454 360.522C722.47 358.237 722.315 358.031 721.747 355.679C720.784 351.686 719.345 341.573 717.169 338.518C716.269 339.27 716.762 338.917 715.677 339.562C716.956 331.314 711.268 318.071 708.294 309.92C706.866 315.713 704.224 327.262 700.226 331.504C700.166 330.251 702.514 326.054 703.145 324.476C705.267 319.166 706.15 313.931 707.781 308.493C704.463 297.881 687.905 263.692 678.857 256.032C675.947 253.567 655.375 248.975 651.002 249.839L650.754 250.368L652.924 252.253C650.502 252.475 649.75 249.771 645.029 249.927C645.77 248 646.043 248.296 647.932 247.848C644.658 246.192 641.782 246.466 638.004 246.11C632.811 245.868 629.384 245.258 624.252 246.438L623.968 247.016L623.408 246.896C618.582 245.899 619.644 246.753 615.357 247.458C616.963 248.38 617.827 248.882 619.527 249.58L619.639 250.279L619.07 250.701C612.036 247.574 609.522 247.905 602.087 250.446C603.768 251.187 605.202 251.597 606.363 252.975L606.704 254.053L606.191 254.163C604.887 252.941 602.479 251.574 600.886 250.571L587.662 253.743L586.746 253.271L586.234 253.843L584.335 254.124L584.04 254.607L586.564 255.072C582.927 255.786 580.064 256.177 576.697 257.75C579.855 259.525 583.136 261.306 586.176 263.257C582.262 262.178 578.811 260.297 575.258 258.342C572.519 259.346 569.524 260.359 566.888 261.564L565.822 262.073C562.891 263.506 554.06 265.868 552.894 267.939C553.77 268.692 553.262 268.406 554.44 268.758C553.533 269.088 552.235 269.504 551.409 269.925C550.699 269.733 549.033 269.342 548.397 269.595C542.674 271.866 534.252 275.089 529.082 278.202L529.064 278.722L529.329 278.835L530.187 279.71C526.329 280.215 513.422 286.433 510.681 288.622L511.379 288.421L514.594 289.025L513.691 289.19C508.665 290.142 500.279 293.267 496.462 296.762L496.679 297.077L499.335 297.342L499.069 297.928C497.748 298.379 496.913 298.403 495.517 298.404C488.953 298.405 445.003 329.933 432.749 333.432C427.02 335.068 420.622 334.972 414.74 334.47C408.759 333.96 402.758 332.444 398.373 328.08C393.701 323.431 390.451 316.379 390.514 309.776C390.562 304.776 391.939 300.356 393.796 295.766L393.095 295.13L393.294 294.482C393.581 294.416 394.056 294.11 394.345 293.948C395.484 291.903 398.101 288.011 397.993 286.09L398.1 285.587C399.8 285.168 407.468 275.858 407.977 274.002C409.315 273.134 409.478 273.13 410.488 271.84L410.091 270.861C407.022 269.27 401.815 271.119 400.295 274.073C395.73 274.794 388.476 280.049 384.517 282.733C391.624 280.43 395.446 278.75 402.372 282.063C388.586 280.372 383.004 283.346 372.916 292.263L373.628 292.848L373.6 293.676C371.01 294.057 368.792 295.401 367.327 297.598L367.856 297.974L369.087 297.687L369.251 298.154C360.628 300.981 354.977 312.604 351.023 320.395C341.381 339.728 334.006 360.109 329.044 381.135C326.215 393.344 324.48 405.961 321.842 418.195C316.049 445.067 309.491 471.741 306.856 499.167C306.262 505.35 303.935 512.076 303.018 518.253C302.015 523.859 301.393 529.804 300.238 535.305C303.98 537.689 315.056 545.986 317.519 547.181C338.931 557.559 374.878 569.104 398.377 571.247C396.82 571.913 396.773 571.982 395.02 572.244L394.339 572.22C379.562 571.63 337.378 563.261 324.425 557.438C314.876 553.143 306.291 546.967 299.185 539.278L298.987 540.015C298.132 543.258 297.503 544.11 299.072 546.816L298.227 547.337L297.449 547.396L297.329 547.546C295.09 547.737 293.727 546.971 291.975 545.759C293.163 530.983 297.769 518.844 300.462 504.582C303.486 488.568 306.814 472.683 310.125 456.72C311.175 451.658 310.934 445.279 312.119 440.472C314.636 430.259 316.482 420.405 318.236 410.036C311.963 408.576 309.276 407.988 302.841 407.9L302.002 407.291C300.162 407.292 298.724 407.503 297.122 406.675C304.131 405.949 312.274 405.267 319.278 406.315L320.688 402.589C313.622 402.412 301.04 401.253 294.637 401.995C273.002 404.503 251.657 408.955 230.808 415.264C222.59 417.751 214.818 419.567 206.773 422.653C198.346 425.979 190.184 429.94 182.357 434.503C173.311 439.744 164.344 447.822 155.543 454.101C146.627 460.462 135.556 467.897 127.443 474.947C123.732 478.172 116.498 487.79 112.698 492.209C107.608 498.49 100.851 504.448 96.4652 511.179C84.0534 530.228 78.4895 552.692 70.8406 573.82C68.5741 580.081 67.1434 588.687 65.0055 594.152C63.4502 594.863 63.6566 595.335 61.8526 595.639C61.9802 594.333 62.1316 593.031 62.3066 591.731C70.0001 533.871 102.747 487.306 148.219 452.277C168.478 436.671 185.318 429.346 207.592 418.412C235.249 404.835 261.82 402 292.271 400.244C301.147 399.73 312.369 398.45 321.23 399.627ZM484.444 240.7L483.47 240.858C481.343 241.251 479.357 241.359 477.698 242.631L476.639 244.557L475.898 243.75L475.596 242.824C472.982 243.097 469.207 243.66 467.875 246.173L467.386 245.221C464.857 245.274 461.28 246.788 458.564 247.415C455.44 251.919 453.105 255.97 450.787 260.962C449.545 263.635 449.126 268.58 447.585 270.749C446.598 265.484 454.184 252.468 456.93 247.855C439.138 254.431 444.621 258.624 437.232 271.771C437.157 268.892 443.504 255.13 444.865 252.191C438.605 254.119 426.435 258.327 421.246 261.781L420.936 262.461C421.929 263.062 422.891 263.892 424.036 263.476C427.382 262.262 439.014 254.859 441.759 254.295C439.311 256.455 436.629 258.149 434.459 260.095C429.031 264.963 426.846 273.78 423.522 279.678C422.856 276.619 428.653 266.313 430.465 263.487C430.718 263.093 430.976 262.702 431.239 262.315L431.234 261.695C428.542 261.864 419.997 269.485 416.053 271.558C401.889 279.003 388.455 310.653 398.616 324.235C400.18 327.525 407.029 329.011 410.329 328.996C439.625 331.393 454.261 315.867 477.186 301.441C506.841 282.78 538.055 265.23 571.491 254.374C567.258 252.435 562.983 250.59 558.668 248.839C557.22 250.724 556.364 252.057 554.465 253.513C554.765 253.217 555.064 252.921 555.363 252.625L554.481 252.727C555.264 251.262 556.833 249.803 558.026 248.562L551.008 246.205C549.522 248.914 548.173 251.783 546.103 254.027L546.738 253.111L546.483 252.617C547.718 249.866 548.59 248.587 550.213 246.115C544.569 244.672 539.318 243.356 533.607 242.169C530.222 241.176 518.173 239.153 514.639 239.704L513.731 239.514C510.085 239.433 498.501 238.875 495.632 239.889L494.493 239.669C490.711 239.595 487.976 240.509 484.444 240.7ZM411.893 269.633C414.301 270.301 419.972 266.732 420.658 264.223C419.665 263.122 420.148 263.357 418.881 262.922C416.15 264.404 409.426 266.83 408.808 268.742C410.057 269.346 410.539 269.364 411.893 269.633Z"/><path fill="#030304" fill-opacity="0.94901961" d="M419.639 293.319C420.166 294.647 419.868 298.491 419.864 300.136C419.843 309.853 423.318 316.341 429.071 323.793C419.987 318.145 417.631 303.051 419.639 293.319Z"/><path fill="#181516" fill-opacity="0.96470588" d="M431.047 285.392C432.168 289.746 429.896 300.464 431.717 306.072C433.207 310.661 435.593 313.543 437.131 317.605C430.106 310.372 427.72 294.531 431.047 285.392Z"/><path fill="#030304" fill-opacity="0.94117647" d="M406.816 327.906C401.273 319.023 398.135 310.322 400.497 299.595C400.637 298.968 400.8 298.346 400.986 297.731L400.703 298.553C401.185 308.518 400.755 322.74 410.329 328.996C407.029 329.011 400.18 327.525 398.616 324.235C401.941 326.095 403.212 326.618 406.816 327.906Z"/><path fill="#39393C" fill-opacity="0.92941177" d="M467.386 245.221L467.875 246.173C465.149 251.096 462.549 257.1 460.984 262.532C460.266 265.029 460.276 268.218 459.332 270.184L458.562 270.371C460.476 257.789 461.626 256.445 467.386 245.221Z"/><path fill="#39393C" fill-opacity="0.92941177" d="M475.898 243.75L476.639 244.557C474.03 250.551 472.066 257.099 470.53 263.469C470.171 264.958 470.322 267.238 469.914 269.427L469.368 269.358C468.394 262.935 473.495 249.814 475.898 243.75Z"/><path fill="#39393C" fill-opacity="0.89803922" d="M483.47 240.858L484.444 240.7C484.158 241.787 476.665 265.121 477.188 264.367C476.356 261.373 482.117 244.254 483.47 240.858Z"/><path fill="#39393C" fill-opacity="0.8509804" d="M494.493 239.669L495.632 239.889C490.461 247.569 490.665 253.979 487.601 258.742L487.259 258.294C488.936 251.258 490.855 245.873 494.493 239.669Z"/><path fill="#181516" fill-opacity="0.92941177" d="M513.731 239.514L514.639 239.704C512.46 244.174 510.53 250.157 508.381 254.04C508.578 249.648 511.733 243.438 513.731 239.514Z"/><path fill="#181516" fill-opacity="0.95686275" d="M530.521 253.537C530.246 249.841 531.011 244.96 533.607 242.169C533.601 243.841 531.106 251.58 530.521 253.537Z"/><path fill="#181516" d="M725.396 386.549C725.848 386.769 725.538 386.655 726.375 386.698C726.059 383.554 724.512 367.039 725.008 365.212C725.215 366.191 725.278 366.387 725.65 367.317L726.274 366.629C728.97 377.696 729.986 393.822 732.245 405.622C735.535 422.801 740.216 443.611 740.044 461.126C749.422 458.433 758.766 456.677 768.445 455.251C775.356 454.232 783.708 451.038 790.543 450.454C803.688 449.333 816.981 446.241 830.085 446C837.576 445.862 845.261 448.034 852.634 449.127C876.968 453.462 900.847 458.979 922.918 470.47C925.818 471.98 935.018 477.918 937.35 480.296C946.752 489.886 958.468 503.353 962.469 516.278C965.827 527.13 961.677 541.449 957.063 551.225C955.18 555.215 944.2 566.181 939.963 568.512C924.102 577.238 903.866 584.004 886.362 588.805C880.122 590.517 872.123 590.829 865.782 591.494C857.212 592.458 848.65 593.486 840.096 594.579C823.694 596.665 805.112 600.736 788.487 603.42C761.335 608.607 734.657 617.721 708.483 626.497C692.863 631.735 676.259 635.526 660.9 641.213C648.143 646.407 635.521 652.028 622.908 657.568C613.556 661.676 604.584 667.077 595.372 671.207C573.37 681.072 550.839 689.791 529.134 700.387C520.078 704.808 511.429 710.292 502.397 714.793C485.994 722.456 467.087 729.097 451.109 737.361C429.239 749.142 406.476 756.957 382.99 764.755C376.889 766.781 368.236 771.944 363.169 773.187C347.958 776.92 330.371 782.642 315.072 784.829C294.174 787.816 274.024 787.869 253.088 786.689C210.44 785.33 181.27 779.127 144.948 755.785C135.326 749.602 124.451 743.287 115.522 735.967C90.278 714.85 72.4698 686.196 64.7121 654.212C62.1492 643.373 61.4288 633.152 61.0971 622.131C60.8 614.025 60.5364 603.587 61.8526 595.639C63.6566 595.335 63.4502 594.863 65.0055 594.152C63.7102 604.59 62.8497 612.153 64.1944 622.76L64.2457 623.144C67.3355 635.684 69.4011 648.233 72.6754 660.931C75.0999 671.591 77.1578 683.146 83.0845 692.514C90.7252 704.591 101.441 714.3 111.921 723.85C117.771 729.181 123.105 735.438 129.051 740.594C134.439 745.267 141.244 749.142 147.227 753.018C155.207 758.252 163.681 760.614 172.305 764.045C192.767 772.219 213.874 777.116 235.57 780.717C242.707 781.702 251.816 784.426 258.926 784.507C271.732 784.653 287.768 784.694 300.092 781.515C316.583 777.262 332.381 775.521 349.134 773.156C354.794 772.357 359.952 766.758 364.698 763.899C379.407 755.597 392.656 745.295 405.6 734.504C420.093 720.397 433.027 704.397 446.302 689.121C451.422 683.23 459.473 677.187 463.922 671.487C476.632 655.201 489.79 641.802 504.485 627.274C504.785 629.594 504.376 629.727 505.681 630.919C499.186 638.943 490.876 649.373 483.581 656.516C468.019 671.755 454.257 686.185 441.022 703.559C434.785 711.746 424.006 719.728 417.013 727.46C409.029 735.438 400.41 744.162 392.216 751.882C389.076 754.84 378.017 762.002 374.11 764.58C382.366 761.103 390.36 758.92 398.64 755.789C403.55 753.933 408.796 749.095 413.453 746.536C418.779 743.571 418.958 744.697 424.083 740.678L424.888 741.159C424.597 741.715 424.705 741.37 424.745 742.233C435.462 739.858 460.915 730.267 471.132 724.829C477.511 721.434 493.491 710.059 500.26 705.364L501.73 705.956C504.535 705.615 510.163 702.371 513.251 701.453C537.67 694.187 559.608 682.487 580.304 667.755C582.325 666.316 584.84 664.876 586.986 663.494L587.345 664.922C590.592 664.943 598.477 661.212 601.541 659.741L603.735 659.643C626.458 650.99 649.018 643.111 671.313 633.246C681.831 628.592 692.755 623.116 703.475 619.324C730.871 609.633 760.245 607.306 788.033 599.172C797.881 596.344 809.354 593.834 819.38 591.98L820.49 591.451C820.661 591.874 820.509 591.595 821.218 592.066C825.23 592.011 832.286 592.366 834.937 589.709L835.05 591.389C836.36 591.188 839.138 591.11 840.772 591.075C848.586 590.904 856.223 587.26 863.037 583.731C863.537 583.472 866.29 580.433 866.764 579.908L866.97 580.678L864.006 584.269C874.527 584.174 898.289 583.652 906.772 577.605L907.07 578.161L907.752 578.601C913.764 576.809 925.249 572.713 929.999 569.048C943.491 558.637 954.428 539.445 950.108 522.096C948.959 517.478 944.301 510.612 941.714 506.661C954.667 518.081 957.129 526.809 952.411 543.743C951.831 545.826 949.36 550.588 949.445 552.254C952.736 549.519 958.796 536.952 960.406 532.662C956.948 514.781 951.67 496.004 935.665 486.062C929.042 481.948 921.86 478.16 915.563 474.267C897.307 462.978 884.366 456.543 862.29 454.531C852.228 453.614 841.889 454.362 831.692 453.96C817.832 453.414 802.894 451.515 789.246 454.525C761.611 460.619 735.659 468.826 709.018 478.263C689.126 485.31 673.516 489.176 654.812 499.557C635.61 510.215 618.64 522.902 600.32 534.984C587.543 543.41 569.876 552.758 558.381 562.268C530.883 585.154 505.264 610.207 481.769 637.187C468.902 651.673 456.024 666.306 443.115 680.58C432.418 692.408 422.056 706.718 410.448 717.193C386.031 739.193 359.475 755.887 328.201 766.347C322.562 768.233 309.67 774.387 303.991 774.305C289.579 774.095 272.886 775.297 258.52 773.309C252.425 772.465 246.647 769.909 240.676 768.572C237.02 767.574 232.066 766.698 228.836 765.609L228.795 765.213C237.21 765.565 244.441 768.188 252.569 769.825C259.319 771.184 266.384 771.593 273.255 771.974C288.56 772.824 319.915 767.069 333.712 760.892C342.933 756.764 350.951 751.256 359.783 746.505C371.426 740.24 382.116 734.913 392.016 725.833C404.183 714.672 416.786 703.344 427.827 691.063C434.226 683.944 439.941 676.19 445.902 668.707C448.784 665.091 452.892 661.708 455.221 657.823L454.312 657.655L453.925 656.767C454.536 656.691 456.032 656.521 456.435 656.136C462.942 649.919 468.226 642.11 474.808 635.625L475.438 633.68C476.076 632.746 482.156 628.737 483.758 625.524L483.304 625.619L482.05 624.481C486.166 622.584 498.876 613.416 499.706 609.807L499.977 608.777C503.074 608.481 504.795 605.733 506.91 603.274C499.667 605.016 492.58 607.753 485.22 609.298C452.369 616.193 418.177 616.672 385.246 609.977C379.8 608.87 373.804 608.584 368.452 607.368C341.476 601.238 312.818 594.49 292.534 574.295C286.549 568.326 284.919 563.42 285.044 555.434C286.883 557.442 288.399 559.671 289.997 561.881L292.796 563.558L292.154 564.495C292.855 565.997 295.562 567.932 297.008 569.255C308.367 579.704 321.674 587.812 336.169 593.116C355.286 600.05 378.638 606.818 398.671 608.564C427.046 611.038 454.786 610.887 482.617 604.297C495.178 601.323 507.201 602.988 516.883 593.474L517.22 592.142C519.813 591.379 522.171 589.045 523.117 586.539L522.817 585.617C526.17 584.507 531.637 578.909 533.308 575.95L532.938 575.518L530.964 576.032L530.512 574.963C537.688 573.21 543.91 567.946 550.136 563.897L549.717 564.052C537.161 568.617 507.087 576.033 494.3 577.852C477.118 580.297 426.9 579.926 411.86 572.855C420.338 573.63 428.382 575.647 437.031 575.984C470.29 576.987 503.527 573.362 535.788 565.213C543.261 563.282 550.607 561.697 557.328 557.822C565.171 553.3 571.313 546.911 578.419 541.404C589.663 532.69 601.387 524.531 613.532 517.124C625.367 509.836 638.037 504.426 650.19 497.774C653.847 495.772 657.927 494.202 661.347 491.845C660.315 491.858 659.633 491.848 658.605 491.771C672.753 486.21 686.694 479.903 700.5 474.052C720.44 465.602 721.202 470.4 735.087 451.013C734.185 448.203 733.724 443.448 731.846 442.003L730.546 443.208L729.839 442.979C730.134 442.627 731.293 441.202 731.414 440.906C732.725 437.704 730.629 429.051 729.661 426.032L728.788 425.917C730.055 423.156 728.802 417.289 727.932 414.386L727.943 413.858C728.266 408.818 724.934 395.289 725.396 386.549ZM726.125 465.446C730.004 464.196 733.893 462.976 737.792 461.786C737.317 459.848 736.058 453.565 734.968 452.381C731.875 457.573 728.206 461.171 724.287 465.668C725.445 465.746 725.026 465.816 726.125 465.446Z"/><path fill="#030304" d="M61.8526 595.639C63.6566 595.335 63.4502 594.863 65.0055 594.152C63.7102 604.59 62.8497 612.153 64.1944 622.76L64.2457 623.144C64.0773 623.518 64.2139 623.259 63.6899 623.824C61.6937 620.547 63.6932 612.479 61.8335 609.132C60.6937 612.682 62.7733 617.867 61.0971 622.131C60.8 614.025 60.5364 603.587 61.8526 595.639Z"/><path fill="#030304" fill-opacity="0.98823529" d="M638.004 246.11C641.782 246.466 644.658 246.192 647.932 247.848C646.043 248.296 645.77 248 645.029 249.927C640.58 250.086 639.031 250.605 634.951 251.057C635.199 252.597 637.32 252.458 636.81 253.436L631.047 251.173C626.967 251.928 622.926 252.653 618.877 253.577L619.7 254.129C622.899 256.254 634.419 262.037 635.447 262.969C630.366 262.122 621.656 256.895 617.527 253.865C613.123 255.18 597.715 260.02 595.035 262.787L594.36 263.27C590.203 262.747 568.637 276.199 563.027 278.721C570.346 288.51 577.144 287.625 585.192 293.566L585.022 294.087C577.88 292.473 566.74 284.828 561.637 279.323C552.032 284.998 543.289 292.019 535.674 300.172C540.023 309.785 542.571 311.804 551.72 316.625L551.421 317.029C545.101 315.344 540.416 311.204 537.184 305.606C536.37 304.173 535.586 302.723 534.834 301.257C529.562 307.784 527.298 310.639 524.126 318.437C527.913 324.841 531.022 329.789 537.165 334.069C537.952 334.617 540.323 336.284 540.205 337.071C533.765 334.827 527.197 325.016 523.829 319.555C521.76 326.492 520.999 331.083 521.426 338.37C521.963 347.54 524.152 350.355 530.143 356.925L529.473 357.483C528.101 355.815 525.688 353.358 524.156 351.709C536.252 385.549 563.218 398.252 597.373 405.65C600.444 406.315 621.795 407.726 622.01 407.926C619.472 408.365 614.655 408.159 611.932 408.108C592.47 407.742 567.755 402.61 551.022 392.531C539.826 385.788 526.149 370.238 521.415 357.908C520.082 354.436 518.667 348.191 517.758 344.377C513.702 340.379 508.396 337.824 502.837 336.674C497.452 335.56 491.163 336.393 486.017 335.051C497.548 334.911 507.958 333.592 517.344 341.813L517.081 327.495C509.168 320.696 499.653 319.997 489.704 321.324C486.835 321.706 483.748 323.031 481.031 323.02L481.27 322.47C484.22 321.137 485.503 321.286 488.285 320.61C499.734 317.826 507.789 319.34 517.456 325.997C518.047 323.295 518.515 319.394 518.928 316.558C512.137 305.847 498.439 311.763 488.787 312.635L488.537 312.098C498.695 309.553 511.591 305.719 519.769 314.584C521.002 311.714 522.867 308.214 524.256 305.273L525.045 304.217C526.065 303.693 538.479 290.914 541.448 288.504C532.614 284.267 524.06 287.194 514.594 289.025L511.379 288.421C521.143 288.615 531.938 280.213 541.959 288.388C545.101 285.951 548.212 283.84 551.369 281.276C542.739 277.739 538.981 278.371 530.187 279.71L529.329 278.835C537.676 276.473 544.916 275.738 552.365 280.925C555.502 279.011 558.072 277.573 561.334 275.876L561.917 276.061L563.062 274.332L574.531 268.165C572.286 266.325 568.334 263.786 565.822 262.073L566.888 261.564C570.332 263.431 572.564 265.25 575.682 267.644C582.058 264.095 588.706 262.292 595.036 258.428C591.725 256.793 590.085 256.229 586.564 255.072L584.04 254.607L584.335 254.124L586.234 253.843L586.746 253.271L587.662 253.743C590.903 254.796 593.244 256.389 596.037 258.297C598.374 257.497 604.484 255.614 606.191 254.163L606.704 254.053C609.507 254.162 616.312 251.785 619.07 250.701L619.639 250.279L619.527 249.58C617.827 248.882 616.963 248.38 615.357 247.458C619.644 246.753 618.582 245.899 623.408 246.896L623.968 247.016L624.252 246.438C626.559 247.543 629.321 248.979 631.697 249.795C635.01 249.037 636.466 249.353 638.004 246.11Z"/><path fill="#030304" fill-opacity="0.96078432" d="M500.26 705.364L560.426 658.211C579.9 643.015 598.566 628.473 619.797 615.535C630.852 608.798 641.715 600.442 653.176 594.337C658.453 591.527 681.522 583.402 686.491 584.414C686.031 585.116 681.297 586.158 680.331 586.295C656.241 589.714 637.786 605.589 618.021 618.127C582.6 640.598 551.138 667.838 517.786 693.136C512.356 697.255 507.191 701.871 501.73 705.956L500.26 705.364Z"/><path fill="#030304" fill-opacity="0.98431373" d="M717.169 338.518C719.345 341.573 720.784 351.686 721.747 355.679C722.315 358.031 722.47 358.237 723.454 360.522C723.176 352.143 720.045 345.147 718.391 336.985C717.941 334.765 717.164 333.627 718.112 332.104C719.714 338.007 725.586 360.902 726.274 366.629L725.65 367.317C725.278 366.387 725.215 366.191 725.008 365.212C724.512 367.039 726.059 383.554 726.375 386.698C725.538 386.655 725.848 386.769 725.396 386.549C725.222 385.326 725.112 384.1 724.989 382.871L724.451 382.527C723.115 383.225 719.052 390.252 716.99 392.684C707.419 403.978 684.598 414.97 670.411 418.387C672.953 416.726 684.428 412.262 688.293 410.385C699.396 404.99 709.513 399.78 717.717 390.099C720.484 386.834 722.592 382.94 725.231 380.121C724.482 376.175 724.258 371.923 723.579 367.931C722.77 363.179 721.465 358.443 720.239 353.777C718.125 357.231 715.718 360.496 713.045 363.537C707.429 369.961 696.182 380.406 687.29 381.024L687.078 380.627C699.199 377.36 714.15 363.062 719.943 352.03C719.245 347.514 717.657 342.845 717.169 338.518Z"/><path fill="#F9F6F8" fill-opacity="0.0078431377" d="M397.993 286.09C398.101 288.011 395.484 291.903 394.345 293.948C394.056 294.11 393.581 294.416 393.294 294.482C384.664 291.09 376.673 292.218 369.087 297.687L367.856 297.974L367.327 297.598C368.792 295.401 371.01 294.057 373.6 293.676C382.199 288.036 387.725 287.426 397.993 286.09Z"/><path fill="#030304" d="M523.117 586.539C519.412 586.372 502.671 590.083 497.348 590.785C483.18 592.654 471.242 592.322 457.069 591.48C451.668 591.159 445.532 591.302 440.258 590.449C441.918 589.872 446.043 589.881 447.846 589.978C470.489 591.188 492.317 591.121 514.601 586.418C516.909 585.931 520.495 585.361 522.817 585.617L523.117 586.539Z"/><path fill="#030304" d="M530.964 576.032C527.298 577.328 520.31 578.648 516.48 579.588C498.867 584.001 481.233 585.464 463.119 585.1C459.045 585.018 453.48 584.348 449.877 584.371C454.608 583.664 471.661 583.827 477.753 583.47C496.54 582.371 512.162 579.559 530.512 574.963L530.964 576.032Z"/><path fill="#030304" fill-opacity="0.98039216" d="M729.839 442.979L730.546 443.208C720.188 460.318 686.47 473.412 667.339 476.744C664.828 477.181 659.314 479.363 656.979 478.692C660.061 477.073 670.303 475.189 674.294 473.977C693.053 468.276 717.761 459.01 729.839 442.979Z"/><path fill="#030304" fill-opacity="0.98823529" d="M729.661 426.032C723.074 437.381 717.183 442.261 705.427 448.744C702.022 450.627 698.472 452.233 694.811 453.55C691.317 454.81 667.691 461.405 665.297 460.72L665.518 460.16C680.294 458.347 710.535 446.682 721.273 436.145C724.53 432.95 726.206 428.847 728.788 425.917L729.661 426.032Z"/><path fill="#030304" fill-opacity="0.96470588" d="M530.143 356.925C543.916 371.978 552.965 380.274 571.612 389.63C575.256 391.458 586.042 395.522 588.549 397.255C586.982 397.25 584.357 396.067 582.684 395.495C561.245 388.159 543.19 375.629 529.473 357.483L530.143 356.925Z"/><path fill="#030304" fill-opacity="0.98823529" d="M299.072 546.816C310.405 556.394 320.069 561.478 334.088 566.873C340.328 569.274 347.938 571.077 353.291 574.75C332.681 568.298 313.704 563.137 298.227 547.337L299.072 546.816Z"/><path fill="#030304" fill-opacity="0.98431373" d="M671.918 444.926C686.741 441.844 706.035 434.437 717.586 424.466C720.522 421.932 724.927 415.376 727.943 413.858L727.932 414.386C724.881 417.709 722.534 421.218 719.223 424.266C704.991 437.369 690.956 441.948 672.626 445.722L671.918 444.926Z"/><path fill="#030304" fill-opacity="0.98431373" d="M295.766 553.992C300.656 558.097 306.509 563.161 312.171 566.107C321.468 570.945 331.151 575.152 341.047 578.609C342.781 579.215 345.069 579.814 346.337 581.004C333.673 579.073 301.732 565.396 295.766 553.992Z"/><path fill="#030304" fill-opacity="0.96470588" d="M586.986 663.494C596.096 657.474 605.055 651.229 613.855 644.765C619.017 641.017 631.675 631.505 636.569 629.462C624.068 639.717 601.101 655.66 587.345 664.922L586.986 663.494Z"/><path fill="#030304" fill-opacity="0.98823529" d="M291.975 545.759C293.727 546.971 295.09 547.737 297.329 547.546C296.833 549.722 296.369 551.841 295.766 553.992C294.804 556.721 293.784 561.616 292.796 563.558L289.997 561.881C291.171 556.833 291.512 550.972 291.975 545.759Z"/><path fill="#030304" fill-opacity="0.96470588" d="M424.083 740.678C434.212 731.943 445.071 724.085 455.282 715.448C457.119 713.893 458.982 712.416 461.038 711.157C460.036 714.051 428.135 739.421 424.888 741.159L424.083 740.678Z"/><path fill="#030304" fill-opacity="0.98823529" d="M499.706 609.807C493.202 611.236 485.281 614.315 478.36 616.048C468.149 618.605 462.204 618.574 452.215 619.495L451.833 618.987C451.961 618.917 464.584 617.34 465.083 617.386C472.012 618.025 495.297 608.073 499.977 608.777L499.706 609.807Z"/><path fill="#030304" d="M504.485 627.274C509.969 621.785 515.387 615.761 520.671 610.043L521.23 611.767C515.844 618.047 511.071 624.704 505.681 630.919C504.376 629.727 504.785 629.594 504.485 627.274Z"/><path fill="#030304" d="M483.304 625.619C471.058 630.522 458.202 633.731 445.089 635.158C443.64 635.306 442.992 635.543 442.124 634.821C446.381 633.511 454.502 632.583 459.487 631.524C468.294 629.653 473.79 627.659 482.05 624.481L483.304 625.619Z"/><path fill="#39393C" fill-opacity="0.92941177" d="M601.541 659.741C608.89 654.366 617.349 648.873 624.929 643.69C630.953 639.571 639.859 633.305 646.143 630.04C643.186 632.868 635.701 637.669 632.005 640.137L612.483 653.364C610.743 654.559 604.911 658.454 603.735 659.643L601.541 659.741Z"/><path fill="#181516" fill-opacity="0.95686275" d="M906.772 577.605C920.967 567.308 926.765 559.956 929.821 541.99C930.281 539.281 929.073 535.324 929.683 534.547C932.138 539.259 929.222 549.014 927.912 554.108C925.518 563.417 915.185 573.371 907.07 578.161L906.772 577.605Z"/><path fill="#030304" fill-opacity="0.98431373" d="M524.256 305.273C511.565 299.161 499.485 303.152 487.422 308.769L487.113 308.367C488.426 305.951 493.961 304.596 496.588 303.765C505.048 301.086 517.165 299.125 525.045 304.217L524.256 305.273Z"/><path fill="#181516" fill-opacity="0.97647059" d="M454.312 657.655C447.826 660.558 423.621 669.668 417.306 669.178L417.431 668.746C421.165 667.276 428.126 666.152 432.621 664.669C439.87 662.278 446.768 658.869 453.925 656.767L454.312 657.655Z"/><path fill="#39393C" fill-opacity="0.97647059" d="M474.808 635.625C473.681 635.748 470.102 637.143 468.789 637.586C462.218 639.798 450.819 643.545 443.983 642.478C455.205 640.61 464.966 638.313 475.438 633.68L474.808 635.625Z"/><path fill="#030304" fill-opacity="0.96862745" d="M486.86 597.39C488.149 597.056 495.834 595.978 497.752 595.683C503.75 594.758 511.461 592.617 517.22 592.142L516.883 593.474C507.222 594.257 498.582 597.568 487.318 598.345L486.86 597.39Z"/><path fill="#030304" fill-opacity="0.96078432" d="M834.937 589.709C837.695 583.201 840.065 578.587 831.82 575.247C829.168 574.173 823.37 572.887 821.254 571.599C823.829 570.717 829.468 572.796 831.983 573.818C840.512 577.284 839.994 584.62 835.05 591.389L834.937 589.709Z"/><path fill="#39393C" fill-opacity="0.88627452" d="M866.764 579.908C874.751 570.02 879.982 562.177 875.154 549.189L875.266 548.534C876.609 549.379 877.059 551.698 877.486 553.205C880.114 562.467 873.931 574.509 866.97 580.678L866.764 579.908Z"/><path fill="#030304" fill-opacity="0.98431373" d="M400.295 274.073C401.815 271.119 407.022 269.27 410.091 270.861L410.488 271.84C409.478 273.13 409.315 273.134 407.977 274.002L400.295 274.073Z"/><path fill="#030304" fill-opacity="0.97647059" d="M369.087 297.687C376.673 292.218 384.664 291.09 393.294 294.482L393.095 295.13C379.633 292.785 382.019 293.148 369.251 298.154L369.087 297.687Z"/><path fill="#030304" fill-opacity="0.97647059" d="M373.628 292.848C379.254 288.849 391.185 283.718 398.1 285.587L397.993 286.09C387.725 287.426 382.199 288.036 373.6 293.676L373.628 292.848Z"/><path fill="#030304" fill-opacity="0.97647059" d="M819.38 591.98C816.395 584.04 810.664 583.216 803.283 580.75L803.138 580.244C811.509 583.322 816.526 580.903 820.49 591.451L819.38 591.98Z"/><path fill="#030304" d="M554.44 268.758C558.133 270.346 560.227 271.316 563.062 274.332L561.917 276.061L561.334 275.876L561.268 275.419C559.559 272.759 554.465 271.179 551.409 269.925C552.235 269.504 553.533 269.088 554.44 268.758Z"/><path fill="#181516" fill-opacity="0.95686275" d="M595.035 262.787C598.351 266.855 608.899 270.982 614.219 270.466L614.088 271.057C610.536 273.165 596.51 267.117 594.36 263.27L595.035 262.787Z"/><path fill="#C4BECC" fill-opacity="0.96470588" d="M467.472 597.151C472.563 596.867 481.224 597.363 486.86 597.39L487.318 598.345C480.044 598.645 474.399 599.27 467.472 597.151Z"/><path fill="#030304" fill-opacity="0.96078432" d="M520.671 610.043C522.692 607.862 524.514 605.616 526.99 604.021L526.88 604.544L526.559 604.362L526.697 604.853L526.215 604.668L526.286 605.483C524.542 607.847 523.149 609.547 521.23 611.767L520.671 610.043Z"/><path fill="#030304" fill-opacity="0.96078432" d="M302.841 407.9C299.797 408 295.01 408.257 292.137 407.549C293.557 406.913 295.518 406.84 297.122 406.675C298.724 407.503 300.162 407.292 302.002 407.291L302.841 407.9Z"/><path fill="#030304" fill-opacity="0.94901961" d="M398.377 571.247C400.118 571.409 402.197 571.448 403.721 572.173C401.182 572.662 397.62 572.462 395.02 572.244C396.773 571.982 396.82 571.913 398.377 571.247Z"/><path fill="#F9F6F8" fill-opacity="0.66274512" d="M672.626 445.722C670.491 446.211 668.514 446.977 666.449 446.646C667.818 445.555 670.04 445.343 671.918 444.926L672.626 445.722Z"/></svg>