<?xml version="1.0" encoding="UTF-8"?>
<svg width="2050px" height="3058px" viewBox="0 0 2050 3058" version="1.1" xmlns="http://www.w3.org/2000/svg" xmlns:xlink="http://www.w3.org/1999/xlink">
    <title>wave-border</title>
    <g id="home" stroke="none" stroke-width="1" fill="none" fill-rule="evenodd">
        <g id="wave-border" fill="#CF042A" transform="translate(-50.3558, -86.2373)">
            <g id="Wave" transform="translate(1049.0515, 1443.6957) scale(-1, -1) rotate(90) translate(-1049.0515, -1443.6957)translate(-382, 345)" fill-rule="nonzero">
                <path d="M1315.66567,1896.11399 C1351.52063,1937.57679 1608.3137,2138.50063 1765.26034,1948.43539 C1807.78056,1896.94263 1855.18001,1962.96588 1901.85537,2004.00311 C1987.34398,2079.16516 2133.68257,2097.04381 2228.50401,2030.91555 C2323.32544,1964.78729 2317.59954,1895.46082 2368.24865,1937.32184 C2457.71952,2011.2687 2496.81178,1974.96926 2545.85096,1827.6987 C2594.89013,1680.42814 2686.83614,1818.27008 2724.04403,1827.6987 C2754.92248,1835.52341 2584.67913,1617.9423 2627.50999,1408.905 C2656.32567,1268.26919 2769.90032,285.728299 2816.70358,477.879661 C2873.12301,709.510339 2861.00999,2140.66926 2861.00999,2140.66926 L-145.490014,2181.905 C-145.490014,2181.905 -479.360982,492.291185 709.074502,189.543749 C1897.50999,-113.203687 1228.55755,167.690087 1224.50999,189.543749 C1221.19904,207.420232 1437.50999,652.405004 1354.50999,779.905004 C1187.9704,1035.73389 1248.34522,1278.43903 1339.5009,1418.405 C1421.84794,1544.84565 1279.81071,1854.65119 1315.66567,1896.11399 Z" id="Path" transform="translate(1336.7029, 1115.9525) scale(-1, 1) rotate(-180) translate(-1336.7029, -1115.9525)"></path>
            </g>
            <g id="Wave" transform="translate(1270.1947, 1333.1558) scale(1, -1) rotate(90) translate(-1270.1947, -1333.1558)translate(-62.7238, 480.3169)" fill-rule="nonzero">
                <path d="M1568.99426,1486.14098 C1611.51447,1434.64822 1658.91393,1500.67148 1705.58928,1541.7087 C1791.0779,1616.87076 1937.41649,1634.7494 2032.23792,1568.62114 C2127.05936,1502.49289 2121.33346,1433.16642 2171.98256,1475.02744 C2261.45344,1548.97429 2300.5457,1512.67485 2349.58487,1365.40429 C2398.62405,1218.13374 2490.57006,1355.97568 2527.77795,1365.40429 C2558.65639,1373.229 2388.41304,1155.6479 2431.2439,946.610598 C2460.05959,805.974783 2573.63423,-176.566106 2620.43749,15.5852555 C2676.85693,247.215934 2664.7439,1678.37486 2664.7439,1678.37486 L-477.239628,1705.67771 C-477.239628,1705.67771 -291.110471,958.146981 -35.2945999,766.272706 C100.075359,664.73869 277.46942,1038.13776 407.836997,1061.0537 C606.950093,1096.0537 783.950093,1220.11142 816.836997,1243.36916 C849.723902,1266.6269 1412.04761,1676.20622 1568.99426,1486.14098 Z" id="Path" transform="translate(1094.2987, 848.2252) scale(-1, 1) rotate(-180) translate(-1094.2987, -848.2252)"></path>
            </g>
        </g>
    </g>
</svg>