<?xml version="1.0" encoding="utf-8" ?>
<svg xmlns="http://www.w3.org/2000/svg" xmlns:xlink="http://www.w3.org/1999/xlink" width="512" height="512">
	<path fill="#F30303" transform="scale(0.666667 0.666667)" d="M0 0.1875C1.70241 -0.185587 3.61693 -0.00979729 5.35479 -0.0090068C8.44963 -0.00759905 11.5445 -0.00845752 14.6393 -0.00881649C26.6055 -0.0102045 38.5716 -0.00977825 50.5378 -0.00976663C98.2915 -0.00972023 146.045 -0.00952629 193.799 -0.0102393C385.199 -0.0130972 576.6 -0.00755292 768 0L768 767.812C766.298 768.186 764.383 768.01 762.645 768.009C759.55 768.008 756.456 768.008 753.361 768.009C741.395 768.01 729.428 768.01 717.462 768.01C669.708 768.01 621.955 768.01 574.201 768.01C382.801 768.013 191.4 768.008 -0 768L0 0.1875Z"/>
	<path fill="#FE3632" transform="scale(0.666667 0.666667)" d="M316.587 157.044L319.875 156.736L320.313 157.125L319.864 164.286C319.592 163.91 319.096 162.988 318.752 162.748C318.344 162.464 317.936 162.81 317.625 162.188C317.232 161.402 317.754 161.373 316.969 160.594C316.878 161.247 316.873 161.79 316.961 162.439L317.059 163.125L316.688 163.6C316.436 161.45 316.576 159.208 316.587 157.044Z"/>
	<path transform="scale(0.666667 0.666667)" d="M316.587 157.044L315.895 152.614L311.222 152.567L311.319 133.373L319.475 133.209C319.457 130.407 318.903 126.34 319.84 123.733C320.961 123.087 322.37 123.292 323.625 123.323L324.025 122.812C322.77 121.433 321.979 121.047 321.974 119.062L322.627 117.883C324.254 117.836 326.486 120.044 327.881 121.012C327.198 118.952 325.348 114.575 326.314 112.544C326.654 111.828 328.033 111.069 328.688 110.618C328.858 109.709 328.831 109.037 328.744 108.113C328.634 106.963 328.73 106.342 329.118 105.266C330.761 103.903 333.717 103.795 335.812 103.923C337.285 104.013 338.418 104.706 339.597 105.526C340.524 107.168 340.45 109.461 340.477 111.301C340.528 114.72 340.543 118.139 340.572 121.558C340.582 122.652 340.35 124.599 340.815 125.566C341.165 126.294 343.108 127.69 343.771 128.299C344.762 129.208 345.759 130.366 347.062 130.779C347.465 131.752 347.762 132.727 348.562 133.45C350.101 133.521 352.585 133.298 353.938 133.945L354.37 139.49L361.367 139.37L362.459 132.871L366.882 132.08C366.725 129.999 366.475 128.001 366.938 125.943C367.747 125.286 368.495 125.46 368.727 124.509C368.87 123.922 369.03 123.507 369.375 123.002L370.035 123.188L370.688 124.477C371.434 124.196 371.75 123.969 372.077 123.188L372.356 122.007C372.756 120.337 374.026 118.769 374.313 117.188C374.955 113.648 374.477 108.987 374.448 105.333C371.177 105.305 367.369 105.653 364.211 104.812C363.507 103.96 363.29 103.789 363.406 102.609C363.726 99.3672 367.164 94.8628 368.906 92.1657C371.796 87.6901 374.667 83.2016 377.572 78.7356C379.249 76.156 381.668 71.6079 384.109 69.8188L384.562 69.5037C386.269 69.8311 387.9 72.4512 388.824 73.8156C393.111 80.1474 397.445 86.5443 401.384 93.0981C403.489 96.5988 406.121 100.203 406.196 104.438C404.712 105.767 396.848 105.314 394.572 105.255C394.623 110.161 394.302 115.485 395.516 120.265L396.172 120.53C397.543 121.091 399.103 121.535 399.722 123C400.35 124.49 400.059 127.097 401.25 127.924L404.496 128.108L408.841 139.431C410.865 139.465 415.441 140.118 417.148 139.363C417.431 137.13 417.29 135.019 419.179 133.515C419.883 132.955 420.82 133.516 421.826 132.75L421.639 132.164L421.142 130.312C422.03 129.345 422.93 129.274 424.156 129.044C425.421 127.588 428.263 125.042 428.949 123.401C429.107 123.02 428.957 121.601 428.959 121.149C428.977 118.112 428.707 114.714 429.154 111.72C429.196 111.438 429.297 110.296 429.46 110.062C429.725 109.683 430.143 109.438 430.484 109.125C430.369 108.266 429.902 106.084 430.561 105.41C432.193 103.739 436.446 103.874 438.618 103.976C439.367 104.892 440.255 105.862 440.718 106.962C442.188 110.46 441.361 117.485 441.349 121.425C442.015 119.744 442.598 117.595 443.812 116.245C445.068 116.269 445.081 116.385 446.063 117.198C446.634 118.8 445.611 121.229 446.625 122.244L449.438 122.6C451 124.644 450.404 130.241 450.417 132.89C453.616 132.873 456.762 132.797 459.919 133.408C460.717 139.464 460.507 145.729 460.287 151.824L455.109 151.827L454.875 156.486C454.753 158.512 455.619 160.381 456.938 161.881L457.29 162.296L457.528 162.562C457.25 164.239 454.643 169.037 453.216 169.912L452.812 170.089L452.396 169.5C452.574 168.946 452.723 168.109 453.016 167.625C451.737 166.434 450.967 165.854 450.927 163.997L450.938 163.413L449.871 162.339C449.896 163.98 450.304 167.081 449.86 168.571C449.327 170.363 446.525 172.35 445.606 174.19C444.918 175.566 444.854 177.658 444.656 179.181C450.09 179.194 455.523 179.21 460.956 179.235C464.421 179.251 467.941 179.101 471.378 179.567L471.389 186.765L483.367 186.547L483.303 198.416L504.828 197.863L504.378 211.526L520.102 211.568L519.751 227.145L539.406 227.214L539.51 241.1L552.803 241.057L552.666 259.09C554.991 259.033 557.316 258.977 559.64 258.926C560.63 258.904 562.009 258.659 562.906 259.084L562.794 300.12L589.525 300.404L589.484 310.497L605.63 310.308L605.648 322.369L619.064 322.007L619.437 367.164L605.998 367.368L605.985 376.546L593.489 376.574C592.54 379.226 594.02 383.092 592.898 385.585L563.528 385.552C562.877 387.392 563.199 390.351 563.148 392.327C562.983 398.726 562.921 405.127 562.851 411.528L552.234 411.639C552.27 415.789 553.314 428.264 551.269 431.265C549.417 432.4 546.237 432.139 544.081 432.128L541.059 439.452C538.433 439.79 535.928 439.847 533.283 439.785C533.226 442.315 533.729 445.93 531.775 447.776C529.274 450.139 523.591 449.357 520.26 449.475C520.161 451.465 520.332 454.243 519.682 456.083L505.538 455.675L505.682 464.471C504.786 464.891 503.479 464.708 502.492 464.719C500.233 464.742 497.975 464.761 495.716 464.78L495.791 482.328L511.83 482.217L511.761 499.511L527.283 499.2L527.218 518.504L539.224 517.89L539.243 555.767L528.419 555.862L528.49 571.629L501.395 571.817L501.447 611.211L492.402 611.261L492.381 619.034L480.656 619.052L480.763 635.529L463.157 635.298L463.318 651.784L416.541 652.465L416.071 648.013L352.879 648.198L352.82 652.676L306.41 651.842C306.415 648.123 306.419 644.403 306.419 640.683C306.419 639.11 306.67 637.031 306.219 635.542L290.037 635.461C290.149 630.171 290.619 624.397 289.9 619.16L278.294 619.105L278.639 611.299L267.548 611.123L267.415 571.445L242.156 571.191L242.217 555.653L232.194 555.614L232.309 519.052L242.659 519.32L242.532 499.489L258.374 499.521L258.147 481.405L272.679 481.482L272.788 464.271L263.612 464.42L263.69 456.264L249.597 456.936L249.762 449.267L235.934 449.218L235.525 439.661C232.34 439.566 229.091 439.618 225.977 438.876L225.393 431.149L216.663 429.67L216.702 411.681L206.187 411.768L206.179 385.886L176.998 385.454L176.706 376.263L165.856 376.194L165.858 367.113C161.432 367.075 156.692 367.351 152.324 366.712L152.611 322.203C155.614 322.209 158.618 322.213 161.621 322.214C162.685 322.214 164.173 322.448 165.111 322.005L165.347 310.167L179.924 310.13C180.321 309.355 180.134 307.982 180.131 307.088C180.124 304.743 180.062 302.397 180.248 300.058L207.469 299.944L207.847 257.969L218.399 257.944L218.163 240.779L231.837 240.745L232.155 226.789L249.541 226.496L249.618 211.44L263.733 211.481L263.967 198.461L283.251 198.406L283.24 187.857C287.788 187.906 292.94 187.487 297.407 188.15L297.41 180.117L324.98 180.005L324.756 172.848L320.025 171.757L319.864 164.286L320.313 157.125L319.875 156.736L316.587 157.044Z"/>
	<path fill="#FAEB4B" transform="scale(0.666667 0.666667)" d="M330.968 166.172C331.365 167.788 331.582 168.465 333.044 169.432C331.59 170.477 330.099 170.906 328.312 170.539C327.338 170.338 326.605 169.899 326.225 168.938C325.88 168.066 325.882 167.013 326.378 166.268C327.92 166.542 329.062 166.664 330.598 166.273L330.968 166.172Z"/>
	<path fill="#8D9C9C" transform="scale(0.666667 0.666667)" d="M167.508 351.558C170.792 351.314 176.715 350.583 179.836 351.691C178.309 351.668 176.381 351.412 174.938 351.919L174.754 355.675L167.5 355.688L167.508 351.558Z"/>
	<path fill="#FE3632" transform="scale(0.666667 0.666667)" d="M449.871 162.339C449.536 160.678 449.623 158.999 449.634 157.312L450.188 156.729C451.499 156.801 452.748 156.762 453.938 157.388C454.99 158.627 454.845 162.246 454.714 163.921C454.604 165.343 453.825 166.502 453.016 167.625C451.737 166.434 450.967 165.854 450.927 163.997L450.938 163.413L449.871 162.339Z"/>
	<defs>
		<linearGradient id="gradient_0" gradientUnits="userSpaceOnUse" x1="478.68799" y1="524.43799" x2="479.961" y2="531.646">
			<stop offset="0" stop-color="#5B605F"/>
			<stop offset="1" stop-color="#787C7A"/>
		</linearGradient>
	</defs>
	<path fill="url(#gradient_0)" transform="scale(0.666667 0.666667)" d="M477.423 522.756C478.661 522.796 480.406 522.615 481.516 523.132C482 524.763 481.871 526.529 481.88 528.218C481.808 529.901 481.953 531.963 481.471 533.569L481.116 534.673L479.321 535.322L479.136 536.181C478.729 536.267 478.149 536.116 477.733 536.062C477.167 533.314 477.564 530.076 477.619 527.269C477.631 526.641 477.46 524.971 477.677 524.438C477.848 524.016 478.178 523.678 478.428 523.298L477.423 522.756Z"/>
	<path transform="scale(0.666667 0.666667)" d="M481.516 523.132C482 524.763 481.871 526.529 481.88 528.218C481.808 529.901 481.953 531.963 481.471 533.569L481.077 533.355C478.88 531.673 480.578 526.349 479.844 523.8L479.691 523.312L481.516 523.132Z"/>
	<path fill="#C7CFCE" transform="scale(0.666667 0.666667)" d="M603.378 326.969C604.31 329.062 603.781 333.356 603.783 335.751C603.787 342.55 603.773 349.349 603.756 356.149L594.65 355.821L594.323 351.289C596.795 350.239 600.718 350.635 603.404 350.608L603.378 336.07L603.378 326.969Z"/>
	<path fill="#8D9C9C" transform="scale(0.666667 0.666667)" d="M297.371 607.087L297.583 607.514C298.117 608.995 297.773 611.254 297.722 612.837L307.572 612.678C307.778 614.977 307.848 617.074 307.489 619.374L296.437 619.266C296.365 618.177 296.271 617.099 296.63 616.051C297.643 613.094 297.417 610.177 297.371 607.087Z"/>
	<path fill="#7E8788" transform="scale(0.666667 0.666667)" d="M307.504 623.668C307.753 623.883 307.947 624.185 308.25 624.313C308.649 624.483 310.101 624.343 310.574 624.351C313.496 624.397 316.46 624.552 319.379 624.468L319.479 630.781L307.527 630.579L307.504 623.668Z"/>
	<path fill="#7E8788" transform="scale(0.666667 0.666667)" d="M416.034 623.197L422.909 623.224C422.836 625.234 423.094 628.173 422.417 630.016L411.267 629.954L411.332 623.655C412.913 623.409 414.433 623.217 416.034 623.197Z"/>
	<path fill="#7E8788" transform="scale(0.666667 0.666667)" d="M460.946 624.23L461.033 630.729C457.644 630.726 451.992 630.054 448.895 631.102L448.637 630.658C448.422 628.547 448.536 626.448 448.605 624.332L460.946 624.23Z"/>
	<path fill="#F1F1F0" transform="scale(0.666667 0.666667)" d="M411.332 623.655L411.363 614.53L422.63 614.482C423.053 616.984 422.624 619.431 423.765 621.779C422.877 622.119 422.281 622.397 421.312 622.316L420.75 622.691C419.202 622.765 417.512 622.702 416.034 623.197C414.433 623.217 412.913 623.409 411.332 623.655Z"/>
	<path fill="#8D9C9C" transform="scale(0.666667 0.666667)" d="M464.635 491.415L464.952 490.957C465.408 490.223 465.521 489.626 465.726 488.812L466.037 487.618L471.05 487.412C471.959 489.646 471.204 493.719 471.41 496.234C471.327 499.288 470.913 502.459 471.115 505.496C471.825 505.771 472.139 505.774 472.885 505.803C473.663 505.833 474.246 505.863 474.973 506.171C472.067 506.195 467.934 506.664 465.188 505.739C465.057 504.639 464.954 503.733 465.188 502.631C465.961 503.079 465.941 503.087 466.252 503.93C466.437 502.913 466.571 502.273 466.312 501.248L465.188 501.638C464.071 500.098 464.612 493.466 464.635 491.415Z"/>
	<path fill="#FAEB4B" transform="scale(0.666667 0.666667)" d="M333.025 185.956C333.281 185.941 333.538 185.981 333.793 186C334.159 186.579 333.926 186.304 334.626 186.841L335.25 187.316L335.719 187.781L336.188 187.5L336.191 186.562C335.774 186.7 335.494 186.619 335.066 186.562C335.066 185.261 335.655 184.448 336.258 183.329C336.475 184.646 336.431 185.233 337.312 186.264C338.912 186.659 340.012 186.634 341.625 186.321C341.906 185.855 342.099 185.504 342.273 184.982L342.563 185.901C344.098 186.329 345.025 186.487 346.597 186.169C349.705 186.579 353.07 186.34 356.209 186.331C360.213 186.319 364.299 186.536 368.239 185.731C368.871 186.617 369.529 187.602 370.688 187.776C373.151 188.145 375.947 188.028 378.2 186.938L379.182 185.638L379.947 185.972C379.662 186.75 379.355 187.356 378.934 188.062C378.678 188.492 378.521 188.82 378.379 189.299C369.1 189.262 359.822 189.245 350.543 189.167C345.878 189.127 339.678 189.899 335.333 188.358C334.087 187.916 333.538 187.115 333.025 185.956Z"/>
	<path fill="#C7CFCE" transform="scale(0.666667 0.666667)" d="M471.698 483.866L471.754 496.143L471.41 496.234C471.204 493.719 471.959 489.646 471.05 487.412L466.037 487.618L465.726 488.812C465.521 489.626 465.408 490.223 464.952 490.957L464.635 491.415L451.286 491.531L451.416 484.252L471.205 483.906L471.698 483.866Z"/>
	<path fill="#ABB7B6" transform="scale(0.666667 0.666667)" d="M449.309 507.065L458.47 507.102L458.511 521.298C460.917 521.308 465.04 520.774 467.178 521.686L458.393 521.68L450.014 522.039C450.221 518.607 450.063 515.078 450.013 511.638C449.992 510.153 450.194 508.316 449.309 507.065Z"/>
	<path fill="#ABB7B6" transform="scale(0.666667 0.666667)" d="M307.572 612.678L319.262 612.658L319.537 620.749L319.379 624.468C316.46 624.552 313.496 624.397 310.574 624.351C310.101 624.343 308.649 624.483 308.25 624.313C307.947 624.185 307.753 623.883 307.504 623.668L307.489 619.374C307.848 617.074 307.778 614.977 307.572 612.678Z"/>
	<path fill="#FBE371" transform="scale(0.666667 0.666667)" d="M379.947 185.972C383.619 185.973 387.295 185.992 390.967 185.937C392.151 185.919 393.309 185.619 394.484 185.65C400.283 185.803 405.962 186.318 411.784 186.308C412.252 186.307 414.217 186.481 414.562 186.299C414.776 186.186 415.585 185.331 415.688 185.324C415.934 185.307 416.095 185.603 416.306 185.73C417.947 186.708 421.532 186.384 423.501 186.424L423.134 189.078L378.379 189.299C378.521 188.82 378.678 188.492 378.934 188.062C379.355 187.356 379.662 186.75 379.947 185.972Z"/>
	<path fill="#F30303" transform="scale(0.666667 0.666667)" d="M403.549 601.933L404.169 601.756C404.49 602.134 405.46 603.029 405.597 603.439C406.127 605.033 405.694 609.326 405.492 611.062C404.641 618.396 404.673 625.361 404.663 632.738L365.094 633.056L365.296 625.76C365.378 626.804 365.383 627.84 365.812 628.812L403.527 628.863C403.781 623.104 403.701 617.377 403.75 611.617C403.775 608.588 404.253 604.871 403.549 601.933Z"/>
	<path fill="#FCF915" transform="scale(0.666667 0.666667)" d="M377.952 89.0625C379.171 88.6645 380.69 88.8517 381.963 88.8514C384.549 88.8508 387.134 88.8581 389.72 88.8672C389.736 94.062 390.404 100.133 389.456 105.188C387.295 105.636 384.375 105.328 382.141 105.279C380.557 105.245 379.312 105.354 378.188 104.182C377.199 99.6764 377.81 93.716 377.952 89.0625Z"/>
	<path transform="scale(0.666667 0.666667)" d="M382.624 92.0625C383.733 91.7755 385.095 91.9146 386.25 91.919L386.759 92.4375C386.721 94.0892 386.852 95.7878 386.146 97.3125C385.851 97.4925 385.754 97.5764 385.374 97.6653C384.335 97.9086 383.519 97.8122 382.624 97.3125L382.624 92.0625Z"/>
	<path fill="#8D9C9C" transform="scale(0.666667 0.666667)" d="M448.637 630.658L448.895 631.102L448.908 639.206L422.535 639.004C422.534 636.725 422.245 634.002 422.646 631.784L448.125 631.415L448.637 630.658Z"/>
	<path fill="#8D9C9C" transform="scale(0.666667 0.666667)" d="M178.408 357.134L179.062 358.522L208.152 357.932L208.07 365.34L178.554 365.34L178.408 357.134Z"/>
	<path fill="#ABB7B6" transform="scale(0.666667 0.666667)" d="M473.352 613.46C474.448 615.594 474.391 617.934 474.521 620.274L461.438 620.327C460.653 621.39 460.944 622.915 460.946 624.23L448.605 624.332L449.079 613.45L473.352 613.46Z"/>
	<path fill="#8D9C9C" transform="scale(0.666667 0.666667)" d="M347.684 630.043L347.986 629.902C348.43 632.907 348.317 635.964 348.301 638.994L319.811 638.753L319.479 630.781C322.744 631.37 326.394 631.066 329.709 631.067C335.479 631.069 341.295 631.227 347.052 630.802L347.684 630.043Z"/>
	<path fill="#8D9C9C" transform="scale(0.666667 0.666667)" d="M221.981 384.317L211.491 384.178L211.465 362.529L222.317 362.539L222.063 381.934L221.981 384.317Z"/>
	<path fill="#ABB7B6" transform="scale(0.666667 0.666667)" d="M547.496 362.644L558.244 362.681L558.34 385.013L547.725 384.942L547.855 382.588C548.581 376.451 548.504 368.72 547.496 362.644Z"/>
	<path fill="#8D9C9C" transform="scale(0.666667 0.666667)" d="M561.357 352.098L561.56 352.521C562.081 353.992 561.799 356.149 561.778 357.717L591.938 357.69C592.664 356.871 592.419 355.211 592.439 354.096C593.041 355.202 592.804 356.433 592.799 357.683C592.787 360.553 592.775 363.423 592.763 366.293L561.445 365.404L561.357 352.098Z"/>
	<path fill="#C2CDCA" transform="scale(0.666667 0.666667)" d="M458.393 521.68L467.178 521.686C467.692 525.797 467.4 530.186 467.394 534.334C467.383 541.845 467.365 549.356 467.344 556.868L450.743 556.898C452.017 555.952 456.593 556.433 458.323 556.441L458.393 521.68Z"/>
	<defs>
		<linearGradient id="gradient_1" gradientUnits="userSpaceOnUse" x1="292.68799" y1="505.31201" x2="308.18201" y2="479.94901">
			<stop offset="0" stop-color="#909F9F"/>
			<stop offset="1" stop-color="#BCC3C1"/>
		</linearGradient>
	</defs>
	<path fill="url(#gradient_1)" transform="scale(0.666667 0.666667)" d="M295.97 483.752L317.002 483.902L316.784 491.564L304.96 491.594L304.913 506.232L292.024 506.199C292.042 508.993 292.751 521.509 291.7 523.125C291.67 517.782 291.133 511.902 291.725 506.624C292.077 503.489 291.883 500.137 291.901 496.974C293.042 496.968 294.398 497.078 295.466 496.67L295.88 496.459C296.276 495 296.078 493.339 296.062 491.821C296.034 489.131 296.003 486.442 295.97 483.752Z"/>
	<path fill="#C2CDCA" transform="scale(0.666667 0.666667)" d="M310.636 520.886L312.469 521.439L312.78 520.511L313.568 520.449L313.778 520.758C313.595 521.047 313.322 521.296 313.229 521.625C312.787 523.184 313.436 527.077 313.458 528.819C313.537 535.034 313.504 541.255 313.519 547.471C313.525 550.184 313.195 553.293 313.707 555.932L313.796 556.261L303.735 556.348L303.511 520.643L310.636 520.886Z"/>
	<path fill="#ABB7B6" transform="scale(0.666667 0.666667)" d="M482.564 536.323L492.517 535.215L493.121 536.438L496.696 536.671C495.555 536.786 494.346 536.815 493.257 537.188C492.829 539.818 493.113 542.797 493.14 545.473L518.072 547.968C518.133 546.741 518.057 545.319 518.296 544.125C519.065 547.778 518.563 552.211 518.536 555.964C506.505 554.751 494.743 552.477 482.63 552.289L482.564 536.323Z"/>
	<path fill="#DDE3E0" transform="scale(0.666667 0.666667)" d="M259.561 501.071L259.638 522.746C264.447 523.244 270.108 523.462 274.89 522.767L274.905 523.042L274.839 534.913C270.987 534.869 266.897 534.582 263.074 535.003L260.438 535.055L260.198 535.688C260.961 536.403 261.673 536.523 262.654 536.744L262.35 536.854C259.317 537.889 255.006 538.462 251.787 538.712L251.833 539.014C252.22 541.795 252.099 544.76 252.061 547.569L251.613 547.383L251.564 540.67L245.544 540.797L245.506 521.948L259.202 522.014C259.35 517.456 259.254 512.881 259.25 508.321C259.248 506.025 258.951 503.28 259.561 501.071Z"/>
	<path fill="#C2CDCA" transform="scale(0.666667 0.666667)" d="M283.519 514.55L284.134 496.563L295.88 496.459L295.466 496.67C294.398 497.078 293.042 496.968 291.901 496.974C291.883 500.137 292.077 503.489 291.725 506.624C291.133 511.902 291.67 517.782 291.7 523.125L290.998 523.251C290.178 523.394 289.403 523.405 288.576 523.443C288.078 523.466 288.266 523.428 287.822 523.688L288.215 524.267C288.706 525.005 288.545 524.69 288.812 525.359L289.125 524.062L289.688 524.059C289.55 524.476 289.596 524.82 289.611 525.254L290.144 524.592L291.562 524.796L291.784 535.125C290.823 535.727 289.764 535.419 288.649 535.356L288.537 535.106L263.074 535.003C266.897 534.582 270.987 534.869 274.839 534.913L274.905 523.042L274.89 522.767L274.973 514.552L283.519 514.55Z"/>
	<path fill="#0A0C0B" transform="scale(0.666667 0.666667)" d="M288.812 525.359L289.125 524.062L289.688 524.059C289.55 524.476 289.596 524.82 289.611 525.254L290.144 524.592L290.572 528.924C290.716 529.869 290.64 530.801 290.576 531.75C289.825 532.521 289.831 532.473 288.75 532.562C287.856 531.292 288.767 527.105 288.812 525.359Z"/>
	<path fill="#C7CFCE" transform="scale(0.666667 0.666667)" d="M274.89 522.767L274.973 514.552L283.519 514.55C283.509 516.209 283.994 521.612 283.26 522.778C280.594 522.82 277.508 522.571 274.905 523.042L274.89 522.767Z"/>
	<path fill="#C7CFCE" transform="scale(0.666667 0.666667)" d="M310.636 520.886L311.875 520.426L311.275 507.487L321.708 507.478L321.585 493.815L333.306 494.317L333.384 484.804L354.068 485.256L354.076 490.312C352.763 490.688 351.269 490.554 349.906 490.544L347.772 496.052L332.65 495.672L332.575 507.279L322.618 507.42L322.827 520.836C319.88 520.851 316.696 521.115 313.778 520.758L313.568 520.449L312.78 520.511L312.469 521.439L310.636 520.886Z"/>
	<path fill="#ABB7B6" transform="scale(0.666667 0.666667)" d="M263.074 535.003L288.537 535.106L288.649 535.356L287.72 535.875L287.608 551.636C284.193 551.534 280.594 551.233 277.194 551.547C274.297 551.814 271.425 552.515 268.551 552.963C263.008 553.826 257.214 554.584 251.608 554.755L251.613 547.383L252.061 547.569C252.099 544.76 252.22 541.795 251.833 539.014L251.787 538.712C255.006 538.462 259.317 537.889 262.35 536.854L262.654 536.744C261.673 536.523 260.961 536.403 260.198 535.688L260.438 535.055L263.074 535.003Z"/>
	<path fill="#F1F1F0" transform="scale(0.666667 0.666667)" d="M262.654 536.744L276.436 536.685C276.551 539.369 277.075 542.642 275.638 545.062C274.663 545.399 273.646 545.814 272.625 545.969C270.194 546.338 253.378 548.032 252.061 547.569C252.099 544.76 252.22 541.795 251.833 539.014L251.787 538.712C255.006 538.462 259.317 537.889 262.35 536.854L262.654 536.744Z"/>
	<path fill="#DDE3E0" transform="scale(0.666667 0.666667)" d="M167.64 326.955L167.756 327.603C168.166 330.069 167.991 332.867 168.035 335.378L196.459 336.072C196.491 338.774 196.033 347.985 197.029 349.928C200.243 350.056 206.547 349.416 208.883 351.722C207.748 353.05 208.174 356.129 208.152 357.932L179.062 358.522L178.408 357.134C178.452 356.237 178.462 355.482 178.773 354.629C179.577 354.497 180.2 354.346 180.938 353.998C181.252 353.051 181.433 352.868 181.121 351.938L179.836 351.691C176.715 350.583 170.792 351.314 167.508 351.558L167.64 326.955Z"/>
	<path fill="#DDE3E0" transform="scale(0.666667 0.666667)" d="M603.378 336.07L603.404 350.608C600.718 350.635 596.795 350.239 594.323 351.289L588.829 351.562C588.66 352.477 588.754 352.494 589.045 353.318C590.052 353.917 591.297 353.945 592.439 354.096C592.419 355.211 592.664 356.871 591.938 357.69L561.778 357.717C561.799 356.149 562.081 353.992 561.56 352.521L561.357 352.098L560.921 351.744C562.886 350.614 565.834 350.395 567.483 348.938C570.941 345.881 570.561 340.306 570.875 336.047L603.378 336.07Z"/>
	<path fill="#FCFCFC" transform="scale(0.666667 0.666667)" d="M259.561 501.071C260.977 500.605 262.684 500.801 264.176 500.79C267.112 500.77 270.048 500.759 272.985 500.751L272.981 483.734L295.97 483.752C296.003 486.442 296.034 489.131 296.062 491.821C296.078 493.339 296.276 495 295.88 496.459L284.134 496.563L283.519 514.55L274.973 514.552L274.89 522.767C270.108 523.462 264.447 523.244 259.638 522.746L259.561 501.071Z"/>
	<path fill="#FE3632" transform="scale(0.666667 0.666667)" d="M365.101 601.779L403.549 601.933C404.253 604.871 403.775 608.588 403.75 611.617C403.701 617.377 403.781 623.104 403.527 628.863L365.812 628.812C365.383 627.84 365.378 626.804 365.296 625.76L365.101 601.779Z"/>
	<path fill="#DDE3E0" transform="scale(0.666667 0.666667)" d="M423.765 621.779L440.116 621.615L440.773 605.927C442.625 605.176 445.117 605.473 447.119 605.006C448.557 604.67 449.832 603.907 451.123 603.217C455.256 601.008 457.643 600.709 462.359 600.725L462.472 588.381C467.099 588.455 471.384 587.764 475.925 587.26L487.657 586.668L487.684 605.062L487.125 605.523C486.612 605.307 486.071 605.281 485.873 604.718C485.24 602.921 486.303 602.286 484.312 601.202C482.544 600.238 479.306 599.974 477.33 600.444C476.735 600.586 476.604 601.191 476.313 601.688L476.354 602.929C477.564 603.928 480.724 605.266 480.891 606.75L480.747 609.188C480.092 609.676 480.22 609.787 479.338 609.672C478.001 609.498 476.918 608.692 475.875 607.893L473.812 607.818C472.954 609.22 473.223 611.794 473.352 613.46L449.079 613.45L448.605 624.332C448.536 626.448 448.422 628.547 448.637 630.658L448.125 631.415L422.646 631.784L422.417 630.016C423.094 628.173 422.836 625.234 422.909 623.224L416.034 623.197C417.512 622.702 419.202 622.765 420.75 622.691L421.312 622.316C422.281 622.397 422.877 622.119 423.765 621.779Z"/>
	<path fill="#FCFCFC" transform="scale(0.666667 0.666667)" d="M422.63 614.482C422.275 612.449 422.497 610.105 422.475 608.022C422.438 604.499 422.31 600.975 422.206 597.454L440.251 597.309L440.328 582.844L452.61 583.097C452.613 580.068 452.612 577.038 452.598 574.008C452.591 572.455 452.766 570.621 452.383 569.128L452.208 568.5L452.709 567.938L487.591 567.794L487.657 586.668L475.925 587.26C471.384 587.764 467.099 588.455 462.472 588.381L462.359 600.725C457.643 600.709 455.256 601.008 451.123 603.217C449.832 603.907 448.557 604.67 447.119 605.006C445.117 605.473 442.625 605.176 440.773 605.927L440.116 621.615L423.765 621.779C422.624 619.431 423.053 616.984 422.63 614.482Z"/>
	<path fill="#F1F1F0" transform="scale(0.666667 0.666667)" d="M471.698 483.866L496.271 483.449L496.391 500.589L510.682 500.628L510.727 521.881L524.835 521.706C524.733 526.889 524.705 532.067 524.707 537.25C524.708 538.966 525.109 541.899 524.438 543.368C523.475 543.585 522.696 543.251 521.878 542.75L520.312 541.582L517.5 541.587L516.938 542.169C517.529 542.829 518.013 543.266 518.296 544.125C518.057 545.319 518.133 546.741 518.072 547.968L493.14 545.473C493.113 542.797 492.829 539.818 493.257 537.188C494.346 536.815 495.555 536.786 496.696 536.671L493.121 536.438L492.517 535.215L482.564 536.323L479.136 536.181L479.321 535.322L481.116 534.673L481.471 533.569C481.953 531.963 481.808 529.901 481.88 528.218C481.871 526.529 482 524.763 481.516 523.132C480.406 522.615 478.661 522.796 477.423 522.756C476.592 519.046 477.031 514.462 476.991 510.628C476.977 509.319 477.237 507.47 476.572 506.347L474.973 506.171C474.246 505.863 473.663 505.833 472.885 505.803C472.139 505.774 471.825 505.771 471.115 505.496C470.913 502.459 471.327 499.288 471.41 496.234L471.754 496.143L471.698 483.866Z"/>
	<path fill="#C2CDCA" transform="scale(0.666667 0.666667)" d="M485.189 522.446C486.614 522.398 490.621 521.824 491.812 522.299C491.894 522.331 492.691 522.963 492.75 522.979C493.635 523.214 496.004 522.753 496.965 522.708C498.33 523.023 498.812 523.28 499.822 524.25C499.792 525.215 499.573 525.167 498.938 525.837L492.937 525.929C492.899 528.458 493.066 531.186 492.771 533.686C492.077 532.719 492.31 531.23 492.312 530.071C492.315 527.617 492.358 525.249 491.936 522.818L490.936 522.695L485.189 522.446Z"/>
	<path fill="#8D9C9C" transform="scale(0.666667 0.666667)" d="M493.446 534.727L510.188 534.674L510.632 535.125L510.334 536.243C509.027 536.824 507.401 536.66 505.984 536.678C502.887 536.718 499.793 536.734 496.696 536.671L493.121 536.438L492.517 535.215L493.446 534.727Z"/>
	<path fill="#C7CFCE" transform="scale(0.666667 0.666667)" d="M483.773 510.735C486.797 510.809 490.013 510.635 492.758 512.062C493.612 513.421 493.392 514.854 493.615 516.375C493.827 517.825 494.252 519.274 494.635 520.688L494.272 522C495.135 522.667 495.937 522.489 496.965 522.708C496.004 522.753 493.635 523.214 492.75 522.979C492.691 522.963 491.894 522.331 491.812 522.299C490.621 521.824 486.614 522.398 485.189 522.446L483.937 522.397L483.406 521.812L483.773 510.735Z"/>
	<path fill="#C7CFCE" transform="scale(0.666667 0.666667)" d="M490.936 522.695L491.936 522.818C492.358 525.249 492.315 527.617 492.312 530.071C492.31 531.23 492.077 532.719 492.771 533.686L493.446 534.727L492.517 535.215L482.564 536.323L479.136 536.181L479.321 535.322L481.116 534.673L481.471 533.569C481.953 531.963 481.808 529.901 481.88 528.218C482.395 526.836 482.341 525.113 482.444 523.644L490.302 523.594L490.936 522.695Z"/>
	<path fill="#ABB7B6" transform="scale(0.666667 0.666667)" d="M471.754 496.143L472.314 496.226C475.893 496.711 480.047 496.247 483.683 496.199L483.773 510.735L483.406 521.812L483.937 522.397L485.189 522.446L490.936 522.695L490.302 523.594L482.444 523.644C482.341 525.113 482.395 526.836 481.88 528.218C481.871 526.529 482 524.763 481.516 523.132C480.406 522.615 478.661 522.796 477.423 522.756C476.592 519.046 477.031 514.462 476.991 510.628C476.977 509.319 477.237 507.47 476.572 506.347L474.973 506.171C474.246 505.863 473.663 505.833 472.885 505.803C472.139 505.774 471.825 505.771 471.115 505.496C470.913 502.459 471.327 499.288 471.41 496.234L471.754 496.143Z"/>
	<defs>
		<linearGradient id="gradient_2" gradientUnits="userSpaceOnUse" x1="320.43799" y1="630.18799" x2="343.90601" y2="581.65601">
			<stop offset="0" stop-color="#CAD6D2"/>
			<stop offset="1" stop-color="white"/>
		</linearGradient>
	</defs>
	<path fill="url(#gradient_2)" transform="scale(0.666667 0.666667)" d="M282.745 568.817L282.946 567.647L317.282 567.719L317.302 582.325L328.76 582.311L328.778 597.005L349.045 597.26C348.355 598.865 348.178 599.795 348.361 601.536L348.308 614.296C350.815 614.311 353.323 614.326 355.831 614.34C356.744 614.346 357.638 614.164 358.417 614.656L358.556 615.696L358.834 629.407C356.289 629.403 350.047 628.645 347.986 629.902L347.684 630.043L347.052 630.802C341.295 631.227 335.479 631.069 329.709 631.067C326.394 631.066 322.744 631.37 319.479 630.781L319.379 624.468L319.537 620.749L319.262 612.658L307.572 612.678L297.722 612.837C297.773 611.254 298.117 608.995 297.583 607.514L297.371 607.087C295.374 606.287 292.447 608.698 290.438 609.265C289.338 609.576 288.664 609.298 287.699 608.812L287.609 607.875C288.966 606.088 291.453 604.793 292.585 603.056C293.139 602.206 292.923 601.864 292.688 600.961C291.491 600.253 289.643 600.052 288.277 600.508C287.108 600.898 286.637 601.309 286.13 602.404L285.913 602.884C285.406 603.948 284.808 604.924 283.688 605.301C282.372 603.674 282.838 598.3 282.814 596.075C282.713 587.079 282.182 577.785 282.745 568.817Z"/>
	<path fill="#F1F1F0" transform="scale(0.666667 0.666667)" d="M328.227 610.798L328.316 609.562L328.875 609.562C328.875 610.967 328.498 613.497 329.25 614.625L328.875 615.562C329.348 616.272 329.091 615.966 329.625 616.5C330.873 616.5 332.727 616.193 333.75 616.875C335.061 616.875 337.184 616.539 338.25 617.25C339.468 617.273 340.293 617.329 341.438 617.625C342.614 617.929 343.518 617.262 344.625 618C345.587 618.039 345.808 618.077 346.688 618.375L347.809 618.562C346.967 619.033 346.094 618.767 345.188 618.633L345.002 619.031L346.031 619.219L345.593 619.227C344.519 619.254 343.934 619.327 342.938 619.691C342.33 619.913 341.647 619.951 341.019 620.16L328.455 620.838L328.284 611.322L328.227 610.798Z"/>
	<path fill="#7E8788" transform="scale(0.666667 0.666667)" d="M358.556 615.696L358.834 629.407C356.289 629.403 350.047 628.645 347.986 629.902L347.684 630.043C347.329 627.859 347.363 625.623 347.309 623.415C348.426 623.072 349.75 623.245 350.915 623.255C353.408 623.275 355.901 623.298 358.395 623.322L358.556 615.696Z"/>
	<path fill="#C7CFCE" transform="scale(0.666667 0.666667)" d="M282.745 568.817L283.684 569.625L283.688 570.191L284.25 569.816C284.704 569.997 285.142 570.216 285.588 570.4C286.793 570.896 288.71 570.75 290.025 570.807C290.474 572.311 290.229 574.331 290.23 575.901C290.231 579.716 290.211 583.531 290.167 587.346L303.535 587.314C303.812 588.39 304.006 589.983 304.875 590.701C306.258 591.105 307.55 591.161 308.984 591.222L308.722 599.639C311.907 599.996 315.096 600.305 318.281 600.661C319.345 600.78 320.99 600.724 321.92 601.191C322.95 601.709 324.379 603.708 325.128 604.648L326.554 606.464C327.643 607.75 327.714 608.347 328.009 609.938L328.227 610.798L328.284 611.322L328.455 620.838L341.019 620.16C343.72 620.177 346.409 619.876 349.017 619.167L349.5 619.031C349.941 619.582 350.251 619.799 350.248 620.531L349.688 620.25L349.123 620.531C348.297 620.199 347.384 620.277 346.5 620.25C345.268 621.071 341.38 620.625 339.75 620.625C338.727 621.307 336.873 621 335.625 621C334.631 621.663 333.594 621.271 332.438 621.375L331.312 621.559C330.093 621.636 328.772 621.699 327.844 620.906L327.75 619.5C328.571 618.268 328.125 614.38 328.125 612.75L320.063 612.75C320.076 615.239 320.136 618.003 319.608 620.438L319.537 620.749L319.262 612.658L307.572 612.678L297.722 612.837C297.773 611.254 298.117 608.995 297.583 607.514L297.371 607.087C295.374 606.287 292.447 608.698 290.438 609.265C289.338 609.576 288.664 609.298 287.699 608.812L287.609 607.875C288.966 606.088 291.453 604.793 292.585 603.056C293.139 602.206 292.923 601.864 292.688 600.961C291.491 600.253 289.643 600.052 288.277 600.508C287.108 600.898 286.637 601.309 286.13 602.404L285.913 602.884C285.406 603.948 284.808 604.924 283.688 605.301C282.372 603.674 282.838 598.3 282.814 596.075C282.713 587.079 282.182 577.785 282.745 568.817Z"/>
	<path fill="#8D9C9C" transform="scale(0.666667 0.666667)" d="M533.008 412.137C536.775 412.077 540.596 411.597 544.349 411.871L544.18 420.481L530.997 420.64L531.011 433.238L517.147 433.216L517.185 443.574L499.217 443.669L499.189 452.659L484.816 452.705L484.911 464.176C477.419 464.711 470.085 466.755 462.742 468.267C455.436 469.772 447.925 470.828 440.492 471.44C421.352 473.015 402.268 473.288 383.076 473.29C362.466 473.292 341.669 472.942 321.188 470.382C308.131 468.75 295.44 465.211 282.461 463.441L282.44 453.187L269.826 453.108L269.7 443.217L252.347 443.193L252.432 433.125L238.481 433.174L238.419 420.666L227.283 420.705L227.441 412.217C231.077 412.284 234.978 412.065 238.566 412.606C242.514 421.643 253.152 428.308 261.14 433.355C267.565 437.415 273.483 441.045 280.602 443.838C288.967 447.12 297.364 449.749 306.043 452.062C309.76 453.052 313.833 454.344 317.666 454.649L318.049 454.158L318.75 454.312L319.222 454.398C319.609 454.476 319.963 454.676 320.344 454.781C321.389 455.07 322.336 454.871 323.438 455.25L324.375 455.438L324.803 455.537C325.39 455.654 325.936 455.637 326.526 455.677C327.177 455.721 326.724 455.712 327.562 456L328.5 456.188L328.908 456.287C329.591 456.424 330.263 456.399 330.954 456.434C331.553 456.464 331.333 456.441 331.964 456.681L332.145 456.416C336.148 456.027 341.282 456.846 345.191 457.688L345.533 457.855C347.727 458.831 351.887 457.405 354 458.809C355.089 458.81 356.476 458.586 357.375 459.184C358.683 459.185 360.811 458.852 361.875 459.559C362.763 459.561 362.986 459.426 363.75 459.934C365.121 459.935 367.52 459.574 368.625 460.309C374.737 460.018 380.891 460.255 387.008 460.305C390.714 460.335 394.607 460 398.25 460.549C400.496 460.887 402.931 460.321 405.127 461.111L442.892 456.224C456.186 453.896 468.884 450.583 481.57 445.945C487.427 443.804 493.367 441.576 498.855 438.591C505.524 434.963 512.19 430.138 518.277 425.597C520.614 423.853 522.889 422.038 525.033 420.06C526.681 418.538 528.365 416.969 529.878 415.312C530.96 414.128 531.475 412.83 533.008 412.137Z"/>
	<path fill="#FEE6B6" transform="scale(0.666667 0.666667)" d="M317.666 454.649L318.049 454.158L318.75 454.312L319.222 454.398C319.609 454.476 319.963 454.676 320.344 454.781C321.389 455.07 322.336 454.871 323.438 455.25L324.375 455.438L324.803 455.537C325.39 455.654 325.936 455.637 326.526 455.677C327.177 455.721 326.724 455.712 327.562 456L328.5 456.188L328.908 456.287C329.591 456.424 330.263 456.399 330.954 456.434C331.553 456.464 331.333 456.441 331.964 456.681L332.145 456.416C336.148 456.027 341.282 456.846 345.191 457.688L345.533 457.855C347.727 458.831 351.887 457.405 354 458.809C355.089 458.81 356.476 458.586 357.375 459.184C358.683 459.185 360.811 458.852 361.875 459.559C362.763 459.561 362.986 459.426 363.75 459.934C365.121 459.935 367.52 459.574 368.625 460.309C374.737 460.018 380.891 460.255 387.008 460.305C390.714 460.335 394.607 460 398.25 460.549C400.496 460.887 402.931 460.321 405.127 461.111C381.646 462.947 358.313 461.351 335.077 457.792C329.309 456.908 323.288 456.194 317.666 454.649Z"/>
	<path fill="#FCF915" transform="scale(0.666667 0.666667)" d="M338.763 130.99C339.814 130.894 340.617 130.891 341.656 131.062C342.687 133.266 340.954 136.172 342.938 137.802L347.031 137.768C346.771 140.034 346.482 142.021 345.71 144.188L346.139 144.938C347.786 145.166 349.287 145.338 350.945 145.201C352.473 145.074 354.134 145.997 355.657 146.222C359.396 146.773 364.167 145.883 367.843 145.027L367.481 138.197L373.225 137.33L370.612 134.192L370.688 133.49C372.062 132.622 373.625 132.96 375.137 133.214C375.697 133.308 376.223 133.325 376.79 133.312L377.618 132.562C377.166 131.893 377.266 131.862 376.468 131.543C375.825 131.287 375.471 131.019 375.003 130.5C374.782 129.478 374.572 128.61 374.717 127.554C376.016 126.754 378.561 127.038 380.09 127.005L379.832 126.556C378.744 124.616 377.749 122.463 378.077 120.188C379.328 119.783 381.666 121.042 383.044 121.44L383.759 115.312C384.604 114.864 385.312 115.086 386.205 115.243C387.162 115.851 387.79 116.425 388.097 117.562C388.531 119.168 388.444 120.812 388.215 122.438C389.841 123.258 392.596 121.658 393.286 123.75C393.014 125.291 392.63 126.484 391.912 127.875C392.451 128.762 392.857 129.237 393.938 129.437L397.962 129.458C397.923 132.184 397.805 134.775 397.346 137.464L401.93 137.84C402.151 140.09 401.42 142.742 401.171 145.004C404.699 145.751 408.256 145.937 411.831 146.352C414.25 146.633 416.264 147.44 418.688 146.7C419.691 145.498 419.179 143.425 420.375 142.661L424.308 142.993C424.162 141.037 423.442 137.542 423.965 135.751L424.481 135.848C425.861 136.094 426.726 136.24 428.062 135.791C429.029 134.181 428.267 132.074 428.032 130.221C429.887 130.188 431.777 130.327 433.501 129.562L433.851 128.812L433.516 128.362C432.786 127.365 432.117 126.669 432.138 125.372C433.752 124.243 435.567 124.242 437.535 124.312C438.384 125.756 437.095 127.881 438.938 128.524L442.702 126.018C442.627 127.868 442.627 129.37 441.786 131.062C442.046 131.321 442.785 131.892 442.916 132.188C443.053 132.495 442.946 133.696 442.953 134.066C442.997 136.376 443.064 138.689 443.079 141L443.062 142.409C442.34 142.911 441.923 142.928 441.07 143.062L440.753 143.812L441.5 144.588L443.062 144.024C443.788 146.511 443.615 152.005 442.722 154.384C441.103 158.697 444.468 164.271 442.765 169.012C441.019 169.708 438.54 169.661 436.688 169.451C434.098 169.157 431.592 167.278 429.609 170.062C429.99 172.503 431.959 174.219 433.433 176.18C433.678 176.506 434.423 177.302 434.553 177.684C435.225 179.67 435.282 185.062 433.983 186.737C433.017 187.981 431.519 188.816 429.938 188.946L423.134 189.078L423.501 186.424C421.532 186.384 417.947 186.708 416.306 185.73C416.095 185.603 415.934 185.307 415.688 185.324C415.585 185.331 414.776 186.186 414.562 186.299C414.217 186.481 412.252 186.307 411.784 186.308C405.962 186.318 400.283 185.803 394.484 185.65C393.309 185.619 392.151 185.919 390.967 185.937C387.295 185.992 383.619 185.973 379.947 185.972L379.182 185.638L378.2 186.938C375.947 188.028 373.151 188.145 370.688 187.776C369.529 187.602 368.871 186.617 368.239 185.731C364.299 186.536 360.213 186.319 356.209 186.331C353.07 186.34 349.705 186.579 346.597 186.169C345.025 186.487 344.098 186.329 342.563 185.901L342.273 184.982C342.099 185.504 341.906 185.855 341.625 186.321C340.012 186.634 338.912 186.659 337.312 186.264C336.431 185.233 336.475 184.646 336.258 183.329C335.655 184.448 335.066 185.261 335.066 186.562C335.494 186.619 335.774 186.7 336.191 186.562L336.188 187.5L335.719 187.781L335.25 187.316L334.626 186.841C333.926 186.304 334.159 186.579 333.793 186C333.538 185.981 333.281 185.941 333.025 185.956C332.823 185.578 332.779 185.543 332.672 185.056C331.437 179.434 334.384 174.978 337.625 170.812L337.312 169.696C336.604 168.975 336.081 168.334 335.062 168.077L333.044 169.432C331.582 168.465 331.365 167.788 330.968 166.172L331.356 165C330.617 163.299 329.278 162.174 327.977 160.896L330.308 159.317C330.786 158.219 330.588 158.142 330.188 156.99C329.184 156.505 328.778 156.767 327.708 156.991C326.992 156.351 327.503 151.97 327.408 150.63L327.372 150.188L329.33 149.812C329.977 148.934 330.235 148.491 330.403 147.375C330.011 146.357 330.073 145.967 329.062 145.482C327.987 146.168 327.377 147.453 327.13 148.717C326.988 149.447 327.192 149.115 326.625 149.612L326.007 148.875C325.892 147.879 325.56 145.964 326.062 145.039C326.792 143.698 328.062 143.73 328.415 141.938L327.75 141.466C327.273 142.087 327.224 142.437 326.438 142.622C326.27 141.194 326.443 139.766 326.552 138.338L327.13 128.357C327.684 128.075 328.127 127.971 328.738 127.902L329.437 127.829C330.106 127.125 330.76 126.438 331.301 125.628L331.673 125.062L333.575 125.016C335.016 125.05 336.247 125.329 337.226 126.375L336.304 129.375C336.927 130.475 337.617 130.517 338.763 130.99Z"/>
	<path transform="scale(0.666667 0.666667)" d="M438.129 162.562L439.312 162.44L440.096 163.246C440.193 164.527 440.31 164.849 439.688 166.012C438.366 166.08 438.335 166.214 437.34 165.375C437.292 163.895 437.193 163.81 438.129 162.562Z"/>
	<path transform="scale(0.666667 0.666667)" d="M329.186 133.604C329.944 134.565 330.923 135.473 330.938 136.756C330.19 137.588 329.7 138.209 328.516 138.335C328.127 138.376 327.981 138.335 327.628 138.28C327.7 136.25 327.728 135.153 329.186 133.604Z"/>
	<path transform="scale(0.666667 0.666667)" d="M424.92 148.688C426.039 148.803 425.969 148.761 426.688 149.625C426.745 151.618 426.899 153.626 426.562 155.599L425.438 155.993C424.825 155.835 424.172 155.887 423.859 155.273C423.094 153.773 423.44 150.842 423.816 149.264L424.92 148.688Z"/>
	<path transform="scale(0.666667 0.666667)" d="M345.019 149.062C345.531 148.89 345.919 148.833 346.46 148.863C347.743 148.932 347.843 148.859 348.721 149.812C348.768 151.819 348.923 153.838 348.512 155.812L347.8 156.017C346.722 156.219 345.598 156.302 344.775 155.6C344.736 153.461 344.488 151.145 345.019 149.062Z"/>
	<path transform="scale(0.666667 0.666667)" d="M428.484 180.188L429.751 180.039C430.683 180.105 431.254 180.556 431.756 181.312C432.319 182.16 432.363 183.758 432.009 184.688C431.574 185.832 431.057 186.064 429.996 186.562C428.484 186.703 428.286 186.627 426.938 185.913C426.453 184.998 426.295 184.356 426.455 183.311C426.684 181.818 427.301 181.013 428.484 180.188Z"/>
	<path transform="scale(0.666667 0.666667)" d="M336.258 183.329C336.741 181.754 336.985 180.83 338.323 179.812C339.481 179.613 339.641 179.515 340.688 180.007C341.929 181.63 342.072 182.988 342.273 184.982C342.099 185.504 341.906 185.855 341.625 186.321C340.012 186.634 338.912 186.659 337.312 186.264C336.431 185.233 336.475 184.646 336.258 183.329Z"/>
	<path transform="scale(0.666667 0.666667)" d="M347.863 169.655C349.767 169.559 351.546 169.641 353.438 169.818L354.006 170.625C354.046 171.978 354.234 173.332 353.572 174.562L352.312 174.817L351.938 174.826C350.368 174.839 347.545 175.263 346.451 174.188C346.446 173.037 346.314 171.642 346.639 170.544C346.818 169.941 347.334 169.907 347.863 169.655Z"/>
	<path transform="scale(0.666667 0.666667)" d="M407.564 167.812C408.72 167.685 409.151 167.55 410.241 168.015C411.383 169.936 410.698 174.917 410.62 177.188L409.688 177.627C408.428 177.659 407.584 177.925 406.536 177.188L406.635 168.465L407.564 167.812Z"/>
	<path transform="scale(0.666667 0.666667)" d="M414.773 170.062C416.514 169.414 419.141 169.735 420.938 169.997C421.882 170.866 422.341 171.366 422.508 172.688C422.635 173.7 422.107 174.541 421.53 175.312C420.37 176.202 419.211 176.451 417.75 176.488C416.794 176.511 415.582 176.491 414.852 175.808C414.582 173.904 414.717 171.98 414.773 170.062Z"/>
	<path transform="scale(0.666667 0.666667)" d="M358.861 169.312C359.949 169.252 360.707 169.047 361.693 169.637C362.473 170.103 363.524 171.523 363.692 172.411C363.938 173.72 363.65 176.131 362.94 177.187L361.312 177.452C360.858 177.467 360.672 177.489 360.188 177.425C358.851 177.25 357.876 176.516 357.115 175.413C356.343 174.294 356.272 173.215 356.69 171.938C357.078 170.751 357.784 169.897 358.861 169.312Z"/>
	<path fill="#FAEB4B" transform="scale(0.666667 0.666667)" d="M326.552 138.338L327.13 128.357C327.684 128.075 328.127 127.971 328.738 127.902L329.437 127.829C330.106 127.125 330.76 126.438 331.301 125.628L331.673 125.062L333.575 125.016C335.016 125.05 336.247 125.329 337.226 126.375L336.304 129.375C336.927 130.475 337.617 130.517 338.763 130.99L338.061 131.043C337.41 131.086 336.99 131.043 336.375 130.796L335.293 131.293C334.852 132.512 335.509 134.139 334.5 134.809C333.882 134.315 333.636 134.271 333.377 133.498C332.988 133.178 332.776 132.984 332.282 132.862C331.486 132.664 330.675 131.904 330 131.434C329.34 130.974 328.985 130.692 328.691 129.938L329.064 129.469C328.703 128.866 328.893 129.145 328.5 128.625L327.934 129.188C327.936 129.823 327.824 129.973 328.217 130.5L328.205 131.191C328.198 131.813 328.254 132.333 328.406 132.939L329.207 132.844L329.186 133.604C327.728 135.153 327.7 136.25 327.628 138.28L326.552 138.338Z"/>
	<path transform="scale(0.666667 0.666667)" d="M346.597 186.169L346.502 185.682C346.129 183.64 345.87 181.27 347.104 179.478C348.635 178.817 350.12 178.97 351.75 179.01C352.981 180.082 352.407 181.337 353.438 182.591C357.087 182.656 363.029 183.483 366.417 182.242C367.773 181.745 368.718 180.555 369.188 179.224C369.856 177.331 369.61 175.177 368.76 173.391C368.056 171.91 367.69 170.769 367.869 169.125L368.625 168.823C369.359 169.059 370.302 169.31 370.854 169.876C371.957 171.009 372.061 173.694 372.165 175.228C372.359 178.088 372 182.456 369.837 184.584C369.375 185.039 368.789 185.395 368.239 185.731C364.299 186.536 360.213 186.319 356.209 186.331C353.07 186.34 349.705 186.579 346.597 186.169Z"/>
	<path transform="scale(0.666667 0.666667)" d="M337.161 146.062C338.095 145.929 338.832 145.803 339.764 146.062C340.477 149.823 338.968 154.345 339.922 157.933C340.228 159.083 340.934 159.785 341.968 160.314C344.714 161.717 351.574 161.452 354.375 160.465C355.725 159.092 355.833 155.971 356.195 154.04C356.822 156.715 356.789 159.112 356.488 161.812C356.014 162.572 355.409 163.151 354.748 163.753C351.892 166.353 347.883 166.317 344.236 166.126C341.431 165.98 337.936 164.474 336.159 162.232C334.332 159.927 334.63 152.301 335.138 149.439C335.429 147.795 335.816 146.982 337.161 146.062Z"/>
	<path transform="scale(0.666667 0.666667)" d="M432.697 143.062L433.972 143.125C434.651 145.047 434.194 148.279 434.229 150.37C434.275 153.1 434.601 155.792 434.575 158.542C434.55 161.217 434.26 162.563 432.224 164.438C427.149 169.11 422.246 165.587 416.551 165.443L416.062 165.437C415.246 165.34 415.347 165.308 414.775 164.812L414.674 159.711C416.043 159.935 417.5 160.097 418.809 160.559C420.918 161.304 425.725 162.174 427.804 161.033C428.384 160.715 429.649 159.162 429.901 158.548C430.283 157.618 430.069 155.441 430.049 154.374C429.989 151.057 429.721 147.672 430.165 144.375C431.034 143.199 431.312 143.345 432.697 143.062Z"/>
	<path transform="scale(0.666667 0.666667)" d="M379.182 185.638C378.924 184.435 378.757 184.313 379.364 183.188C379.9 183.085 381.272 183.024 381.517 182.543C382.361 180.881 381.72 175.704 381.703 173.661L378.431 173.154C377.753 172.223 377.978 171.152 378.034 170.062C378.992 168.551 380.03 168.102 381.783 167.683C385.903 166.698 388.982 167.293 392.412 169.582C393.42 170.255 393.785 170.664 393.956 171.885C394.163 173.357 394.192 175.871 393.519 177.188C392.416 177.443 392.216 177.367 391.125 177.019C390.173 175.318 390.919 173.323 389.812 171.74L387.328 171.562C386.414 172.934 386.812 180.318 387.135 182.157L387.349 182.955C390.566 183.899 394.596 184.139 397.941 183.843C399.033 179.097 398.744 174.119 398.779 169.272C399.79 168.642 400.268 168.812 401.438 168.86C402.453 170.053 402.847 170.979 402.735 172.566C402.663 173.595 402.295 174.142 401.809 175.012C401.023 176.42 400.562 178.694 401.092 180.261C401.448 181.312 402.112 181.9 402.938 182.596C406.595 183.81 411.748 183.156 415.633 183.027C416.191 181.943 416.613 180.393 417.938 180.067C419.556 179.668 421.573 179.71 423.216 179.857L423.501 186.424C421.532 186.384 417.947 186.708 416.306 185.73C416.095 185.603 415.934 185.307 415.688 185.324C415.585 185.331 414.776 186.186 414.562 186.299C414.217 186.481 412.252 186.307 411.784 186.308C405.962 186.318 400.283 185.803 394.484 185.65C393.309 185.619 392.151 185.919 390.967 185.937C387.295 185.992 383.619 185.973 379.947 185.972L379.182 185.638Z"/>
	<path transform="scale(0.666667 0.666667)" d="M378.964 145.546L387.938 145.494C390.427 145.623 393.09 146.844 394.723 148.742C396.908 151.279 395.794 157.586 395.616 160.87L399.75 160.825C401.225 159.188 399.566 154.192 400.688 151.962C401.829 151.961 403.185 151.696 404.062 152.434L403.761 162.562C402.981 163.536 402.343 164.04 401.172 164.505C400.134 164.917 398.353 165.553 397.249 165.616C394.864 165.751 390.301 162.679 388.076 161.658L378.337 161.563C375.324 164.661 372.825 166.199 368.607 167.141L364.23 164.259L364.173 154.312C364.841 153.141 365.351 153.122 366.562 152.596L367.19 153L367.395 161.199L373.601 161.17C373.564 157.3 372.387 152.789 373.148 149.062C374.823 146.979 376.451 146.334 378.964 145.546Z"/>
	<path fill="#FCF915" transform="scale(0.666667 0.666667)" d="M380.885 149.752L386.287 149.583C387.905 149.617 389.277 150.066 390.373 151.312C391.76 152.89 391.62 154.615 391.435 156.562C390.453 157.749 389.87 158.243 388.408 158.756C386.044 158.901 383.361 159.149 381.027 158.672C379.928 158.447 378.782 157.661 378.171 156.723C377.248 155.304 377.632 153.264 377.98 151.688C378.702 150.607 379.746 150.265 380.885 149.752Z"/>
	<path fill="#F1F1F0" transform="scale(0.666667 0.666667)" d="M354.068 485.256L421.144 485.553L435.796 485.6L435.826 493.558L436.398 493.483L448.535 493.123C448.535 496.26 448.536 499.397 448.54 502.533C448.543 503.927 448.345 505.642 448.738 506.959L449.309 507.065C450.194 508.316 449.992 510.153 450.013 511.638C450.063 515.078 450.221 518.607 450.014 522.039L458.393 521.68L458.323 556.441C456.593 556.433 452.017 555.952 450.743 556.898L450.601 557.519C449.905 560.857 450.446 565.803 450.741 569.234L437.656 569.284L437.653 582.266L419.663 582.256C419.672 587.145 419.361 592.306 419.877 597.154L420.108 601.57L404.169 601.756L403.549 601.933L365.101 601.779C359.686 601.169 353.837 601.571 348.361 601.536C348.178 599.795 348.355 598.865 349.045 597.26C349.702 596.474 349.438 594.225 349.441 593.145C349.452 589.293 349.464 585.44 349.471 581.588L331.494 581.588L331.529 568.868L318.636 568.879L318.542 556.387L313.796 556.261L313.707 555.932C313.195 553.293 313.525 550.184 313.519 547.471C313.504 541.255 313.537 535.034 313.458 528.819C313.436 527.077 312.787 523.184 313.229 521.625C313.322 521.296 313.595 521.047 313.778 520.758C316.696 521.115 319.88 520.851 322.827 520.836L322.618 507.42L332.575 507.279L332.65 495.672L347.772 496.052L349.906 490.544C351.269 490.554 352.763 490.688 354.076 490.312L354.068 485.256Z"/>
	<path fill="#C7CFCE" transform="scale(0.666667 0.666667)" d="M421.144 485.553L435.796 485.6L435.826 493.558L436.398 493.483L448.535 493.123C448.535 496.26 448.536 499.397 448.54 502.533C448.543 503.927 448.345 505.642 448.738 506.959C445.467 507.498 440.944 506.995 437.566 506.998L437.453 495.562L436.875 495.038C434.96 496.009 432.952 495.813 430.857 495.829C427.704 495.853 424.55 495.863 421.396 495.87L421.144 485.553Z"/>
	<path fill="#FEE6B6" transform="scale(0.666667 0.666667)" d="M222.063 381.934C225.041 381.38 228.269 381.604 231.291 381.642C235.597 381.698 239.902 381.706 244.209 381.704C249.919 381.702 255.628 381.697 261.338 381.646C265.727 381.607 270.127 381.421 274.495 381.925L274.529 386.999L346.192 387.105C344.823 390.104 345.296 394.15 344.812 397.402C344.581 398.958 343.986 400.437 343.809 402L345.016 402.453L424.575 402.455L424.7 401.865C423.33 398.905 423.037 395.413 423.462 392.178C423.683 390.5 424.164 388.991 424.197 387.274L424.2 386.927L495.604 387.033C496.203 385.984 495.943 383.537 495.977 382.273C504.926 381.089 514.599 381.802 523.645 381.797C528.358 381.795 533.071 381.796 537.784 381.809C541.187 381.818 544.55 381.628 547.855 382.588L547.725 384.942L547.498 399.251L546.562 410.962C545.829 411.384 545.158 411.628 544.349 411.871C540.596 411.597 536.775 412.077 533.008 412.137C531.475 412.83 530.96 414.128 529.878 415.312C528.365 416.969 526.681 418.538 525.033 420.06C522.889 422.038 520.614 423.853 518.277 425.597C512.19 430.138 505.524 434.963 498.855 438.591C493.367 441.576 487.427 443.804 481.57 445.945C468.884 450.583 456.186 453.896 442.892 456.224L405.127 461.111C402.931 460.321 400.496 460.887 398.25 460.549C394.607 460 390.714 460.335 387.008 460.305C380.891 460.255 374.737 460.018 368.625 460.309C367.52 459.574 365.121 459.935 363.75 459.934C362.986 459.426 362.763 459.561 361.875 459.559C360.811 458.852 358.683 459.185 357.375 459.184C356.476 458.586 355.089 458.81 354 458.809C351.887 457.405 347.727 458.831 345.533 457.855L345.191 457.688C341.282 456.846 336.148 456.027 332.145 456.416L331.964 456.681C331.333 456.441 331.553 456.464 330.954 456.434C330.263 456.399 329.591 456.424 328.908 456.287L328.5 456.188L327.562 456C326.724 455.712 327.177 455.721 326.526 455.677C325.936 455.637 325.39 455.654 324.803 455.537L324.375 455.438L323.438 455.25C322.336 454.871 321.389 455.07 320.344 454.781C319.963 454.676 319.609 454.476 319.222 454.398L318.75 454.312L318.049 454.158L317.666 454.649C313.833 454.344 309.76 453.052 306.043 452.062C297.364 449.749 288.967 447.12 280.602 443.838C273.483 441.045 267.565 437.415 261.14 433.355C253.152 428.308 242.514 421.643 238.566 412.606C234.978 412.065 231.077 412.284 227.441 412.217L222.618 412.091L222.279 400.156L221.981 384.317L222.063 381.934Z"/>
	<path fill="#ABB7B6" transform="scale(0.666667 0.666667)" d="M533.008 412.137L533.107 412.006C535.999 408.272 536.106 404.038 536.303 399.501L547.498 399.251L546.562 410.962C545.829 411.384 545.158 411.628 544.349 411.871C540.596 411.597 536.775 412.077 533.008 412.137Z"/>
	<path fill="#FDE4C2" transform="scale(0.666667 0.666667)" d="M310.149 451.082C318.252 451.871 326.009 454.114 333.996 455.407C345.017 457.192 356.293 458.213 367.421 459.088C375.336 459.71 383.388 459.27 391.312 459.166C395.429 459.112 399.576 459.307 403.688 459.159C406.116 459.071 408.559 458.517 411 458.637C413.253 458.747 415.463 458.06 417.667 457.75C419.926 457.431 422.256 457.56 424.524 457.282C426.411 457.052 428.104 456.577 430.031 456.833L429.75 457.125L429.239 457.122C427.719 457.13 427.28 457.218 426 457.875C425.776 457.99 425.492 458.013 425.25 458.062L424.811 458.162L423.094 458.344C424.416 458.448 424.971 458.282 426.188 458.066C426.43 458.023 426.875 458.116 427.125 458.158C428.723 457.163 431.402 458.086 433.125 456.941C433.81 457.037 434.198 457.208 434.849 456.95C435.684 456.618 436.358 456.541 437.25 456.562L437.625 456.191L438.123 456.243C439.201 456.331 439.811 456.18 440.812 455.816L441.938 455.441L442.892 456.224L405.127 461.111C402.931 460.321 400.496 460.887 398.25 460.549C394.607 460 390.714 460.335 387.008 460.305C380.891 460.255 374.737 460.018 368.625 460.309C367.52 459.574 365.121 459.935 363.75 459.934C362.986 459.426 362.763 459.561 361.875 459.559C360.811 458.852 358.683 459.185 357.375 459.184C356.476 458.586 355.089 458.81 354 458.809C351.887 457.405 347.727 458.831 345.533 457.855L345.191 457.688C341.282 456.846 336.148 456.027 332.145 456.416L331.125 456.184L330.566 455.812C329.696 455.826 328.921 455.868 328.125 455.434C327.578 455.135 327.384 454.9 326.719 455.061L326.344 455.248L325.875 455.059C325.178 454.596 325.258 454.687 324.375 454.684L323.906 454.311L323.438 454.684L321.562 454.309L321.188 454.684L320.625 454.309C319.979 453.794 319.959 453.937 319.125 453.934L318.566 453.562L317.906 453.748C317.37 453.394 316.4 453.56 315.75 453.559C315.139 452.954 314.703 453.186 313.875 453.184L313.5 452.812L312.75 452.809C311.581 452.651 310.919 451.874 310.149 451.082Z"/>
	<path fill="#ABB7B6" transform="scale(0.666667 0.666667)" d="M222.279 400.156L235.382 400.101C236.073 403.457 236.869 406.705 238.231 409.861C238.392 410.776 238.618 411.675 238.566 412.606C234.978 412.065 231.077 412.284 227.441 412.217L222.618 412.091L222.279 400.156Z"/>
	<path fill="#F1F1F0" transform="scale(0.666667 0.666667)" d="M238.231 409.861C240.554 411.642 242.926 413.017 244.836 415.282C247.025 417.878 248.519 421.107 251.03 423.403C256.187 428.117 263.766 430.938 269.772 434.467C273.224 436.495 276.321 439.121 279.938 440.83C286.616 443.985 293.633 446.715 300.695 448.915C302.234 449.394 303.184 450.179 304.875 450.188L305.25 450.559C306.087 450.56 306.89 450.33 307.5 450.934L307.806 451.005L309.377 451.498L310.149 451.082C310.919 451.874 311.581 452.651 312.75 452.809L313.5 452.812L313.875 453.184C314.703 453.186 315.139 452.954 315.75 453.559C316.4 453.56 317.37 453.394 317.906 453.748L318.566 453.562L319.125 453.934C319.959 453.937 319.979 453.794 320.625 454.309L321.188 454.684L321.562 454.309L323.438 454.684L323.906 454.311L324.375 454.684C325.258 454.687 325.178 454.596 325.875 455.059L326.344 455.248L326.719 455.061C327.384 454.9 327.578 455.135 328.125 455.434C328.921 455.868 329.696 455.826 330.566 455.812L331.125 456.184L332.145 456.416L331.964 456.681C331.333 456.441 331.553 456.464 330.954 456.434C330.263 456.399 329.591 456.424 328.908 456.287L328.5 456.188L327.562 456C326.724 455.712 327.177 455.721 326.526 455.677C325.936 455.637 325.39 455.654 324.803 455.537L324.375 455.438L323.438 455.25C322.336 454.871 321.389 455.07 320.344 454.781C319.963 454.676 319.609 454.476 319.222 454.398L318.75 454.312L318.049 454.158L317.666 454.649C313.833 454.344 309.76 453.052 306.043 452.062C297.364 449.749 288.967 447.12 280.602 443.838C273.483 441.045 267.565 437.415 261.14 433.355C253.152 428.308 242.514 421.643 238.566 412.606C238.618 411.675 238.392 410.776 238.231 409.861Z"/>
	<path transform="scale(0.666667 0.666667)" d="M281.148 403.309C290.783 403.146 300.432 403.195 310.069 403.15C313.252 403.135 316.437 403.096 319.62 403.147C321.052 403.17 322.158 402.972 323.402 403.778C324.277 404.346 324.983 405.367 325.134 406.408C325.334 407.79 324.837 409.264 323.911 410.29C322.821 411.499 321.315 411.394 319.808 411.486C310.582 411.571 301.349 411.514 292.123 411.51C288.834 411.508 285.533 411.56 282.245 411.479C280.983 411.448 279.348 411.511 278.221 410.899C276.799 410.126 276.143 409.135 275.68 407.625C275.86 406.549 276.073 405.807 276.783 404.952C278.007 403.477 279.328 403.418 281.148 403.309Z"/>
	<path transform="scale(0.666667 0.666667)" d="M479.52 402.938C483.73 402.899 490.049 402.123 494.029 403.367C495.26 403.751 496.072 404.704 496.688 405.779C496.895 407.243 496.782 407.992 496.112 409.312C495.109 410.204 494.244 410.899 492.903 411.175C489.494 411.876 485.474 411.515 481.975 411.538C475.223 411.581 468.471 411.61 461.719 411.637C457.876 411.655 454.034 411.674 450.191 411.666C448.789 411.663 446.86 411.816 445.688 410.965C444.666 410.224 443.744 408.913 443.673 407.625C443.591 406.154 443.861 405.027 444.938 403.964C445.222 403.683 445.891 403.294 446.25 403.175C448.031 402.586 452.134 403.067 454.154 403.056C462.609 403.008 471.065 402.974 479.52 402.938Z"/>
	<path transform="scale(0.666667 0.666667)" d="M345.016 402.453L424.575 402.455C424.672 405.36 424.742 408.077 424.515 410.986L419.398 411.035C418.109 417.016 416.767 421.872 412.724 426.691C406.197 434.472 396.713 438.889 386.672 439.619C376.486 440.36 366.406 437.537 358.691 430.688C352.664 425.337 349.57 418.846 349.163 410.849L342.953 410.728C342.999 408.004 342.976 405.382 343.896 402.779L345.016 402.453Z"/>
	<path fill="#FEA09E" transform="scale(0.666667 0.666667)" d="M355.018 410.812C361.427 409.909 368.557 410.523 375.083 410.509C387.956 410.481 400.848 410.325 413.718 410.57C413.01 417.599 410.786 421.707 405.868 426.692C402.314 429.781 398.033 432.303 393.433 433.44L392.812 433.587C387.409 434.915 380.569 434.973 375.123 433.674C367.74 431.914 361.449 427.923 357.511 421.327C355.762 418.398 354.204 414.244 355.018 410.812Z"/>
	<path fill="#F1F1F0" transform="scale(0.666667 0.666667)" d="M167.64 326.955L168.199 326.251C170.281 326.242 181.199 326.651 182.236 325.977L182.287 310.802C188.105 310.798 193.922 310.795 199.74 310.797C201.69 310.797 204.476 310.393 206.267 311.019L206.291 331.472L221.704 331.476L221.661 255.49L235.513 255.364L235.53 242.32L250.489 242.368L250.514 227.42L268.145 227.255L268.371 212.355L285.382 212.237L285.42 201.515L302.871 201.595L302.826 190.688C308.545 190.55 314.269 190.53 319.989 190.508C323.36 190.496 327.636 189.92 330.75 191.252C332.326 191.926 334.182 191.991 335.866 192.142C340.774 192.582 345.871 192.332 350.807 192.344C360.986 192.369 371.166 192.383 381.345 192.395C397.143 192.412 413.116 192.918 428.895 192.353C431.045 192.276 433.311 191.989 435.371 191.346C436.93 190.858 438.71 189.947 440.33 189.796C444.025 189.452 448.112 189.834 451.823 189.983C456.433 190.167 461.071 190.11 465.685 190.124L465.536 200.52L481.454 200.556L481.392 211.479L498.795 211.511L498.769 227.204L518.451 227.436L518.279 241.476L534.819 241.512L534.811 254.351L548.652 254.583L548.373 331.545L563.251 331.519L563.272 311.228L588.734 311.209L588.737 326.751C592.054 326.756 595.37 326.759 598.687 326.782C600.072 326.792 602.073 326.594 603.378 326.969L603.378 336.07L570.875 336.047C570.561 340.306 570.941 345.881 567.483 348.938C565.834 350.395 562.886 350.614 560.921 351.744L547.23 351.751C547.251 355.245 546.887 359.221 547.496 362.644C548.504 368.72 548.581 376.451 547.855 382.588C544.55 381.628 541.187 381.818 537.784 381.809C533.071 381.796 528.358 381.795 523.645 381.797C514.599 381.802 504.926 381.089 495.977 382.273C495.943 383.537 496.203 385.984 495.604 387.033L424.2 386.927L424.197 387.274C424.164 388.991 423.683 390.5 423.462 392.178C423.037 395.413 423.33 398.905 424.7 401.865L424.575 402.455L345.016 402.453L343.809 402C343.986 400.437 344.581 398.958 344.812 397.402C345.296 394.15 344.823 390.104 346.192 387.105L274.529 386.999L274.495 381.925C270.127 381.421 265.727 381.607 261.338 381.646C255.628 381.697 249.919 381.702 244.209 381.704C239.902 381.706 235.597 381.698 231.291 381.642C228.269 381.604 225.041 381.38 222.063 381.934L222.317 362.539L222.394 351.793L208.883 351.722C206.547 349.416 200.243 350.056 197.029 349.928C196.033 347.985 196.491 338.774 196.459 336.072L168.035 335.378C167.991 332.867 168.166 330.069 167.756 327.603L167.64 326.955Z"/>
	<path transform="scale(0.666667 0.666667)" d="M424.2 386.927C423.39 379.915 423.946 372.244 423.929 365.156C423.893 350.514 423.884 335.872 423.878 321.231L443.364 321.192C443.776 319.363 443.444 316.8 443.422 314.876C443.374 310.575 443.318 306.283 443.487 301.984L495.482 301.947L495.977 382.273C495.943 383.537 496.203 385.984 495.604 387.033L424.2 386.927Z"/>
	<path fill="#FCFCFC" transform="scale(0.666667 0.666667)" d="M443.862 323.438C446.229 322.968 449.249 323.291 451.69 323.291C457.118 323.293 462.545 323.311 467.972 323.388C468.017 332.644 468.059 341.901 468.092 351.157C468.107 355.434 468.795 360.727 467.812 364.818L444.105 364.98C443.73 355.738 444.014 346.384 443.965 337.13C443.941 332.686 443.324 327.813 443.862 323.438Z"/>
	<path transform="scale(0.666667 0.666667)" d="M294.341 323.284C292.293 322.706 289.764 322.99 287.641 322.985C283.243 322.973 278.845 322.973 274.447 322.975L274.52 301.96L327.81 301.914L327.921 320.583L346.317 320.581C346.365 336.44 346.413 352.3 346.453 368.159C346.463 372.292 346.487 376.425 346.469 380.558C346.46 382.596 346.714 385.156 346.192 387.105L274.529 386.999L274.495 381.925L274.49 365.086C273.949 363.875 274.303 362.302 274.369 360.997C274.478 358.831 274.447 356.642 274.462 354.472C274.535 344.121 274.522 333.769 274.517 323.417L294.341 323.284Z"/>
	<path fill="#FCFCFC" transform="scale(0.666667 0.666667)" d="M294.341 323.284C295.348 327.039 294.675 332.496 294.685 336.429C294.711 345.981 294.779 355.537 294.725 365.089L274.49 365.086C273.949 363.875 274.303 362.302 274.369 360.997C274.478 358.831 274.447 356.642 274.462 354.472C274.535 344.121 274.522 333.769 274.517 323.417L294.341 323.284Z"/>
</svg>
