<?xml version="1.0" encoding="utf-8" ?>
<svg xmlns="http://www.w3.org/2000/svg" xmlns:xlink="http://www.w3.org/1999/xlink" width="512" height="512">
	<path fill="#FE4919" transform="scale(0.666667 0.666667)" d="M-0 632.002L0 -0L768 0L768 768L-0 768L0 646.642L-0 632.002Z"/>
	<path transform="scale(0.666667 0.666667)" d="M-0 632.002L33.1268 623.714C32.7349 621.052 31.993 617.371 33.2014 614.83C33.8716 613.421 35.0199 612.662 36.4631 612.144C38.8361 611.294 41.6275 611.053 44.1084 610.625C60.2015 607.85 76.8221 608.714 93.0567 606.874C97.1694 606.408 100.885 605.568 104.799 604.221C105.297 602.203 105.011 599.686 105.012 597.604C105.015 592.077 104.884 586.555 104.797 581.029C104.541 564.804 104.613 548.56 104.569 532.333C104.545 523.612 103.816 514.125 104.859 505.482L104.951 504.75C105.691 498.599 108.093 493.313 110.95 487.875C117.212 475.954 125.868 465.053 134.981 455.171C146.524 442.654 160.842 430.381 176.636 423.682C188.065 418.834 200.003 416.705 212.339 416.217C206.343 414.303 200.5 412.06 194.949 409.066C183.532 402.908 173.601 395.039 163.674 386.763C154.228 378.888 144.932 370.796 137.389 361.004C133.53 355.995 129.963 350.638 126.597 345.286C126.045 344.409 124.58 341.068 123.903 340.572C123.788 340.488 121.669 340.587 121.425 340.588C116.914 340.616 112.401 340.647 107.89 340.61C104.744 340.584 101.246 341.049 98.7195 338.812C96.6585 336.988 95.1565 334.41 93.8024 332.034C89.8289 325.062 87.5287 317.627 86.8007 309.641C85.5702 296.143 84.9155 276.121 94.2499 265.185C96.3661 262.706 98.8914 260.806 102.042 259.846C107.605 258.149 114.134 258.737 119.891 258.765C127.105 258.799 134.319 258.841 141.532 258.943C143.532 258.972 145.532 259.003 147.532 259.041C148.137 259.053 149.24 259.217 149.812 259.046C150.79 258.755 150.427 257.188 151.125 256.232L164.615 256.259L164.852 198.84L197.26 198.777L197.291 187.401L233.015 186.599L233.008 184.207C233.043 177.836 232.963 172.123 237.902 167.347C240.305 165.024 243.948 162.415 247.193 161.539C251.078 160.49 256.044 161.17 260.062 161.238C266.925 161.355 273.788 161.431 280.65 161.524C281.098 159.522 281.46 157.271 282.395 155.438C284.641 151.035 290.953 151.181 295.167 149.779C293.461 147.223 291.365 144.969 289.794 142.312C287.203 137.929 287.035 132.768 287.634 127.819C288.45 121.086 291.539 113.915 297.085 109.743C302.814 105.434 311.05 105.56 317.873 104.995C321.8 104.67 325.944 104.072 329.854 104.771C332.395 105.226 335.703 106.591 337.125 108.88C338.192 110.596 338.271 113.543 337.646 115.42C337.167 116.856 336.107 117.929 334.763 118.594C332.215 119.855 329.864 118.699 327.391 117.871C326.506 118.973 325.773 120.11 324.335 120.461C325.901 121.452 326.429 122.531 327.288 124.125C330.27 129.657 344.903 129.875 342.79 137.924C341.816 141.633 339.023 143.634 335.996 145.612L336.566 145.524C341.251 144.827 347.759 144.312 352.346 145.539C354.792 146.194 357.226 147.636 359.561 148.64C360.938 149.232 362.971 149.538 364.073 150.463C365.14 151.357 365.549 152.187 365.576 153.589L365.472 163.532C373.913 163.554 380.806 163.507 387.188 169.901C392.171 174.894 395.172 182.139 396.048 189.064C401.203 189.059 406.865 188.618 411.938 189.447C413.483 191.303 412.903 197.048 412.923 199.537C420.491 199.688 428.058 199.822 435.629 199.832C439.091 199.837 442.553 199.834 446.015 199.843C448.265 199.848 450.627 199.655 452.812 200.258C453.01 200.505 453.304 200.7 453.404 201C453.7 201.895 453.56 203.805 453.58 204.779C453.655 208.391 453.618 212.012 453.626 215.625C453.652 226.632 453.684 237.639 453.731 248.646C453.76 255.352 453.537 262.176 454.117 268.857C463.249 268.527 472.368 268.594 481.5 268.394C486.457 268.286 492.012 267.379 496.875 268.156C498.943 268.486 500.776 269.581 502.283 271.006C509.655 277.975 510.904 289.479 511.061 299.062C511.294 313.279 511.235 329.836 500.675 340.745C495.863 345.716 490.726 345.688 484.22 345.731L455.098 345.763C448.872 357.427 442.847 368.456 434.812 379.039C417.769 401.487 391.305 418.58 364.5 426.767C358.382 428.635 351.988 429.998 345.675 430.993C340.523 431.805 335.342 432.228 330.295 433.6C336.211 435.211 342.341 435.543 348.246 437.374C370.793 444.366 389.613 456.686 406.371 473.134C409.422 476.129 412.897 479.035 415.595 482.345C418.721 470.523 422.286 458.812 425.348 446.972C427.422 438.948 429.675 430.982 431.884 422.994C433.326 417.782 434.585 412.312 436.677 407.316C437.678 404.928 439.08 402.396 441.363 401.028C442.851 400.136 445.12 399.881 446.816 399.677C455.071 398.688 463.45 398.255 471.738 397.546C486.709 396.265 501.688 394.881 516.646 393.459C544.008 390.858 571.333 387.8 598.688 385.115C615.962 383.419 633.261 382.061 650.541 380.437C658.142 379.723 665.726 378.862 673.312 378.006C677.509 377.533 684.262 376.054 688.199 377.241C690.761 378.013 692.489 380.398 693.609 382.7C695.183 385.933 694.88 389.024 694.312 392.452C692.911 400.92 690.045 409.521 687.904 417.86C682.367 439.436 676.395 460.874 670.375 482.316C665.33 500.285 660.347 518.263 655.194 536.202C652.707 544.861 650.613 553.928 647.442 562.35C646.495 564.865 645.55 567.375 642.944 568.512C639.663 569.942 635.555 570.339 632.024 570.889C625.587 571.893 619.142 572.836 612.725 573.96C610.404 574.366 607.825 574.539 605.57 575.147L624.312 609.36C636.357 609.849 648.363 610.523 660.388 611.349C664.529 611.633 669.042 611.529 673.125 612.127C673.968 612.25 674.592 612.633 675.193 613.239C676.274 614.33 676.301 617.175 676.059 618.562C675.629 621.024 673.304 622.358 671.351 623.54L670.767 623.891C677.373 625.875 684.223 626.773 691.031 627.774C693.76 628.175 696.817 628.349 699.453 629.149C700.469 629.457 701.49 630.045 702.004 630.977C702.963 632.716 702.853 635.054 702.252 636.894C701.738 638.47 700.954 639.243 699.456 639.893C696.643 641.113 693.117 641.502 690.12 642.108C683.807 643.387 677.481 644.612 671.165 645.881C655.084 649.11 639.005 652.321 622.915 655.508C614.967 657.082 607.018 658.557 599.023 659.871C592.768 660.898 586.416 661.942 580.064 661.832C564.103 661.556 547.978 660.043 532.03 659.11C527.842 658.865 523.661 658.563 519.468 658.422C517.63 658.36 515.467 658.081 513.666 658.403C511.096 664.957 508.513 671.507 506.004 678.085C504.353 682.411 502.938 687.257 500.513 691.216C499.532 692.817 498.175 694.306 496.42 695.062C495.346 695.526 494.132 695.582 492.976 695.59C486.716 695.635 480.382 694.834 474.115 694.587C460.679 694.056 447.223 693.802 433.782 693.402C394.802 692.241 355.744 691.78 316.746 691.456C296.372 691.288 276.052 690.838 255.671 691.039L257.075 684.773L256.642 684.573C254.535 683.577 252.449 682.274 251.698 679.93C251.233 678.479 251.362 675.908 252.231 674.614C252.89 673.632 253.848 673.047 255 672.825L258.29 672.613C257.06 667.874 255.744 663.014 255.509 658.109C248.211 659.984 240.707 658.971 233.25 658.703C224.563 658.39 215.857 657.962 207.168 657.735C168.335 656.725 129.532 655.276 90.7228 653.611C66.7557 652.583 42.795 651.506 18.9375 648.894C12.6142 648.201 6.28437 647.643 0 646.642L-0 632.002Z"/>
	<path fill="#DBDBDA" transform="scale(0.666667 0.666667)" d="M488.754 597.493L491.371 596.654C492.064 596.411 492.287 596.674 492.954 596.926C494.21 597.231 495.197 597.095 496.467 596.917C495.705 597.565 495.081 597.858 494.171 598.231L488.643 599.146C488.787 598.639 488.737 598.021 488.754 597.493Z"/>
	<path fill="#DE0300" transform="scale(0.666667 0.666667)" d="M269.689 598.81C272.69 598.867 276.817 598.6 279.562 599.964L279.669 600.347C277.26 601.201 271.58 600.84 268.979 600.445C269.266 599.675 269.236 599.724 269.979 599.368L269.689 598.81Z"/>
	<path fill="#FE4919" transform="scale(0.666667 0.666667)" d="M301.526 481.312L302.616 481.248L303.49 482.062C303.843 483.034 303.872 483.675 303.859 484.688C303.033 485.839 302.671 485.783 301.353 486.188C300.258 486.304 300.027 486.524 299.141 485.812C299.101 485.313 299.04 484.809 299.158 484.312C299.488 482.919 300.37 482.058 301.526 481.312Z"/>
	<path fill="#FE9702" transform="scale(0.666667 0.666667)" d="M318.553 142.688L319.688 142.371L320.187 142.875C319.384 144.909 317.756 149.699 315.938 150.682C315.128 150.56 314.622 150.416 313.915 150L313.934 149.566C314.297 146.789 316.355 144.276 318.553 142.688Z"/>
	<path fill="#FE9702" transform="scale(0.666667 0.666667)" d="M330.485 135.562C331.804 135.361 334.163 137.119 335.374 137.829C333.571 140.754 331.669 142.558 328.978 144.606C328.581 144.799 328.401 144.909 327.937 145.019C326.876 145.271 326.217 145.072 325.312 144.566L325.222 144.207C324.945 141.55 328.868 137.532 330.485 135.562Z"/>
	<path fill="#FE9702" transform="scale(0.666667 0.666667)" d="M320.448 129.188L321.938 128.996C322.791 129.704 323.092 130.281 323.579 131.25C323.555 132.769 323.643 133.327 322.875 134.673L322.125 134.786C319.207 135.176 316.916 137.687 314.898 139.639L313.762 140.812L313.32 140.438C313.458 139.104 313.588 137.766 314.004 136.484C315.08 133.173 317.408 130.779 320.448 129.188Z"/>
	<path fill="#FE4919" transform="scale(0.666667 0.666667)" d="M401.916 625.124C408.665 624.753 415.255 623.451 421.944 622.571C422.424 622.508 422.173 622.466 422.651 622.875L422.597 623.398C422.44 625.039 422.29 626.117 423.181 627.562C421.826 628.05 419.804 627.666 418.363 627.565C413.391 627.22 408.044 626.091 403.106 626.263L401.916 625.124Z"/>
	<path fill="#DBDBDA" transform="scale(0.666667 0.666667)" d="M578.594 552.047L542.482 556.632L543.186 555.99C546.21 553.317 550.86 550.331 554.92 549.733C557.04 549.42 559.586 550.343 561.765 550.477C568.518 550.891 575.299 550.822 582.061 551.248L581.582 552.125L580.142 551.957C579.504 551.888 579.188 551.878 578.594 552.047Z"/>
	<defs>
		<linearGradient id="gradient_0" gradientUnits="userSpaceOnUse" x1="309.56201" y1="119.438" x2="316.31699" y2="126.883">
			<stop offset="0" stop-color="#FEB600"/>
			<stop offset="1" stop-color="#FE9D01"/>
		</linearGradient>
	</defs>
	<path fill="url(#gradient_0)" transform="scale(0.666667 0.666667)" d="M324.335 120.461C320.451 120.109 312.422 124.384 309.597 127.046C307.813 128.726 306.6 132.281 304.312 133.144C303.455 132.667 303.166 132.062 302.664 131.25C302.599 130.061 302.667 129.06 303.007 127.91C304.262 123.662 306.615 119.862 310.688 117.827C313.201 116.572 316.234 117.182 318.955 117.216C322.042 117.253 324.384 116.815 327.391 117.871C326.506 118.973 325.773 120.11 324.335 120.461Z"/>
	<defs>
		<linearGradient id="gradient_1" gradientUnits="userSpaceOnUse" x1="542.43799" y1="603.18799" x2="551.901" y2="632.57397">
			<stop offset="0" stop-color="#8A9195"/>
			<stop offset="1" stop-color="#B2B2B2"/>
		</linearGradient>
	</defs>
	<path fill="url(#gradient_1)" transform="scale(0.666667 0.666667)" d="M540.11 600.538C540.509 600.629 541.562 600.734 541.86 600.938C542.419 601.319 543.143 602.381 543.582 602.92C545.548 605.335 547.251 608.062 548.905 610.699L560.722 630.75C555.946 630.751 550.923 631.027 546.189 630.424C548.271 630.142 550.456 630.38 552.551 630.469C551.379 626.126 549.413 622.431 547.526 618.38C544.839 612.61 542.048 606.595 540.11 600.538Z"/>
	<path fill="#EBD08B" transform="scale(0.666667 0.666667)" d="M364.468 173.438C364.939 173.248 364.723 173.31 365.393 173.207C368.535 172.722 375.248 172.573 377.812 174.47C378.9 176.149 378.427 179.394 378.456 181.423C378.48 183.135 378.679 184.836 378.89 186.534L374.49 186.182L368.098 186.248L367.512 187.312C367.299 187.737 367.127 188.267 366.807 188.637C366.179 189.361 365.625 189.747 364.688 189.806C364.215 187.907 364.386 185.765 364.378 183.811C364.365 180.353 364.409 176.895 364.468 173.438Z"/>
	<defs>
		<linearGradient id="gradient_2" gradientUnits="userSpaceOnUse" x1="255.562" y1="435.93799" x2="256.159" y2="429.21201">
			<stop offset="0" stop-color="#7D8690"/>
			<stop offset="1" stop-color="#4273A8"/>
		</linearGradient>
	</defs>
	<path fill="url(#gradient_2)" transform="scale(0.666667 0.666667)" d="M242.875 431.44C260.18 434.433 277.587 435.854 295.156 435.285C300.322 435.117 305.515 434.894 310.67 434.523C314.223 434.268 317.813 433.755 321.375 433.827C321.861 434.6 321.748 434.579 321.705 435.431C319.637 435.032 316.288 436.037 314.082 436.249C309.562 436.683 305.008 436.865 300.479 437.236C287.355 438.312 273.519 438.222 260.416 437.015C254.339 436.456 248.245 435.87 242.338 434.272L242.231 432L242.875 431.44Z"/>
	<path fill="#FE4919" transform="scale(0.666667 0.666667)" d="M268.979 600.445C265.441 600.86 261.335 600.448 257.749 600.391C239.607 600.104 221.304 598.942 203.299 596.719C197.173 595.963 190.557 595.337 184.617 593.644C181.977 592.892 179.842 591.458 177.632 589.88C193.186 594.114 210.301 595.139 226.37 596.226C240.815 597.202 255.233 598.037 269.689 598.81L269.979 599.368C269.236 599.724 269.266 599.675 268.979 600.445Z"/>
	<path fill="#C0C2C3" transform="scale(0.666667 0.666667)" d="M582.061 551.248C584.441 551.817 586.615 555.503 587.895 557.583C590.537 561.874 592.867 566.365 595.345 570.752C603.661 585.471 611.42 600.662 617.496 616.451C618.436 618.892 620.474 622.827 620.193 625.473C618.103 624.295 589.684 564.545 583.023 555.57L581.812 553.422C580.908 552.178 579.992 552.254 578.594 552.047C579.188 551.878 579.504 551.888 580.142 551.957L581.582 552.125L582.061 551.248Z"/>
	<path fill="#FE4919" transform="scale(0.666667 0.666667)" d="M474.695 608.813L476.062 608.582L476.612 609.188C476.223 613.615 475.294 618.095 472.776 621.843C469.806 626.263 465.995 627.634 461.062 628.622C455.38 629.76 449.238 629.443 443.481 629.071L441.062 628.713L441.035 628.312C444.851 627.522 448.708 626.801 452.25 625.102C455.243 623.667 458.057 621.778 460.505 619.535C465.076 615.343 468.36 610.428 474.695 608.813Z"/>
	<path fill="#601D1A" transform="scale(0.666667 0.666667)" d="M626.669 615.938C628.974 615.408 632.271 616.014 634.668 616.135C645.017 616.657 655.3 617.482 665.605 618.544L658.905 621.462L631.048 628.733C630.703 623.993 628.966 620.047 626.669 615.938Z"/>
	<path fill="#FE4919" transform="scale(0.666667 0.666667)" d="M300.082 499.153C302.124 498.999 303.907 499.039 305.829 499.826C308.599 500.961 311.158 503.53 312.24 506.329C313.125 508.619 313.102 511.532 312.12 513.776C310.746 516.918 308.66 518.511 305.556 519.771C303.74 520.066 301.987 520.199 300.188 519.695C297.608 518.972 295.322 517.067 294.089 514.702C292.619 511.881 292.337 508.989 293.352 505.963C294.538 502.426 296.863 500.686 300.082 499.153Z"/>
	<path fill="#601D1A" transform="scale(0.666667 0.666667)" d="M331.952 623.125L383.276 610.471C383.304 614.367 383.73 618.642 386.648 621.572C390.176 625.115 397.356 624.926 401.916 625.124L403.106 626.263C396.357 626.078 389.627 625.147 382.878 624.829C369.983 624.222 357.048 624.078 344.142 623.885C341.477 623.846 337.078 624.469 334.677 623.754C333.767 623.483 332.886 623.302 331.952 623.125Z"/>
	<path fill="#EBD08B" transform="scale(0.666667 0.666667)" d="M250.921 171.079L282.232 171.238L282.112 182.542L274.406 182.345L242.337 181.75C242.591 179.224 242.955 176.503 244.425 174.358C246.08 171.944 248.214 171.531 250.921 171.079Z"/>
	<path fill="#EBD08B" transform="scale(0.666667 0.666667)" d="M358.087 561.938L359.072 561.809C360.919 562.849 362.964 566.609 364.389 568.346C367.303 571.896 370.532 575.213 373.652 578.58C374.711 579.722 376.84 581.617 377.418 582.99C377.862 584.047 377.226 585.619 377.4 586.688C377.565 587.703 378.669 589.383 379.136 590.374C376.627 590.868 374.1 591.308 371.604 591.864C370.614 592.085 368.991 592.695 368.033 592.5L368.429 591.938C368.932 591.252 369.213 590.727 369.231 589.844C369.314 585.857 366.898 581.869 364.312 579.027L363.937 578.62C354.559 569.73 339.578 567.704 327.289 566.079C329.816 565.097 332.572 563.771 335.226 563.265C340.146 562.327 346.067 562.811 351.1 562.666C353.305 562.603 355.643 562.729 357.763 562.051L358.087 561.938Z"/>
	<path fill="#EBD08B" transform="scale(0.666667 0.666667)" d="M174.43 210.562C176.634 210.279 179.323 210.619 181.563 210.658C186.831 210.75 192.099 210.821 197.364 211.049C197.379 215.047 197.391 219.045 197.391 223.043C197.391 225.095 197.638 227.452 197.062 229.423L174.224 229.358L174.038 229.016C174.028 225.392 173.266 213.156 174.43 210.562Z"/>
	<path fill="#EBD08B" transform="scale(0.666667 0.666667)" d="M414.802 213.938C416.545 213.278 419.239 213.608 421.12 213.614C425.81 213.628 430.499 213.677 435.189 213.729C435.763 215.4 435.426 218.131 435.434 219.934C435.454 224.895 435.712 229.994 435.303 234.938C433.438 235.522 430.684 235.162 428.72 235.166C424.054 235.174 419.387 235.174 414.72 235.173L414.802 213.938Z"/>
	<defs>
		<linearGradient id="gradient_3" gradientUnits="userSpaceOnUse" x1="325.68799" y1="151.688" x2="363.45599" y2="164.713">
			<stop offset="0" stop-color="#FDD575"/>
			<stop offset="1" stop-color="#FEF28D"/>
		</linearGradient>
	</defs>
	<path fill="url(#gradient_3)" transform="scale(0.666667 0.666667)" d="M325.496 150.938L327.938 150.761C331.186 150.81 334.573 151.318 337.817 151.611C341.752 151.966 346.61 152.091 350.3 153.535C351.204 153.889 352.554 154.645 353.126 155.459C354.216 157.011 353.647 162.855 353.651 164.853C353.664 172.201 353.667 179.55 353.659 186.898C353.656 190.137 354.085 194.087 353.438 197.244L351.938 197.386L340.804 197.702C340.81 192.153 341.748 159.723 339.938 157.235C336.474 152.475 329.387 153.292 324.188 152.342L324.188 151.811L325.496 150.938Z"/>
	<path fill="#FE4919" transform="scale(0.666667 0.666667)" d="M564.028 508.211C566.452 508.049 569.387 508.118 571.554 509.348C574.428 510.978 576.363 513.604 577.051 516.844C577.855 520.628 576.718 524.634 574.682 527.838C571.278 533.193 565.726 535.558 559.769 536.92C556.175 537.384 552.813 537.254 549.562 535.461C547.84 534.51 546.45 532.932 545.987 531C544.985 526.818 546.935 521.652 549.27 518.165C552.798 512.896 557.831 509.433 564.028 508.211Z"/>
	<path fill="#EBD08B" transform="scale(0.666667 0.666667)" d="M244.881 193.688C247.371 193.434 250.075 193.639 252.587 193.649C257.574 193.668 262.559 193.692 267.545 193.789L267.562 229.249C266.086 229.87 263.465 229.5 261.857 229.498C256.073 229.491 250.289 229.479 244.505 229.461C244.495 221.047 244.487 212.632 244.496 204.218C244.499 201.443 243.821 196.169 244.881 193.688Z"/>
	<path fill="#EBD08B" transform="scale(0.666667 0.666667)" d="M205.022 199.312C208.032 198.933 211.432 199.254 214.488 199.237C221.242 199.199 227.995 199.144 234.748 199.093C234.74 205.89 234.73 212.687 234.709 219.484C234.7 222.568 235.09 226.338 234.412 229.312C231.676 229.811 228.178 229.427 225.358 229.426C218.568 229.424 211.777 229.416 204.987 229.408C204.549 223.112 204.927 216.619 204.923 210.3C204.921 206.783 204.415 202.757 205.022 199.312Z"/>
	<path fill="#EBD08B" transform="scale(0.666667 0.666667)" d="M378.83 196.688L403.136 196.82L402.684 234.562C400.537 235.191 397.609 234.809 395.357 234.81C389.783 234.813 384.208 234.804 378.633 234.794C378.5 226.009 378.538 217.215 378.522 208.428C378.516 205.054 377.842 199.838 378.83 196.688Z"/>
	<path fill="#E7E6E5" transform="scale(0.666667 0.666667)" d="M287.077 637.971C288.713 637.79 289.927 637.948 291.422 638.689C297.73 641.818 303.454 648.427 305.471 655.177C307.419 661.697 307.118 669.218 303.975 675.232C301.799 674.854 299.406 675.018 297.188 674.983C293.532 674.926 289.875 674.844 286.219 674.772L268.321 674.633L265.681 665.674C264.458 659.752 264.439 653.645 268.027 648.498C272.252 642.435 280.029 639.188 287.077 637.971Z"/>
	<path fill="#EBD08B" transform="scale(0.666667 0.666667)" d="M298.97 159.562L332.498 160.1C332.4 169.291 332.367 178.483 332.316 187.674C332.301 190.295 332.943 196.098 331.703 198.188L298.416 198.176C298.446 188.683 298.407 179.19 298.426 169.698C298.431 167.29 297.79 161.5 298.97 159.562Z"/>
	<path fill="#DBDBDA" transform="scale(0.666667 0.666667)" d="M546.189 630.424C544.876 630.745 542.533 630.404 541.14 630.383C535.182 630.292 529.235 629.942 523.28 629.768C508.568 629.339 493.621 629.67 478.954 628.533L484.682 607.164C494.119 606.931 503.788 605.319 513.172 604.23C521.804 603.228 531.307 602.729 539.734 600.635L540.11 600.538C542.048 606.595 544.839 612.61 547.526 618.38C549.413 622.431 551.379 626.126 552.551 630.469C550.456 630.38 548.271 630.142 546.189 630.424Z"/>
	<path fill="#EBD08B" transform="scale(0.666667 0.666667)" d="M242.338 434.272C248.245 435.87 254.339 436.456 260.416 437.015C273.519 438.222 287.355 438.312 300.479 437.236C305.008 436.865 309.562 436.683 314.082 436.249C316.288 436.037 319.637 435.032 321.705 435.431L321.772 435.878C322.069 437.738 322.533 439.12 323.652 440.646C323.951 441.053 325.032 442.177 325.147 442.574C325.55 443.959 323.119 448.147 322.321 449.253C316.76 456.968 307.805 459.805 298.799 461.201C282.835 463.676 260.563 463.709 247.062 453.743C244.519 451.867 242.293 449.568 240.076 447.328L242.338 434.272Z"/>
	<path fill="#EBD08B" transform="scale(0.666667 0.666667)" d="M464.767 279.188C467.093 278.611 470.318 279.031 472.737 279.035C479.605 279.044 486.533 278.875 493.385 279.314C495.231 281.771 498.08 285.102 499.036 288C499.808 290.339 499.392 293.818 499.39 296.32C499.384 304.047 500.065 312.776 497.973 320.25C496.871 324.188 494.753 327.718 492.772 331.26C492.387 332.062 492.062 332.828 491.423 333.467C490.871 334.02 463.635 333.747 460.246 333.743C465.779 319.032 465.592 304.166 465.381 288.703C465.338 285.523 464.553 282.33 464.767 279.188Z"/>
	<path transform="scale(0.666667 0.666667)" d="M477.071 297.562C478.915 297.114 481.221 297.361 483.129 297.363C487.197 297.365 491.265 297.376 495.333 297.389C495.438 301.15 495.391 304.929 495.4 308.692C495.405 310.803 495.623 313.136 495.118 315.188C492.889 315.601 490.421 315.401 488.152 315.401C484.352 315.403 480.553 315.398 476.753 315.391C476.744 309.614 476.214 303.255 477.071 297.562Z"/>
	<path fill="#EBD08B" transform="scale(0.666667 0.666667)" d="M276.362 191.812C279.214 191.399 282.441 191.728 285.334 191.763C285.332 196.111 285.332 200.458 285.335 204.806C285.336 206.645 285.046 208.978 285.531 210.742L368.118 211.065C368.103 216.443 368.083 221.821 368.076 227.199C368.072 229.735 368.469 232.986 367.688 235.404C364.675 235.745 361.369 235.479 358.318 235.472C352.566 235.459 346.815 235.442 341.064 235.417C319.259 235.321 297.46 234.869 275.656 234.793C275.654 229.982 275.13 194.577 276.362 191.812Z"/>
	<path fill="#FE4919" transform="scale(0.666667 0.666667)" d="M350.054 444.562L350.444 444.495C351.587 444.614 352.977 445.273 354.06 445.673C356.977 446.747 359.799 447.961 362.625 449.255C378.142 456.357 391.945 465.821 403.592 478.382C406.891 481.94 409.706 485.919 413.009 489.493L402.508 529.021L401.018 534.069C396.21 529.722 390.369 526.281 385.345 522.104C374.196 512.833 364.333 502.662 355.605 491.092C352.126 486.48 347.286 480.208 346.951 474.188C346.525 466.515 352.283 458.6 351.627 450.958C351.446 448.855 350.6 446.607 350.054 444.562Z"/>
	<path fill="#EBD08B" transform="scale(0.666667 0.666667)" d="M106.599 270.094L153.573 270.704L153.424 331.483L141.422 331.461L106.879 331.372C102.129 326.052 97.4637 320.026 95.858 312.905C94.8377 308.38 94.7953 303.805 94.7998 299.19C94.8081 290.539 95.4152 281.775 100.273 274.273C101.989 271.625 103.549 270.724 106.599 270.094Z"/>
	<path transform="scale(0.666667 0.666667)" d="M107.266 288.562C114.718 287.79 123.074 288.499 130.62 288.564C133.253 288.587 137.889 288.065 140.297 288.944C140.391 296.111 140.452 303.277 140.459 310.445C140.46 312.114 140.897 316.094 140.111 317.438L138.563 317.519L110.161 317.472C108.452 317.459 107.25 317.468 106.055 316.148C104.389 314.305 104.706 295.381 105.083 292.17C105.278 290.504 105.948 289.553 107.266 288.562Z"/>
	<path fill="#5E5656" transform="scale(0.666667 0.666667)" d="M583.023 555.57C589.684 564.545 618.103 624.295 620.193 625.473L620.114 626.36C619.275 627.18 618.622 627.234 617.438 627.339C612.251 627.796 606.77 627.559 601.55 627.626C590.776 627.764 579.972 627.863 569.212 628.45C567.916 624.566 565.647 620.611 563.875 616.905C558.733 606.153 553.247 595.484 547.475 585.056C545.42 581.345 543.31 577.668 541.312 573.925C539.971 571.411 538.418 568.705 537.767 565.91C537.42 564.424 537.33 563.398 538.125 562.102C540.529 561.054 543.31 560.749 545.892 560.351C549.676 559.768 553.463 559.227 557.25 558.673C562.737 557.87 568.213 557.081 573.715 556.39C576.804 556.002 579.903 555.456 583.023 555.57Z"/>
	<path fill="#601D1A" transform="scale(0.666667 0.666667)" d="M37.8766 628.643C43.5835 628.337 49.3359 628.809 55.0415 629.04C61.5093 629.301 67.9907 629.373 74.462 629.532C111.038 630.427 147.499 632.608 184.031 634.436C193.951 634.932 203.87 635.39 213.792 635.841C221.57 636.195 229.428 636.684 237.212 636.299C242.583 636.034 247.991 635.13 253.312 634.369C258.415 633.639 263.517 633.016 268.576 632.009C266.878 633.053 265.019 634.086 263.565 635.46C259.437 639.359 257.147 645.676 255.572 650.986C254.187 651.497 252.132 651.324 250.619 651.364C246.244 651.481 241.856 651.395 237.48 651.355C222.227 651.101 206.965 650.227 191.723 649.664C157.751 648.411 123.802 647.071 89.8433 645.511C72.6576 644.721 55.4919 643.792 38.3174 642.799C27.7887 642.19 16.5605 642.106 6.1875 640.174C4.88082 639.93 4.17487 639.75 3.26031 638.812L3.48331 636.092C5.17375 634.487 9.56983 634.156 11.9305 633.611C20.572 631.615 29.0535 629.671 37.8766 628.643Z"/>
	<path fill="#EBD08B" transform="scale(0.666667 0.666667)" d="M297.214 604.022L297.304 591.383C278.395 591.969 259.704 591.02 240.839 589.548C228.62 588.595 216.502 587.647 204.389 585.691C198.588 584.755 192.497 583.974 186.927 582.099C191.813 577.69 196.22 573.277 198.073 566.774C198.842 564.072 199.022 561.262 199.254 558.475C230.17 560.48 261.19 563.422 291.959 567.057C307.676 568.914 323.29 570.54 338.736 574.104C343.691 575.248 348.882 576.334 353.54 578.413C357.763 580.299 361.195 583.45 362.438 588.067C362.871 589.677 362.963 591.5 363.621 593.025C363.918 593.711 364.967 593.898 365.645 594.188L365.143 596.445C352.953 597.197 340.727 599.889 328.557 601.226C321.644 601.985 314.692 602.528 307.757 603.054C304.588 603.295 300.211 603.098 297.214 604.022Z"/>
	<path fill="#5E5656" transform="scale(0.666667 0.666667)" d="M240.076 447.328C236.467 445.835 233.343 443.266 229.619 441.782C223.901 439.502 218.337 439.135 212.252 439.151C201.608 439.178 191.685 440.742 181.895 445.052C176.976 447.217 172.199 449.759 168.037 453.189C155.078 463.868 146.738 481.538 140.743 496.953C133.216 516.311 128.633 537.06 128.686 557.862C128.702 564.262 128.923 571.139 131.604 577.064C136.06 586.917 147.135 590.722 156.47 594.188C156.84 595.161 156.617 595.62 156.414 596.625C156.214 596.86 156.076 597.168 155.813 597.329C155.108 597.76 153.145 597.927 152.232 598.096C148.184 598.848 144.114 599.442 140.044 600.055C131.537 601.334 123.088 602.903 114.564 604.081L114.483 506.83C114.914 501.428 116.828 495.877 118.852 490.898C126.36 472.432 140.147 455.983 155.363 443.252C171.545 429.713 189.201 422.914 210.239 421.975C212.666 421.867 215.097 421.824 217.526 421.772C218.017 421.761 219.451 421.589 219.853 421.725C220.661 421.998 222.438 424.027 223.314 424.603C228.476 427.994 235.955 430.92 242.152 431.392L242.875 431.44L242.231 432L242.338 434.272L240.076 447.328Z"/>
	<path fill="#E7E6E5" transform="scale(0.666667 0.666667)" d="M391.344 248.812C391.692 248.712 391.858 248.652 392.254 248.615C396.171 248.259 400.388 248.518 404.329 248.534C415.753 248.582 426.505 248.607 436.164 255.611C442.334 260.086 446.097 266.775 449.748 273.287C452.164 277.597 454.58 281.938 455.373 286.877C457.465 299.904 451.398 311.107 444.055 321.29L440.149 325.854C438.52 327.573 436.075 330.392 433.908 331.421C432.99 331.858 395.898 332.136 391.512 332.232C391.095 312.24 390.964 292.25 391.013 272.254C391.025 267.35 391.041 262.447 391.066 257.543C391.08 254.683 390.881 251.629 391.344 248.812Z"/>
	<path fill="#FE4919" transform="scale(0.666667 0.666667)" d="M425.966 270.562C426.694 270.47 426.619 270.565 427.199 270.938C427.6 275.635 426.048 282.359 423.485 286.34C421.2 289.888 418.478 290.857 414.562 291.639C413.816 291.611 413.875 291.753 413.303 291.188C414.254 288.281 418.235 285.761 420.063 283.062C422.718 279.142 424.318 274.95 425.966 270.562Z"/>
	<path fill="#E7E6E5" transform="scale(0.666667 0.666667)" d="M244.063 245.78L277.505 245.741L277.571 325.957C269.51 325.945 261.446 325.904 253.385 325.955C251.055 325.969 245.439 326.723 243.706 325.688L243.68 323.344L243.793 317.262C240.576 317.001 237.175 316.94 234.012 316.33C228.428 315.253 222.804 312.379 218.377 308.824C211.261 303.108 206.739 294.722 205.885 285.642C204.957 275.78 209.848 264.088 216.188 256.653C223.175 248.459 233.9 246.648 244.063 245.78Z"/>
	<path fill="#FE4919" transform="scale(0.666667 0.666667)" d="M244.68 268.312L245.147 268.34L245.34 269.062L245.454 269.575C247.211 277.317 251.914 284.288 258.588 288.538L258.188 289.089C255.597 288.868 252.873 288.626 250.665 287.113C246.689 284.387 244.885 280.716 244.03 276.05C243.599 273.698 243.276 270.361 244.68 268.312Z"/>
	<path fill="#601D1A" transform="scale(0.666667 0.666667)" d="M662.512 627.441C664.937 627.487 667.53 628.265 669.934 628.688C678.209 630.143 686.285 631.652 694.373 633.998C691.167 635.274 687.115 635.754 683.706 636.534C671.358 639.357 658.961 641.667 646.5 643.921C638.246 645.413 629.955 646.753 621.75 648.503C610.654 650.87 599.27 653.831 587.915 654.44C578.396 654.95 568.866 653.938 559.368 653.415C543.32 652.533 527.278 651.582 511.223 650.835C466.817 648.768 422.244 647.848 377.795 647.12C366.177 646.929 354.557 646.738 342.938 646.611C336.53 646.541 329.694 646.046 323.337 646.803L319.784 647.972C318.812 648.228 312.338 649.333 312.246 649.242C312.051 649.048 311.624 647.54 311.501 647.196C309.283 641.012 307.297 634.461 301.181 630.989L300.853 630.806C303.4 630.334 306.485 630.557 309.09 630.503C316.424 630.35 323.728 630.432 331.058 630.605C350.807 631.069 370.452 631.569 390.188 632.611C413.299 633.832 436.35 637.71 459.536 636.303C463.929 636.036 469.037 635.836 473.16 634.242C473.849 633.975 474.372 633.844 475.125 633.803C476.962 635.242 478.752 635.478 481.008 635.67C500.306 637.31 519.871 636.908 539.227 637.962C549.181 638.503 559.131 639.031 569.062 639.916C579.078 640.809 589.113 642.078 599.156 642.598C601.636 642.726 607.282 642.895 609.188 641.171C609.249 640.318 609.295 639.517 609.223 638.663L609.161 637.964C614.547 637.331 619.861 637.434 625.253 636.462C637.865 634.187 650.022 630.105 662.512 627.441Z"/>
	<path fill="#FDB849" transform="scale(0.666667 0.666667)" d="M328.396 653.418L507.084 657.83L494.281 689.254L443.438 687.589L266.812 684.693L266.378 684.102C267.763 683.193 272.751 683.842 274.5 683.874C279.913 683.974 285.331 683.951 290.743 684.095C294.303 684.189 297.953 684.574 301.502 684.31C303.055 684.195 304.519 683.735 306 683.29C307.133 682.949 308.197 682.606 309.258 682.07C310.109 681.641 312.982 679.909 313.372 678.948C313.427 678.812 312.79 676.832 312.717 676.564C312.49 675.741 312.232 675.406 312.574 674.567C313.321 672.733 314.751 671.441 315.35 669.403L315.511 668.812C316.483 665.341 316.355 661.41 316.517 657.818C318.029 657.519 319.46 657.403 321 657.362C322.659 658.46 323.711 658.65 325.688 658.635C327.025 657.444 325.817 655.11 326.812 653.53L328.396 653.418Z"/>
	<path transform="scale(0.666667 0.666667)" d="M476.226 660.48C478.258 660.246 480.851 660.154 482.812 660.754C485.394 661.543 487.81 663.102 489.031 665.583C489.829 667.202 490.53 669.162 489.925 670.931L489.735 671.438C488.782 674.123 487.379 676.289 485.412 678.336C479.521 684.467 471.076 683.789 463.279 683.88C460.399 683.773 457.405 683.843 454.642 682.921C452.919 682.346 451.251 681.344 450.501 679.616C449.572 677.475 449.795 674.668 450.618 672.526C451.72 669.655 454.062 667.275 456.908 666.097L457.452 665.884C460.026 664.847 463.327 665.111 466.065 665.352C466.572 665.396 469.881 665.94 470.082 665.835C470.67 665.526 471.848 663.434 472.505 662.831C473.585 661.839 474.935 661.152 476.226 660.48Z"/>
	<path fill="#FDB849" transform="scale(0.666667 0.666667)" d="M475.864 666.474C477.815 666.285 480.534 666.025 482.213 667.197C483.183 667.874 483.287 668.459 483.418 669.562C482.664 670.767 482.622 670.845 481.312 671.381C478.838 670.507 475.733 669.51 473.679 667.875C474.132 667.116 475.078 666.863 475.864 666.474Z"/>
	<path fill="#FDB849" transform="scale(0.666667 0.666667)" d="M459.503 671.812C460.147 671.579 459.961 671.607 460.727 671.522C463.764 671.183 474.219 674.168 476.78 676.312C476.268 677.296 475.636 677.252 474.631 677.605C469.479 677.747 463.756 678.297 458.647 677.669C457.562 677.536 457.447 677.496 456.796 676.688C457.052 674.633 458.022 673.213 459.503 671.812Z"/>
	<path transform="scale(0.666667 0.666667)" d="M422.471 664.662C425.673 664.504 429.181 664.37 432.322 665.059L432.938 665.203C434.878 665.647 436.516 666.229 438.106 667.472C440.115 669.041 441.448 671.611 441.72 674.133C441.943 676.2 441.592 678.121 440.14 679.688C435.344 684.86 427.638 684.48 421.22 684.471C417.282 684.466 413.344 684.447 409.406 684.426L398.963 684.208C396.379 683.932 392.276 683.694 390.574 681.562C390.26 679.814 390.461 678.685 391.312 677.131C392.789 676.244 395.381 676.904 396.99 677.218L397.464 677.313L398.795 671.262C404.601 664.939 414.508 665.114 422.471 664.662Z"/>
	<path fill="#FDB849" transform="scale(0.666667 0.666667)" d="M425.888 671.043C428.141 670.966 431.348 670.539 433.346 671.751C434.635 672.533 435.17 673.392 435.559 674.812C435.406 675.63 435.47 676.139 434.881 676.762C434.083 677.606 432.918 677.947 431.823 678.226C426.403 679.608 419.447 678.846 413.812 678.834C410.99 678.828 405.776 679.534 403.644 677.562L403.95 676.552C409.042 670.928 418.88 671.392 425.888 671.043Z"/>
	<path transform="scale(0.666667 0.666667)" d="M333.986 659.405C338.046 658.958 342.465 659.256 346.559 659.264C350.36 659.272 354.162 659.288 357.964 659.327C361.684 659.366 365.448 659.297 368.871 660.965C371.442 662.217 373.415 664.406 374.21 667.169C374.711 668.911 374.556 670.218 373.672 671.798C370.633 677.236 364.097 679.991 358.407 681.565C352.629 682.687 346.499 682.496 340.639 682.374C335.522 682.267 329.732 682.373 324.953 680.331C321.441 678.83 319.125 673.734 317.709 670.371C317.942 668.042 318.392 665.552 319.962 663.718C323.242 659.885 329.332 659.787 333.986 659.405Z"/>
	<path fill="#FDB849" transform="scale(0.666667 0.666667)" d="M330.387 665.739C335.541 665.375 340.8 665.552 345.967 665.539C351.301 665.525 363.743 664.187 367.725 667.96C368.767 668.947 368.984 669.864 368.983 671.25C367.545 673.272 364.431 673.79 362.158 674.45C359.363 675.248 356.489 675.906 353.601 676.258C347.788 676.968 341.624 676.746 335.763 676.743C333.576 676.742 329.832 677.053 327.944 675.936C326.318 674.974 325.181 673.321 324.82 671.472C324.526 669.969 325.157 668.792 325.976 667.582C326.945 666.15 328.798 666.05 330.387 665.739Z"/>
	<path fill="#FE4919" transform="scale(0.666667 0.666667)" d="M365.143 596.445L365.596 596.486C371.183 596.932 377.952 596.009 383.461 595.106C383.597 600.072 383.972 605.558 383.276 610.471L331.952 623.125L331.525 623.195C327.11 623.891 322.555 624.109 318.099 624.444C311.774 624.92 305.449 625.516 299.106 625.647C288.95 625.858 278.902 625.498 268.736 626.054C257.271 626.68 245.801 629.446 234.354 629.491C222.232 629.54 210.02 628.208 197.902 627.721C159.481 626.174 121.085 623.738 82.6454 622.707C72.601 622.438 62.5561 622.303 52.51 622.134C49.6738 622.086 46.8453 622.03 44.0143 621.835C43.3931 621.792 42.1327 621.884 41.625 621.656C41.2436 621.485 40.9476 621.166 40.6088 620.921C40.0102 619.451 39.3763 617.477 39.9714 615.91C40.5656 614.346 45.2045 614.06 46.7376 613.874C64.2846 611.742 82.0393 611.571 99.5859 609.367C111.435 607.879 123.284 606.196 135.095 604.427C142.685 603.289 150.448 601.612 158.125 601.504C179.195 601.21 200.101 603.884 221.102 605.182C241.536 606.444 262.416 606.267 282.86 605.53C286.479 605.4 290.094 605.311 293.695 604.908C294.672 604.798 296.111 604.775 296.94 604.252L297.214 604.022C300.211 603.098 304.588 603.295 307.757 603.054C314.692 602.528 321.644 601.985 328.557 601.226C340.727 599.889 352.953 597.197 365.143 596.445Z"/>
	<path fill="#FE4919" transform="scale(0.666667 0.666667)" d="M198.222 453.495C206.98 452.717 215.311 453.434 222.843 458.301C227.429 461.263 232.641 466.756 233.617 472.312C234.194 475.593 232.984 479.349 231.968 482.425C228.634 492.523 223.254 501.733 217.419 510.566C215.521 513.439 213.549 516.252 211.318 518.88C205.285 525.99 198.372 532.641 191.528 538.971C190.679 539.757 188.836 541.834 187.888 542.23C187.37 542.446 185.502 542.222 184.859 542.231C183.079 542.258 181.351 542.45 179.608 542.822C176.866 543.407 174.201 544.401 172.643 546.831L172.875 547.501C176.465 548.965 181.191 546.787 184.849 548.736C186.851 549.802 188.791 552.218 189.298 554.438C189.673 556.081 189.396 557.882 189.032 559.5C187.76 565.159 185.079 571.41 182.213 576.415L181.083 578.072C179.181 580.723 175.977 584.677 172.557 585.1C164.938 586.04 155.535 582.627 149.466 578.17C143.463 573.761 139.835 567.815 138.758 560.436C137.607 552.549 138.693 544.108 140.256 536.363C143.026 522.634 147.59 509.579 153.302 496.816C157.074 488.385 161.083 480.019 166.592 472.559C174.169 462.299 185.605 455.367 198.222 453.495Z"/>
	<path fill="#FE4919" transform="scale(0.666667 0.666667)" d="M335.349 446.062L335.732 445.931C337.386 445.528 339.116 445.824 340.554 446.716C347.142 450.803 340.167 462.868 339.052 468.75C338.187 473.31 338.288 478.741 339.405 483.25C340.835 489.027 344.716 494.142 348.215 498.839C354.606 507.417 361.635 514.981 369.36 522.356C375.478 528.196 381.577 533.729 388.828 538.163L388.152 579.52C380.147 577.063 374.566 567.906 369.704 561.481C367.503 558.572 365.25 555.581 362.057 553.692C356.11 550.173 348.315 550.408 341.658 550.834C338.204 551.055 334.805 551.337 331.457 552.257C325.441 553.91 321.106 557.293 317.996 562.736L317.75 563.174L198.575 552.027L197.127 546.17C200.432 543.696 203.362 540.276 206.32 537.358C211.344 532.4 216.583 527.558 221.201 522.216C230.1 511.754 238.52 496.521 241.626 483.03C243.18 476.282 243.184 471.305 239.438 465.315C233.186 455.319 223.666 450.931 212.589 448.367C214.651 448.116 216.732 447.817 218.812 448.001C229.574 448.95 236.851 456.599 245.25 462.395C257.269 470.689 271.016 471.85 285.21 471.494C291.498 471.337 298.073 470.954 304.267 469.782L304.779 469.683C303.47 471.189 302.429 472.617 301.458 474.375C300.084 476.861 298.461 478.834 296.725 481.073C294.957 483.353 293.888 485.98 294.349 488.908C294.579 490.372 295.274 491.258 296.474 492.081C297.011 492.45 297.2 492.536 297.582 493.085C293.308 495.643 290.236 498.479 288.235 503.163C286.402 507.451 286.794 512.745 288.65 516.965C290.557 521.301 294.044 524.451 298.5 526.015C302.379 527.376 306.583 526.955 310.177 525.022C313.747 523.102 316.087 519.57 317.148 515.726C318.478 510.908 317.932 505.697 315.405 501.375C312.165 495.832 307.555 494.014 301.623 492.447C303.848 491.669 306.933 490.832 308.157 488.612C308.875 487.308 308.964 485.182 308.503 483.779C307.742 481.467 306.185 480.485 304.074 479.518L303.614 479.312C304.119 476.551 304.625 471.988 305.94 469.549C315.089 466.839 323.283 461.173 329.003 453.552C330.844 451.1 332.731 447.73 335.349 446.062Z"/>
	<path fill="#EBD08B" transform="scale(0.666667 0.666667)" d="M310.912 241.688C315.083 241.136 319.895 241.706 324.147 241.73C333.992 241.785 343.837 241.818 353.681 241.864C354.332 249.072 353.942 256.537 354.081 263.784C354.46 283.457 354.383 303.136 354.566 322.812C354.606 327.141 354.593 331.487 354.762 335.812C354.905 339.48 356.354 344.737 354.894 348.086L354.499 349.032L354.346 349.453L354.113 350.062C354.962 350.563 355.098 350.566 356.104 350.521C358.462 350.415 359.759 349.597 361.297 347.787C364.384 344.151 363.279 339.386 362.879 335.068L447.08 334.47L441.939 349.039C435.048 364.088 424.617 376.86 412.802 388.281C399.914 400.738 385.242 411.628 368.283 417.859C348.436 425.152 327.7 426.149 306.789 426.786C287.736 427.366 268.492 427.368 249.734 423.478C236.473 420.727 224.312 415.942 212.081 410.248C205.132 407.086 198.18 403.545 191.845 399.261C184.736 394.452 178.554 388.668 172.433 382.691C168.792 379.136 165.049 375.634 161.642 371.852C160.084 370.123 160.794 367.153 160.911 364.897L148.464 364.698C146.527 362.888 144.97 360.247 143.443 358.067C139.502 352.441 135.461 346.847 132.753 340.504L161.661 340.344L161.583 258.42C166.021 258.442 170.973 258.895 175.351 258.338L175.148 244.088L196.484 244.409C196.416 264.351 196.375 284.293 196.32 304.235C196.303 310.265 196.287 316.295 196.25 322.325C196.227 325.942 196.421 329.74 195.936 333.323L195.874 333.738L310.53 334.463C310.706 311.262 310.589 288.052 310.596 264.85C310.598 259.576 310.59 254.303 310.59 249.03C310.59 247.003 310.236 244.079 310.765 242.176L310.912 241.688Z"/>
	<path transform="scale(0.666667 0.666667)" d="M348.99 353.812C349.807 353.658 349.888 353.647 350.65 353.97C351.058 354.663 351.392 355.209 351.445 356.03C351.592 358.334 350.476 360.951 348.858 362.576C347.51 363.93 346.018 364.73 344.088 364.656C341.641 364.562 340.138 363.139 338.548 361.44C337.489 359.859 336.729 358.37 336.749 356.438L337.5 355.805C341.409 355.54 341.416 358.495 344.438 359.486C346.503 357.96 346.854 355.329 348.99 353.812Z"/>
	<path transform="scale(0.666667 0.666667)" d="M327.94 347.71C330.384 347.627 333.967 347.381 335.995 349.028C336.935 349.791 337.6 350.786 337.688 351.982C335.792 352.643 333.129 352.459 331.099 352.535C329.989 353.874 327.677 356.104 327.443 357.843C327.11 360.319 329.411 362.804 330.773 364.688L330.823 365.649C330.541 365.852 330.41 365.964 330.064 366.115C328.414 366.838 326.73 366.773 325.125 365.969C322.755 364.782 320.833 362.248 320.04 359.748C319.229 357.192 319.514 354.792 320.838 352.442C322.449 349.583 325.014 348.624 327.94 347.71Z"/>
	<path transform="scale(0.666667 0.666667)" d="M341.009 281.062C341.832 281.021 341.671 280.922 342.445 281.438L342.534 286.399C342.583 289.735 342.65 293.104 342.508 296.438C342.483 297.028 342.485 298.655 342.214 299.098C341.974 299.491 341.572 299.759 341.252 300.089C338.027 301.287 333.84 300.769 330.463 300.479C329.638 300.317 329.302 300.007 328.688 299.45C328.203 297.823 328.45 295.839 328.524 294.158C328.715 289.844 329.118 285.476 329.683 281.196L341.009 281.062Z"/>
	<path fill="#E8D6B4" transform="scale(0.666667 0.666667)" d="M335.104 287.438C335.704 287.286 335.511 287.294 336.059 287.289C337.225 287.278 337.225 287.213 338.062 288.063C338.14 289.417 338.228 289.398 337.381 290.438C336.333 290.536 335.831 290.698 334.862 290.25C334.563 289.021 334.689 288.578 335.104 287.438Z"/>
	<path transform="scale(0.666667 0.666667)" d="M229.003 354.938C232.581 354.067 237.763 358.924 240.876 360.562C247.086 363.83 254.775 365.495 261.559 367.132C281.518 371.948 301.54 374.209 322.066 374.268C336.85 374.311 351.514 373.291 365.988 370.147C372.562 368.718 379.103 366.786 385.323 364.213C388.996 362.694 392.439 360.706 396.233 359.494C397.748 359.938 399.621 360.327 400.889 361.299C402.065 362.2 402.232 362.878 402.354 364.312C401.602 365.903 400.613 366.547 399.21 367.523C394.633 369.805 389.658 371.386 384.794 372.952C364.519 379.477 344.007 381.43 322.8 381.446C311.862 381.454 300.877 381.113 290.01 379.812C272.051 377.662 254.016 374.025 237.03 367.72C233.328 366.346 227.688 364.616 225.269 361.287C224.698 360.501 224.58 360.035 224.799 359.062C225.233 357.137 227.453 355.827 229.003 354.938Z"/>
	<path fill="#E7E6E5" transform="scale(0.666667 0.666667)" d="M488.643 599.146L400.472 612.941C397.889 613.192 394.032 613.728 391.945 612C391.386 609.346 392.731 605.057 393.346 602.438C394.958 595.564 397.215 588.841 398.973 582C406.001 554.646 413.553 527.495 421.007 500.258C426.353 480.724 431.532 461.189 437.103 441.717C440.174 430.986 443.08 420.22 446.775 409.683C471.662 407.639 496.535 405.002 521.395 402.629C550.37 399.863 579.392 397.313 608.348 394.393C626.783 392.534 645.206 390.563 663.649 388.786C669.052 388.265 674.467 387.492 679.875 387.082C681.326 386.971 682.832 386.684 684.017 387.562C684.339 392.752 681.936 399.174 680.686 404.239C677.09 418.802 672.997 433.211 669.102 447.692C662.421 472.524 656.205 497.484 649.463 522.299C646.214 534.259 642.54 546.099 639.194 558.032C634.486 558.573 629.811 559.494 625.125 560.193C620.089 560.944 615.081 561.705 610.068 562.6C606.684 563.205 603.163 563.751 600.008 565.164L599.627 565.342C597.715 560.096 595.705 554.024 591.706 549.949C590.694 548.917 589.592 548.211 588.209 547.77C585.986 547.062 583.334 546.964 581.006 546.791C575.821 546.406 570.611 546.416 565.415 546.392C566.228 545.589 568.346 544.968 569.451 544.441C575.13 541.733 579.617 538.007 582.838 532.543C585.726 527.643 586.717 520.298 585.215 514.8L585.025 514.125C583.683 509.277 580.423 504.492 576.021 501.938C570.168 498.541 562.614 498.64 556.244 500.242C548.476 502.932 542.243 507.753 538.548 515.261C535.926 520.589 535.295 527.389 537.215 533.082C539.172 538.886 543.417 541.72 547.726 545.642C545.235 547.596 542.193 548.771 539.406 550.245C533.669 553.279 529.495 557.861 528.747 564.562C527.711 573.84 534.578 582.881 538.056 591.039C527.079 593.129 516.169 595.246 505.099 596.795C501.483 597.301 497.817 598.064 494.171 598.231C495.081 597.858 495.705 597.565 496.467 596.917C495.197 597.095 494.21 597.231 492.954 596.926C492.287 596.674 492.064 596.411 491.371 596.654L488.754 597.493C488.737 598.021 488.787 598.639 488.643 599.146Z"/>
	<path transform="scale(0.666667 0.666667)" d="M581.408 427.688L582.188 427.966C582.293 428.35 582.312 428.344 582.325 428.812C582.384 430.854 579.254 440.647 577.907 441.938C575.589 444.157 560.891 445.392 557.438 445.553L556.38 445.338L556.082 444.562C556.662 439.855 557.832 435.74 559.853 431.446C566.52 429.475 574.511 428.222 581.408 427.688Z"/>
	<path transform="scale(0.666667 0.666667)" d="M541.626 485.14C541.488 482.644 541.194 480.215 542.903 478.145C543.457 477.475 544.138 477.026 544.954 476.732C547.932 475.66 551.635 475.452 554.772 475.008C558.409 474.493 562.421 473.647 566.062 473.543C567.316 473.507 567.664 473.698 568.532 474.562C569.075 476.474 568.282 477.904 567.356 479.559C565.104 483.586 562.446 487.905 558.721 490.738C557.462 491.695 556.053 492.244 554.75 493.101C552.69 493.217 550.805 493.267 548.812 492.601C545.079 491.352 543.261 488.466 541.626 485.14Z"/>
	<path fill="#E7E6E5" transform="scale(0.666667 0.666667)" d="M564.033 477.562L565.312 477.521L564.947 478.395C563.089 482.093 558.937 487.991 554.818 489.302C552.313 490.098 550.185 489.857 547.866 488.682L546.354 486.938C545.183 485.392 544.655 483.474 544.967 481.565C547.406 479.352 560.234 478.317 564.033 477.562Z"/>
	<path transform="scale(0.666667 0.666667)" d="M498.38 576.333C500.367 576.296 501.807 576.109 503.438 577.411L503.868 577.74C505.8 579.262 507.226 581.408 507.533 583.875C507.829 586.252 507.092 588.742 505.613 590.616C504.036 592.614 502.137 593.95 499.93 595.153C499.421 595.43 496.578 596.695 496.467 596.917C495.197 597.095 494.21 597.231 492.954 596.926C492.287 596.674 492.064 596.411 491.371 596.654L488.754 597.493C490.037 592.757 491.878 587.635 494.184 583.312L493.614 582.594C489.998 582.906 486.39 583.438 482.774 583.782C477.595 584.276 472.18 584.67 467.137 585.972C463.653 589.159 471.454 596.235 471.274 599.812C469.974 600.112 469.105 599.911 467.969 599.238C464.662 597.278 462.701 593.521 461.872 589.883C461.403 587.826 461.309 584.967 462.569 583.199C463.246 582.249 464.003 581.684 465.108 581.314C468.357 580.226 472.166 579.966 475.557 579.465C483.154 578.343 490.776 577.409 498.38 576.333Z"/>
	<path fill="#C0C2C3" transform="scale(0.666667 0.666667)" d="M493.614 582.594C495.453 582.345 499.009 581.782 500.438 583.077C501.322 583.878 501.355 584.841 501.427 585.938C499.81 589.999 495.307 592.362 493.302 596.26L492.954 596.926C492.287 596.674 492.064 596.411 491.371 596.654L488.754 597.493C490.037 592.757 491.878 587.635 494.184 583.312L493.614 582.594Z"/>
	<defs>
		<linearGradient id="gradient_4" gradientUnits="userSpaceOnUse" x1="498.56201" y1="596.81201" x2="508.98401" y2="483.91901">
			<stop offset="0" stop-color="#939292"/>
			<stop offset="1" stop-color="#AFAFB0"/>
		</linearGradient>
	</defs>
	<path fill="url(#gradient_4)" transform="scale(0.666667 0.666667)" d="M541.626 485.14C543.261 488.466 545.079 491.352 548.812 492.601C550.805 493.267 552.69 493.217 554.75 493.101L554.44 493.275C553.098 494.009 552.206 494.084 550.684 494.062C550.807 494.886 551.065 495.387 551.434 496.125C551.815 496.888 551.849 497.344 551.812 498.191L552.184 498.75L552.188 500.066C552.958 500.58 552.525 500.442 553.5 500.438L553.875 500.066C554.602 499.583 555.512 500.017 556.244 500.242C548.476 502.932 542.243 507.753 538.548 515.261C535.926 520.589 535.295 527.389 537.215 533.082C539.172 538.886 543.417 541.72 547.726 545.642C545.235 547.596 542.193 548.771 539.406 550.245C533.669 553.279 529.495 557.861 528.747 564.562C527.711 573.84 534.578 582.881 538.056 591.039C527.079 593.129 516.169 595.246 505.099 596.795C501.483 597.301 497.817 598.064 494.171 598.231C495.081 597.858 495.705 597.565 496.467 596.917C496.578 596.695 499.421 595.43 499.93 595.153C502.137 593.95 504.036 592.614 505.613 590.616C507.092 588.742 507.829 586.252 507.533 583.875C507.226 581.408 505.8 579.262 503.868 577.74L503.438 577.411C501.807 576.109 500.367 576.296 498.38 576.333C499.721 575.284 500.501 572.598 501.158 571.013C502.923 566.753 504.592 562.446 506.607 558.294C510.511 550.247 516.583 542.457 519.299 533.981C521.272 527.822 520.487 521.264 522.943 515.109C525.537 508.611 529.553 503.175 533.191 497.283C535.223 493.993 538.043 491.152 539.931 487.8L541.626 485.14Z"/>
</svg>
